%FSLAX34Y34*%
G04 Gerber Fmt 3.4, Leading zero omitted, Abs format*
G04 (created by PCBNEW (2014-06-11 BZR 4938)-product) date Thu 12 Jun 2014 09:05:45 AM CEST*
%MOIN*%
G01*
G70*
G90*
G04 APERTURE LIST*
%ADD10C,0.005906*%
%ADD11C,0.007874*%
%ADD12C,0.011811*%
%ADD13C,0.013780*%
%ADD14C,0.015748*%
%ADD15C,0.039370*%
%ADD16C,0.064961*%
%ADD17R,0.064961X0.064961*%
%ADD18C,0.125984*%
G04 APERTURE END LIST*
G54D10*
G54D11*
X10851Y-41660D02*
X10648Y-41660D01*
X10750Y-41660D02*
X10750Y-41305D01*
X10716Y-41356D01*
X10682Y-41390D01*
X10648Y-41407D01*
X14834Y-41305D02*
X14665Y-41305D01*
X14648Y-41474D01*
X14665Y-41457D01*
X14699Y-41440D01*
X14783Y-41440D01*
X14817Y-41457D01*
X14834Y-41474D01*
X14851Y-41508D01*
X14851Y-41592D01*
X14834Y-41626D01*
X14817Y-41643D01*
X14783Y-41660D01*
X14699Y-41660D01*
X14665Y-41643D01*
X14648Y-41626D01*
X19682Y-41660D02*
X19480Y-41660D01*
X19581Y-41660D02*
X19581Y-41305D01*
X19547Y-41356D01*
X19513Y-41390D01*
X19480Y-41407D01*
X19901Y-41305D02*
X19935Y-41305D01*
X19969Y-41322D01*
X19986Y-41339D01*
X20003Y-41373D01*
X20019Y-41440D01*
X20019Y-41525D01*
X20003Y-41592D01*
X19986Y-41626D01*
X19969Y-41643D01*
X19935Y-41660D01*
X19901Y-41660D01*
X19868Y-41643D01*
X19851Y-41626D01*
X19834Y-41592D01*
X19817Y-41525D01*
X19817Y-41440D01*
X19834Y-41373D01*
X19851Y-41339D01*
X19868Y-41322D01*
X19901Y-41305D01*
X24682Y-41660D02*
X24480Y-41660D01*
X24581Y-41660D02*
X24581Y-41305D01*
X24547Y-41356D01*
X24513Y-41390D01*
X24480Y-41407D01*
X25003Y-41305D02*
X24834Y-41305D01*
X24817Y-41474D01*
X24834Y-41457D01*
X24868Y-41440D01*
X24952Y-41440D01*
X24986Y-41457D01*
X25003Y-41474D01*
X25019Y-41508D01*
X25019Y-41592D01*
X25003Y-41626D01*
X24986Y-41643D01*
X24952Y-41660D01*
X24868Y-41660D01*
X24834Y-41643D01*
X24817Y-41626D01*
X29480Y-41339D02*
X29496Y-41322D01*
X29530Y-41305D01*
X29615Y-41305D01*
X29648Y-41322D01*
X29665Y-41339D01*
X29682Y-41373D01*
X29682Y-41407D01*
X29665Y-41457D01*
X29463Y-41660D01*
X29682Y-41660D01*
X29901Y-41305D02*
X29935Y-41305D01*
X29969Y-41322D01*
X29986Y-41339D01*
X30003Y-41373D01*
X30019Y-41440D01*
X30019Y-41525D01*
X30003Y-41592D01*
X29986Y-41626D01*
X29969Y-41643D01*
X29935Y-41660D01*
X29901Y-41660D01*
X29868Y-41643D01*
X29851Y-41626D01*
X29834Y-41592D01*
X29817Y-41525D01*
X29817Y-41440D01*
X29834Y-41373D01*
X29851Y-41339D01*
X29868Y-41322D01*
X29901Y-41305D01*
X34480Y-41339D02*
X34496Y-41322D01*
X34530Y-41305D01*
X34615Y-41305D01*
X34648Y-41322D01*
X34665Y-41339D01*
X34682Y-41373D01*
X34682Y-41407D01*
X34665Y-41457D01*
X34463Y-41660D01*
X34682Y-41660D01*
X35003Y-41305D02*
X34834Y-41305D01*
X34817Y-41474D01*
X34834Y-41457D01*
X34868Y-41440D01*
X34952Y-41440D01*
X34986Y-41457D01*
X35003Y-41474D01*
X35019Y-41508D01*
X35019Y-41592D01*
X35003Y-41626D01*
X34986Y-41643D01*
X34952Y-41660D01*
X34868Y-41660D01*
X34834Y-41643D01*
X34817Y-41626D01*
X39463Y-41305D02*
X39682Y-41305D01*
X39564Y-41440D01*
X39615Y-41440D01*
X39648Y-41457D01*
X39665Y-41474D01*
X39682Y-41508D01*
X39682Y-41592D01*
X39665Y-41626D01*
X39648Y-41643D01*
X39615Y-41660D01*
X39513Y-41660D01*
X39480Y-41643D01*
X39463Y-41626D01*
X39901Y-41305D02*
X39935Y-41305D01*
X39969Y-41322D01*
X39986Y-41339D01*
X40003Y-41373D01*
X40019Y-41440D01*
X40019Y-41525D01*
X40003Y-41592D01*
X39986Y-41626D01*
X39969Y-41643D01*
X39935Y-41660D01*
X39901Y-41660D01*
X39868Y-41643D01*
X39851Y-41626D01*
X39834Y-41592D01*
X39817Y-41525D01*
X39817Y-41440D01*
X39834Y-41373D01*
X39851Y-41339D01*
X39868Y-41322D01*
X39901Y-41305D01*
X44463Y-41305D02*
X44682Y-41305D01*
X44564Y-41440D01*
X44615Y-41440D01*
X44648Y-41457D01*
X44665Y-41474D01*
X44682Y-41508D01*
X44682Y-41592D01*
X44665Y-41626D01*
X44648Y-41643D01*
X44615Y-41660D01*
X44513Y-41660D01*
X44480Y-41643D01*
X44463Y-41626D01*
X45003Y-41305D02*
X44834Y-41305D01*
X44817Y-41474D01*
X44834Y-41457D01*
X44868Y-41440D01*
X44952Y-41440D01*
X44986Y-41457D01*
X45003Y-41474D01*
X45019Y-41508D01*
X45019Y-41592D01*
X45003Y-41626D01*
X44986Y-41643D01*
X44952Y-41660D01*
X44868Y-41660D01*
X44834Y-41643D01*
X44817Y-41626D01*
X44463Y-28305D02*
X44682Y-28305D01*
X44564Y-28440D01*
X44615Y-28440D01*
X44648Y-28457D01*
X44665Y-28474D01*
X44682Y-28508D01*
X44682Y-28592D01*
X44665Y-28626D01*
X44648Y-28643D01*
X44615Y-28660D01*
X44513Y-28660D01*
X44480Y-28643D01*
X44463Y-28626D01*
X45003Y-28305D02*
X44834Y-28305D01*
X44817Y-28474D01*
X44834Y-28457D01*
X44868Y-28440D01*
X44952Y-28440D01*
X44986Y-28457D01*
X45003Y-28474D01*
X45019Y-28508D01*
X45019Y-28592D01*
X45003Y-28626D01*
X44986Y-28643D01*
X44952Y-28660D01*
X44868Y-28660D01*
X44834Y-28643D01*
X44817Y-28626D01*
X39463Y-28305D02*
X39682Y-28305D01*
X39564Y-28440D01*
X39615Y-28440D01*
X39648Y-28457D01*
X39665Y-28474D01*
X39682Y-28508D01*
X39682Y-28592D01*
X39665Y-28626D01*
X39648Y-28643D01*
X39615Y-28660D01*
X39513Y-28660D01*
X39480Y-28643D01*
X39463Y-28626D01*
X39901Y-28305D02*
X39935Y-28305D01*
X39969Y-28322D01*
X39986Y-28339D01*
X40003Y-28373D01*
X40019Y-28440D01*
X40019Y-28525D01*
X40003Y-28592D01*
X39986Y-28626D01*
X39969Y-28643D01*
X39935Y-28660D01*
X39901Y-28660D01*
X39868Y-28643D01*
X39851Y-28626D01*
X39834Y-28592D01*
X39817Y-28525D01*
X39817Y-28440D01*
X39834Y-28373D01*
X39851Y-28339D01*
X39868Y-28322D01*
X39901Y-28305D01*
X34480Y-28339D02*
X34496Y-28322D01*
X34530Y-28305D01*
X34615Y-28305D01*
X34648Y-28322D01*
X34665Y-28339D01*
X34682Y-28373D01*
X34682Y-28407D01*
X34665Y-28457D01*
X34463Y-28660D01*
X34682Y-28660D01*
X35003Y-28305D02*
X34834Y-28305D01*
X34817Y-28474D01*
X34834Y-28457D01*
X34868Y-28440D01*
X34952Y-28440D01*
X34986Y-28457D01*
X35003Y-28474D01*
X35019Y-28508D01*
X35019Y-28592D01*
X35003Y-28626D01*
X34986Y-28643D01*
X34952Y-28660D01*
X34868Y-28660D01*
X34834Y-28643D01*
X34817Y-28626D01*
X29480Y-28339D02*
X29496Y-28322D01*
X29530Y-28305D01*
X29615Y-28305D01*
X29648Y-28322D01*
X29665Y-28339D01*
X29682Y-28373D01*
X29682Y-28407D01*
X29665Y-28457D01*
X29463Y-28660D01*
X29682Y-28660D01*
X29901Y-28305D02*
X29935Y-28305D01*
X29969Y-28322D01*
X29986Y-28339D01*
X30003Y-28373D01*
X30019Y-28440D01*
X30019Y-28525D01*
X30003Y-28592D01*
X29986Y-28626D01*
X29969Y-28643D01*
X29935Y-28660D01*
X29901Y-28660D01*
X29868Y-28643D01*
X29851Y-28626D01*
X29834Y-28592D01*
X29817Y-28525D01*
X29817Y-28440D01*
X29834Y-28373D01*
X29851Y-28339D01*
X29868Y-28322D01*
X29901Y-28305D01*
X24682Y-28660D02*
X24480Y-28660D01*
X24581Y-28660D02*
X24581Y-28305D01*
X24547Y-28356D01*
X24513Y-28390D01*
X24480Y-28407D01*
X25003Y-28305D02*
X24834Y-28305D01*
X24817Y-28474D01*
X24834Y-28457D01*
X24868Y-28440D01*
X24952Y-28440D01*
X24986Y-28457D01*
X25003Y-28474D01*
X25019Y-28508D01*
X25019Y-28592D01*
X25003Y-28626D01*
X24986Y-28643D01*
X24952Y-28660D01*
X24868Y-28660D01*
X24834Y-28643D01*
X24817Y-28626D01*
X19682Y-28660D02*
X19480Y-28660D01*
X19581Y-28660D02*
X19581Y-28305D01*
X19547Y-28356D01*
X19513Y-28390D01*
X19480Y-28407D01*
X19901Y-28305D02*
X19935Y-28305D01*
X19969Y-28322D01*
X19986Y-28339D01*
X20003Y-28373D01*
X20019Y-28440D01*
X20019Y-28525D01*
X20003Y-28592D01*
X19986Y-28626D01*
X19969Y-28643D01*
X19935Y-28660D01*
X19901Y-28660D01*
X19868Y-28643D01*
X19851Y-28626D01*
X19834Y-28592D01*
X19817Y-28525D01*
X19817Y-28440D01*
X19834Y-28373D01*
X19851Y-28339D01*
X19868Y-28322D01*
X19901Y-28305D01*
X14834Y-28305D02*
X14665Y-28305D01*
X14648Y-28474D01*
X14665Y-28457D01*
X14699Y-28440D01*
X14783Y-28440D01*
X14817Y-28457D01*
X14834Y-28474D01*
X14851Y-28508D01*
X14851Y-28592D01*
X14834Y-28626D01*
X14817Y-28643D01*
X14783Y-28660D01*
X14699Y-28660D01*
X14665Y-28643D01*
X14648Y-28626D01*
X10851Y-28660D02*
X10648Y-28660D01*
X10750Y-28660D02*
X10750Y-28305D01*
X10716Y-28356D01*
X10682Y-28390D01*
X10648Y-28407D01*
G54D12*
X44750Y-35500D02*
X44750Y-36000D01*
X44750Y-34000D02*
X44750Y-34500D01*
X39750Y-34000D02*
X39750Y-34500D01*
X39750Y-35500D02*
X39750Y-36000D01*
X34750Y-35500D02*
X34750Y-36000D01*
X34750Y-34000D02*
X34750Y-34500D01*
X29750Y-34000D02*
X29750Y-34500D01*
X29750Y-35500D02*
X29750Y-36000D01*
X24750Y-35500D02*
X24750Y-36000D01*
X24750Y-34000D02*
X24750Y-34500D01*
X19750Y-35500D02*
X19750Y-36000D01*
X19750Y-34000D02*
X19750Y-34500D01*
X10750Y-34000D02*
X10750Y-34500D01*
X10750Y-35500D02*
X10750Y-36000D01*
X14750Y-35500D02*
X14750Y-36000D01*
X14750Y-34000D02*
X14750Y-34500D01*
G54D13*
X44271Y-34676D02*
X44637Y-34676D01*
X44440Y-34901D01*
X44525Y-34901D01*
X44581Y-34929D01*
X44609Y-34957D01*
X44637Y-35014D01*
X44637Y-35154D01*
X44609Y-35210D01*
X44581Y-35239D01*
X44525Y-35267D01*
X44356Y-35267D01*
X44300Y-35239D01*
X44271Y-35210D01*
X45171Y-34676D02*
X44890Y-34676D01*
X44862Y-34957D01*
X44890Y-34929D01*
X44946Y-34901D01*
X45087Y-34901D01*
X45143Y-34929D01*
X45171Y-34957D01*
X45199Y-35014D01*
X45199Y-35154D01*
X45171Y-35210D01*
X45143Y-35239D01*
X45087Y-35267D01*
X44946Y-35267D01*
X44890Y-35239D01*
X44862Y-35210D01*
X39271Y-34676D02*
X39637Y-34676D01*
X39440Y-34901D01*
X39525Y-34901D01*
X39581Y-34929D01*
X39609Y-34957D01*
X39637Y-35014D01*
X39637Y-35154D01*
X39609Y-35210D01*
X39581Y-35239D01*
X39525Y-35267D01*
X39356Y-35267D01*
X39300Y-35239D01*
X39271Y-35210D01*
X40003Y-34676D02*
X40059Y-34676D01*
X40115Y-34704D01*
X40143Y-34732D01*
X40171Y-34789D01*
X40199Y-34901D01*
X40199Y-35042D01*
X40171Y-35154D01*
X40143Y-35210D01*
X40115Y-35239D01*
X40059Y-35267D01*
X40003Y-35267D01*
X39946Y-35239D01*
X39918Y-35210D01*
X39890Y-35154D01*
X39862Y-35042D01*
X39862Y-34901D01*
X39890Y-34789D01*
X39918Y-34732D01*
X39946Y-34704D01*
X40003Y-34676D01*
X34300Y-34732D02*
X34328Y-34704D01*
X34384Y-34676D01*
X34525Y-34676D01*
X34581Y-34704D01*
X34609Y-34732D01*
X34637Y-34789D01*
X34637Y-34845D01*
X34609Y-34929D01*
X34271Y-35267D01*
X34637Y-35267D01*
X35171Y-34676D02*
X34890Y-34676D01*
X34862Y-34957D01*
X34890Y-34929D01*
X34946Y-34901D01*
X35087Y-34901D01*
X35143Y-34929D01*
X35171Y-34957D01*
X35199Y-35014D01*
X35199Y-35154D01*
X35171Y-35210D01*
X35143Y-35239D01*
X35087Y-35267D01*
X34946Y-35267D01*
X34890Y-35239D01*
X34862Y-35210D01*
X29300Y-34732D02*
X29328Y-34704D01*
X29384Y-34676D01*
X29525Y-34676D01*
X29581Y-34704D01*
X29609Y-34732D01*
X29637Y-34789D01*
X29637Y-34845D01*
X29609Y-34929D01*
X29271Y-35267D01*
X29637Y-35267D01*
X30003Y-34676D02*
X30059Y-34676D01*
X30115Y-34704D01*
X30143Y-34732D01*
X30171Y-34789D01*
X30199Y-34901D01*
X30199Y-35042D01*
X30171Y-35154D01*
X30143Y-35210D01*
X30115Y-35239D01*
X30059Y-35267D01*
X30003Y-35267D01*
X29946Y-35239D01*
X29918Y-35210D01*
X29890Y-35154D01*
X29862Y-35042D01*
X29862Y-34901D01*
X29890Y-34789D01*
X29918Y-34732D01*
X29946Y-34704D01*
X30003Y-34676D01*
X24637Y-35267D02*
X24300Y-35267D01*
X24468Y-35267D02*
X24468Y-34676D01*
X24412Y-34760D01*
X24356Y-34817D01*
X24300Y-34845D01*
X25171Y-34676D02*
X24890Y-34676D01*
X24862Y-34957D01*
X24890Y-34929D01*
X24946Y-34901D01*
X25087Y-34901D01*
X25143Y-34929D01*
X25171Y-34957D01*
X25199Y-35014D01*
X25199Y-35154D01*
X25171Y-35210D01*
X25143Y-35239D01*
X25087Y-35267D01*
X24946Y-35267D01*
X24890Y-35239D01*
X24862Y-35210D01*
X19637Y-35267D02*
X19300Y-35267D01*
X19468Y-35267D02*
X19468Y-34676D01*
X19412Y-34760D01*
X19356Y-34817D01*
X19300Y-34845D01*
X20003Y-34676D02*
X20059Y-34676D01*
X20115Y-34704D01*
X20143Y-34732D01*
X20171Y-34789D01*
X20199Y-34901D01*
X20199Y-35042D01*
X20171Y-35154D01*
X20143Y-35210D01*
X20115Y-35239D01*
X20059Y-35267D01*
X20003Y-35267D01*
X19946Y-35239D01*
X19918Y-35210D01*
X19890Y-35154D01*
X19862Y-35042D01*
X19862Y-34901D01*
X19890Y-34789D01*
X19918Y-34732D01*
X19946Y-34704D01*
X20003Y-34676D01*
X14890Y-34676D02*
X14609Y-34676D01*
X14581Y-34957D01*
X14609Y-34929D01*
X14665Y-34901D01*
X14806Y-34901D01*
X14862Y-34929D01*
X14890Y-34957D01*
X14918Y-35014D01*
X14918Y-35154D01*
X14890Y-35210D01*
X14862Y-35239D01*
X14806Y-35267D01*
X14665Y-35267D01*
X14609Y-35239D01*
X14581Y-35210D01*
X10918Y-35267D02*
X10581Y-35267D01*
X10750Y-35267D02*
X10750Y-34676D01*
X10693Y-34760D01*
X10637Y-34817D01*
X10581Y-34845D01*
G54D14*
X27250Y-42750D02*
X27250Y-43250D01*
X27250Y-26750D02*
X27250Y-27250D01*
G54D13*
X45459Y-29648D02*
X45740Y-29648D01*
X45403Y-29817D02*
X45600Y-29226D01*
X45796Y-29817D01*
X45642Y-30507D02*
X45726Y-30535D01*
X45754Y-30564D01*
X45782Y-30620D01*
X45782Y-30704D01*
X45754Y-30760D01*
X45726Y-30789D01*
X45670Y-30817D01*
X45445Y-30817D01*
X45445Y-30226D01*
X45642Y-30226D01*
X45698Y-30254D01*
X45726Y-30282D01*
X45754Y-30339D01*
X45754Y-30395D01*
X45726Y-30451D01*
X45698Y-30479D01*
X45642Y-30507D01*
X45445Y-30507D01*
X45782Y-31760D02*
X45754Y-31789D01*
X45670Y-31817D01*
X45614Y-31817D01*
X45529Y-31789D01*
X45473Y-31732D01*
X45445Y-31676D01*
X45417Y-31564D01*
X45417Y-31479D01*
X45445Y-31367D01*
X45473Y-31310D01*
X45529Y-31254D01*
X45614Y-31226D01*
X45670Y-31226D01*
X45754Y-31254D01*
X45782Y-31282D01*
X45445Y-32817D02*
X45445Y-32226D01*
X45585Y-32226D01*
X45670Y-32254D01*
X45726Y-32310D01*
X45754Y-32367D01*
X45782Y-32479D01*
X45782Y-32564D01*
X45754Y-32676D01*
X45726Y-32732D01*
X45670Y-32789D01*
X45585Y-32817D01*
X45445Y-32817D01*
X45473Y-33507D02*
X45670Y-33507D01*
X45754Y-33817D02*
X45473Y-33817D01*
X45473Y-33226D01*
X45754Y-33226D01*
X45684Y-36507D02*
X45487Y-36507D01*
X45487Y-36817D02*
X45487Y-36226D01*
X45768Y-36226D01*
X45754Y-37254D02*
X45698Y-37226D01*
X45614Y-37226D01*
X45529Y-37254D01*
X45473Y-37310D01*
X45445Y-37367D01*
X45417Y-37479D01*
X45417Y-37564D01*
X45445Y-37676D01*
X45473Y-37732D01*
X45529Y-37789D01*
X45614Y-37817D01*
X45670Y-37817D01*
X45754Y-37789D01*
X45782Y-37760D01*
X45782Y-37564D01*
X45670Y-37564D01*
X45431Y-38817D02*
X45431Y-38226D01*
X45431Y-38507D02*
X45768Y-38507D01*
X45768Y-38817D02*
X45768Y-38226D01*
X45600Y-39817D02*
X45600Y-39226D01*
X45684Y-40226D02*
X45684Y-40648D01*
X45656Y-40732D01*
X45600Y-40789D01*
X45515Y-40817D01*
X45459Y-40817D01*
X9984Y-40176D02*
X9984Y-40598D01*
X9956Y-40682D01*
X9900Y-40739D01*
X9815Y-40767D01*
X9759Y-40767D01*
X9900Y-39767D02*
X9900Y-39176D01*
X9731Y-38767D02*
X9731Y-38176D01*
X9731Y-38457D02*
X10068Y-38457D01*
X10068Y-38767D02*
X10068Y-38176D01*
X10054Y-37204D02*
X9998Y-37176D01*
X9914Y-37176D01*
X9829Y-37204D01*
X9773Y-37260D01*
X9745Y-37317D01*
X9717Y-37429D01*
X9717Y-37514D01*
X9745Y-37626D01*
X9773Y-37682D01*
X9829Y-37739D01*
X9914Y-37767D01*
X9970Y-37767D01*
X10054Y-37739D01*
X10082Y-37710D01*
X10082Y-37514D01*
X9970Y-37514D01*
X9984Y-36457D02*
X9787Y-36457D01*
X9787Y-36767D02*
X9787Y-36176D01*
X10068Y-36176D01*
X9773Y-33457D02*
X9970Y-33457D01*
X10054Y-33767D02*
X9773Y-33767D01*
X9773Y-33176D01*
X10054Y-33176D01*
X9745Y-32767D02*
X9745Y-32176D01*
X9885Y-32176D01*
X9970Y-32204D01*
X10026Y-32260D01*
X10054Y-32317D01*
X10082Y-32429D01*
X10082Y-32514D01*
X10054Y-32626D01*
X10026Y-32682D01*
X9970Y-32739D01*
X9885Y-32767D01*
X9745Y-32767D01*
X10082Y-31710D02*
X10054Y-31739D01*
X9970Y-31767D01*
X9914Y-31767D01*
X9829Y-31739D01*
X9773Y-31682D01*
X9745Y-31626D01*
X9717Y-31514D01*
X9717Y-31429D01*
X9745Y-31317D01*
X9773Y-31260D01*
X9829Y-31204D01*
X9914Y-31176D01*
X9970Y-31176D01*
X10054Y-31204D01*
X10082Y-31232D01*
X9942Y-30457D02*
X10026Y-30485D01*
X10054Y-30514D01*
X10082Y-30570D01*
X10082Y-30654D01*
X10054Y-30710D01*
X10026Y-30739D01*
X9970Y-30767D01*
X9745Y-30767D01*
X9745Y-30176D01*
X9942Y-30176D01*
X9998Y-30204D01*
X10026Y-30232D01*
X10054Y-30289D01*
X10054Y-30345D01*
X10026Y-30401D01*
X9998Y-30429D01*
X9942Y-30457D01*
X9745Y-30457D01*
X9759Y-29598D02*
X10040Y-29598D01*
X9703Y-29767D02*
X9900Y-29176D01*
X10096Y-29767D01*
X45824Y-42492D02*
X45375Y-42492D01*
X45600Y-42717D02*
X45600Y-42267D01*
X45824Y-43492D02*
X45375Y-43492D01*
X10124Y-43492D02*
X9675Y-43492D01*
X10124Y-42492D02*
X9675Y-42492D01*
X9900Y-42717D02*
X9900Y-42267D01*
X45824Y-26492D02*
X45375Y-26492D01*
X45600Y-26717D02*
X45600Y-26267D01*
X45824Y-27492D02*
X45375Y-27492D01*
X10124Y-27492D02*
X9675Y-27492D01*
X10124Y-26492D02*
X9675Y-26492D01*
X9900Y-26717D02*
X9900Y-26267D01*
G54D14*
X27750Y-43000D02*
X45000Y-43000D01*
X10500Y-43000D02*
X26750Y-43000D01*
X27750Y-27000D02*
X45000Y-27000D01*
X10500Y-27000D02*
X26750Y-27000D01*
%LPC*%
G54D15*
X26500Y-44000D03*
X28000Y-44000D03*
X28500Y-44000D03*
X29000Y-44000D03*
X29500Y-44000D03*
X30000Y-44000D03*
X26500Y-42000D03*
X28000Y-42000D03*
X28500Y-42000D03*
X29000Y-42000D03*
X29500Y-42000D03*
X30000Y-42000D03*
X26500Y-28000D03*
X28000Y-28000D03*
X28500Y-28000D03*
X29000Y-28000D03*
X29500Y-28000D03*
X30000Y-28000D03*
X26500Y-26000D03*
X28000Y-26000D03*
X28500Y-26000D03*
X29000Y-26000D03*
X29500Y-26000D03*
X30000Y-26000D03*
G54D16*
X10750Y-33500D03*
X11750Y-33500D03*
X12750Y-33500D03*
X13750Y-33500D03*
G54D17*
X14750Y-33500D03*
G54D16*
X15750Y-33500D03*
X16750Y-33500D03*
X17750Y-33500D03*
G54D18*
X46062Y-35000D03*
X9448Y-35000D03*
G54D15*
X26500Y-32000D03*
X27000Y-32000D03*
X27500Y-32000D03*
X28000Y-32000D03*
X28500Y-32000D03*
X29000Y-32000D03*
X29500Y-32000D03*
X30000Y-32000D03*
G54D17*
X34750Y-38500D03*
G54D16*
X35750Y-38500D03*
X36750Y-38500D03*
X37750Y-38500D03*
X38750Y-38500D03*
G54D10*
G36*
X39425Y-38824D02*
X39425Y-38175D01*
X40074Y-38175D01*
X40074Y-38824D01*
X39425Y-38824D01*
X39425Y-38824D01*
G37*
G54D16*
X40750Y-38500D03*
X41750Y-38500D03*
X26750Y-38500D03*
X27750Y-38500D03*
X28750Y-38500D03*
G54D17*
X29750Y-38500D03*
G54D16*
X30750Y-38500D03*
X31750Y-38500D03*
X32750Y-38500D03*
X33750Y-38500D03*
X10750Y-40500D03*
X11750Y-40500D03*
X12750Y-40500D03*
X13750Y-40500D03*
G54D17*
X14750Y-40500D03*
G54D16*
X15750Y-40500D03*
X16750Y-40500D03*
X17750Y-40500D03*
G54D17*
X34750Y-31500D03*
G54D16*
X35750Y-31500D03*
X36750Y-31500D03*
X37750Y-31500D03*
X38750Y-31500D03*
G54D17*
X39750Y-31500D03*
G54D16*
X40750Y-31500D03*
X41750Y-31500D03*
X26750Y-30500D03*
X27750Y-30500D03*
X28750Y-30500D03*
G54D17*
X29750Y-30500D03*
G54D16*
X30750Y-30500D03*
X31750Y-30500D03*
X32750Y-30500D03*
X33750Y-30500D03*
X18750Y-30500D03*
G54D17*
X19750Y-30500D03*
G54D16*
X20750Y-30500D03*
X21750Y-30500D03*
X22750Y-30500D03*
X23750Y-30500D03*
G54D17*
X24750Y-30500D03*
G54D16*
X25750Y-30500D03*
X42750Y-32500D03*
X43750Y-32500D03*
G54D10*
G36*
X44425Y-32824D02*
X44425Y-32175D01*
X45074Y-32175D01*
X45074Y-32824D01*
X44425Y-32824D01*
X44425Y-32824D01*
G37*
G54D16*
X42750Y-31500D03*
X43750Y-31500D03*
G54D17*
X44750Y-31500D03*
G54D16*
X42750Y-30500D03*
X43750Y-30500D03*
G54D17*
X44750Y-30500D03*
G54D16*
X42750Y-29500D03*
X43750Y-29500D03*
G54D17*
X44750Y-29500D03*
G54D16*
X42750Y-27500D03*
X43750Y-27500D03*
G54D17*
X44750Y-27500D03*
G54D16*
X42750Y-26500D03*
X43750Y-26500D03*
G54D17*
X44750Y-26500D03*
G54D16*
X42750Y-33500D03*
X43750Y-33500D03*
G54D10*
G36*
X44425Y-33824D02*
X44425Y-33175D01*
X45074Y-33175D01*
X45074Y-33824D01*
X44425Y-33824D01*
X44425Y-33824D01*
G37*
G54D16*
X42750Y-40500D03*
X43750Y-40500D03*
G54D17*
X44750Y-40500D03*
G54D16*
X42750Y-39500D03*
X43750Y-39500D03*
G54D17*
X44750Y-39500D03*
G54D16*
X42750Y-38500D03*
X43750Y-38500D03*
G54D17*
X44750Y-38500D03*
G54D16*
X42750Y-37500D03*
X43750Y-37500D03*
G54D17*
X44750Y-37500D03*
G54D16*
X42750Y-36500D03*
X43750Y-36500D03*
G54D17*
X44750Y-36500D03*
G54D16*
X42750Y-43500D03*
X43750Y-43500D03*
G54D17*
X44750Y-43500D03*
G54D16*
X42750Y-42500D03*
X43750Y-42500D03*
G54D17*
X44750Y-42500D03*
G54D15*
X42500Y-26000D03*
X43000Y-26000D03*
X43500Y-26000D03*
X44000Y-26000D03*
X44500Y-26000D03*
X45000Y-26000D03*
X42500Y-28000D03*
X43000Y-28000D03*
X43500Y-28000D03*
X44000Y-28000D03*
X44500Y-28000D03*
X45000Y-28000D03*
X42500Y-29000D03*
X43000Y-29000D03*
X43500Y-29000D03*
X44000Y-29000D03*
X44500Y-29000D03*
X45000Y-29000D03*
X42500Y-30000D03*
X43000Y-30000D03*
X43500Y-30000D03*
X44000Y-30000D03*
X44500Y-30000D03*
X45000Y-30000D03*
X42500Y-31000D03*
X43000Y-31000D03*
X43500Y-31000D03*
X44000Y-31000D03*
X44500Y-31000D03*
X45000Y-31000D03*
X42500Y-32000D03*
X43000Y-32000D03*
X43500Y-32000D03*
X44000Y-32000D03*
X44500Y-32000D03*
X45000Y-32000D03*
X42500Y-33000D03*
X43000Y-33000D03*
X43500Y-33000D03*
X44000Y-33000D03*
X44500Y-33000D03*
X45000Y-33000D03*
X42500Y-44000D03*
X43000Y-44000D03*
X43500Y-44000D03*
X44000Y-44000D03*
X44500Y-44000D03*
X45000Y-44000D03*
X42500Y-42000D03*
X43000Y-42000D03*
X43500Y-42000D03*
X44000Y-42000D03*
X44500Y-42000D03*
X45000Y-42000D03*
X42500Y-41000D03*
X43000Y-41000D03*
X43500Y-41000D03*
X44000Y-41000D03*
X44500Y-41000D03*
X45000Y-41000D03*
X42500Y-40000D03*
X43000Y-40000D03*
X43500Y-40000D03*
X44000Y-40000D03*
X44500Y-40000D03*
X45000Y-40000D03*
X42500Y-39000D03*
X43000Y-39000D03*
X43500Y-39000D03*
X44000Y-39000D03*
X44500Y-39000D03*
X45000Y-39000D03*
X42500Y-38000D03*
X43000Y-38000D03*
X43500Y-38000D03*
X44000Y-38000D03*
X44500Y-38000D03*
X45000Y-38000D03*
X42500Y-37000D03*
X43000Y-37000D03*
X43500Y-37000D03*
X44000Y-37000D03*
X44500Y-37000D03*
X45000Y-37000D03*
X30500Y-29000D03*
X31000Y-29000D03*
X31500Y-29000D03*
X32000Y-29000D03*
X32500Y-29000D03*
X33000Y-29000D03*
X33500Y-29000D03*
X34000Y-29000D03*
G54D16*
X26750Y-33500D03*
X27750Y-33500D03*
X28750Y-33500D03*
G54D17*
X29750Y-33500D03*
G54D16*
X30750Y-33500D03*
X31750Y-33500D03*
X32750Y-33500D03*
X33750Y-33500D03*
X26750Y-29500D03*
X27750Y-29500D03*
X28750Y-29500D03*
G54D17*
X29750Y-29500D03*
G54D16*
X30750Y-29500D03*
X31750Y-29500D03*
X32750Y-29500D03*
X33750Y-29500D03*
X26750Y-31500D03*
X27750Y-31500D03*
X28750Y-31500D03*
G54D17*
X29750Y-31500D03*
G54D16*
X30750Y-31500D03*
X31750Y-31500D03*
X32750Y-31500D03*
X33750Y-31500D03*
X26750Y-32500D03*
X27750Y-32500D03*
X28750Y-32500D03*
G54D17*
X29750Y-32500D03*
G54D16*
X30750Y-32500D03*
X31750Y-32500D03*
X32750Y-32500D03*
X33750Y-32500D03*
X26750Y-36500D03*
X27750Y-36500D03*
X28750Y-36500D03*
G54D17*
X29750Y-36500D03*
G54D16*
X30750Y-36500D03*
X31750Y-36500D03*
X32750Y-36500D03*
X33750Y-36500D03*
X26750Y-40500D03*
X27750Y-40500D03*
X28750Y-40500D03*
G54D17*
X29750Y-40500D03*
G54D16*
X30750Y-40500D03*
X31750Y-40500D03*
X32750Y-40500D03*
X33750Y-40500D03*
X26750Y-39500D03*
X27750Y-39500D03*
X28750Y-39500D03*
G54D17*
X29750Y-39500D03*
G54D16*
X30750Y-39500D03*
X31750Y-39500D03*
X32750Y-39500D03*
X33750Y-39500D03*
X26750Y-37500D03*
X27750Y-37500D03*
X28750Y-37500D03*
G54D17*
X29750Y-37500D03*
G54D16*
X30750Y-37500D03*
X31750Y-37500D03*
X32750Y-37500D03*
X33750Y-37500D03*
G54D15*
X26500Y-29000D03*
X27000Y-29000D03*
X27500Y-29000D03*
X28000Y-29000D03*
X28500Y-29000D03*
X29000Y-29000D03*
X29500Y-29000D03*
X30000Y-29000D03*
X26500Y-30000D03*
X27000Y-30000D03*
X27500Y-30000D03*
X28000Y-30000D03*
X28500Y-30000D03*
X29000Y-30000D03*
X29500Y-30000D03*
X30000Y-30000D03*
X26500Y-31000D03*
X27000Y-31000D03*
X27500Y-31000D03*
X28000Y-31000D03*
X28500Y-31000D03*
X29000Y-31000D03*
X29500Y-31000D03*
X30000Y-31000D03*
X26500Y-33000D03*
X27000Y-33000D03*
X27500Y-33000D03*
X28000Y-33000D03*
X28500Y-33000D03*
X29000Y-33000D03*
X29500Y-33000D03*
X30000Y-33000D03*
X26500Y-37000D03*
X27000Y-37000D03*
X27500Y-37000D03*
X28000Y-37000D03*
X28500Y-37000D03*
X29000Y-37000D03*
X29500Y-37000D03*
X30000Y-37000D03*
X26500Y-38000D03*
X27000Y-38000D03*
X27500Y-38000D03*
X28000Y-38000D03*
X28500Y-38000D03*
X29000Y-38000D03*
X29500Y-38000D03*
X30000Y-38000D03*
X26500Y-39000D03*
X27000Y-39000D03*
X27500Y-39000D03*
X28000Y-39000D03*
X28500Y-39000D03*
X29000Y-39000D03*
X29500Y-39000D03*
X30000Y-39000D03*
X26500Y-40000D03*
X27000Y-40000D03*
X27500Y-40000D03*
X28000Y-40000D03*
X28500Y-40000D03*
X29000Y-40000D03*
X29500Y-40000D03*
X30000Y-40000D03*
X26500Y-41000D03*
X27000Y-41000D03*
X27500Y-41000D03*
X28000Y-41000D03*
X28500Y-41000D03*
X29000Y-41000D03*
X29500Y-41000D03*
X30000Y-41000D03*
X30500Y-30000D03*
X31000Y-30000D03*
X31500Y-30000D03*
X32000Y-30000D03*
X32500Y-30000D03*
X33000Y-30000D03*
X33500Y-30000D03*
X34000Y-30000D03*
X30500Y-31000D03*
X31000Y-31000D03*
X31500Y-31000D03*
X32000Y-31000D03*
X32500Y-31000D03*
X33000Y-31000D03*
X33500Y-31000D03*
X34000Y-31000D03*
X30500Y-32000D03*
X31000Y-32000D03*
X31500Y-32000D03*
X32000Y-32000D03*
X32500Y-32000D03*
X33000Y-32000D03*
X33500Y-32000D03*
X34000Y-32000D03*
X30500Y-33000D03*
X31000Y-33000D03*
X31500Y-33000D03*
X32000Y-33000D03*
X32500Y-33000D03*
X33000Y-33000D03*
X33500Y-33000D03*
X34000Y-33000D03*
X30500Y-41000D03*
X31000Y-41000D03*
X31500Y-41000D03*
X32000Y-41000D03*
X32500Y-41000D03*
X33000Y-41000D03*
X33500Y-41000D03*
X34000Y-41000D03*
X30500Y-40000D03*
X31000Y-40000D03*
X31500Y-40000D03*
X32000Y-40000D03*
X32500Y-40000D03*
X33000Y-40000D03*
X33500Y-40000D03*
X34000Y-40000D03*
X30500Y-39000D03*
X31000Y-39000D03*
X31500Y-39000D03*
X32000Y-39000D03*
X32500Y-39000D03*
X33000Y-39000D03*
X33500Y-39000D03*
X34000Y-39000D03*
X30500Y-38000D03*
X31000Y-38000D03*
X31500Y-38000D03*
X32000Y-38000D03*
X32500Y-38000D03*
X33000Y-38000D03*
X33500Y-38000D03*
X34000Y-38000D03*
X30500Y-37000D03*
X31000Y-37000D03*
X31500Y-37000D03*
X32000Y-37000D03*
X32500Y-37000D03*
X33000Y-37000D03*
X33500Y-37000D03*
X34000Y-37000D03*
X30500Y-42000D03*
X31000Y-42000D03*
X31500Y-42000D03*
X32000Y-42000D03*
X32500Y-42000D03*
X33000Y-42000D03*
X33500Y-42000D03*
X34000Y-42000D03*
G54D16*
X26750Y-42500D03*
X27750Y-42500D03*
X28750Y-42500D03*
G54D17*
X29750Y-42500D03*
G54D16*
X30750Y-42500D03*
X31750Y-42500D03*
X32750Y-42500D03*
X33750Y-42500D03*
X26750Y-43500D03*
X27750Y-43500D03*
X28750Y-43500D03*
G54D17*
X29750Y-43500D03*
G54D16*
X30750Y-43500D03*
X31750Y-43500D03*
X32750Y-43500D03*
X33750Y-43500D03*
G54D15*
X30500Y-44000D03*
X31000Y-44000D03*
X31500Y-44000D03*
X32000Y-44000D03*
X32500Y-44000D03*
X33000Y-44000D03*
X33500Y-44000D03*
X34000Y-44000D03*
X30500Y-28000D03*
X31000Y-28000D03*
X31500Y-28000D03*
X32000Y-28000D03*
X32500Y-28000D03*
X33000Y-28000D03*
X33500Y-28000D03*
X34000Y-28000D03*
G54D16*
X26750Y-27500D03*
X27750Y-27500D03*
X28750Y-27500D03*
G54D17*
X29750Y-27500D03*
G54D16*
X30750Y-27500D03*
X31750Y-27500D03*
X32750Y-27500D03*
X33750Y-27500D03*
X26750Y-26500D03*
X27750Y-26500D03*
X28750Y-26500D03*
G54D17*
X29750Y-26500D03*
G54D16*
X30750Y-26500D03*
X31750Y-26500D03*
X32750Y-26500D03*
X33750Y-26500D03*
G54D15*
X30500Y-26000D03*
X31000Y-26000D03*
X31500Y-26000D03*
X32000Y-26000D03*
X32500Y-26000D03*
X33000Y-26000D03*
X33500Y-26000D03*
X34000Y-26000D03*
X34500Y-26000D03*
X35000Y-26000D03*
X35500Y-26000D03*
X36000Y-26000D03*
X36500Y-26000D03*
X37000Y-26000D03*
X37500Y-26000D03*
X38000Y-26000D03*
X38500Y-26000D03*
X39000Y-26000D03*
X39500Y-26000D03*
X40000Y-26000D03*
X40500Y-26000D03*
X41000Y-26000D03*
X41500Y-26000D03*
X42000Y-26000D03*
G54D17*
X34750Y-26500D03*
G54D16*
X35750Y-26500D03*
X36750Y-26500D03*
X37750Y-26500D03*
X38750Y-26500D03*
G54D17*
X39750Y-26500D03*
G54D16*
X40750Y-26500D03*
X41750Y-26500D03*
G54D17*
X34750Y-27500D03*
G54D16*
X35750Y-27500D03*
X36750Y-27500D03*
X37750Y-27500D03*
X38750Y-27500D03*
G54D17*
X39750Y-27500D03*
G54D16*
X40750Y-27500D03*
X41750Y-27500D03*
G54D15*
X38500Y-28000D03*
X39000Y-28000D03*
X39500Y-28000D03*
X40000Y-28000D03*
X40500Y-28000D03*
X41000Y-28000D03*
X41500Y-28000D03*
X42000Y-28000D03*
X34500Y-28000D03*
X35000Y-28000D03*
X35500Y-28000D03*
X36000Y-28000D03*
X36500Y-28000D03*
X37000Y-28000D03*
X37500Y-28000D03*
X38000Y-28000D03*
X34500Y-44000D03*
X35000Y-44000D03*
X35500Y-44000D03*
X36000Y-44000D03*
X36500Y-44000D03*
X37000Y-44000D03*
X37500Y-44000D03*
X38000Y-44000D03*
X38500Y-44000D03*
X39000Y-44000D03*
X39500Y-44000D03*
X40000Y-44000D03*
X40500Y-44000D03*
X41000Y-44000D03*
X41500Y-44000D03*
X42000Y-44000D03*
G54D17*
X34750Y-43500D03*
G54D16*
X35750Y-43500D03*
X36750Y-43500D03*
X37750Y-43500D03*
X38750Y-43500D03*
G54D10*
G36*
X39425Y-43824D02*
X39425Y-43175D01*
X40074Y-43175D01*
X40074Y-43824D01*
X39425Y-43824D01*
X39425Y-43824D01*
G37*
G54D16*
X40750Y-43500D03*
X41750Y-43500D03*
G54D17*
X34750Y-42500D03*
G54D16*
X35750Y-42500D03*
X36750Y-42500D03*
X37750Y-42500D03*
X38750Y-42500D03*
G54D10*
G36*
X39425Y-42824D02*
X39425Y-42175D01*
X40074Y-42175D01*
X40074Y-42824D01*
X39425Y-42824D01*
X39425Y-42824D01*
G37*
G54D16*
X40750Y-42500D03*
X41750Y-42500D03*
G54D15*
X38500Y-42000D03*
X39000Y-42000D03*
X39500Y-42000D03*
X40000Y-42000D03*
X40500Y-42000D03*
X41000Y-42000D03*
X41500Y-42000D03*
X42000Y-42000D03*
X34500Y-42000D03*
X35000Y-42000D03*
X35500Y-42000D03*
X36000Y-42000D03*
X36500Y-42000D03*
X37000Y-42000D03*
X37500Y-42000D03*
X38000Y-42000D03*
X38500Y-37000D03*
X39000Y-37000D03*
X39500Y-37000D03*
X40000Y-37000D03*
X40500Y-37000D03*
X41000Y-37000D03*
X41500Y-37000D03*
X42000Y-37000D03*
X38500Y-38000D03*
X39000Y-38000D03*
X39500Y-38000D03*
X40000Y-38000D03*
X40500Y-38000D03*
X41000Y-38000D03*
X41500Y-38000D03*
X42000Y-38000D03*
X38500Y-39000D03*
X39000Y-39000D03*
X39500Y-39000D03*
X40000Y-39000D03*
X40500Y-39000D03*
X41000Y-39000D03*
X41500Y-39000D03*
X42000Y-39000D03*
X38500Y-40000D03*
X39000Y-40000D03*
X39500Y-40000D03*
X40000Y-40000D03*
X40500Y-40000D03*
X41000Y-40000D03*
X41500Y-40000D03*
X42000Y-40000D03*
X38500Y-41000D03*
X39000Y-41000D03*
X39500Y-41000D03*
X40000Y-41000D03*
X40500Y-41000D03*
X41000Y-41000D03*
X41500Y-41000D03*
X42000Y-41000D03*
X38500Y-33000D03*
X39000Y-33000D03*
X39500Y-33000D03*
X40000Y-33000D03*
X40500Y-33000D03*
X41000Y-33000D03*
X41500Y-33000D03*
X42000Y-33000D03*
X38500Y-32000D03*
X39000Y-32000D03*
X39500Y-32000D03*
X40000Y-32000D03*
X40500Y-32000D03*
X41000Y-32000D03*
X41500Y-32000D03*
X42000Y-32000D03*
X38500Y-31000D03*
X39000Y-31000D03*
X39500Y-31000D03*
X40000Y-31000D03*
X40500Y-31000D03*
X41000Y-31000D03*
X41500Y-31000D03*
X42000Y-31000D03*
X38500Y-30000D03*
X39000Y-30000D03*
X39500Y-30000D03*
X40000Y-30000D03*
X40500Y-30000D03*
X41000Y-30000D03*
X41500Y-30000D03*
X42000Y-30000D03*
X34500Y-41000D03*
X35000Y-41000D03*
X35500Y-41000D03*
X36000Y-41000D03*
X36500Y-41000D03*
X37000Y-41000D03*
X37500Y-41000D03*
X38000Y-41000D03*
X34500Y-40000D03*
X35000Y-40000D03*
X35500Y-40000D03*
X36000Y-40000D03*
X36500Y-40000D03*
X37000Y-40000D03*
X37500Y-40000D03*
X38000Y-40000D03*
X34500Y-39000D03*
X35000Y-39000D03*
X35500Y-39000D03*
X36000Y-39000D03*
X36500Y-39000D03*
X37000Y-39000D03*
X37500Y-39000D03*
X38000Y-39000D03*
X34500Y-38000D03*
X35000Y-38000D03*
X35500Y-38000D03*
X36000Y-38000D03*
X36500Y-38000D03*
X37000Y-38000D03*
X37500Y-38000D03*
X38000Y-38000D03*
X34500Y-37000D03*
X35000Y-37000D03*
X35500Y-37000D03*
X36000Y-37000D03*
X36500Y-37000D03*
X37000Y-37000D03*
X37500Y-37000D03*
X38000Y-37000D03*
X34500Y-33000D03*
X35000Y-33000D03*
X35500Y-33000D03*
X36000Y-33000D03*
X36500Y-33000D03*
X37000Y-33000D03*
X37500Y-33000D03*
X38000Y-33000D03*
X34500Y-32000D03*
X35000Y-32000D03*
X35500Y-32000D03*
X36000Y-32000D03*
X36500Y-32000D03*
X37000Y-32000D03*
X37500Y-32000D03*
X38000Y-32000D03*
X34500Y-31000D03*
X35000Y-31000D03*
X35500Y-31000D03*
X36000Y-31000D03*
X36500Y-31000D03*
X37000Y-31000D03*
X37500Y-31000D03*
X38000Y-31000D03*
X34500Y-30000D03*
X35000Y-30000D03*
X35500Y-30000D03*
X36000Y-30000D03*
X36500Y-30000D03*
X37000Y-30000D03*
X37500Y-30000D03*
X38000Y-30000D03*
X34500Y-29000D03*
X35000Y-29000D03*
X35500Y-29000D03*
X36000Y-29000D03*
X36500Y-29000D03*
X37000Y-29000D03*
X37500Y-29000D03*
X38000Y-29000D03*
G54D17*
X34750Y-37500D03*
G54D16*
X35750Y-37500D03*
X36750Y-37500D03*
X37750Y-37500D03*
X38750Y-37500D03*
G54D10*
G36*
X39425Y-37824D02*
X39425Y-37175D01*
X40074Y-37175D01*
X40074Y-37824D01*
X39425Y-37824D01*
X39425Y-37824D01*
G37*
G54D16*
X40750Y-37500D03*
X41750Y-37500D03*
G54D17*
X34750Y-39500D03*
G54D16*
X35750Y-39500D03*
X36750Y-39500D03*
X37750Y-39500D03*
X38750Y-39500D03*
G54D10*
G36*
X39425Y-39824D02*
X39425Y-39175D01*
X40074Y-39175D01*
X40074Y-39824D01*
X39425Y-39824D01*
X39425Y-39824D01*
G37*
G54D16*
X40750Y-39500D03*
X41750Y-39500D03*
G54D17*
X34750Y-40500D03*
G54D16*
X35750Y-40500D03*
X36750Y-40500D03*
X37750Y-40500D03*
X38750Y-40500D03*
G54D10*
G36*
X39425Y-40824D02*
X39425Y-40175D01*
X40074Y-40175D01*
X40074Y-40824D01*
X39425Y-40824D01*
X39425Y-40824D01*
G37*
G54D16*
X40750Y-40500D03*
X41750Y-40500D03*
G54D17*
X34750Y-36500D03*
G54D16*
X35750Y-36500D03*
X36750Y-36500D03*
X37750Y-36500D03*
X38750Y-36500D03*
G54D10*
G36*
X39425Y-36824D02*
X39425Y-36175D01*
X40074Y-36175D01*
X40074Y-36824D01*
X39425Y-36824D01*
X39425Y-36824D01*
G37*
G54D16*
X40750Y-36500D03*
X41750Y-36500D03*
G54D17*
X34750Y-32500D03*
G54D16*
X35750Y-32500D03*
X36750Y-32500D03*
X37750Y-32500D03*
X38750Y-32500D03*
G54D17*
X39750Y-32500D03*
G54D16*
X40750Y-32500D03*
X41750Y-32500D03*
G54D17*
X34750Y-30500D03*
G54D16*
X35750Y-30500D03*
X36750Y-30500D03*
X37750Y-30500D03*
X38750Y-30500D03*
G54D17*
X39750Y-30500D03*
G54D16*
X40750Y-30500D03*
X41750Y-30500D03*
G54D17*
X34750Y-29500D03*
G54D16*
X35750Y-29500D03*
X36750Y-29500D03*
X37750Y-29500D03*
X38750Y-29500D03*
G54D17*
X39750Y-29500D03*
G54D16*
X40750Y-29500D03*
X41750Y-29500D03*
G54D17*
X34750Y-33500D03*
G54D16*
X35750Y-33500D03*
X36750Y-33500D03*
X37750Y-33500D03*
X38750Y-33500D03*
G54D17*
X39750Y-33500D03*
G54D16*
X40750Y-33500D03*
X41750Y-33500D03*
G54D15*
X38500Y-29000D03*
X39000Y-29000D03*
X39500Y-29000D03*
X40000Y-29000D03*
X40500Y-29000D03*
X41000Y-29000D03*
X41500Y-29000D03*
X42000Y-29000D03*
X22500Y-29000D03*
X23000Y-29000D03*
X23500Y-29000D03*
X24000Y-29000D03*
X24500Y-29000D03*
X25000Y-29000D03*
X25500Y-29000D03*
X26000Y-29000D03*
G54D16*
X18750Y-33500D03*
G54D17*
X19750Y-33500D03*
G54D16*
X20750Y-33500D03*
X21750Y-33500D03*
X22750Y-33500D03*
X23750Y-33500D03*
G54D17*
X24750Y-33500D03*
G54D16*
X25750Y-33500D03*
X18750Y-29500D03*
G54D17*
X19750Y-29500D03*
G54D16*
X20750Y-29500D03*
X21750Y-29500D03*
X22750Y-29500D03*
X23750Y-29500D03*
G54D17*
X24750Y-29500D03*
G54D16*
X25750Y-29500D03*
X18750Y-31500D03*
G54D17*
X19750Y-31500D03*
G54D16*
X20750Y-31500D03*
X21750Y-31500D03*
X22750Y-31500D03*
X23750Y-31500D03*
G54D17*
X24750Y-31500D03*
G54D16*
X25750Y-31500D03*
X18750Y-32500D03*
G54D17*
X19750Y-32500D03*
G54D16*
X20750Y-32500D03*
X21750Y-32500D03*
X22750Y-32500D03*
X23750Y-32500D03*
G54D17*
X24750Y-32500D03*
G54D16*
X25750Y-32500D03*
X18750Y-36500D03*
G54D17*
X19750Y-36500D03*
G54D16*
X20750Y-36500D03*
X21750Y-36500D03*
X22750Y-36500D03*
X23750Y-36500D03*
G54D17*
X24750Y-36500D03*
G54D16*
X25750Y-36500D03*
X18750Y-40500D03*
G54D17*
X19750Y-40500D03*
G54D16*
X20750Y-40500D03*
X21750Y-40500D03*
X22750Y-40500D03*
X23750Y-40500D03*
G54D17*
X24750Y-40500D03*
G54D16*
X25750Y-40500D03*
X18750Y-39500D03*
G54D17*
X19750Y-39500D03*
G54D16*
X20750Y-39500D03*
X21750Y-39500D03*
X22750Y-39500D03*
X23750Y-39500D03*
G54D17*
X24750Y-39500D03*
G54D16*
X25750Y-39500D03*
X18750Y-38500D03*
G54D17*
X19750Y-38500D03*
G54D16*
X20750Y-38500D03*
X21750Y-38500D03*
X22750Y-38500D03*
X23750Y-38500D03*
G54D17*
X24750Y-38500D03*
G54D16*
X25750Y-38500D03*
X18750Y-37500D03*
G54D17*
X19750Y-37500D03*
G54D16*
X20750Y-37500D03*
X21750Y-37500D03*
X22750Y-37500D03*
X23750Y-37500D03*
G54D17*
X24750Y-37500D03*
G54D16*
X25750Y-37500D03*
G54D15*
X18500Y-29000D03*
X19000Y-29000D03*
X19500Y-29000D03*
X20000Y-29000D03*
X20500Y-29000D03*
X21000Y-29000D03*
X21500Y-29000D03*
X22000Y-29000D03*
X18500Y-30000D03*
X19000Y-30000D03*
X19500Y-30000D03*
X20000Y-30000D03*
X20500Y-30000D03*
X21000Y-30000D03*
X21500Y-30000D03*
X22000Y-30000D03*
X18500Y-31000D03*
X19000Y-31000D03*
X19500Y-31000D03*
X20000Y-31000D03*
X20500Y-31000D03*
X21000Y-31000D03*
X21500Y-31000D03*
X22000Y-31000D03*
X18500Y-32000D03*
X19000Y-32000D03*
X19500Y-32000D03*
X20000Y-32000D03*
X20500Y-32000D03*
X21000Y-32000D03*
X21500Y-32000D03*
X22000Y-32000D03*
X18500Y-33000D03*
X19000Y-33000D03*
X19500Y-33000D03*
X20000Y-33000D03*
X20500Y-33000D03*
X21000Y-33000D03*
X21500Y-33000D03*
X22000Y-33000D03*
X18500Y-37000D03*
X19000Y-37000D03*
X19500Y-37000D03*
X20000Y-37000D03*
X20500Y-37000D03*
X21000Y-37000D03*
X21500Y-37000D03*
X22000Y-37000D03*
X18500Y-38000D03*
X19000Y-38000D03*
X19500Y-38000D03*
X20000Y-38000D03*
X20500Y-38000D03*
X21000Y-38000D03*
X21500Y-38000D03*
X22000Y-38000D03*
X18500Y-39000D03*
X19000Y-39000D03*
X19500Y-39000D03*
X20000Y-39000D03*
X20500Y-39000D03*
X21000Y-39000D03*
X21500Y-39000D03*
X22000Y-39000D03*
X18500Y-40000D03*
X19000Y-40000D03*
X19500Y-40000D03*
X20000Y-40000D03*
X20500Y-40000D03*
X21000Y-40000D03*
X21500Y-40000D03*
X22000Y-40000D03*
X18500Y-41000D03*
X19000Y-41000D03*
X19500Y-41000D03*
X20000Y-41000D03*
X20500Y-41000D03*
X21000Y-41000D03*
X21500Y-41000D03*
X22000Y-41000D03*
X22500Y-30000D03*
X23000Y-30000D03*
X23500Y-30000D03*
X24000Y-30000D03*
X24500Y-30000D03*
X25000Y-30000D03*
X25500Y-30000D03*
X26000Y-30000D03*
X22500Y-31000D03*
X23000Y-31000D03*
X23500Y-31000D03*
X24000Y-31000D03*
X24500Y-31000D03*
X25000Y-31000D03*
X25500Y-31000D03*
X26000Y-31000D03*
X22500Y-32000D03*
X23000Y-32000D03*
X23500Y-32000D03*
X24000Y-32000D03*
X24500Y-32000D03*
X25000Y-32000D03*
X25500Y-32000D03*
X26000Y-32000D03*
X22500Y-33000D03*
X23000Y-33000D03*
X23500Y-33000D03*
X24000Y-33000D03*
X24500Y-33000D03*
X25000Y-33000D03*
X25500Y-33000D03*
X26000Y-33000D03*
X22500Y-41000D03*
X23000Y-41000D03*
X23500Y-41000D03*
X24000Y-41000D03*
X24500Y-41000D03*
X25000Y-41000D03*
X25500Y-41000D03*
X26000Y-41000D03*
X22500Y-40000D03*
X23000Y-40000D03*
X23500Y-40000D03*
X24000Y-40000D03*
X24500Y-40000D03*
X25000Y-40000D03*
X25500Y-40000D03*
X26000Y-40000D03*
X22500Y-39000D03*
X23000Y-39000D03*
X23500Y-39000D03*
X24000Y-39000D03*
X24500Y-39000D03*
X25000Y-39000D03*
X25500Y-39000D03*
X26000Y-39000D03*
X22500Y-38000D03*
X23000Y-38000D03*
X23500Y-38000D03*
X24000Y-38000D03*
X24500Y-38000D03*
X25000Y-38000D03*
X25500Y-38000D03*
X26000Y-38000D03*
X22500Y-37000D03*
X23000Y-37000D03*
X23500Y-37000D03*
X24000Y-37000D03*
X24500Y-37000D03*
X25000Y-37000D03*
X25500Y-37000D03*
X26000Y-37000D03*
X18500Y-42000D03*
X19000Y-42000D03*
X19500Y-42000D03*
X20000Y-42000D03*
X20500Y-42000D03*
X21000Y-42000D03*
X21500Y-42000D03*
X22000Y-42000D03*
X22500Y-42000D03*
X23000Y-42000D03*
X23500Y-42000D03*
X24000Y-42000D03*
X24500Y-42000D03*
X25000Y-42000D03*
X25500Y-42000D03*
X26000Y-42000D03*
G54D16*
X18750Y-42500D03*
G54D17*
X19750Y-42500D03*
G54D16*
X20750Y-42500D03*
X21750Y-42500D03*
X22750Y-42500D03*
X23750Y-42500D03*
G54D17*
X24750Y-42500D03*
G54D16*
X25750Y-42500D03*
X18750Y-43500D03*
G54D17*
X19750Y-43500D03*
G54D16*
X20750Y-43500D03*
X21750Y-43500D03*
X22750Y-43500D03*
X23750Y-43500D03*
G54D17*
X24750Y-43500D03*
G54D16*
X25750Y-43500D03*
G54D15*
X22500Y-44000D03*
X23000Y-44000D03*
X23500Y-44000D03*
X24000Y-44000D03*
X24500Y-44000D03*
X25000Y-44000D03*
X25500Y-44000D03*
X26000Y-44000D03*
X18500Y-44000D03*
X19000Y-44000D03*
X19500Y-44000D03*
X20000Y-44000D03*
X20500Y-44000D03*
X21000Y-44000D03*
X21500Y-44000D03*
X22000Y-44000D03*
X18500Y-28000D03*
X19000Y-28000D03*
X19500Y-28000D03*
X20000Y-28000D03*
X20500Y-28000D03*
X21000Y-28000D03*
X21500Y-28000D03*
X22000Y-28000D03*
X22500Y-28000D03*
X23000Y-28000D03*
X23500Y-28000D03*
X24000Y-28000D03*
X24500Y-28000D03*
X25000Y-28000D03*
X25500Y-28000D03*
X26000Y-28000D03*
G54D16*
X18750Y-27500D03*
G54D17*
X19750Y-27500D03*
G54D16*
X20750Y-27500D03*
X21750Y-27500D03*
X22750Y-27500D03*
X23750Y-27500D03*
G54D17*
X24750Y-27500D03*
G54D16*
X25750Y-27500D03*
X18750Y-26500D03*
G54D17*
X19750Y-26500D03*
G54D16*
X20750Y-26500D03*
X21750Y-26500D03*
X22750Y-26500D03*
X23750Y-26500D03*
G54D17*
X24750Y-26500D03*
G54D16*
X25750Y-26500D03*
G54D15*
X22500Y-26000D03*
X23000Y-26000D03*
X23500Y-26000D03*
X24000Y-26000D03*
X24500Y-26000D03*
X25000Y-26000D03*
X25500Y-26000D03*
X26000Y-26000D03*
X18500Y-26000D03*
X19000Y-26000D03*
X19500Y-26000D03*
X20000Y-26000D03*
X20500Y-26000D03*
X21000Y-26000D03*
X21500Y-26000D03*
X22000Y-26000D03*
X10500Y-26000D03*
X11000Y-26000D03*
X11500Y-26000D03*
X12000Y-26000D03*
X12500Y-26000D03*
X13000Y-26000D03*
X13500Y-26000D03*
X14000Y-26000D03*
X14500Y-26000D03*
X15000Y-26000D03*
X15500Y-26000D03*
X16000Y-26000D03*
X16500Y-26000D03*
X17000Y-26000D03*
X17500Y-26000D03*
X18000Y-26000D03*
G54D16*
X10750Y-26500D03*
X11750Y-26500D03*
X12750Y-26500D03*
X13750Y-26500D03*
G54D17*
X14750Y-26500D03*
G54D16*
X15750Y-26500D03*
X16750Y-26500D03*
X17750Y-26500D03*
X10750Y-27500D03*
X11750Y-27500D03*
X12750Y-27500D03*
X13750Y-27500D03*
G54D17*
X14750Y-27500D03*
G54D16*
X15750Y-27500D03*
X16750Y-27500D03*
X17750Y-27500D03*
G54D15*
X14500Y-28000D03*
X15000Y-28000D03*
X15500Y-28000D03*
X16000Y-28000D03*
X16500Y-28000D03*
X17000Y-28000D03*
X17500Y-28000D03*
X18000Y-28000D03*
X10500Y-28000D03*
X11000Y-28000D03*
X11500Y-28000D03*
X12000Y-28000D03*
X12500Y-28000D03*
X13000Y-28000D03*
X13500Y-28000D03*
X14000Y-28000D03*
X10500Y-44000D03*
X11000Y-44000D03*
X11500Y-44000D03*
X12000Y-44000D03*
X12500Y-44000D03*
X13000Y-44000D03*
X13500Y-44000D03*
X14000Y-44000D03*
X14500Y-44000D03*
X15000Y-44000D03*
X15500Y-44000D03*
X16000Y-44000D03*
X16500Y-44000D03*
X17000Y-44000D03*
X17500Y-44000D03*
X18000Y-44000D03*
G54D16*
X10750Y-43500D03*
X11750Y-43500D03*
X12750Y-43500D03*
X13750Y-43500D03*
G54D17*
X14750Y-43500D03*
G54D16*
X15750Y-43500D03*
X16750Y-43500D03*
X17750Y-43500D03*
X10750Y-42500D03*
X11750Y-42500D03*
X12750Y-42500D03*
X13750Y-42500D03*
G54D17*
X14750Y-42500D03*
G54D16*
X15750Y-42500D03*
X16750Y-42500D03*
X17750Y-42500D03*
G54D15*
X14500Y-42000D03*
X15000Y-42000D03*
X15500Y-42000D03*
X16000Y-42000D03*
X16500Y-42000D03*
X17000Y-42000D03*
X17500Y-42000D03*
X18000Y-42000D03*
X10500Y-42000D03*
X11000Y-42000D03*
X11500Y-42000D03*
X12000Y-42000D03*
X12500Y-42000D03*
X13000Y-42000D03*
X13500Y-42000D03*
X14000Y-42000D03*
X14500Y-37000D03*
X15000Y-37000D03*
X15500Y-37000D03*
X16000Y-37000D03*
X16500Y-37000D03*
X17000Y-37000D03*
X17500Y-37000D03*
X18000Y-37000D03*
X14500Y-38000D03*
X15000Y-38000D03*
X15500Y-38000D03*
X16000Y-38000D03*
X16500Y-38000D03*
X17000Y-38000D03*
X17500Y-38000D03*
X18000Y-38000D03*
X14500Y-39000D03*
X15000Y-39000D03*
X15500Y-39000D03*
X16000Y-39000D03*
X16500Y-39000D03*
X17000Y-39000D03*
X17500Y-39000D03*
X18000Y-39000D03*
X14500Y-40000D03*
X15000Y-40000D03*
X15500Y-40000D03*
X16000Y-40000D03*
X16500Y-40000D03*
X17000Y-40000D03*
X17500Y-40000D03*
X18000Y-40000D03*
X14500Y-41000D03*
X15000Y-41000D03*
X15500Y-41000D03*
X16000Y-41000D03*
X16500Y-41000D03*
X17000Y-41000D03*
X17500Y-41000D03*
X18000Y-41000D03*
X14500Y-33000D03*
X15000Y-33000D03*
X15500Y-33000D03*
X16000Y-33000D03*
X16500Y-33000D03*
X17000Y-33000D03*
X17500Y-33000D03*
X18000Y-33000D03*
X14500Y-32000D03*
X15000Y-32000D03*
X15500Y-32000D03*
X16000Y-32000D03*
X16500Y-32000D03*
X17000Y-32000D03*
X17500Y-32000D03*
X18000Y-32000D03*
X14500Y-31000D03*
X15000Y-31000D03*
X15500Y-31000D03*
X16000Y-31000D03*
X16500Y-31000D03*
X17000Y-31000D03*
X17500Y-31000D03*
X18000Y-31000D03*
X14500Y-30000D03*
X15000Y-30000D03*
X15500Y-30000D03*
X16000Y-30000D03*
X16500Y-30000D03*
X17000Y-30000D03*
X17500Y-30000D03*
X18000Y-30000D03*
X10500Y-41000D03*
X11000Y-41000D03*
X11500Y-41000D03*
X12000Y-41000D03*
X12500Y-41000D03*
X13000Y-41000D03*
X13500Y-41000D03*
X14000Y-41000D03*
X10500Y-40000D03*
X11000Y-40000D03*
X11500Y-40000D03*
X12000Y-40000D03*
X12500Y-40000D03*
X13000Y-40000D03*
X13500Y-40000D03*
X14000Y-40000D03*
X10500Y-39000D03*
X11000Y-39000D03*
X11500Y-39000D03*
X12000Y-39000D03*
X12500Y-39000D03*
X13000Y-39000D03*
X13500Y-39000D03*
X14000Y-39000D03*
X10500Y-38000D03*
X11000Y-38000D03*
X11500Y-38000D03*
X12000Y-38000D03*
X12500Y-38000D03*
X13000Y-38000D03*
X13500Y-38000D03*
X14000Y-38000D03*
X10500Y-37000D03*
X11000Y-37000D03*
X11500Y-37000D03*
X12000Y-37000D03*
X12500Y-37000D03*
X13000Y-37000D03*
X13500Y-37000D03*
X14000Y-37000D03*
X10500Y-33000D03*
X11000Y-33000D03*
X11500Y-33000D03*
X12000Y-33000D03*
X12500Y-33000D03*
X13000Y-33000D03*
X13500Y-33000D03*
X14000Y-33000D03*
X10500Y-32000D03*
X11000Y-32000D03*
X11500Y-32000D03*
X12000Y-32000D03*
X12500Y-32000D03*
X13000Y-32000D03*
X13500Y-32000D03*
X14000Y-32000D03*
X10500Y-31000D03*
X11000Y-31000D03*
X11500Y-31000D03*
X12000Y-31000D03*
X12500Y-31000D03*
X13000Y-31000D03*
X13500Y-31000D03*
X14000Y-31000D03*
X10500Y-30000D03*
X11000Y-30000D03*
X11500Y-30000D03*
X12000Y-30000D03*
X12500Y-30000D03*
X13000Y-30000D03*
X13500Y-30000D03*
X14000Y-30000D03*
X10500Y-29000D03*
X11000Y-29000D03*
X11500Y-29000D03*
X12000Y-29000D03*
X12500Y-29000D03*
X13000Y-29000D03*
X13500Y-29000D03*
X14000Y-29000D03*
G54D16*
X10750Y-37500D03*
X11750Y-37500D03*
X12750Y-37500D03*
X13750Y-37500D03*
G54D17*
X14750Y-37500D03*
G54D16*
X15750Y-37500D03*
X16750Y-37500D03*
X17750Y-37500D03*
X10750Y-38500D03*
X11750Y-38500D03*
X12750Y-38500D03*
X13750Y-38500D03*
G54D17*
X14750Y-38500D03*
G54D16*
X15750Y-38500D03*
X16750Y-38500D03*
X17750Y-38500D03*
X10750Y-39500D03*
X11750Y-39500D03*
X12750Y-39500D03*
X13750Y-39500D03*
G54D17*
X14750Y-39500D03*
G54D16*
X15750Y-39500D03*
X16750Y-39500D03*
X17750Y-39500D03*
X10750Y-36500D03*
X11750Y-36500D03*
X12750Y-36500D03*
X13750Y-36500D03*
G54D17*
X14750Y-36500D03*
G54D16*
X15750Y-36500D03*
X16750Y-36500D03*
X17750Y-36500D03*
X10750Y-32500D03*
X11750Y-32500D03*
X12750Y-32500D03*
X13750Y-32500D03*
G54D17*
X14750Y-32500D03*
G54D16*
X15750Y-32500D03*
X16750Y-32500D03*
X17750Y-32500D03*
X10750Y-31500D03*
X11750Y-31500D03*
X12750Y-31500D03*
X13750Y-31500D03*
G54D17*
X14750Y-31500D03*
G54D16*
X15750Y-31500D03*
X16750Y-31500D03*
X17750Y-31500D03*
X10750Y-30500D03*
X11750Y-30500D03*
X12750Y-30500D03*
X13750Y-30500D03*
G54D17*
X14750Y-30500D03*
G54D16*
X15750Y-30500D03*
X16750Y-30500D03*
X17750Y-30500D03*
X10750Y-29500D03*
X11750Y-29500D03*
X12750Y-29500D03*
X13750Y-29500D03*
G54D17*
X14750Y-29500D03*
G54D16*
X15750Y-29500D03*
X16750Y-29500D03*
X17750Y-29500D03*
G54D15*
X14500Y-29000D03*
X15000Y-29000D03*
X15500Y-29000D03*
X16000Y-29000D03*
X16500Y-29000D03*
X17000Y-29000D03*
X17500Y-29000D03*
X18000Y-29000D03*
M02*
