%FSLAX34Y34*%
G04 Gerber Fmt 3.4, Leading zero omitted, Abs format*
G04 (created by PCBNEW (2014-06-12 BZR 4942)-product) date Sat 14 Jun 2014 05:51:42 AM CEST*
%MOIN*%
G01*
G70*
G90*
G04 APERTURE LIST*
%ADD10C,0.005906*%
%ADD11C,0.007874*%
%ADD12C,0.013780*%
%ADD13C,0.011811*%
%ADD14C,0.015748*%
%ADD15C,0.000100*%
%ADD16O,0.047244X0.055118*%
%ADD17O,0.064961X0.078740*%
%ADD18R,0.064961X0.078740*%
%ADD19C,0.125984*%
G04 APERTURE END LIST*
G54D10*
G54D11*
X10648Y-28660D02*
X10851Y-28660D01*
X10750Y-28660D02*
X10750Y-28305D01*
X10783Y-28356D01*
X10817Y-28390D01*
X10851Y-28407D01*
X14665Y-28305D02*
X14834Y-28305D01*
X14851Y-28474D01*
X14834Y-28457D01*
X14800Y-28440D01*
X14716Y-28440D01*
X14682Y-28457D01*
X14665Y-28474D01*
X14648Y-28508D01*
X14648Y-28592D01*
X14665Y-28626D01*
X14682Y-28643D01*
X14716Y-28660D01*
X14800Y-28660D01*
X14834Y-28643D01*
X14851Y-28626D01*
X19817Y-28660D02*
X20019Y-28660D01*
X19918Y-28660D02*
X19918Y-28305D01*
X19952Y-28356D01*
X19986Y-28390D01*
X20019Y-28407D01*
X19598Y-28305D02*
X19564Y-28305D01*
X19530Y-28322D01*
X19513Y-28339D01*
X19496Y-28373D01*
X19480Y-28440D01*
X19480Y-28525D01*
X19496Y-28592D01*
X19513Y-28626D01*
X19530Y-28643D01*
X19564Y-28660D01*
X19598Y-28660D01*
X19631Y-28643D01*
X19648Y-28626D01*
X19665Y-28592D01*
X19682Y-28525D01*
X19682Y-28440D01*
X19665Y-28373D01*
X19648Y-28339D01*
X19631Y-28322D01*
X19598Y-28305D01*
X24817Y-28660D02*
X25019Y-28660D01*
X24918Y-28660D02*
X24918Y-28305D01*
X24952Y-28356D01*
X24986Y-28390D01*
X25019Y-28407D01*
X24496Y-28305D02*
X24665Y-28305D01*
X24682Y-28474D01*
X24665Y-28457D01*
X24631Y-28440D01*
X24547Y-28440D01*
X24513Y-28457D01*
X24496Y-28474D01*
X24480Y-28508D01*
X24480Y-28592D01*
X24496Y-28626D01*
X24513Y-28643D01*
X24547Y-28660D01*
X24631Y-28660D01*
X24665Y-28643D01*
X24682Y-28626D01*
X30019Y-28339D02*
X30003Y-28322D01*
X29969Y-28305D01*
X29884Y-28305D01*
X29851Y-28322D01*
X29834Y-28339D01*
X29817Y-28373D01*
X29817Y-28407D01*
X29834Y-28457D01*
X30036Y-28660D01*
X29817Y-28660D01*
X29598Y-28305D02*
X29564Y-28305D01*
X29530Y-28322D01*
X29513Y-28339D01*
X29496Y-28373D01*
X29480Y-28440D01*
X29480Y-28525D01*
X29496Y-28592D01*
X29513Y-28626D01*
X29530Y-28643D01*
X29564Y-28660D01*
X29598Y-28660D01*
X29631Y-28643D01*
X29648Y-28626D01*
X29665Y-28592D01*
X29682Y-28525D01*
X29682Y-28440D01*
X29665Y-28373D01*
X29648Y-28339D01*
X29631Y-28322D01*
X29598Y-28305D01*
X35019Y-28339D02*
X35003Y-28322D01*
X34969Y-28305D01*
X34884Y-28305D01*
X34851Y-28322D01*
X34834Y-28339D01*
X34817Y-28373D01*
X34817Y-28407D01*
X34834Y-28457D01*
X35036Y-28660D01*
X34817Y-28660D01*
X34496Y-28305D02*
X34665Y-28305D01*
X34682Y-28474D01*
X34665Y-28457D01*
X34631Y-28440D01*
X34547Y-28440D01*
X34513Y-28457D01*
X34496Y-28474D01*
X34480Y-28508D01*
X34480Y-28592D01*
X34496Y-28626D01*
X34513Y-28643D01*
X34547Y-28660D01*
X34631Y-28660D01*
X34665Y-28643D01*
X34682Y-28626D01*
X40036Y-28305D02*
X39817Y-28305D01*
X39935Y-28440D01*
X39884Y-28440D01*
X39851Y-28457D01*
X39834Y-28474D01*
X39817Y-28508D01*
X39817Y-28592D01*
X39834Y-28626D01*
X39851Y-28643D01*
X39884Y-28660D01*
X39986Y-28660D01*
X40019Y-28643D01*
X40036Y-28626D01*
X39598Y-28305D02*
X39564Y-28305D01*
X39530Y-28322D01*
X39513Y-28339D01*
X39496Y-28373D01*
X39480Y-28440D01*
X39480Y-28525D01*
X39496Y-28592D01*
X39513Y-28626D01*
X39530Y-28643D01*
X39564Y-28660D01*
X39598Y-28660D01*
X39631Y-28643D01*
X39648Y-28626D01*
X39665Y-28592D01*
X39682Y-28525D01*
X39682Y-28440D01*
X39665Y-28373D01*
X39648Y-28339D01*
X39631Y-28322D01*
X39598Y-28305D01*
X45036Y-28305D02*
X44817Y-28305D01*
X44935Y-28440D01*
X44884Y-28440D01*
X44851Y-28457D01*
X44834Y-28474D01*
X44817Y-28508D01*
X44817Y-28592D01*
X44834Y-28626D01*
X44851Y-28643D01*
X44884Y-28660D01*
X44986Y-28660D01*
X45019Y-28643D01*
X45036Y-28626D01*
X44496Y-28305D02*
X44665Y-28305D01*
X44682Y-28474D01*
X44665Y-28457D01*
X44631Y-28440D01*
X44547Y-28440D01*
X44513Y-28457D01*
X44496Y-28474D01*
X44480Y-28508D01*
X44480Y-28592D01*
X44496Y-28626D01*
X44513Y-28643D01*
X44547Y-28660D01*
X44631Y-28660D01*
X44665Y-28643D01*
X44682Y-28626D01*
X45036Y-41305D02*
X44817Y-41305D01*
X44935Y-41440D01*
X44884Y-41440D01*
X44851Y-41457D01*
X44834Y-41474D01*
X44817Y-41508D01*
X44817Y-41592D01*
X44834Y-41626D01*
X44851Y-41643D01*
X44884Y-41660D01*
X44986Y-41660D01*
X45019Y-41643D01*
X45036Y-41626D01*
X44496Y-41305D02*
X44665Y-41305D01*
X44682Y-41474D01*
X44665Y-41457D01*
X44631Y-41440D01*
X44547Y-41440D01*
X44513Y-41457D01*
X44496Y-41474D01*
X44480Y-41508D01*
X44480Y-41592D01*
X44496Y-41626D01*
X44513Y-41643D01*
X44547Y-41660D01*
X44631Y-41660D01*
X44665Y-41643D01*
X44682Y-41626D01*
X40036Y-41305D02*
X39817Y-41305D01*
X39935Y-41440D01*
X39884Y-41440D01*
X39851Y-41457D01*
X39834Y-41474D01*
X39817Y-41508D01*
X39817Y-41592D01*
X39834Y-41626D01*
X39851Y-41643D01*
X39884Y-41660D01*
X39986Y-41660D01*
X40019Y-41643D01*
X40036Y-41626D01*
X39598Y-41305D02*
X39564Y-41305D01*
X39530Y-41322D01*
X39513Y-41339D01*
X39496Y-41373D01*
X39480Y-41440D01*
X39480Y-41525D01*
X39496Y-41592D01*
X39513Y-41626D01*
X39530Y-41643D01*
X39564Y-41660D01*
X39598Y-41660D01*
X39631Y-41643D01*
X39648Y-41626D01*
X39665Y-41592D01*
X39682Y-41525D01*
X39682Y-41440D01*
X39665Y-41373D01*
X39648Y-41339D01*
X39631Y-41322D01*
X39598Y-41305D01*
X35019Y-41339D02*
X35003Y-41322D01*
X34969Y-41305D01*
X34884Y-41305D01*
X34851Y-41322D01*
X34834Y-41339D01*
X34817Y-41373D01*
X34817Y-41407D01*
X34834Y-41457D01*
X35036Y-41660D01*
X34817Y-41660D01*
X34496Y-41305D02*
X34665Y-41305D01*
X34682Y-41474D01*
X34665Y-41457D01*
X34631Y-41440D01*
X34547Y-41440D01*
X34513Y-41457D01*
X34496Y-41474D01*
X34480Y-41508D01*
X34480Y-41592D01*
X34496Y-41626D01*
X34513Y-41643D01*
X34547Y-41660D01*
X34631Y-41660D01*
X34665Y-41643D01*
X34682Y-41626D01*
X30019Y-41339D02*
X30003Y-41322D01*
X29969Y-41305D01*
X29884Y-41305D01*
X29851Y-41322D01*
X29834Y-41339D01*
X29817Y-41373D01*
X29817Y-41407D01*
X29834Y-41457D01*
X30036Y-41660D01*
X29817Y-41660D01*
X29598Y-41305D02*
X29564Y-41305D01*
X29530Y-41322D01*
X29513Y-41339D01*
X29496Y-41373D01*
X29480Y-41440D01*
X29480Y-41525D01*
X29496Y-41592D01*
X29513Y-41626D01*
X29530Y-41643D01*
X29564Y-41660D01*
X29598Y-41660D01*
X29631Y-41643D01*
X29648Y-41626D01*
X29665Y-41592D01*
X29682Y-41525D01*
X29682Y-41440D01*
X29665Y-41373D01*
X29648Y-41339D01*
X29631Y-41322D01*
X29598Y-41305D01*
X24817Y-41660D02*
X25019Y-41660D01*
X24918Y-41660D02*
X24918Y-41305D01*
X24952Y-41356D01*
X24986Y-41390D01*
X25019Y-41407D01*
X24496Y-41305D02*
X24665Y-41305D01*
X24682Y-41474D01*
X24665Y-41457D01*
X24631Y-41440D01*
X24547Y-41440D01*
X24513Y-41457D01*
X24496Y-41474D01*
X24480Y-41508D01*
X24480Y-41592D01*
X24496Y-41626D01*
X24513Y-41643D01*
X24547Y-41660D01*
X24631Y-41660D01*
X24665Y-41643D01*
X24682Y-41626D01*
X19817Y-41660D02*
X20019Y-41660D01*
X19918Y-41660D02*
X19918Y-41305D01*
X19952Y-41356D01*
X19986Y-41390D01*
X20019Y-41407D01*
X19598Y-41305D02*
X19564Y-41305D01*
X19530Y-41322D01*
X19513Y-41339D01*
X19496Y-41373D01*
X19480Y-41440D01*
X19480Y-41525D01*
X19496Y-41592D01*
X19513Y-41626D01*
X19530Y-41643D01*
X19564Y-41660D01*
X19598Y-41660D01*
X19631Y-41643D01*
X19648Y-41626D01*
X19665Y-41592D01*
X19682Y-41525D01*
X19682Y-41440D01*
X19665Y-41373D01*
X19648Y-41339D01*
X19631Y-41322D01*
X19598Y-41305D01*
X14665Y-41305D02*
X14834Y-41305D01*
X14851Y-41474D01*
X14834Y-41457D01*
X14800Y-41440D01*
X14716Y-41440D01*
X14682Y-41457D01*
X14665Y-41474D01*
X14648Y-41508D01*
X14648Y-41592D01*
X14665Y-41626D01*
X14682Y-41643D01*
X14716Y-41660D01*
X14800Y-41660D01*
X14834Y-41643D01*
X14851Y-41626D01*
X10648Y-41660D02*
X10851Y-41660D01*
X10750Y-41660D02*
X10750Y-41305D01*
X10783Y-41356D01*
X10817Y-41390D01*
X10851Y-41407D01*
G54D12*
X45515Y-40226D02*
X45515Y-40648D01*
X45543Y-40732D01*
X45599Y-40789D01*
X45684Y-40817D01*
X45740Y-40817D01*
X45600Y-39817D02*
X45600Y-39226D01*
X45768Y-38817D02*
X45768Y-38226D01*
X45768Y-38507D02*
X45431Y-38507D01*
X45431Y-38817D02*
X45431Y-38226D01*
X45445Y-37254D02*
X45501Y-37226D01*
X45585Y-37226D01*
X45670Y-37254D01*
X45726Y-37310D01*
X45754Y-37367D01*
X45782Y-37479D01*
X45782Y-37564D01*
X45754Y-37676D01*
X45726Y-37732D01*
X45670Y-37789D01*
X45585Y-37817D01*
X45529Y-37817D01*
X45445Y-37789D01*
X45417Y-37760D01*
X45417Y-37564D01*
X45529Y-37564D01*
X45515Y-36507D02*
X45712Y-36507D01*
X45712Y-36817D02*
X45712Y-36226D01*
X45431Y-36226D01*
X45726Y-33507D02*
X45529Y-33507D01*
X45445Y-33817D02*
X45726Y-33817D01*
X45726Y-33226D01*
X45445Y-33226D01*
X45754Y-32817D02*
X45754Y-32226D01*
X45614Y-32226D01*
X45529Y-32254D01*
X45473Y-32310D01*
X45445Y-32367D01*
X45417Y-32479D01*
X45417Y-32564D01*
X45445Y-32676D01*
X45473Y-32732D01*
X45529Y-32789D01*
X45614Y-32817D01*
X45754Y-32817D01*
X45417Y-31760D02*
X45445Y-31789D01*
X45529Y-31817D01*
X45585Y-31817D01*
X45670Y-31789D01*
X45726Y-31732D01*
X45754Y-31676D01*
X45782Y-31564D01*
X45782Y-31479D01*
X45754Y-31367D01*
X45726Y-31310D01*
X45670Y-31254D01*
X45585Y-31226D01*
X45529Y-31226D01*
X45445Y-31254D01*
X45417Y-31282D01*
X45557Y-30507D02*
X45473Y-30535D01*
X45445Y-30564D01*
X45417Y-30620D01*
X45417Y-30704D01*
X45445Y-30760D01*
X45473Y-30789D01*
X45529Y-30817D01*
X45754Y-30817D01*
X45754Y-30226D01*
X45557Y-30226D01*
X45501Y-30254D01*
X45473Y-30282D01*
X45445Y-30339D01*
X45445Y-30395D01*
X45473Y-30451D01*
X45501Y-30479D01*
X45557Y-30507D01*
X45754Y-30507D01*
X45740Y-29648D02*
X45459Y-29648D01*
X45796Y-29817D02*
X45600Y-29226D01*
X45403Y-29817D01*
X40228Y-34676D02*
X39862Y-34676D01*
X40059Y-34901D01*
X39974Y-34901D01*
X39918Y-34929D01*
X39890Y-34957D01*
X39862Y-35014D01*
X39862Y-35154D01*
X39890Y-35210D01*
X39918Y-35239D01*
X39974Y-35267D01*
X40143Y-35267D01*
X40199Y-35239D01*
X40228Y-35210D01*
X39496Y-34676D02*
X39440Y-34676D01*
X39384Y-34704D01*
X39356Y-34732D01*
X39328Y-34789D01*
X39300Y-34901D01*
X39300Y-35042D01*
X39328Y-35154D01*
X39356Y-35210D01*
X39384Y-35239D01*
X39440Y-35267D01*
X39496Y-35267D01*
X39553Y-35239D01*
X39581Y-35210D01*
X39609Y-35154D01*
X39637Y-35042D01*
X39637Y-34901D01*
X39609Y-34789D01*
X39581Y-34732D01*
X39553Y-34704D01*
X39496Y-34676D01*
G54D13*
X39750Y-35500D02*
X39750Y-36000D01*
X39750Y-34500D02*
X39750Y-34000D01*
X14750Y-35500D02*
X14750Y-36000D01*
X14750Y-34000D02*
X14750Y-34500D01*
G54D12*
X14609Y-34676D02*
X14890Y-34676D01*
X14918Y-34957D01*
X14890Y-34929D01*
X14834Y-34901D01*
X14693Y-34901D01*
X14637Y-34929D01*
X14609Y-34957D01*
X14581Y-35014D01*
X14581Y-35154D01*
X14609Y-35210D01*
X14637Y-35239D01*
X14693Y-35267D01*
X14834Y-35267D01*
X14890Y-35239D01*
X14918Y-35210D01*
X9815Y-40176D02*
X9815Y-40598D01*
X9843Y-40682D01*
X9899Y-40739D01*
X9984Y-40767D01*
X10040Y-40767D01*
X9900Y-39767D02*
X9900Y-39176D01*
X10068Y-38767D02*
X10068Y-38176D01*
X10068Y-38457D02*
X9731Y-38457D01*
X9731Y-38767D02*
X9731Y-38176D01*
X9745Y-37204D02*
X9801Y-37176D01*
X9885Y-37176D01*
X9970Y-37204D01*
X10026Y-37260D01*
X10054Y-37317D01*
X10082Y-37429D01*
X10082Y-37514D01*
X10054Y-37626D01*
X10026Y-37682D01*
X9970Y-37739D01*
X9885Y-37767D01*
X9829Y-37767D01*
X9745Y-37739D01*
X9717Y-37710D01*
X9717Y-37514D01*
X9829Y-37514D01*
X9865Y-36457D02*
X10062Y-36457D01*
X10062Y-36767D02*
X10062Y-36176D01*
X9781Y-36176D01*
X10026Y-33457D02*
X9829Y-33457D01*
X9745Y-33767D02*
X10026Y-33767D01*
X10026Y-33176D01*
X9745Y-33176D01*
X10054Y-32767D02*
X10054Y-32176D01*
X9914Y-32176D01*
X9829Y-32204D01*
X9773Y-32260D01*
X9745Y-32317D01*
X9717Y-32429D01*
X9717Y-32514D01*
X9745Y-32626D01*
X9773Y-32682D01*
X9829Y-32739D01*
X9914Y-32767D01*
X10054Y-32767D01*
X9717Y-31710D02*
X9745Y-31739D01*
X9829Y-31767D01*
X9885Y-31767D01*
X9970Y-31739D01*
X10026Y-31682D01*
X10054Y-31626D01*
X10082Y-31514D01*
X10082Y-31429D01*
X10054Y-31317D01*
X10026Y-31260D01*
X9970Y-31204D01*
X9885Y-31176D01*
X9829Y-31176D01*
X9745Y-31204D01*
X9717Y-31232D01*
X9857Y-30457D02*
X9773Y-30485D01*
X9745Y-30514D01*
X9717Y-30570D01*
X9717Y-30654D01*
X9745Y-30710D01*
X9773Y-30739D01*
X9829Y-30767D01*
X10054Y-30767D01*
X10054Y-30176D01*
X9857Y-30176D01*
X9801Y-30204D01*
X9773Y-30232D01*
X9745Y-30289D01*
X9745Y-30345D01*
X9773Y-30401D01*
X9801Y-30429D01*
X9857Y-30457D01*
X10054Y-30457D01*
X10040Y-29598D02*
X9759Y-29598D01*
X10096Y-29767D02*
X9900Y-29176D01*
X9703Y-29767D01*
X10124Y-43492D02*
X9675Y-43492D01*
X10124Y-42492D02*
X9675Y-42492D01*
X9900Y-42717D02*
X9900Y-42267D01*
X45824Y-43492D02*
X45375Y-43492D01*
X45824Y-42492D02*
X45375Y-42492D01*
X45600Y-42717D02*
X45600Y-42267D01*
X10124Y-27492D02*
X9675Y-27492D01*
X10124Y-26492D02*
X9675Y-26492D01*
X9900Y-26717D02*
X9900Y-26267D01*
X45824Y-27492D02*
X45375Y-27492D01*
X45824Y-26492D02*
X45375Y-26492D01*
X45600Y-26717D02*
X45600Y-26267D01*
G54D14*
X27750Y-43000D02*
X45000Y-43000D01*
X27250Y-42750D02*
X27250Y-43250D01*
X10500Y-43000D02*
X26750Y-43000D01*
X27250Y-26750D02*
X27250Y-27250D01*
X27750Y-27000D02*
X45000Y-27000D01*
X10500Y-27000D02*
X26750Y-27000D01*
G54D12*
X33585Y-34211D02*
X33557Y-34183D01*
X33501Y-34154D01*
X33360Y-34154D01*
X33304Y-34183D01*
X33276Y-34211D01*
X33248Y-34267D01*
X33248Y-34323D01*
X33276Y-34408D01*
X33613Y-34745D01*
X33248Y-34745D01*
X32882Y-34154D02*
X32826Y-34154D01*
X32769Y-34183D01*
X32741Y-34211D01*
X32713Y-34267D01*
X32685Y-34379D01*
X32685Y-34520D01*
X32713Y-34633D01*
X32741Y-34689D01*
X32769Y-34717D01*
X32826Y-34745D01*
X32882Y-34745D01*
X32938Y-34717D01*
X32966Y-34689D01*
X32994Y-34633D01*
X33023Y-34520D01*
X33023Y-34379D01*
X32994Y-34267D01*
X32966Y-34211D01*
X32938Y-34183D01*
X32882Y-34154D01*
X32123Y-34745D02*
X32460Y-34745D01*
X32291Y-34745D02*
X32291Y-34154D01*
X32348Y-34239D01*
X32404Y-34295D01*
X32460Y-34323D01*
X31616Y-34351D02*
X31616Y-34745D01*
X31757Y-34126D02*
X31898Y-34548D01*
X31532Y-34548D01*
X30857Y-34520D02*
X30407Y-34520D01*
X29676Y-34745D02*
X29676Y-34154D01*
X29676Y-34379D02*
X29620Y-34351D01*
X29507Y-34351D01*
X29451Y-34379D01*
X29423Y-34408D01*
X29395Y-34464D01*
X29395Y-34633D01*
X29423Y-34689D01*
X29451Y-34717D01*
X29507Y-34745D01*
X29620Y-34745D01*
X29676Y-34717D01*
X29057Y-34745D02*
X29114Y-34717D01*
X29142Y-34661D01*
X29142Y-34154D01*
X28748Y-34745D02*
X28804Y-34717D01*
X28832Y-34689D01*
X28861Y-34633D01*
X28861Y-34464D01*
X28832Y-34408D01*
X28804Y-34379D01*
X28748Y-34351D01*
X28664Y-34351D01*
X28607Y-34379D01*
X28579Y-34408D01*
X28551Y-34464D01*
X28551Y-34633D01*
X28579Y-34689D01*
X28607Y-34717D01*
X28664Y-34745D01*
X28748Y-34745D01*
X28045Y-34351D02*
X28045Y-34829D01*
X28073Y-34886D01*
X28101Y-34914D01*
X28158Y-34942D01*
X28242Y-34942D01*
X28298Y-34914D01*
X28045Y-34717D02*
X28101Y-34745D01*
X28214Y-34745D01*
X28270Y-34717D01*
X28298Y-34689D01*
X28326Y-34633D01*
X28326Y-34464D01*
X28298Y-34408D01*
X28270Y-34379D01*
X28214Y-34351D01*
X28101Y-34351D01*
X28045Y-34379D01*
X27764Y-34689D02*
X27736Y-34717D01*
X27764Y-34745D01*
X27792Y-34717D01*
X27764Y-34689D01*
X27764Y-34745D01*
X27511Y-34717D02*
X27455Y-34745D01*
X27342Y-34745D01*
X27286Y-34717D01*
X27258Y-34661D01*
X27258Y-34633D01*
X27286Y-34576D01*
X27342Y-34548D01*
X27426Y-34548D01*
X27483Y-34520D01*
X27511Y-34464D01*
X27511Y-34436D01*
X27483Y-34379D01*
X27426Y-34351D01*
X27342Y-34351D01*
X27286Y-34379D01*
X27005Y-34351D02*
X27005Y-34942D01*
X27005Y-34379D02*
X26948Y-34351D01*
X26836Y-34351D01*
X26780Y-34379D01*
X26751Y-34408D01*
X26723Y-34464D01*
X26723Y-34633D01*
X26751Y-34689D01*
X26780Y-34717D01*
X26836Y-34745D01*
X26948Y-34745D01*
X27005Y-34717D01*
X26470Y-34745D02*
X26470Y-34351D01*
X26470Y-34154D02*
X26498Y-34183D01*
X26470Y-34211D01*
X26442Y-34183D01*
X26470Y-34154D01*
X26470Y-34211D01*
X26273Y-34351D02*
X26048Y-34351D01*
X26189Y-34154D02*
X26189Y-34661D01*
X26161Y-34717D01*
X26105Y-34745D01*
X26048Y-34745D01*
X25908Y-34351D02*
X25598Y-34351D01*
X25908Y-34745D01*
X25598Y-34745D01*
X25149Y-34717D02*
X25205Y-34745D01*
X25317Y-34745D01*
X25374Y-34717D01*
X25402Y-34661D01*
X25402Y-34436D01*
X25374Y-34379D01*
X25317Y-34351D01*
X25205Y-34351D01*
X25149Y-34379D01*
X25120Y-34436D01*
X25120Y-34492D01*
X25402Y-34548D01*
X24867Y-34351D02*
X24867Y-34745D01*
X24867Y-34408D02*
X24839Y-34379D01*
X24783Y-34351D01*
X24699Y-34351D01*
X24642Y-34379D01*
X24614Y-34436D01*
X24614Y-34745D01*
X24333Y-34351D02*
X24333Y-34942D01*
X24333Y-34379D02*
X24277Y-34351D01*
X24164Y-34351D01*
X24108Y-34379D01*
X24080Y-34408D01*
X24052Y-34464D01*
X24052Y-34633D01*
X24080Y-34689D01*
X24108Y-34717D01*
X24164Y-34745D01*
X24277Y-34745D01*
X24333Y-34717D01*
X23883Y-34351D02*
X23658Y-34351D01*
X23799Y-34745D02*
X23799Y-34239D01*
X23771Y-34183D01*
X23714Y-34154D01*
X23658Y-34154D01*
X23236Y-34717D02*
X23293Y-34745D01*
X23405Y-34745D01*
X23461Y-34717D01*
X23489Y-34661D01*
X23489Y-34436D01*
X23461Y-34379D01*
X23405Y-34351D01*
X23293Y-34351D01*
X23236Y-34379D01*
X23208Y-34436D01*
X23208Y-34492D01*
X23489Y-34548D01*
X22955Y-34745D02*
X22955Y-34351D01*
X22955Y-34154D02*
X22983Y-34183D01*
X22955Y-34211D01*
X22927Y-34183D01*
X22955Y-34154D01*
X22955Y-34211D01*
X22589Y-34745D02*
X22646Y-34717D01*
X22674Y-34661D01*
X22674Y-34154D01*
X22365Y-34689D02*
X22336Y-34717D01*
X22365Y-34745D01*
X22393Y-34717D01*
X22365Y-34689D01*
X22365Y-34745D01*
X21999Y-34745D02*
X22055Y-34717D01*
X22083Y-34689D01*
X22111Y-34633D01*
X22111Y-34464D01*
X22083Y-34408D01*
X22055Y-34379D01*
X21999Y-34351D01*
X21915Y-34351D01*
X21858Y-34379D01*
X21830Y-34408D01*
X21802Y-34464D01*
X21802Y-34633D01*
X21830Y-34689D01*
X21858Y-34717D01*
X21915Y-34745D01*
X21999Y-34745D01*
X21549Y-34745D02*
X21549Y-34351D01*
X21549Y-34464D02*
X21521Y-34408D01*
X21493Y-34379D01*
X21437Y-34351D01*
X21380Y-34351D01*
X20930Y-34351D02*
X20930Y-34829D01*
X20958Y-34886D01*
X20987Y-34914D01*
X21043Y-34942D01*
X21127Y-34942D01*
X21183Y-34914D01*
X20930Y-34717D02*
X20987Y-34745D01*
X21099Y-34745D01*
X21155Y-34717D01*
X21183Y-34689D01*
X21212Y-34633D01*
X21212Y-34464D01*
X21183Y-34408D01*
X21155Y-34379D01*
X21099Y-34351D01*
X20987Y-34351D01*
X20930Y-34379D01*
X30379Y-35710D02*
X30717Y-35710D01*
X30548Y-35710D02*
X30548Y-35119D01*
X30604Y-35203D01*
X30660Y-35260D01*
X30717Y-35288D01*
X29873Y-35316D02*
X29873Y-35710D01*
X30014Y-35091D02*
X30154Y-35513D01*
X29789Y-35513D01*
X29311Y-35119D02*
X29423Y-35119D01*
X29479Y-35147D01*
X29507Y-35175D01*
X29564Y-35260D01*
X29592Y-35372D01*
X29592Y-35597D01*
X29564Y-35653D01*
X29535Y-35681D01*
X29479Y-35710D01*
X29367Y-35710D01*
X29311Y-35681D01*
X29282Y-35653D01*
X29254Y-35597D01*
X29254Y-35456D01*
X29282Y-35400D01*
X29311Y-35372D01*
X29367Y-35344D01*
X29479Y-35344D01*
X29535Y-35372D01*
X29564Y-35400D01*
X29592Y-35456D01*
X28748Y-35316D02*
X28748Y-35710D01*
X28889Y-35091D02*
X29029Y-35513D01*
X28664Y-35513D01*
X27989Y-35485D02*
X27539Y-35485D01*
X26892Y-35119D02*
X26695Y-35710D01*
X26498Y-35119D01*
X26189Y-35119D02*
X26133Y-35119D01*
X26077Y-35147D01*
X26048Y-35175D01*
X26020Y-35232D01*
X25992Y-35344D01*
X25992Y-35485D01*
X26020Y-35597D01*
X26048Y-35653D01*
X26077Y-35681D01*
X26133Y-35710D01*
X26189Y-35710D01*
X26245Y-35681D01*
X26273Y-35653D01*
X26302Y-35597D01*
X26330Y-35485D01*
X26330Y-35344D01*
X26302Y-35232D01*
X26273Y-35175D01*
X26245Y-35147D01*
X26189Y-35119D01*
X25739Y-35653D02*
X25711Y-35681D01*
X25739Y-35710D01*
X25767Y-35681D01*
X25739Y-35653D01*
X25739Y-35710D01*
X25149Y-35710D02*
X25486Y-35710D01*
X25317Y-35710D02*
X25317Y-35119D01*
X25374Y-35203D01*
X25430Y-35260D01*
X25486Y-35288D01*
X24783Y-35119D02*
X24727Y-35119D01*
X24670Y-35147D01*
X24642Y-35175D01*
X24614Y-35232D01*
X24586Y-35344D01*
X24586Y-35485D01*
X24614Y-35597D01*
X24642Y-35653D01*
X24670Y-35681D01*
X24727Y-35710D01*
X24783Y-35710D01*
X24839Y-35681D01*
X24867Y-35653D01*
X24895Y-35597D01*
X24924Y-35485D01*
X24924Y-35344D01*
X24895Y-35232D01*
X24867Y-35175D01*
X24839Y-35147D01*
X24783Y-35119D01*
X24333Y-35653D02*
X24305Y-35681D01*
X24333Y-35710D01*
X24361Y-35681D01*
X24333Y-35653D01*
X24333Y-35710D01*
X23799Y-35710D02*
X23799Y-35400D01*
X23827Y-35344D01*
X23883Y-35316D01*
X23996Y-35316D01*
X24052Y-35344D01*
X23799Y-35681D02*
X23855Y-35710D01*
X23996Y-35710D01*
X24052Y-35681D01*
X24080Y-35625D01*
X24080Y-35569D01*
X24052Y-35513D01*
X23996Y-35485D01*
X23855Y-35485D01*
X23799Y-35456D01*
G54D15*
G36*
X35154Y-35884D02*
X35164Y-35878D01*
X35187Y-35864D01*
X35220Y-35842D01*
X35259Y-35816D01*
X35298Y-35790D01*
X35330Y-35769D01*
X35352Y-35754D01*
X35362Y-35749D01*
X35367Y-35751D01*
X35385Y-35760D01*
X35412Y-35774D01*
X35428Y-35782D01*
X35452Y-35792D01*
X35465Y-35795D01*
X35467Y-35791D01*
X35476Y-35772D01*
X35490Y-35740D01*
X35508Y-35697D01*
X35530Y-35647D01*
X35552Y-35594D01*
X35575Y-35539D01*
X35597Y-35486D01*
X35616Y-35439D01*
X35632Y-35401D01*
X35642Y-35374D01*
X35646Y-35363D01*
X35645Y-35360D01*
X35632Y-35348D01*
X35611Y-35332D01*
X35564Y-35294D01*
X35518Y-35237D01*
X35490Y-35172D01*
X35481Y-35099D01*
X35489Y-35032D01*
X35515Y-34968D01*
X35560Y-34910D01*
X35615Y-34867D01*
X35679Y-34840D01*
X35750Y-34831D01*
X35818Y-34839D01*
X35884Y-34865D01*
X35942Y-34909D01*
X35967Y-34937D01*
X36001Y-34996D01*
X36020Y-35058D01*
X36022Y-35074D01*
X36019Y-35143D01*
X35999Y-35210D01*
X35962Y-35269D01*
X35911Y-35318D01*
X35905Y-35322D01*
X35882Y-35340D01*
X35866Y-35352D01*
X35854Y-35362D01*
X35942Y-35574D01*
X35956Y-35607D01*
X35980Y-35665D01*
X36001Y-35715D01*
X36018Y-35755D01*
X36030Y-35781D01*
X36035Y-35792D01*
X36035Y-35793D01*
X36043Y-35794D01*
X36059Y-35788D01*
X36089Y-35774D01*
X36108Y-35764D01*
X36131Y-35753D01*
X36141Y-35749D01*
X36150Y-35754D01*
X36171Y-35768D01*
X36203Y-35789D01*
X36241Y-35814D01*
X36277Y-35839D01*
X36310Y-35861D01*
X36334Y-35876D01*
X36346Y-35883D01*
X36348Y-35883D01*
X36358Y-35877D01*
X36377Y-35861D01*
X36406Y-35834D01*
X36447Y-35793D01*
X36453Y-35787D01*
X36487Y-35753D01*
X36514Y-35724D01*
X36532Y-35704D01*
X36539Y-35695D01*
X36539Y-35695D01*
X36533Y-35683D01*
X36518Y-35659D01*
X36496Y-35625D01*
X36469Y-35586D01*
X36399Y-35484D01*
X36437Y-35388D01*
X36449Y-35358D01*
X36464Y-35323D01*
X36475Y-35297D01*
X36481Y-35286D01*
X36491Y-35282D01*
X36518Y-35276D01*
X36556Y-35268D01*
X36601Y-35260D01*
X36645Y-35252D01*
X36684Y-35244D01*
X36712Y-35239D01*
X36725Y-35236D01*
X36728Y-35234D01*
X36731Y-35228D01*
X36732Y-35215D01*
X36733Y-35191D01*
X36734Y-35154D01*
X36734Y-35099D01*
X36734Y-35093D01*
X36733Y-35042D01*
X36732Y-35000D01*
X36731Y-34974D01*
X36729Y-34963D01*
X36729Y-34963D01*
X36717Y-34960D01*
X36689Y-34954D01*
X36650Y-34947D01*
X36603Y-34938D01*
X36600Y-34937D01*
X36554Y-34928D01*
X36515Y-34920D01*
X36487Y-34914D01*
X36476Y-34910D01*
X36473Y-34907D01*
X36464Y-34889D01*
X36451Y-34860D01*
X36435Y-34825D01*
X36420Y-34788D01*
X36407Y-34755D01*
X36398Y-34731D01*
X36395Y-34720D01*
X36396Y-34719D01*
X36403Y-34708D01*
X36419Y-34684D01*
X36441Y-34651D01*
X36468Y-34611D01*
X36470Y-34608D01*
X36497Y-34569D01*
X36519Y-34535D01*
X36533Y-34512D01*
X36539Y-34501D01*
X36539Y-34500D01*
X36530Y-34488D01*
X36510Y-34466D01*
X36481Y-34436D01*
X36447Y-34401D01*
X36436Y-34391D01*
X36397Y-34353D01*
X36371Y-34329D01*
X36354Y-34316D01*
X36346Y-34313D01*
X36346Y-34313D01*
X36334Y-34320D01*
X36309Y-34336D01*
X36276Y-34359D01*
X36236Y-34386D01*
X36233Y-34388D01*
X36194Y-34415D01*
X36161Y-34437D01*
X36138Y-34453D01*
X36127Y-34459D01*
X36126Y-34459D01*
X36110Y-34454D01*
X36082Y-34444D01*
X36047Y-34431D01*
X36011Y-34416D01*
X35978Y-34402D01*
X35953Y-34391D01*
X35941Y-34384D01*
X35941Y-34384D01*
X35937Y-34370D01*
X35930Y-34340D01*
X35922Y-34300D01*
X35912Y-34252D01*
X35911Y-34244D01*
X35902Y-34197D01*
X35895Y-34158D01*
X35889Y-34131D01*
X35886Y-34120D01*
X35880Y-34119D01*
X35857Y-34117D01*
X35822Y-34116D01*
X35779Y-34116D01*
X35735Y-34116D01*
X35692Y-34117D01*
X35655Y-34118D01*
X35628Y-34120D01*
X35617Y-34122D01*
X35617Y-34123D01*
X35613Y-34138D01*
X35606Y-34167D01*
X35598Y-34208D01*
X35589Y-34256D01*
X35587Y-34265D01*
X35578Y-34311D01*
X35570Y-34350D01*
X35565Y-34376D01*
X35562Y-34387D01*
X35557Y-34389D01*
X35538Y-34397D01*
X35507Y-34410D01*
X35468Y-34426D01*
X35378Y-34462D01*
X35267Y-34387D01*
X35257Y-34380D01*
X35217Y-34353D01*
X35185Y-34331D01*
X35162Y-34316D01*
X35153Y-34311D01*
X35152Y-34311D01*
X35141Y-34321D01*
X35119Y-34342D01*
X35089Y-34371D01*
X35054Y-34405D01*
X35029Y-34431D01*
X34998Y-34462D01*
X34979Y-34483D01*
X34968Y-34496D01*
X34965Y-34504D01*
X34966Y-34510D01*
X34973Y-34521D01*
X34989Y-34545D01*
X35012Y-34579D01*
X35039Y-34618D01*
X35061Y-34651D01*
X35085Y-34688D01*
X35100Y-34714D01*
X35106Y-34727D01*
X35104Y-34732D01*
X35097Y-34754D01*
X35083Y-34787D01*
X35067Y-34826D01*
X35028Y-34913D01*
X34971Y-34924D01*
X34936Y-34931D01*
X34888Y-34940D01*
X34841Y-34949D01*
X34769Y-34963D01*
X34766Y-35229D01*
X34777Y-35234D01*
X34788Y-35237D01*
X34815Y-35243D01*
X34853Y-35251D01*
X34899Y-35259D01*
X34937Y-35266D01*
X34976Y-35274D01*
X35004Y-35279D01*
X35016Y-35282D01*
X35020Y-35286D01*
X35029Y-35305D01*
X35043Y-35335D01*
X35059Y-35371D01*
X35074Y-35408D01*
X35088Y-35443D01*
X35097Y-35469D01*
X35101Y-35482D01*
X35096Y-35493D01*
X35081Y-35516D01*
X35060Y-35548D01*
X35033Y-35587D01*
X35007Y-35625D01*
X34984Y-35658D01*
X34969Y-35682D01*
X34962Y-35693D01*
X34966Y-35700D01*
X34981Y-35719D01*
X35010Y-35749D01*
X35054Y-35792D01*
X35061Y-35799D01*
X35095Y-35832D01*
X35124Y-35859D01*
X35145Y-35877D01*
X35154Y-35884D01*
X35154Y-35884D01*
G37*
X35154Y-35884D02*
X35164Y-35878D01*
X35187Y-35864D01*
X35220Y-35842D01*
X35259Y-35816D01*
X35298Y-35790D01*
X35330Y-35769D01*
X35352Y-35754D01*
X35362Y-35749D01*
X35367Y-35751D01*
X35385Y-35760D01*
X35412Y-35774D01*
X35428Y-35782D01*
X35452Y-35792D01*
X35465Y-35795D01*
X35467Y-35791D01*
X35476Y-35772D01*
X35490Y-35740D01*
X35508Y-35697D01*
X35530Y-35647D01*
X35552Y-35594D01*
X35575Y-35539D01*
X35597Y-35486D01*
X35616Y-35439D01*
X35632Y-35401D01*
X35642Y-35374D01*
X35646Y-35363D01*
X35645Y-35360D01*
X35632Y-35348D01*
X35611Y-35332D01*
X35564Y-35294D01*
X35518Y-35237D01*
X35490Y-35172D01*
X35481Y-35099D01*
X35489Y-35032D01*
X35515Y-34968D01*
X35560Y-34910D01*
X35615Y-34867D01*
X35679Y-34840D01*
X35750Y-34831D01*
X35818Y-34839D01*
X35884Y-34865D01*
X35942Y-34909D01*
X35967Y-34937D01*
X36001Y-34996D01*
X36020Y-35058D01*
X36022Y-35074D01*
X36019Y-35143D01*
X35999Y-35210D01*
X35962Y-35269D01*
X35911Y-35318D01*
X35905Y-35322D01*
X35882Y-35340D01*
X35866Y-35352D01*
X35854Y-35362D01*
X35942Y-35574D01*
X35956Y-35607D01*
X35980Y-35665D01*
X36001Y-35715D01*
X36018Y-35755D01*
X36030Y-35781D01*
X36035Y-35792D01*
X36035Y-35793D01*
X36043Y-35794D01*
X36059Y-35788D01*
X36089Y-35774D01*
X36108Y-35764D01*
X36131Y-35753D01*
X36141Y-35749D01*
X36150Y-35754D01*
X36171Y-35768D01*
X36203Y-35789D01*
X36241Y-35814D01*
X36277Y-35839D01*
X36310Y-35861D01*
X36334Y-35876D01*
X36346Y-35883D01*
X36348Y-35883D01*
X36358Y-35877D01*
X36377Y-35861D01*
X36406Y-35834D01*
X36447Y-35793D01*
X36453Y-35787D01*
X36487Y-35753D01*
X36514Y-35724D01*
X36532Y-35704D01*
X36539Y-35695D01*
X36539Y-35695D01*
X36533Y-35683D01*
X36518Y-35659D01*
X36496Y-35625D01*
X36469Y-35586D01*
X36399Y-35484D01*
X36437Y-35388D01*
X36449Y-35358D01*
X36464Y-35323D01*
X36475Y-35297D01*
X36481Y-35286D01*
X36491Y-35282D01*
X36518Y-35276D01*
X36556Y-35268D01*
X36601Y-35260D01*
X36645Y-35252D01*
X36684Y-35244D01*
X36712Y-35239D01*
X36725Y-35236D01*
X36728Y-35234D01*
X36731Y-35228D01*
X36732Y-35215D01*
X36733Y-35191D01*
X36734Y-35154D01*
X36734Y-35099D01*
X36734Y-35093D01*
X36733Y-35042D01*
X36732Y-35000D01*
X36731Y-34974D01*
X36729Y-34963D01*
X36729Y-34963D01*
X36717Y-34960D01*
X36689Y-34954D01*
X36650Y-34947D01*
X36603Y-34938D01*
X36600Y-34937D01*
X36554Y-34928D01*
X36515Y-34920D01*
X36487Y-34914D01*
X36476Y-34910D01*
X36473Y-34907D01*
X36464Y-34889D01*
X36451Y-34860D01*
X36435Y-34825D01*
X36420Y-34788D01*
X36407Y-34755D01*
X36398Y-34731D01*
X36395Y-34720D01*
X36396Y-34719D01*
X36403Y-34708D01*
X36419Y-34684D01*
X36441Y-34651D01*
X36468Y-34611D01*
X36470Y-34608D01*
X36497Y-34569D01*
X36519Y-34535D01*
X36533Y-34512D01*
X36539Y-34501D01*
X36539Y-34500D01*
X36530Y-34488D01*
X36510Y-34466D01*
X36481Y-34436D01*
X36447Y-34401D01*
X36436Y-34391D01*
X36397Y-34353D01*
X36371Y-34329D01*
X36354Y-34316D01*
X36346Y-34313D01*
X36346Y-34313D01*
X36334Y-34320D01*
X36309Y-34336D01*
X36276Y-34359D01*
X36236Y-34386D01*
X36233Y-34388D01*
X36194Y-34415D01*
X36161Y-34437D01*
X36138Y-34453D01*
X36127Y-34459D01*
X36126Y-34459D01*
X36110Y-34454D01*
X36082Y-34444D01*
X36047Y-34431D01*
X36011Y-34416D01*
X35978Y-34402D01*
X35953Y-34391D01*
X35941Y-34384D01*
X35941Y-34384D01*
X35937Y-34370D01*
X35930Y-34340D01*
X35922Y-34300D01*
X35912Y-34252D01*
X35911Y-34244D01*
X35902Y-34197D01*
X35895Y-34158D01*
X35889Y-34131D01*
X35886Y-34120D01*
X35880Y-34119D01*
X35857Y-34117D01*
X35822Y-34116D01*
X35779Y-34116D01*
X35735Y-34116D01*
X35692Y-34117D01*
X35655Y-34118D01*
X35628Y-34120D01*
X35617Y-34122D01*
X35617Y-34123D01*
X35613Y-34138D01*
X35606Y-34167D01*
X35598Y-34208D01*
X35589Y-34256D01*
X35587Y-34265D01*
X35578Y-34311D01*
X35570Y-34350D01*
X35565Y-34376D01*
X35562Y-34387D01*
X35557Y-34389D01*
X35538Y-34397D01*
X35507Y-34410D01*
X35468Y-34426D01*
X35378Y-34462D01*
X35267Y-34387D01*
X35257Y-34380D01*
X35217Y-34353D01*
X35185Y-34331D01*
X35162Y-34316D01*
X35153Y-34311D01*
X35152Y-34311D01*
X35141Y-34321D01*
X35119Y-34342D01*
X35089Y-34371D01*
X35054Y-34405D01*
X35029Y-34431D01*
X34998Y-34462D01*
X34979Y-34483D01*
X34968Y-34496D01*
X34965Y-34504D01*
X34966Y-34510D01*
X34973Y-34521D01*
X34989Y-34545D01*
X35012Y-34579D01*
X35039Y-34618D01*
X35061Y-34651D01*
X35085Y-34688D01*
X35100Y-34714D01*
X35106Y-34727D01*
X35104Y-34732D01*
X35097Y-34754D01*
X35083Y-34787D01*
X35067Y-34826D01*
X35028Y-34913D01*
X34971Y-34924D01*
X34936Y-34931D01*
X34888Y-34940D01*
X34841Y-34949D01*
X34769Y-34963D01*
X34766Y-35229D01*
X34777Y-35234D01*
X34788Y-35237D01*
X34815Y-35243D01*
X34853Y-35251D01*
X34899Y-35259D01*
X34937Y-35266D01*
X34976Y-35274D01*
X35004Y-35279D01*
X35016Y-35282D01*
X35020Y-35286D01*
X35029Y-35305D01*
X35043Y-35335D01*
X35059Y-35371D01*
X35074Y-35408D01*
X35088Y-35443D01*
X35097Y-35469D01*
X35101Y-35482D01*
X35096Y-35493D01*
X35081Y-35516D01*
X35060Y-35548D01*
X35033Y-35587D01*
X35007Y-35625D01*
X34984Y-35658D01*
X34969Y-35682D01*
X34962Y-35693D01*
X34966Y-35700D01*
X34981Y-35719D01*
X35010Y-35749D01*
X35054Y-35792D01*
X35061Y-35799D01*
X35095Y-35832D01*
X35124Y-35859D01*
X35145Y-35877D01*
X35154Y-35884D01*
G36*
X19121Y-35861D02*
X19146Y-35858D01*
X19169Y-35850D01*
X19179Y-35845D01*
X19200Y-35830D01*
X19217Y-35812D01*
X19229Y-35791D01*
X19238Y-35769D01*
X19242Y-35745D01*
X19241Y-35721D01*
X19235Y-35697D01*
X19224Y-35673D01*
X19217Y-35664D01*
X19206Y-35652D01*
X19195Y-35642D01*
X19185Y-35634D01*
X19181Y-35632D01*
X19160Y-35622D01*
X19138Y-35616D01*
X19113Y-35615D01*
X19105Y-35616D01*
X19092Y-35618D01*
X19080Y-35621D01*
X19067Y-35626D01*
X19053Y-35634D01*
X19033Y-35650D01*
X19016Y-35670D01*
X19004Y-35692D01*
X19001Y-35703D01*
X18997Y-35715D01*
X18996Y-35724D01*
X18996Y-35726D01*
X18996Y-35726D01*
X18995Y-35721D01*
X18995Y-35720D01*
X18991Y-35704D01*
X18985Y-35688D01*
X18978Y-35674D01*
X18964Y-35656D01*
X18945Y-35638D01*
X18923Y-35626D01*
X18899Y-35618D01*
X18873Y-35615D01*
X18867Y-35615D01*
X18847Y-35617D01*
X18829Y-35623D01*
X18825Y-35624D01*
X18804Y-35636D01*
X18786Y-35651D01*
X18770Y-35670D01*
X18759Y-35690D01*
X18752Y-35712D01*
X18752Y-35713D01*
X18751Y-35719D01*
X18750Y-35722D01*
X18750Y-35722D01*
X18749Y-35718D01*
X18748Y-35712D01*
X18747Y-35710D01*
X18740Y-35688D01*
X18728Y-35668D01*
X18712Y-35649D01*
X18698Y-35637D01*
X18676Y-35625D01*
X18653Y-35617D01*
X18627Y-35615D01*
X18608Y-35616D01*
X18584Y-35623D01*
X18561Y-35634D01*
X18542Y-35649D01*
X18526Y-35669D01*
X18524Y-35672D01*
X18518Y-35681D01*
X18514Y-35689D01*
X18512Y-35694D01*
X18509Y-35705D01*
X18506Y-35716D01*
X18505Y-35724D01*
X18505Y-35725D01*
X18504Y-35726D01*
X18503Y-35720D01*
X18501Y-35707D01*
X18495Y-35690D01*
X18487Y-35675D01*
X18473Y-35655D01*
X18454Y-35638D01*
X18432Y-35626D01*
X18408Y-35618D01*
X18382Y-35615D01*
X18359Y-35617D01*
X18335Y-35624D01*
X18313Y-35635D01*
X18293Y-35652D01*
X18284Y-35663D01*
X18274Y-35677D01*
X18267Y-35692D01*
X18263Y-35705D01*
X18258Y-35730D01*
X18259Y-35754D01*
X18265Y-35777D01*
X18274Y-35798D01*
X18288Y-35818D01*
X18305Y-35834D01*
X18324Y-35847D01*
X18347Y-35856D01*
X18372Y-35860D01*
X18374Y-35860D01*
X18399Y-35860D01*
X18423Y-35854D01*
X18445Y-35843D01*
X18453Y-35838D01*
X18470Y-35823D01*
X18484Y-35806D01*
X18494Y-35787D01*
X18497Y-35780D01*
X18500Y-35770D01*
X18503Y-35759D01*
X18504Y-35751D01*
X18504Y-35746D01*
X18505Y-35751D01*
X18505Y-35755D01*
X18508Y-35766D01*
X18511Y-35778D01*
X18515Y-35788D01*
X18521Y-35800D01*
X18536Y-35820D01*
X18555Y-35837D01*
X18577Y-35850D01*
X18601Y-35858D01*
X18605Y-35859D01*
X18622Y-35861D01*
X18640Y-35860D01*
X18656Y-35858D01*
X18672Y-35852D01*
X18695Y-35841D01*
X18716Y-35824D01*
X18717Y-35822D01*
X18731Y-35805D01*
X18742Y-35784D01*
X18748Y-35763D01*
X18748Y-35762D01*
X18750Y-35756D01*
X18750Y-35754D01*
X18750Y-35756D01*
X18751Y-35761D01*
X18752Y-35763D01*
X18755Y-35775D01*
X18761Y-35789D01*
X18768Y-35803D01*
X18779Y-35818D01*
X18797Y-35835D01*
X18819Y-35849D01*
X18843Y-35857D01*
X18848Y-35858D01*
X18864Y-35860D01*
X18882Y-35860D01*
X18898Y-35858D01*
X18912Y-35854D01*
X18935Y-35844D01*
X18955Y-35829D01*
X18972Y-35810D01*
X18985Y-35788D01*
X18988Y-35781D01*
X18991Y-35770D01*
X18994Y-35759D01*
X18995Y-35751D01*
X18995Y-35750D01*
X18996Y-35750D01*
X18996Y-35755D01*
X18997Y-35755D01*
X19000Y-35771D01*
X19006Y-35787D01*
X19013Y-35802D01*
X19017Y-35807D01*
X19033Y-35826D01*
X19052Y-35841D01*
X19073Y-35852D01*
X19097Y-35859D01*
X19121Y-35861D01*
X19121Y-35861D01*
G37*
X19121Y-35861D02*
X19146Y-35858D01*
X19169Y-35850D01*
X19179Y-35845D01*
X19200Y-35830D01*
X19217Y-35812D01*
X19229Y-35791D01*
X19238Y-35769D01*
X19242Y-35745D01*
X19241Y-35721D01*
X19235Y-35697D01*
X19224Y-35673D01*
X19217Y-35664D01*
X19206Y-35652D01*
X19195Y-35642D01*
X19185Y-35634D01*
X19181Y-35632D01*
X19160Y-35622D01*
X19138Y-35616D01*
X19113Y-35615D01*
X19105Y-35616D01*
X19092Y-35618D01*
X19080Y-35621D01*
X19067Y-35626D01*
X19053Y-35634D01*
X19033Y-35650D01*
X19016Y-35670D01*
X19004Y-35692D01*
X19001Y-35703D01*
X18997Y-35715D01*
X18996Y-35724D01*
X18996Y-35726D01*
X18996Y-35726D01*
X18995Y-35721D01*
X18995Y-35720D01*
X18991Y-35704D01*
X18985Y-35688D01*
X18978Y-35674D01*
X18964Y-35656D01*
X18945Y-35638D01*
X18923Y-35626D01*
X18899Y-35618D01*
X18873Y-35615D01*
X18867Y-35615D01*
X18847Y-35617D01*
X18829Y-35623D01*
X18825Y-35624D01*
X18804Y-35636D01*
X18786Y-35651D01*
X18770Y-35670D01*
X18759Y-35690D01*
X18752Y-35712D01*
X18752Y-35713D01*
X18751Y-35719D01*
X18750Y-35722D01*
X18750Y-35722D01*
X18749Y-35718D01*
X18748Y-35712D01*
X18747Y-35710D01*
X18740Y-35688D01*
X18728Y-35668D01*
X18712Y-35649D01*
X18698Y-35637D01*
X18676Y-35625D01*
X18653Y-35617D01*
X18627Y-35615D01*
X18608Y-35616D01*
X18584Y-35623D01*
X18561Y-35634D01*
X18542Y-35649D01*
X18526Y-35669D01*
X18524Y-35672D01*
X18518Y-35681D01*
X18514Y-35689D01*
X18512Y-35694D01*
X18509Y-35705D01*
X18506Y-35716D01*
X18505Y-35724D01*
X18505Y-35725D01*
X18504Y-35726D01*
X18503Y-35720D01*
X18501Y-35707D01*
X18495Y-35690D01*
X18487Y-35675D01*
X18473Y-35655D01*
X18454Y-35638D01*
X18432Y-35626D01*
X18408Y-35618D01*
X18382Y-35615D01*
X18359Y-35617D01*
X18335Y-35624D01*
X18313Y-35635D01*
X18293Y-35652D01*
X18284Y-35663D01*
X18274Y-35677D01*
X18267Y-35692D01*
X18263Y-35705D01*
X18258Y-35730D01*
X18259Y-35754D01*
X18265Y-35777D01*
X18274Y-35798D01*
X18288Y-35818D01*
X18305Y-35834D01*
X18324Y-35847D01*
X18347Y-35856D01*
X18372Y-35860D01*
X18374Y-35860D01*
X18399Y-35860D01*
X18423Y-35854D01*
X18445Y-35843D01*
X18453Y-35838D01*
X18470Y-35823D01*
X18484Y-35806D01*
X18494Y-35787D01*
X18497Y-35780D01*
X18500Y-35770D01*
X18503Y-35759D01*
X18504Y-35751D01*
X18504Y-35746D01*
X18505Y-35751D01*
X18505Y-35755D01*
X18508Y-35766D01*
X18511Y-35778D01*
X18515Y-35788D01*
X18521Y-35800D01*
X18536Y-35820D01*
X18555Y-35837D01*
X18577Y-35850D01*
X18601Y-35858D01*
X18605Y-35859D01*
X18622Y-35861D01*
X18640Y-35860D01*
X18656Y-35858D01*
X18672Y-35852D01*
X18695Y-35841D01*
X18716Y-35824D01*
X18717Y-35822D01*
X18731Y-35805D01*
X18742Y-35784D01*
X18748Y-35763D01*
X18748Y-35762D01*
X18750Y-35756D01*
X18750Y-35754D01*
X18750Y-35756D01*
X18751Y-35761D01*
X18752Y-35763D01*
X18755Y-35775D01*
X18761Y-35789D01*
X18768Y-35803D01*
X18779Y-35818D01*
X18797Y-35835D01*
X18819Y-35849D01*
X18843Y-35857D01*
X18848Y-35858D01*
X18864Y-35860D01*
X18882Y-35860D01*
X18898Y-35858D01*
X18912Y-35854D01*
X18935Y-35844D01*
X18955Y-35829D01*
X18972Y-35810D01*
X18985Y-35788D01*
X18988Y-35781D01*
X18991Y-35770D01*
X18994Y-35759D01*
X18995Y-35751D01*
X18995Y-35750D01*
X18996Y-35750D01*
X18996Y-35755D01*
X18997Y-35755D01*
X19000Y-35771D01*
X19006Y-35787D01*
X19013Y-35802D01*
X19017Y-35807D01*
X19033Y-35826D01*
X19052Y-35841D01*
X19073Y-35852D01*
X19097Y-35859D01*
X19121Y-35861D01*
G36*
X18127Y-35615D02*
X18142Y-35614D01*
X18157Y-35613D01*
X18173Y-35609D01*
X18196Y-35599D01*
X18217Y-35584D01*
X18234Y-35566D01*
X18247Y-35544D01*
X18255Y-35521D01*
X18258Y-35496D01*
X18257Y-35471D01*
X18250Y-35447D01*
X18239Y-35425D01*
X18223Y-35406D01*
X18204Y-35389D01*
X18197Y-35385D01*
X18174Y-35375D01*
X18149Y-35369D01*
X18124Y-35369D01*
X18098Y-35374D01*
X18078Y-35383D01*
X18057Y-35397D01*
X18039Y-35415D01*
X18025Y-35437D01*
X18016Y-35461D01*
X18013Y-35474D01*
X18012Y-35490D01*
X18013Y-35506D01*
X18015Y-35519D01*
X18016Y-35524D01*
X18026Y-35548D01*
X18040Y-35570D01*
X18059Y-35588D01*
X18081Y-35602D01*
X18092Y-35607D01*
X18106Y-35611D01*
X18119Y-35614D01*
X18127Y-35615D01*
X18127Y-35615D01*
G37*
X18127Y-35615D02*
X18142Y-35614D01*
X18157Y-35613D01*
X18173Y-35609D01*
X18196Y-35599D01*
X18217Y-35584D01*
X18234Y-35566D01*
X18247Y-35544D01*
X18255Y-35521D01*
X18258Y-35496D01*
X18257Y-35471D01*
X18250Y-35447D01*
X18239Y-35425D01*
X18223Y-35406D01*
X18204Y-35389D01*
X18197Y-35385D01*
X18174Y-35375D01*
X18149Y-35369D01*
X18124Y-35369D01*
X18098Y-35374D01*
X18078Y-35383D01*
X18057Y-35397D01*
X18039Y-35415D01*
X18025Y-35437D01*
X18016Y-35461D01*
X18013Y-35474D01*
X18012Y-35490D01*
X18013Y-35506D01*
X18015Y-35519D01*
X18016Y-35524D01*
X18026Y-35548D01*
X18040Y-35570D01*
X18059Y-35588D01*
X18081Y-35602D01*
X18092Y-35607D01*
X18106Y-35611D01*
X18119Y-35614D01*
X18127Y-35615D01*
G36*
X19367Y-35615D02*
X19393Y-35612D01*
X19417Y-35603D01*
X19440Y-35589D01*
X19445Y-35585D01*
X19462Y-35567D01*
X19475Y-35546D01*
X19484Y-35522D01*
X19487Y-35509D01*
X19488Y-35493D01*
X19487Y-35478D01*
X19485Y-35465D01*
X19484Y-35459D01*
X19474Y-35434D01*
X19460Y-35413D01*
X19442Y-35396D01*
X19421Y-35382D01*
X19397Y-35373D01*
X19371Y-35369D01*
X19362Y-35369D01*
X19337Y-35372D01*
X19314Y-35379D01*
X19293Y-35391D01*
X19275Y-35407D01*
X19261Y-35426D01*
X19250Y-35448D01*
X19243Y-35472D01*
X19242Y-35497D01*
X19243Y-35512D01*
X19246Y-35526D01*
X19252Y-35540D01*
X19262Y-35559D01*
X19277Y-35578D01*
X19297Y-35594D01*
X19318Y-35606D01*
X19342Y-35613D01*
X19367Y-35615D01*
X19367Y-35615D01*
G37*
X19367Y-35615D02*
X19393Y-35612D01*
X19417Y-35603D01*
X19440Y-35589D01*
X19445Y-35585D01*
X19462Y-35567D01*
X19475Y-35546D01*
X19484Y-35522D01*
X19487Y-35509D01*
X19488Y-35493D01*
X19487Y-35478D01*
X19485Y-35465D01*
X19484Y-35459D01*
X19474Y-35434D01*
X19460Y-35413D01*
X19442Y-35396D01*
X19421Y-35382D01*
X19397Y-35373D01*
X19371Y-35369D01*
X19362Y-35369D01*
X19337Y-35372D01*
X19314Y-35379D01*
X19293Y-35391D01*
X19275Y-35407D01*
X19261Y-35426D01*
X19250Y-35448D01*
X19243Y-35472D01*
X19242Y-35497D01*
X19243Y-35512D01*
X19246Y-35526D01*
X19252Y-35540D01*
X19262Y-35559D01*
X19277Y-35578D01*
X19297Y-35594D01*
X19318Y-35606D01*
X19342Y-35613D01*
X19367Y-35615D01*
G36*
X17882Y-35368D02*
X17900Y-35368D01*
X17915Y-35366D01*
X17933Y-35361D01*
X17955Y-35349D01*
X17976Y-35332D01*
X17989Y-35317D01*
X18001Y-35296D01*
X18010Y-35272D01*
X18011Y-35262D01*
X18012Y-35248D01*
X18012Y-35233D01*
X18010Y-35220D01*
X18008Y-35213D01*
X17998Y-35188D01*
X17984Y-35167D01*
X17966Y-35149D01*
X17944Y-35135D01*
X17935Y-35131D01*
X17919Y-35126D01*
X17903Y-35124D01*
X17885Y-35123D01*
X17873Y-35124D01*
X17860Y-35126D01*
X17848Y-35129D01*
X17834Y-35135D01*
X17826Y-35140D01*
X17806Y-35155D01*
X17789Y-35174D01*
X17776Y-35196D01*
X17768Y-35221D01*
X17767Y-35227D01*
X17766Y-35242D01*
X17767Y-35257D01*
X17768Y-35270D01*
X17770Y-35279D01*
X17780Y-35303D01*
X17794Y-35324D01*
X17812Y-35342D01*
X17834Y-35355D01*
X17859Y-35365D01*
X17866Y-35366D01*
X17882Y-35368D01*
X17882Y-35368D01*
G37*
X17882Y-35368D02*
X17900Y-35368D01*
X17915Y-35366D01*
X17933Y-35361D01*
X17955Y-35349D01*
X17976Y-35332D01*
X17989Y-35317D01*
X18001Y-35296D01*
X18010Y-35272D01*
X18011Y-35262D01*
X18012Y-35248D01*
X18012Y-35233D01*
X18010Y-35220D01*
X18008Y-35213D01*
X17998Y-35188D01*
X17984Y-35167D01*
X17966Y-35149D01*
X17944Y-35135D01*
X17935Y-35131D01*
X17919Y-35126D01*
X17903Y-35124D01*
X17885Y-35123D01*
X17873Y-35124D01*
X17860Y-35126D01*
X17848Y-35129D01*
X17834Y-35135D01*
X17826Y-35140D01*
X17806Y-35155D01*
X17789Y-35174D01*
X17776Y-35196D01*
X17768Y-35221D01*
X17767Y-35227D01*
X17766Y-35242D01*
X17767Y-35257D01*
X17768Y-35270D01*
X17770Y-35279D01*
X17780Y-35303D01*
X17794Y-35324D01*
X17812Y-35342D01*
X17834Y-35355D01*
X17859Y-35365D01*
X17866Y-35366D01*
X17882Y-35368D01*
G36*
X18870Y-35368D02*
X18894Y-35367D01*
X18918Y-35360D01*
X18931Y-35354D01*
X18952Y-35339D01*
X18970Y-35321D01*
X18983Y-35299D01*
X18992Y-35275D01*
X18993Y-35270D01*
X18996Y-35250D01*
X18995Y-35231D01*
X18990Y-35210D01*
X18980Y-35186D01*
X18966Y-35165D01*
X18947Y-35148D01*
X18925Y-35135D01*
X18900Y-35126D01*
X18885Y-35122D01*
X18893Y-35121D01*
X18895Y-35121D01*
X18913Y-35116D01*
X18931Y-35108D01*
X18948Y-35097D01*
X18951Y-35094D01*
X18969Y-35076D01*
X18982Y-35056D01*
X18991Y-35033D01*
X18995Y-35009D01*
X18995Y-34985D01*
X18989Y-34961D01*
X18979Y-34938D01*
X18978Y-34937D01*
X18963Y-34917D01*
X18944Y-34900D01*
X18923Y-34888D01*
X18901Y-34881D01*
X18877Y-34878D01*
X18853Y-34879D01*
X18830Y-34885D01*
X18808Y-34896D01*
X18788Y-34911D01*
X18777Y-34923D01*
X18765Y-34941D01*
X18756Y-34960D01*
X18751Y-34978D01*
X18751Y-34983D01*
X18750Y-34985D01*
X18750Y-34983D01*
X18749Y-34978D01*
X18744Y-34962D01*
X18737Y-34944D01*
X18727Y-34928D01*
X18720Y-34920D01*
X18702Y-34902D01*
X18680Y-34889D01*
X18657Y-34881D01*
X18632Y-34877D01*
X18607Y-34879D01*
X18591Y-34883D01*
X18568Y-34893D01*
X18547Y-34907D01*
X18530Y-34925D01*
X18517Y-34947D01*
X18508Y-34971D01*
X18506Y-34983D01*
X18505Y-35008D01*
X18509Y-35033D01*
X18518Y-35056D01*
X18532Y-35076D01*
X18549Y-35094D01*
X18571Y-35109D01*
X18581Y-35113D01*
X18592Y-35117D01*
X18603Y-35120D01*
X18611Y-35122D01*
X18612Y-35122D01*
X18612Y-35122D01*
X18606Y-35124D01*
X18594Y-35127D01*
X18578Y-35133D01*
X18564Y-35140D01*
X18556Y-35145D01*
X18539Y-35160D01*
X18525Y-35177D01*
X18514Y-35196D01*
X18508Y-35216D01*
X18505Y-35239D01*
X18505Y-35260D01*
X18506Y-35264D01*
X18512Y-35290D01*
X18524Y-35312D01*
X18541Y-35332D01*
X18555Y-35345D01*
X18577Y-35358D01*
X18601Y-35366D01*
X18610Y-35367D01*
X18624Y-35368D01*
X18638Y-35367D01*
X18651Y-35366D01*
X18661Y-35364D01*
X18669Y-35362D01*
X18693Y-35350D01*
X18713Y-35334D01*
X18730Y-35314D01*
X18736Y-35304D01*
X18743Y-35287D01*
X18748Y-35271D01*
X18748Y-35270D01*
X18750Y-35264D01*
X18750Y-35262D01*
X18750Y-35262D01*
X18750Y-35229D01*
X18750Y-35229D01*
X18749Y-35226D01*
X18748Y-35220D01*
X18748Y-35218D01*
X18740Y-35196D01*
X18729Y-35176D01*
X18713Y-35157D01*
X18694Y-35142D01*
X18673Y-35131D01*
X18672Y-35131D01*
X18661Y-35127D01*
X18651Y-35125D01*
X18640Y-35122D01*
X18650Y-35120D01*
X18665Y-35117D01*
X18687Y-35107D01*
X18707Y-35093D01*
X18724Y-35076D01*
X18737Y-35056D01*
X18742Y-35045D01*
X18746Y-35032D01*
X18749Y-35022D01*
X18749Y-35017D01*
X18750Y-35015D01*
X18750Y-35017D01*
X18751Y-35022D01*
X18753Y-35031D01*
X18758Y-35044D01*
X18763Y-35056D01*
X18770Y-35068D01*
X18786Y-35087D01*
X18805Y-35103D01*
X18827Y-35114D01*
X18850Y-35121D01*
X18861Y-35122D01*
X18850Y-35125D01*
X18848Y-35125D01*
X18837Y-35128D01*
X18827Y-35131D01*
X18825Y-35132D01*
X18804Y-35143D01*
X18786Y-35159D01*
X18770Y-35177D01*
X18759Y-35198D01*
X18752Y-35220D01*
X18752Y-35221D01*
X18751Y-35227D01*
X18750Y-35229D01*
X18750Y-35262D01*
X18750Y-35262D01*
X18751Y-35265D01*
X18752Y-35271D01*
X18756Y-35287D01*
X18767Y-35309D01*
X18782Y-35329D01*
X18800Y-35345D01*
X18822Y-35358D01*
X18822Y-35358D01*
X18845Y-35365D01*
X18870Y-35368D01*
X18870Y-35368D01*
G37*
X18870Y-35368D02*
X18894Y-35367D01*
X18918Y-35360D01*
X18931Y-35354D01*
X18952Y-35339D01*
X18970Y-35321D01*
X18983Y-35299D01*
X18992Y-35275D01*
X18993Y-35270D01*
X18996Y-35250D01*
X18995Y-35231D01*
X18990Y-35210D01*
X18980Y-35186D01*
X18966Y-35165D01*
X18947Y-35148D01*
X18925Y-35135D01*
X18900Y-35126D01*
X18885Y-35122D01*
X18893Y-35121D01*
X18895Y-35121D01*
X18913Y-35116D01*
X18931Y-35108D01*
X18948Y-35097D01*
X18951Y-35094D01*
X18969Y-35076D01*
X18982Y-35056D01*
X18991Y-35033D01*
X18995Y-35009D01*
X18995Y-34985D01*
X18989Y-34961D01*
X18979Y-34938D01*
X18978Y-34937D01*
X18963Y-34917D01*
X18944Y-34900D01*
X18923Y-34888D01*
X18901Y-34881D01*
X18877Y-34878D01*
X18853Y-34879D01*
X18830Y-34885D01*
X18808Y-34896D01*
X18788Y-34911D01*
X18777Y-34923D01*
X18765Y-34941D01*
X18756Y-34960D01*
X18751Y-34978D01*
X18751Y-34983D01*
X18750Y-34985D01*
X18750Y-34983D01*
X18749Y-34978D01*
X18744Y-34962D01*
X18737Y-34944D01*
X18727Y-34928D01*
X18720Y-34920D01*
X18702Y-34902D01*
X18680Y-34889D01*
X18657Y-34881D01*
X18632Y-34877D01*
X18607Y-34879D01*
X18591Y-34883D01*
X18568Y-34893D01*
X18547Y-34907D01*
X18530Y-34925D01*
X18517Y-34947D01*
X18508Y-34971D01*
X18506Y-34983D01*
X18505Y-35008D01*
X18509Y-35033D01*
X18518Y-35056D01*
X18532Y-35076D01*
X18549Y-35094D01*
X18571Y-35109D01*
X18581Y-35113D01*
X18592Y-35117D01*
X18603Y-35120D01*
X18611Y-35122D01*
X18612Y-35122D01*
X18612Y-35122D01*
X18606Y-35124D01*
X18594Y-35127D01*
X18578Y-35133D01*
X18564Y-35140D01*
X18556Y-35145D01*
X18539Y-35160D01*
X18525Y-35177D01*
X18514Y-35196D01*
X18508Y-35216D01*
X18505Y-35239D01*
X18505Y-35260D01*
X18506Y-35264D01*
X18512Y-35290D01*
X18524Y-35312D01*
X18541Y-35332D01*
X18555Y-35345D01*
X18577Y-35358D01*
X18601Y-35366D01*
X18610Y-35367D01*
X18624Y-35368D01*
X18638Y-35367D01*
X18651Y-35366D01*
X18661Y-35364D01*
X18669Y-35362D01*
X18693Y-35350D01*
X18713Y-35334D01*
X18730Y-35314D01*
X18736Y-35304D01*
X18743Y-35287D01*
X18748Y-35271D01*
X18748Y-35270D01*
X18750Y-35264D01*
X18750Y-35262D01*
X18750Y-35262D01*
X18750Y-35229D01*
X18750Y-35229D01*
X18749Y-35226D01*
X18748Y-35220D01*
X18748Y-35218D01*
X18740Y-35196D01*
X18729Y-35176D01*
X18713Y-35157D01*
X18694Y-35142D01*
X18673Y-35131D01*
X18672Y-35131D01*
X18661Y-35127D01*
X18651Y-35125D01*
X18640Y-35122D01*
X18650Y-35120D01*
X18665Y-35117D01*
X18687Y-35107D01*
X18707Y-35093D01*
X18724Y-35076D01*
X18737Y-35056D01*
X18742Y-35045D01*
X18746Y-35032D01*
X18749Y-35022D01*
X18749Y-35017D01*
X18750Y-35015D01*
X18750Y-35017D01*
X18751Y-35022D01*
X18753Y-35031D01*
X18758Y-35044D01*
X18763Y-35056D01*
X18770Y-35068D01*
X18786Y-35087D01*
X18805Y-35103D01*
X18827Y-35114D01*
X18850Y-35121D01*
X18861Y-35122D01*
X18850Y-35125D01*
X18848Y-35125D01*
X18837Y-35128D01*
X18827Y-35131D01*
X18825Y-35132D01*
X18804Y-35143D01*
X18786Y-35159D01*
X18770Y-35177D01*
X18759Y-35198D01*
X18752Y-35220D01*
X18752Y-35221D01*
X18751Y-35227D01*
X18750Y-35229D01*
X18750Y-35262D01*
X18750Y-35262D01*
X18751Y-35265D01*
X18752Y-35271D01*
X18756Y-35287D01*
X18767Y-35309D01*
X18782Y-35329D01*
X18800Y-35345D01*
X18822Y-35358D01*
X18822Y-35358D01*
X18845Y-35365D01*
X18870Y-35368D01*
G36*
X19602Y-35368D02*
X19622Y-35368D01*
X19640Y-35365D01*
X19652Y-35362D01*
X19675Y-35351D01*
X19695Y-35336D01*
X19711Y-35317D01*
X19723Y-35295D01*
X19731Y-35271D01*
X19734Y-35246D01*
X19733Y-35235D01*
X19729Y-35210D01*
X19719Y-35186D01*
X19704Y-35164D01*
X19699Y-35160D01*
X19682Y-35145D01*
X19661Y-35133D01*
X19640Y-35126D01*
X19639Y-35126D01*
X19621Y-35123D01*
X19601Y-35123D01*
X19582Y-35126D01*
X19576Y-35128D01*
X19552Y-35137D01*
X19532Y-35151D01*
X19515Y-35169D01*
X19502Y-35189D01*
X19493Y-35211D01*
X19488Y-35235D01*
X19488Y-35260D01*
X19494Y-35285D01*
X19502Y-35303D01*
X19516Y-35324D01*
X19535Y-35342D01*
X19556Y-35356D01*
X19580Y-35365D01*
X19583Y-35365D01*
X19602Y-35368D01*
X19602Y-35368D01*
G37*
X19602Y-35368D02*
X19622Y-35368D01*
X19640Y-35365D01*
X19652Y-35362D01*
X19675Y-35351D01*
X19695Y-35336D01*
X19711Y-35317D01*
X19723Y-35295D01*
X19731Y-35271D01*
X19734Y-35246D01*
X19733Y-35235D01*
X19729Y-35210D01*
X19719Y-35186D01*
X19704Y-35164D01*
X19699Y-35160D01*
X19682Y-35145D01*
X19661Y-35133D01*
X19640Y-35126D01*
X19639Y-35126D01*
X19621Y-35123D01*
X19601Y-35123D01*
X19582Y-35126D01*
X19576Y-35128D01*
X19552Y-35137D01*
X19532Y-35151D01*
X19515Y-35169D01*
X19502Y-35189D01*
X19493Y-35211D01*
X19488Y-35235D01*
X19488Y-35260D01*
X19494Y-35285D01*
X19502Y-35303D01*
X19516Y-35324D01*
X19535Y-35342D01*
X19556Y-35356D01*
X19580Y-35365D01*
X19583Y-35365D01*
X19602Y-35368D01*
G36*
X18385Y-34631D02*
X18409Y-34628D01*
X18433Y-34620D01*
X18444Y-34614D01*
X18455Y-34606D01*
X18467Y-34596D01*
X18480Y-34582D01*
X18492Y-34562D01*
X18501Y-34538D01*
X18502Y-34531D01*
X18504Y-34515D01*
X18504Y-34497D01*
X18502Y-34482D01*
X18495Y-34462D01*
X18484Y-34440D01*
X18469Y-34422D01*
X18467Y-34419D01*
X18455Y-34410D01*
X18442Y-34401D01*
X18429Y-34395D01*
X18425Y-34393D01*
X18415Y-34390D01*
X18405Y-34387D01*
X18398Y-34386D01*
X18394Y-34386D01*
X18398Y-34385D01*
X18404Y-34383D01*
X18412Y-34381D01*
X18421Y-34379D01*
X18439Y-34370D01*
X18457Y-34359D01*
X18472Y-34346D01*
X18474Y-34343D01*
X18489Y-34322D01*
X18499Y-34298D01*
X18504Y-34274D01*
X18504Y-34249D01*
X18503Y-34243D01*
X18496Y-34218D01*
X18485Y-34196D01*
X18468Y-34175D01*
X18453Y-34162D01*
X18432Y-34150D01*
X18408Y-34142D01*
X18403Y-34141D01*
X18386Y-34139D01*
X18369Y-34140D01*
X18353Y-34142D01*
X18339Y-34147D01*
X18317Y-34158D01*
X18297Y-34173D01*
X18281Y-34191D01*
X18268Y-34213D01*
X18261Y-34236D01*
X18260Y-34239D01*
X18259Y-34245D01*
X18257Y-34247D01*
X18257Y-34245D01*
X18256Y-34239D01*
X18254Y-34229D01*
X18250Y-34218D01*
X18246Y-34208D01*
X18242Y-34201D01*
X18227Y-34180D01*
X18208Y-34163D01*
X18186Y-34150D01*
X18162Y-34142D01*
X18136Y-34139D01*
X18116Y-34141D01*
X18093Y-34147D01*
X18071Y-34157D01*
X18058Y-34166D01*
X18040Y-34184D01*
X18027Y-34205D01*
X18017Y-34228D01*
X18012Y-34252D01*
X18013Y-34276D01*
X18018Y-34299D01*
X18028Y-34323D01*
X18043Y-34344D01*
X18062Y-34361D01*
X18084Y-34374D01*
X18109Y-34383D01*
X18123Y-34386D01*
X18115Y-34387D01*
X18110Y-34388D01*
X18090Y-34394D01*
X18071Y-34404D01*
X18053Y-34417D01*
X18039Y-34432D01*
X18030Y-34445D01*
X18021Y-34462D01*
X18016Y-34478D01*
X18013Y-34491D01*
X18012Y-34507D01*
X18013Y-34522D01*
X18015Y-34535D01*
X18019Y-34550D01*
X18031Y-34573D01*
X18046Y-34594D01*
X18066Y-34610D01*
X18089Y-34622D01*
X18114Y-34630D01*
X18121Y-34631D01*
X18136Y-34631D01*
X18152Y-34630D01*
X18166Y-34628D01*
X18176Y-34625D01*
X18199Y-34613D01*
X18219Y-34598D01*
X18236Y-34579D01*
X18248Y-34557D01*
X18256Y-34533D01*
X18256Y-34531D01*
X18258Y-34525D01*
X18259Y-34526D01*
X18259Y-34492D01*
X18258Y-34491D01*
X18256Y-34486D01*
X18256Y-34485D01*
X18252Y-34468D01*
X18244Y-34451D01*
X18234Y-34435D01*
X18227Y-34426D01*
X18207Y-34408D01*
X18185Y-34396D01*
X18160Y-34388D01*
X18148Y-34385D01*
X18157Y-34384D01*
X18164Y-34382D01*
X18172Y-34380D01*
X18177Y-34378D01*
X18199Y-34367D01*
X18219Y-34352D01*
X18236Y-34333D01*
X18248Y-34312D01*
X18256Y-34288D01*
X18257Y-34282D01*
X18258Y-34279D01*
X18259Y-34281D01*
X18261Y-34289D01*
X18261Y-34289D01*
X18265Y-34302D01*
X18271Y-34317D01*
X18279Y-34330D01*
X18285Y-34338D01*
X18296Y-34350D01*
X18308Y-34361D01*
X18320Y-34369D01*
X18321Y-34370D01*
X18340Y-34378D01*
X18360Y-34384D01*
X18368Y-34385D01*
X18359Y-34387D01*
X18337Y-34393D01*
X18315Y-34405D01*
X18295Y-34420D01*
X18280Y-34439D01*
X18276Y-34445D01*
X18270Y-34457D01*
X18265Y-34469D01*
X18261Y-34481D01*
X18260Y-34489D01*
X18260Y-34489D01*
X18259Y-34492D01*
X18259Y-34526D01*
X18259Y-34526D01*
X18260Y-34531D01*
X18262Y-34538D01*
X18264Y-34546D01*
X18269Y-34559D01*
X18281Y-34580D01*
X18298Y-34598D01*
X18317Y-34613D01*
X18338Y-34623D01*
X18361Y-34630D01*
X18385Y-34631D01*
X18385Y-34631D01*
G37*
X18385Y-34631D02*
X18409Y-34628D01*
X18433Y-34620D01*
X18444Y-34614D01*
X18455Y-34606D01*
X18467Y-34596D01*
X18480Y-34582D01*
X18492Y-34562D01*
X18501Y-34538D01*
X18502Y-34531D01*
X18504Y-34515D01*
X18504Y-34497D01*
X18502Y-34482D01*
X18495Y-34462D01*
X18484Y-34440D01*
X18469Y-34422D01*
X18467Y-34419D01*
X18455Y-34410D01*
X18442Y-34401D01*
X18429Y-34395D01*
X18425Y-34393D01*
X18415Y-34390D01*
X18405Y-34387D01*
X18398Y-34386D01*
X18394Y-34386D01*
X18398Y-34385D01*
X18404Y-34383D01*
X18412Y-34381D01*
X18421Y-34379D01*
X18439Y-34370D01*
X18457Y-34359D01*
X18472Y-34346D01*
X18474Y-34343D01*
X18489Y-34322D01*
X18499Y-34298D01*
X18504Y-34274D01*
X18504Y-34249D01*
X18503Y-34243D01*
X18496Y-34218D01*
X18485Y-34196D01*
X18468Y-34175D01*
X18453Y-34162D01*
X18432Y-34150D01*
X18408Y-34142D01*
X18403Y-34141D01*
X18386Y-34139D01*
X18369Y-34140D01*
X18353Y-34142D01*
X18339Y-34147D01*
X18317Y-34158D01*
X18297Y-34173D01*
X18281Y-34191D01*
X18268Y-34213D01*
X18261Y-34236D01*
X18260Y-34239D01*
X18259Y-34245D01*
X18257Y-34247D01*
X18257Y-34245D01*
X18256Y-34239D01*
X18254Y-34229D01*
X18250Y-34218D01*
X18246Y-34208D01*
X18242Y-34201D01*
X18227Y-34180D01*
X18208Y-34163D01*
X18186Y-34150D01*
X18162Y-34142D01*
X18136Y-34139D01*
X18116Y-34141D01*
X18093Y-34147D01*
X18071Y-34157D01*
X18058Y-34166D01*
X18040Y-34184D01*
X18027Y-34205D01*
X18017Y-34228D01*
X18012Y-34252D01*
X18013Y-34276D01*
X18018Y-34299D01*
X18028Y-34323D01*
X18043Y-34344D01*
X18062Y-34361D01*
X18084Y-34374D01*
X18109Y-34383D01*
X18123Y-34386D01*
X18115Y-34387D01*
X18110Y-34388D01*
X18090Y-34394D01*
X18071Y-34404D01*
X18053Y-34417D01*
X18039Y-34432D01*
X18030Y-34445D01*
X18021Y-34462D01*
X18016Y-34478D01*
X18013Y-34491D01*
X18012Y-34507D01*
X18013Y-34522D01*
X18015Y-34535D01*
X18019Y-34550D01*
X18031Y-34573D01*
X18046Y-34594D01*
X18066Y-34610D01*
X18089Y-34622D01*
X18114Y-34630D01*
X18121Y-34631D01*
X18136Y-34631D01*
X18152Y-34630D01*
X18166Y-34628D01*
X18176Y-34625D01*
X18199Y-34613D01*
X18219Y-34598D01*
X18236Y-34579D01*
X18248Y-34557D01*
X18256Y-34533D01*
X18256Y-34531D01*
X18258Y-34525D01*
X18259Y-34526D01*
X18259Y-34492D01*
X18258Y-34491D01*
X18256Y-34486D01*
X18256Y-34485D01*
X18252Y-34468D01*
X18244Y-34451D01*
X18234Y-34435D01*
X18227Y-34426D01*
X18207Y-34408D01*
X18185Y-34396D01*
X18160Y-34388D01*
X18148Y-34385D01*
X18157Y-34384D01*
X18164Y-34382D01*
X18172Y-34380D01*
X18177Y-34378D01*
X18199Y-34367D01*
X18219Y-34352D01*
X18236Y-34333D01*
X18248Y-34312D01*
X18256Y-34288D01*
X18257Y-34282D01*
X18258Y-34279D01*
X18259Y-34281D01*
X18261Y-34289D01*
X18261Y-34289D01*
X18265Y-34302D01*
X18271Y-34317D01*
X18279Y-34330D01*
X18285Y-34338D01*
X18296Y-34350D01*
X18308Y-34361D01*
X18320Y-34369D01*
X18321Y-34370D01*
X18340Y-34378D01*
X18360Y-34384D01*
X18368Y-34385D01*
X18359Y-34387D01*
X18337Y-34393D01*
X18315Y-34405D01*
X18295Y-34420D01*
X18280Y-34439D01*
X18276Y-34445D01*
X18270Y-34457D01*
X18265Y-34469D01*
X18261Y-34481D01*
X18260Y-34489D01*
X18260Y-34489D01*
X18259Y-34492D01*
X18259Y-34526D01*
X18259Y-34526D01*
X18260Y-34531D01*
X18262Y-34538D01*
X18264Y-34546D01*
X18269Y-34559D01*
X18281Y-34580D01*
X18298Y-34598D01*
X18317Y-34613D01*
X18338Y-34623D01*
X18361Y-34630D01*
X18385Y-34631D01*
G36*
X19125Y-34631D02*
X19149Y-34628D01*
X19172Y-34619D01*
X19193Y-34606D01*
X19211Y-34590D01*
X19226Y-34569D01*
X19236Y-34546D01*
X19238Y-34538D01*
X19240Y-34531D01*
X19240Y-34530D01*
X19241Y-34525D01*
X19241Y-34525D01*
X19241Y-34491D01*
X19240Y-34488D01*
X19238Y-34479D01*
X19234Y-34465D01*
X19223Y-34443D01*
X19208Y-34424D01*
X19189Y-34408D01*
X19167Y-34395D01*
X19143Y-34388D01*
X19132Y-34385D01*
X19140Y-34384D01*
X19141Y-34383D01*
X19161Y-34378D01*
X19180Y-34369D01*
X19188Y-34364D01*
X19200Y-34354D01*
X19212Y-34342D01*
X19221Y-34330D01*
X19228Y-34319D01*
X19235Y-34304D01*
X19239Y-34289D01*
X19240Y-34282D01*
X19242Y-34279D01*
X19243Y-34281D01*
X19244Y-34288D01*
X19249Y-34304D01*
X19260Y-34327D01*
X19276Y-34348D01*
X19295Y-34364D01*
X19318Y-34376D01*
X19343Y-34384D01*
X19352Y-34385D01*
X19340Y-34388D01*
X19329Y-34391D01*
X19305Y-34401D01*
X19284Y-34416D01*
X19266Y-34435D01*
X19261Y-34442D01*
X19255Y-34453D01*
X19249Y-34466D01*
X19246Y-34475D01*
X19244Y-34485D01*
X19244Y-34485D01*
X19242Y-34490D01*
X19241Y-34491D01*
X19241Y-34525D01*
X19242Y-34526D01*
X19244Y-34532D01*
X19246Y-34541D01*
X19253Y-34559D01*
X19263Y-34577D01*
X19270Y-34586D01*
X19288Y-34605D01*
X19310Y-34618D01*
X19335Y-34628D01*
X19345Y-34630D01*
X19363Y-34631D01*
X19380Y-34630D01*
X19395Y-34628D01*
X19397Y-34627D01*
X19421Y-34618D01*
X19443Y-34603D01*
X19461Y-34585D01*
X19475Y-34563D01*
X19484Y-34539D01*
X19486Y-34527D01*
X19488Y-34510D01*
X19487Y-34493D01*
X19484Y-34478D01*
X19480Y-34465D01*
X19471Y-34447D01*
X19461Y-34432D01*
X19450Y-34420D01*
X19435Y-34408D01*
X19419Y-34398D01*
X19413Y-34395D01*
X19402Y-34391D01*
X19390Y-34388D01*
X19381Y-34386D01*
X19381Y-34386D01*
X19383Y-34385D01*
X19391Y-34383D01*
X19405Y-34378D01*
X19421Y-34372D01*
X19434Y-34364D01*
X19437Y-34362D01*
X19453Y-34348D01*
X19467Y-34330D01*
X19478Y-34312D01*
X19481Y-34303D01*
X19487Y-34278D01*
X19488Y-34253D01*
X19483Y-34228D01*
X19482Y-34223D01*
X19471Y-34200D01*
X19456Y-34180D01*
X19437Y-34163D01*
X19415Y-34150D01*
X19391Y-34142D01*
X19387Y-34141D01*
X19371Y-34139D01*
X19352Y-34140D01*
X19336Y-34142D01*
X19333Y-34143D01*
X19308Y-34153D01*
X19286Y-34167D01*
X19268Y-34186D01*
X19254Y-34208D01*
X19251Y-34215D01*
X19247Y-34226D01*
X19244Y-34237D01*
X19243Y-34245D01*
X19243Y-34246D01*
X19242Y-34247D01*
X19241Y-34244D01*
X19239Y-34237D01*
X19235Y-34220D01*
X19224Y-34198D01*
X19209Y-34179D01*
X19191Y-34163D01*
X19169Y-34150D01*
X19169Y-34150D01*
X19146Y-34142D01*
X19122Y-34139D01*
X19097Y-34141D01*
X19074Y-34148D01*
X19060Y-34154D01*
X19039Y-34169D01*
X19021Y-34187D01*
X19008Y-34208D01*
X18999Y-34232D01*
X18998Y-34237D01*
X18995Y-34257D01*
X18996Y-34276D01*
X19001Y-34299D01*
X19012Y-34323D01*
X19026Y-34343D01*
X19045Y-34361D01*
X19067Y-34374D01*
X19093Y-34383D01*
X19098Y-34384D01*
X19102Y-34386D01*
X19102Y-34386D01*
X19095Y-34387D01*
X19081Y-34391D01*
X19065Y-34398D01*
X19051Y-34406D01*
X19037Y-34416D01*
X19020Y-34435D01*
X19007Y-34457D01*
X19005Y-34461D01*
X18998Y-34485D01*
X18996Y-34510D01*
X18999Y-34536D01*
X19007Y-34559D01*
X19012Y-34571D01*
X19020Y-34582D01*
X19030Y-34594D01*
X19031Y-34594D01*
X19051Y-34611D01*
X19073Y-34623D01*
X19098Y-34630D01*
X19100Y-34630D01*
X19125Y-34631D01*
X19125Y-34631D01*
G37*
X19125Y-34631D02*
X19149Y-34628D01*
X19172Y-34619D01*
X19193Y-34606D01*
X19211Y-34590D01*
X19226Y-34569D01*
X19236Y-34546D01*
X19238Y-34538D01*
X19240Y-34531D01*
X19240Y-34530D01*
X19241Y-34525D01*
X19241Y-34525D01*
X19241Y-34491D01*
X19240Y-34488D01*
X19238Y-34479D01*
X19234Y-34465D01*
X19223Y-34443D01*
X19208Y-34424D01*
X19189Y-34408D01*
X19167Y-34395D01*
X19143Y-34388D01*
X19132Y-34385D01*
X19140Y-34384D01*
X19141Y-34383D01*
X19161Y-34378D01*
X19180Y-34369D01*
X19188Y-34364D01*
X19200Y-34354D01*
X19212Y-34342D01*
X19221Y-34330D01*
X19228Y-34319D01*
X19235Y-34304D01*
X19239Y-34289D01*
X19240Y-34282D01*
X19242Y-34279D01*
X19243Y-34281D01*
X19244Y-34288D01*
X19249Y-34304D01*
X19260Y-34327D01*
X19276Y-34348D01*
X19295Y-34364D01*
X19318Y-34376D01*
X19343Y-34384D01*
X19352Y-34385D01*
X19340Y-34388D01*
X19329Y-34391D01*
X19305Y-34401D01*
X19284Y-34416D01*
X19266Y-34435D01*
X19261Y-34442D01*
X19255Y-34453D01*
X19249Y-34466D01*
X19246Y-34475D01*
X19244Y-34485D01*
X19244Y-34485D01*
X19242Y-34490D01*
X19241Y-34491D01*
X19241Y-34525D01*
X19242Y-34526D01*
X19244Y-34532D01*
X19246Y-34541D01*
X19253Y-34559D01*
X19263Y-34577D01*
X19270Y-34586D01*
X19288Y-34605D01*
X19310Y-34618D01*
X19335Y-34628D01*
X19345Y-34630D01*
X19363Y-34631D01*
X19380Y-34630D01*
X19395Y-34628D01*
X19397Y-34627D01*
X19421Y-34618D01*
X19443Y-34603D01*
X19461Y-34585D01*
X19475Y-34563D01*
X19484Y-34539D01*
X19486Y-34527D01*
X19488Y-34510D01*
X19487Y-34493D01*
X19484Y-34478D01*
X19480Y-34465D01*
X19471Y-34447D01*
X19461Y-34432D01*
X19450Y-34420D01*
X19435Y-34408D01*
X19419Y-34398D01*
X19413Y-34395D01*
X19402Y-34391D01*
X19390Y-34388D01*
X19381Y-34386D01*
X19381Y-34386D01*
X19383Y-34385D01*
X19391Y-34383D01*
X19405Y-34378D01*
X19421Y-34372D01*
X19434Y-34364D01*
X19437Y-34362D01*
X19453Y-34348D01*
X19467Y-34330D01*
X19478Y-34312D01*
X19481Y-34303D01*
X19487Y-34278D01*
X19488Y-34253D01*
X19483Y-34228D01*
X19482Y-34223D01*
X19471Y-34200D01*
X19456Y-34180D01*
X19437Y-34163D01*
X19415Y-34150D01*
X19391Y-34142D01*
X19387Y-34141D01*
X19371Y-34139D01*
X19352Y-34140D01*
X19336Y-34142D01*
X19333Y-34143D01*
X19308Y-34153D01*
X19286Y-34167D01*
X19268Y-34186D01*
X19254Y-34208D01*
X19251Y-34215D01*
X19247Y-34226D01*
X19244Y-34237D01*
X19243Y-34245D01*
X19243Y-34246D01*
X19242Y-34247D01*
X19241Y-34244D01*
X19239Y-34237D01*
X19235Y-34220D01*
X19224Y-34198D01*
X19209Y-34179D01*
X19191Y-34163D01*
X19169Y-34150D01*
X19169Y-34150D01*
X19146Y-34142D01*
X19122Y-34139D01*
X19097Y-34141D01*
X19074Y-34148D01*
X19060Y-34154D01*
X19039Y-34169D01*
X19021Y-34187D01*
X19008Y-34208D01*
X18999Y-34232D01*
X18998Y-34237D01*
X18995Y-34257D01*
X18996Y-34276D01*
X19001Y-34299D01*
X19012Y-34323D01*
X19026Y-34343D01*
X19045Y-34361D01*
X19067Y-34374D01*
X19093Y-34383D01*
X19098Y-34384D01*
X19102Y-34386D01*
X19102Y-34386D01*
X19095Y-34387D01*
X19081Y-34391D01*
X19065Y-34398D01*
X19051Y-34406D01*
X19037Y-34416D01*
X19020Y-34435D01*
X19007Y-34457D01*
X19005Y-34461D01*
X18998Y-34485D01*
X18996Y-34510D01*
X18999Y-34536D01*
X19007Y-34559D01*
X19012Y-34571D01*
X19020Y-34582D01*
X19030Y-34594D01*
X19031Y-34594D01*
X19051Y-34611D01*
X19073Y-34623D01*
X19098Y-34630D01*
X19100Y-34630D01*
X19125Y-34631D01*
%LPC*%
G54D16*
X26539Y-44000D03*
X27960Y-44000D03*
X28539Y-44000D03*
X28960Y-44000D03*
X29539Y-44000D03*
X29960Y-44000D03*
X26539Y-42000D03*
X27960Y-42000D03*
X28539Y-42000D03*
X28960Y-42000D03*
X29539Y-42000D03*
X29960Y-42000D03*
X26539Y-28000D03*
X27960Y-28000D03*
X28539Y-28000D03*
X28960Y-28000D03*
X29539Y-28000D03*
X29960Y-28000D03*
X26539Y-26000D03*
X27960Y-26000D03*
X28539Y-26000D03*
X28960Y-26000D03*
X29539Y-26000D03*
X29960Y-26000D03*
G54D17*
X10750Y-33500D03*
X11750Y-33500D03*
X12750Y-33500D03*
X13750Y-33500D03*
G54D18*
X14750Y-33500D03*
G54D17*
X15750Y-33500D03*
X16750Y-33500D03*
X17750Y-33500D03*
G54D19*
X46062Y-35000D03*
X9448Y-35000D03*
G54D16*
X26539Y-32000D03*
X26960Y-32000D03*
X27539Y-32000D03*
X27960Y-32000D03*
X28539Y-32000D03*
X28960Y-32000D03*
X29539Y-32000D03*
X29960Y-32000D03*
G54D18*
X34750Y-38500D03*
G54D17*
X35750Y-38500D03*
X36750Y-38500D03*
X37750Y-38500D03*
X38750Y-38500D03*
G54D18*
X39750Y-38500D03*
G54D17*
X40750Y-38500D03*
X41750Y-38500D03*
X26750Y-38500D03*
X27750Y-38500D03*
X28750Y-38500D03*
G54D18*
X29750Y-38500D03*
G54D17*
X30750Y-38500D03*
X31750Y-38500D03*
X32750Y-38500D03*
X33750Y-38500D03*
X10750Y-40500D03*
X11750Y-40500D03*
X12750Y-40500D03*
X13750Y-40500D03*
G54D18*
X14750Y-40500D03*
G54D17*
X15750Y-40500D03*
X16750Y-40500D03*
X17750Y-40500D03*
G54D18*
X34750Y-31500D03*
G54D17*
X35750Y-31500D03*
X36750Y-31500D03*
X37750Y-31500D03*
X38750Y-31500D03*
G54D18*
X39750Y-31500D03*
G54D17*
X40750Y-31500D03*
X41750Y-31500D03*
X26750Y-30500D03*
X27750Y-30500D03*
X28750Y-30500D03*
G54D18*
X29750Y-30500D03*
G54D17*
X30750Y-30500D03*
X31750Y-30500D03*
X32750Y-30500D03*
X33750Y-30500D03*
X18750Y-30500D03*
G54D18*
X19750Y-30500D03*
G54D17*
X20750Y-30500D03*
X21750Y-30500D03*
X22750Y-30500D03*
X23750Y-30500D03*
G54D18*
X24750Y-30500D03*
G54D17*
X25750Y-30500D03*
X42750Y-32500D03*
X43750Y-32500D03*
G54D18*
X44750Y-32500D03*
G54D17*
X42750Y-31500D03*
X43750Y-31500D03*
G54D18*
X44750Y-31500D03*
G54D17*
X42750Y-30500D03*
X43750Y-30500D03*
G54D18*
X44750Y-30500D03*
G54D17*
X42750Y-29500D03*
X43750Y-29500D03*
G54D18*
X44750Y-29500D03*
G54D17*
X42750Y-27500D03*
X43750Y-27500D03*
G54D18*
X44750Y-27500D03*
G54D17*
X42750Y-26500D03*
X43750Y-26500D03*
G54D18*
X44750Y-26500D03*
G54D17*
X42750Y-33500D03*
X43750Y-33500D03*
G54D18*
X44750Y-33500D03*
G54D17*
X42750Y-40500D03*
X43750Y-40500D03*
G54D18*
X44750Y-40500D03*
G54D17*
X42750Y-39500D03*
X43750Y-39500D03*
G54D18*
X44750Y-39500D03*
G54D17*
X42750Y-38500D03*
X43750Y-38500D03*
G54D18*
X44750Y-38500D03*
G54D17*
X42750Y-37500D03*
X43750Y-37500D03*
G54D18*
X44750Y-37500D03*
G54D17*
X42750Y-36500D03*
X43750Y-36500D03*
G54D18*
X44750Y-36500D03*
G54D17*
X42750Y-43500D03*
X43750Y-43500D03*
G54D18*
X44750Y-43500D03*
G54D17*
X42750Y-42500D03*
X43750Y-42500D03*
G54D18*
X44750Y-42500D03*
G54D16*
X42539Y-26000D03*
X42960Y-26000D03*
X43539Y-26000D03*
X43960Y-26000D03*
X44539Y-26000D03*
X44960Y-26000D03*
X42539Y-28000D03*
X42960Y-28000D03*
X43539Y-28000D03*
X43960Y-28000D03*
X44539Y-28000D03*
X44960Y-28000D03*
X42539Y-29000D03*
X42960Y-29000D03*
X43539Y-29000D03*
X43960Y-29000D03*
X44539Y-29000D03*
X44960Y-29000D03*
X42539Y-30000D03*
X42960Y-30000D03*
X43539Y-30000D03*
X43960Y-30000D03*
X44539Y-30000D03*
X44960Y-30000D03*
X42539Y-31000D03*
X42960Y-31000D03*
X43539Y-31000D03*
X43960Y-31000D03*
X44539Y-31000D03*
X44960Y-31000D03*
X42539Y-32000D03*
X42960Y-32000D03*
X43539Y-32000D03*
X43960Y-32000D03*
X44539Y-32000D03*
X44960Y-32000D03*
X42539Y-33000D03*
X42960Y-33000D03*
X43539Y-33000D03*
X43960Y-33000D03*
X44539Y-33000D03*
X44960Y-33000D03*
X42539Y-44000D03*
X42960Y-44000D03*
X43539Y-44000D03*
X43960Y-44000D03*
X44539Y-44000D03*
X44960Y-44000D03*
X42539Y-42000D03*
X42960Y-42000D03*
X43539Y-42000D03*
X43960Y-42000D03*
X44539Y-42000D03*
X44960Y-42000D03*
X42539Y-41000D03*
X42960Y-41000D03*
X43539Y-41000D03*
X43960Y-41000D03*
X44539Y-41000D03*
X44960Y-41000D03*
X42539Y-40000D03*
X42960Y-40000D03*
X43539Y-40000D03*
X43960Y-40000D03*
X44539Y-40000D03*
X44960Y-40000D03*
X42539Y-39000D03*
X42960Y-39000D03*
X43539Y-39000D03*
X43960Y-39000D03*
X44539Y-39000D03*
X44960Y-39000D03*
X42539Y-38000D03*
X42960Y-38000D03*
X43539Y-38000D03*
X43960Y-38000D03*
X44539Y-38000D03*
X44960Y-38000D03*
X42539Y-37000D03*
X42960Y-37000D03*
X43539Y-37000D03*
X43960Y-37000D03*
X44539Y-37000D03*
X44960Y-37000D03*
X30539Y-29000D03*
X30960Y-29000D03*
X31539Y-29000D03*
X31960Y-29000D03*
X32539Y-29000D03*
X32960Y-29000D03*
X33539Y-29000D03*
X33960Y-29000D03*
G54D17*
X26750Y-33500D03*
X27750Y-33500D03*
X28750Y-33500D03*
G54D18*
X29750Y-33500D03*
G54D17*
X30750Y-33500D03*
X31750Y-33500D03*
X32750Y-33500D03*
X33750Y-33500D03*
X26750Y-29500D03*
X27750Y-29500D03*
X28750Y-29500D03*
G54D18*
X29750Y-29500D03*
G54D17*
X30750Y-29500D03*
X31750Y-29500D03*
X32750Y-29500D03*
X33750Y-29500D03*
X26750Y-31500D03*
X27750Y-31500D03*
X28750Y-31500D03*
G54D18*
X29750Y-31500D03*
G54D17*
X30750Y-31500D03*
X31750Y-31500D03*
X32750Y-31500D03*
X33750Y-31500D03*
X26750Y-32500D03*
X27750Y-32500D03*
X28750Y-32500D03*
G54D18*
X29750Y-32500D03*
G54D17*
X30750Y-32500D03*
X31750Y-32500D03*
X32750Y-32500D03*
X33750Y-32500D03*
X26750Y-36500D03*
X27750Y-36500D03*
X28750Y-36500D03*
G54D18*
X29750Y-36500D03*
G54D17*
X30750Y-36500D03*
X31750Y-36500D03*
X32750Y-36500D03*
X33750Y-36500D03*
X26750Y-40500D03*
X27750Y-40500D03*
X28750Y-40500D03*
G54D18*
X29750Y-40500D03*
G54D17*
X30750Y-40500D03*
X31750Y-40500D03*
X32750Y-40500D03*
X33750Y-40500D03*
X26750Y-39500D03*
X27750Y-39500D03*
X28750Y-39500D03*
G54D18*
X29750Y-39500D03*
G54D17*
X30750Y-39500D03*
X31750Y-39500D03*
X32750Y-39500D03*
X33750Y-39500D03*
X26750Y-37500D03*
X27750Y-37500D03*
X28750Y-37500D03*
G54D18*
X29750Y-37500D03*
G54D17*
X30750Y-37500D03*
X31750Y-37500D03*
X32750Y-37500D03*
X33750Y-37500D03*
G54D16*
X26539Y-29000D03*
X26960Y-29000D03*
X27539Y-29000D03*
X27960Y-29000D03*
X28539Y-29000D03*
X28960Y-29000D03*
X29539Y-29000D03*
X29960Y-29000D03*
X26539Y-30000D03*
X26960Y-30000D03*
X27539Y-30000D03*
X27960Y-30000D03*
X28539Y-30000D03*
X28960Y-30000D03*
X29539Y-30000D03*
X29960Y-30000D03*
X26539Y-31000D03*
X26960Y-31000D03*
X27539Y-31000D03*
X27960Y-31000D03*
X28539Y-31000D03*
X28960Y-31000D03*
X29539Y-31000D03*
X29960Y-31000D03*
X26539Y-33000D03*
X26960Y-33000D03*
X27539Y-33000D03*
X27960Y-33000D03*
X28539Y-33000D03*
X28960Y-33000D03*
X29539Y-33000D03*
X29960Y-33000D03*
X26539Y-37000D03*
X26960Y-37000D03*
X27539Y-37000D03*
X27960Y-37000D03*
X28539Y-37000D03*
X28960Y-37000D03*
X29539Y-37000D03*
X29960Y-37000D03*
X26539Y-38000D03*
X26960Y-38000D03*
X27539Y-38000D03*
X27960Y-38000D03*
X28539Y-38000D03*
X28960Y-38000D03*
X29539Y-38000D03*
X29960Y-38000D03*
X26539Y-39000D03*
X26960Y-39000D03*
X27539Y-39000D03*
X27960Y-39000D03*
X28539Y-39000D03*
X28960Y-39000D03*
X29539Y-39000D03*
X29960Y-39000D03*
X26539Y-40000D03*
X26960Y-40000D03*
X27539Y-40000D03*
X27960Y-40000D03*
X28539Y-40000D03*
X28960Y-40000D03*
X29539Y-40000D03*
X29960Y-40000D03*
X26539Y-41000D03*
X26960Y-41000D03*
X27539Y-41000D03*
X27960Y-41000D03*
X28539Y-41000D03*
X28960Y-41000D03*
X29539Y-41000D03*
X29960Y-41000D03*
X30539Y-30000D03*
X30960Y-30000D03*
X31539Y-30000D03*
X31960Y-30000D03*
X32539Y-30000D03*
X32960Y-30000D03*
X33539Y-30000D03*
X33960Y-30000D03*
X30539Y-31000D03*
X30960Y-31000D03*
X31539Y-31000D03*
X31960Y-31000D03*
X32539Y-31000D03*
X32960Y-31000D03*
X33539Y-31000D03*
X33960Y-31000D03*
X30539Y-32000D03*
X30960Y-32000D03*
X31539Y-32000D03*
X31960Y-32000D03*
X32539Y-32000D03*
X32960Y-32000D03*
X33539Y-32000D03*
X33960Y-32000D03*
X30539Y-33000D03*
X30960Y-33000D03*
X31539Y-33000D03*
X31960Y-33000D03*
X32539Y-33000D03*
X32960Y-33000D03*
X33539Y-33000D03*
X33960Y-33000D03*
X30539Y-41000D03*
X30960Y-41000D03*
X31539Y-41000D03*
X31960Y-41000D03*
X32539Y-41000D03*
X32960Y-41000D03*
X33539Y-41000D03*
X33960Y-41000D03*
X30539Y-40000D03*
X30960Y-40000D03*
X31539Y-40000D03*
X31960Y-40000D03*
X32539Y-40000D03*
X32960Y-40000D03*
X33539Y-40000D03*
X33960Y-40000D03*
X30539Y-39000D03*
X30960Y-39000D03*
X31539Y-39000D03*
X31960Y-39000D03*
X32539Y-39000D03*
X32960Y-39000D03*
X33539Y-39000D03*
X33960Y-39000D03*
X30539Y-38000D03*
X30960Y-38000D03*
X31539Y-38000D03*
X31960Y-38000D03*
X32539Y-38000D03*
X32960Y-38000D03*
X33539Y-38000D03*
X33960Y-38000D03*
X30539Y-37000D03*
X30960Y-37000D03*
X31539Y-37000D03*
X31960Y-37000D03*
X32539Y-37000D03*
X32960Y-37000D03*
X33539Y-37000D03*
X33960Y-37000D03*
X30539Y-42000D03*
X30960Y-42000D03*
X31539Y-42000D03*
X31960Y-42000D03*
X32539Y-42000D03*
X32960Y-42000D03*
X33539Y-42000D03*
X33960Y-42000D03*
G54D17*
X26750Y-42500D03*
X27750Y-42500D03*
X28750Y-42500D03*
G54D18*
X29750Y-42500D03*
G54D17*
X30750Y-42500D03*
X31750Y-42500D03*
X32750Y-42500D03*
X33750Y-42500D03*
X26750Y-43500D03*
X27750Y-43500D03*
X28750Y-43500D03*
G54D18*
X29750Y-43500D03*
G54D17*
X30750Y-43500D03*
X31750Y-43500D03*
X32750Y-43500D03*
X33750Y-43500D03*
G54D16*
X30539Y-44000D03*
X30960Y-44000D03*
X31539Y-44000D03*
X31960Y-44000D03*
X32539Y-44000D03*
X32960Y-44000D03*
X33539Y-44000D03*
X33960Y-44000D03*
X30539Y-28000D03*
X30960Y-28000D03*
X31539Y-28000D03*
X31960Y-28000D03*
X32539Y-28000D03*
X32960Y-28000D03*
X33539Y-28000D03*
X33960Y-28000D03*
G54D17*
X26750Y-27500D03*
X27750Y-27500D03*
X28750Y-27500D03*
G54D18*
X29750Y-27500D03*
G54D17*
X30750Y-27500D03*
X31750Y-27500D03*
X32750Y-27500D03*
X33750Y-27500D03*
X26750Y-26500D03*
X27750Y-26500D03*
X28750Y-26500D03*
G54D18*
X29750Y-26500D03*
G54D17*
X30750Y-26500D03*
X31750Y-26500D03*
X32750Y-26500D03*
X33750Y-26500D03*
G54D16*
X30539Y-26000D03*
X30960Y-26000D03*
X31539Y-26000D03*
X31960Y-26000D03*
X32539Y-26000D03*
X32960Y-26000D03*
X33539Y-26000D03*
X33960Y-26000D03*
X34539Y-26000D03*
X34960Y-26000D03*
X35539Y-26000D03*
X35960Y-26000D03*
X36539Y-26000D03*
X36960Y-26000D03*
X37539Y-26000D03*
X37960Y-26000D03*
X38539Y-26000D03*
X38960Y-26000D03*
X39539Y-26000D03*
X39960Y-26000D03*
X40539Y-26000D03*
X40960Y-26000D03*
X41539Y-26000D03*
X41960Y-26000D03*
G54D18*
X34750Y-26500D03*
G54D17*
X35750Y-26500D03*
X36750Y-26500D03*
X37750Y-26500D03*
X38750Y-26500D03*
G54D18*
X39750Y-26500D03*
G54D17*
X40750Y-26500D03*
X41750Y-26500D03*
G54D18*
X34750Y-27500D03*
G54D17*
X35750Y-27500D03*
X36750Y-27500D03*
X37750Y-27500D03*
X38750Y-27500D03*
G54D18*
X39750Y-27500D03*
G54D17*
X40750Y-27500D03*
X41750Y-27500D03*
G54D16*
X38539Y-28000D03*
X38960Y-28000D03*
X39539Y-28000D03*
X39960Y-28000D03*
X40539Y-28000D03*
X40960Y-28000D03*
X41539Y-28000D03*
X41960Y-28000D03*
X34539Y-28000D03*
X34960Y-28000D03*
X35539Y-28000D03*
X35960Y-28000D03*
X36539Y-28000D03*
X36960Y-28000D03*
X37539Y-28000D03*
X37960Y-28000D03*
X34539Y-44000D03*
X34960Y-44000D03*
X35539Y-44000D03*
X35960Y-44000D03*
X36539Y-44000D03*
X36960Y-44000D03*
X37539Y-44000D03*
X37960Y-44000D03*
X38539Y-44000D03*
X38960Y-44000D03*
X39539Y-44000D03*
X39960Y-44000D03*
X40539Y-44000D03*
X40960Y-44000D03*
X41539Y-44000D03*
X41960Y-44000D03*
G54D18*
X34750Y-43500D03*
G54D17*
X35750Y-43500D03*
X36750Y-43500D03*
X37750Y-43500D03*
X38750Y-43500D03*
G54D18*
X39750Y-43500D03*
G54D17*
X40750Y-43500D03*
X41750Y-43500D03*
G54D18*
X34750Y-42500D03*
G54D17*
X35750Y-42500D03*
X36750Y-42500D03*
X37750Y-42500D03*
X38750Y-42500D03*
G54D18*
X39750Y-42500D03*
G54D17*
X40750Y-42500D03*
X41750Y-42500D03*
G54D16*
X38539Y-42000D03*
X38960Y-42000D03*
X39539Y-42000D03*
X39960Y-42000D03*
X40539Y-42000D03*
X40960Y-42000D03*
X41539Y-42000D03*
X41960Y-42000D03*
X34539Y-42000D03*
X34960Y-42000D03*
X35539Y-42000D03*
X35960Y-42000D03*
X36539Y-42000D03*
X36960Y-42000D03*
X37539Y-42000D03*
X37960Y-42000D03*
X38539Y-37000D03*
X38960Y-37000D03*
X39539Y-37000D03*
X39960Y-37000D03*
X40539Y-37000D03*
X40960Y-37000D03*
X41539Y-37000D03*
X41960Y-37000D03*
X38539Y-38000D03*
X38960Y-38000D03*
X39539Y-38000D03*
X39960Y-38000D03*
X40539Y-38000D03*
X40960Y-38000D03*
X41539Y-38000D03*
X41960Y-38000D03*
X38539Y-39000D03*
X38960Y-39000D03*
X39539Y-39000D03*
X39960Y-39000D03*
X40539Y-39000D03*
X40960Y-39000D03*
X41539Y-39000D03*
X41960Y-39000D03*
X38539Y-40000D03*
X38960Y-40000D03*
X39539Y-40000D03*
X39960Y-40000D03*
X40539Y-40000D03*
X40960Y-40000D03*
X41539Y-40000D03*
X41960Y-40000D03*
X38539Y-41000D03*
X38960Y-41000D03*
X39539Y-41000D03*
X39960Y-41000D03*
X40539Y-41000D03*
X40960Y-41000D03*
X41539Y-41000D03*
X41960Y-41000D03*
X38539Y-33000D03*
X38960Y-33000D03*
X39539Y-33000D03*
X39960Y-33000D03*
X40539Y-33000D03*
X40960Y-33000D03*
X41539Y-33000D03*
X41960Y-33000D03*
X38539Y-32000D03*
X38960Y-32000D03*
X39539Y-32000D03*
X39960Y-32000D03*
X40539Y-32000D03*
X40960Y-32000D03*
X41539Y-32000D03*
X41960Y-32000D03*
X38539Y-31000D03*
X38960Y-31000D03*
X39539Y-31000D03*
X39960Y-31000D03*
X40539Y-31000D03*
X40960Y-31000D03*
X41539Y-31000D03*
X41960Y-31000D03*
X38539Y-30000D03*
X38960Y-30000D03*
X39539Y-30000D03*
X39960Y-30000D03*
X40539Y-30000D03*
X40960Y-30000D03*
X41539Y-30000D03*
X41960Y-30000D03*
X34539Y-41000D03*
X34960Y-41000D03*
X35539Y-41000D03*
X35960Y-41000D03*
X36539Y-41000D03*
X36960Y-41000D03*
X37539Y-41000D03*
X37960Y-41000D03*
X34539Y-40000D03*
X34960Y-40000D03*
X35539Y-40000D03*
X35960Y-40000D03*
X36539Y-40000D03*
X36960Y-40000D03*
X37539Y-40000D03*
X37960Y-40000D03*
X34539Y-39000D03*
X34960Y-39000D03*
X35539Y-39000D03*
X35960Y-39000D03*
X36539Y-39000D03*
X36960Y-39000D03*
X37539Y-39000D03*
X37960Y-39000D03*
X34539Y-38000D03*
X34960Y-38000D03*
X35539Y-38000D03*
X35960Y-38000D03*
X36539Y-38000D03*
X36960Y-38000D03*
X37539Y-38000D03*
X37960Y-38000D03*
X34539Y-37000D03*
X34960Y-37000D03*
X35539Y-37000D03*
X35960Y-37000D03*
X36539Y-37000D03*
X36960Y-37000D03*
X37539Y-37000D03*
X37960Y-37000D03*
X34539Y-33000D03*
X34960Y-33000D03*
X35539Y-33000D03*
X35960Y-33000D03*
X36539Y-33000D03*
X36960Y-33000D03*
X37539Y-33000D03*
X37960Y-33000D03*
X34539Y-32000D03*
X34960Y-32000D03*
X35539Y-32000D03*
X35960Y-32000D03*
X36539Y-32000D03*
X36960Y-32000D03*
X37539Y-32000D03*
X37960Y-32000D03*
X34539Y-31000D03*
X34960Y-31000D03*
X35539Y-31000D03*
X35960Y-31000D03*
X36539Y-31000D03*
X36960Y-31000D03*
X37539Y-31000D03*
X37960Y-31000D03*
X34539Y-30000D03*
X34960Y-30000D03*
X35539Y-30000D03*
X35960Y-30000D03*
X36539Y-30000D03*
X36960Y-30000D03*
X37539Y-30000D03*
X37960Y-30000D03*
X34539Y-29000D03*
X34960Y-29000D03*
X35539Y-29000D03*
X35960Y-29000D03*
X36539Y-29000D03*
X36960Y-29000D03*
X37539Y-29000D03*
X37960Y-29000D03*
G54D18*
X34750Y-37500D03*
G54D17*
X35750Y-37500D03*
X36750Y-37500D03*
X37750Y-37500D03*
X38750Y-37500D03*
G54D18*
X39750Y-37500D03*
G54D17*
X40750Y-37500D03*
X41750Y-37500D03*
G54D18*
X34750Y-39500D03*
G54D17*
X35750Y-39500D03*
X36750Y-39500D03*
X37750Y-39500D03*
X38750Y-39500D03*
G54D18*
X39750Y-39500D03*
G54D17*
X40750Y-39500D03*
X41750Y-39500D03*
G54D18*
X34750Y-40500D03*
G54D17*
X35750Y-40500D03*
X36750Y-40500D03*
X37750Y-40500D03*
X38750Y-40500D03*
G54D18*
X39750Y-40500D03*
G54D17*
X40750Y-40500D03*
X41750Y-40500D03*
G54D18*
X34750Y-36500D03*
G54D17*
X35750Y-36500D03*
X36750Y-36500D03*
X37750Y-36500D03*
X38750Y-36500D03*
G54D18*
X39750Y-36500D03*
G54D17*
X40750Y-36500D03*
X41750Y-36500D03*
G54D18*
X34750Y-32500D03*
G54D17*
X35750Y-32500D03*
X36750Y-32500D03*
X37750Y-32500D03*
X38750Y-32500D03*
G54D18*
X39750Y-32500D03*
G54D17*
X40750Y-32500D03*
X41750Y-32500D03*
G54D18*
X34750Y-30500D03*
G54D17*
X35750Y-30500D03*
X36750Y-30500D03*
X37750Y-30500D03*
X38750Y-30500D03*
G54D18*
X39750Y-30500D03*
G54D17*
X40750Y-30500D03*
X41750Y-30500D03*
G54D18*
X34750Y-29500D03*
G54D17*
X35750Y-29500D03*
X36750Y-29500D03*
X37750Y-29500D03*
X38750Y-29500D03*
G54D18*
X39750Y-29500D03*
G54D17*
X40750Y-29500D03*
X41750Y-29500D03*
G54D18*
X34750Y-33500D03*
G54D17*
X35750Y-33500D03*
X36750Y-33500D03*
X37750Y-33500D03*
X38750Y-33500D03*
G54D18*
X39750Y-33500D03*
G54D17*
X40750Y-33500D03*
X41750Y-33500D03*
G54D16*
X38539Y-29000D03*
X38960Y-29000D03*
X39539Y-29000D03*
X39960Y-29000D03*
X40539Y-29000D03*
X40960Y-29000D03*
X41539Y-29000D03*
X41960Y-29000D03*
X22539Y-29000D03*
X22960Y-29000D03*
X23539Y-29000D03*
X23960Y-29000D03*
X24539Y-29000D03*
X24960Y-29000D03*
X25539Y-29000D03*
X25960Y-29000D03*
G54D17*
X18750Y-33500D03*
G54D18*
X19750Y-33500D03*
G54D17*
X20750Y-33500D03*
X21750Y-33500D03*
X22750Y-33500D03*
X23750Y-33500D03*
G54D18*
X24750Y-33500D03*
G54D17*
X25750Y-33500D03*
X18750Y-29500D03*
G54D18*
X19750Y-29500D03*
G54D17*
X20750Y-29500D03*
X21750Y-29500D03*
X22750Y-29500D03*
X23750Y-29500D03*
G54D18*
X24750Y-29500D03*
G54D17*
X25750Y-29500D03*
X18750Y-31500D03*
G54D18*
X19750Y-31500D03*
G54D17*
X20750Y-31500D03*
X21750Y-31500D03*
X22750Y-31500D03*
X23750Y-31500D03*
G54D18*
X24750Y-31500D03*
G54D17*
X25750Y-31500D03*
X18750Y-32500D03*
G54D18*
X19750Y-32500D03*
G54D17*
X20750Y-32500D03*
X21750Y-32500D03*
X22750Y-32500D03*
X23750Y-32500D03*
G54D18*
X24750Y-32500D03*
G54D17*
X25750Y-32500D03*
X18750Y-36500D03*
G54D18*
X19750Y-36500D03*
G54D17*
X20750Y-36500D03*
X21750Y-36500D03*
X22750Y-36500D03*
X23750Y-36500D03*
G54D18*
X24750Y-36500D03*
G54D17*
X25750Y-36500D03*
X18750Y-40500D03*
G54D18*
X19750Y-40500D03*
G54D17*
X20750Y-40500D03*
X21750Y-40500D03*
X22750Y-40500D03*
X23750Y-40500D03*
G54D18*
X24750Y-40500D03*
G54D17*
X25750Y-40500D03*
X18750Y-39500D03*
G54D18*
X19750Y-39500D03*
G54D17*
X20750Y-39500D03*
X21750Y-39500D03*
X22750Y-39500D03*
X23750Y-39500D03*
G54D18*
X24750Y-39500D03*
G54D17*
X25750Y-39500D03*
X18750Y-38500D03*
G54D18*
X19750Y-38500D03*
G54D17*
X20750Y-38500D03*
X21750Y-38500D03*
X22750Y-38500D03*
X23750Y-38500D03*
G54D18*
X24750Y-38500D03*
G54D17*
X25750Y-38500D03*
X18750Y-37500D03*
G54D18*
X19750Y-37500D03*
G54D17*
X20750Y-37500D03*
X21750Y-37500D03*
X22750Y-37500D03*
X23750Y-37500D03*
G54D18*
X24750Y-37500D03*
G54D17*
X25750Y-37500D03*
G54D16*
X18539Y-29000D03*
X18960Y-29000D03*
X19539Y-29000D03*
X19960Y-29000D03*
X20539Y-29000D03*
X20960Y-29000D03*
X21539Y-29000D03*
X21960Y-29000D03*
X18539Y-30000D03*
X18960Y-30000D03*
X19539Y-30000D03*
X19960Y-30000D03*
X20539Y-30000D03*
X20960Y-30000D03*
X21539Y-30000D03*
X21960Y-30000D03*
X18539Y-31000D03*
X18960Y-31000D03*
X19539Y-31000D03*
X19960Y-31000D03*
X20539Y-31000D03*
X20960Y-31000D03*
X21539Y-31000D03*
X21960Y-31000D03*
X18539Y-32000D03*
X18960Y-32000D03*
X19539Y-32000D03*
X19960Y-32000D03*
X20539Y-32000D03*
X20960Y-32000D03*
X21539Y-32000D03*
X21960Y-32000D03*
X18539Y-33000D03*
X18960Y-33000D03*
X19539Y-33000D03*
X19960Y-33000D03*
X20539Y-33000D03*
X20960Y-33000D03*
X21539Y-33000D03*
X21960Y-33000D03*
X18539Y-37000D03*
X18960Y-37000D03*
X19539Y-37000D03*
X19960Y-37000D03*
X20539Y-37000D03*
X20960Y-37000D03*
X21539Y-37000D03*
X21960Y-37000D03*
X18539Y-38000D03*
X18960Y-38000D03*
X19539Y-38000D03*
X19960Y-38000D03*
X20539Y-38000D03*
X20960Y-38000D03*
X21539Y-38000D03*
X21960Y-38000D03*
X18539Y-39000D03*
X18960Y-39000D03*
X19539Y-39000D03*
X19960Y-39000D03*
X20539Y-39000D03*
X20960Y-39000D03*
X21539Y-39000D03*
X21960Y-39000D03*
X18539Y-40000D03*
X18960Y-40000D03*
X19539Y-40000D03*
X19960Y-40000D03*
X20539Y-40000D03*
X20960Y-40000D03*
X21539Y-40000D03*
X21960Y-40000D03*
X18539Y-41000D03*
X18960Y-41000D03*
X19539Y-41000D03*
X19960Y-41000D03*
X20539Y-41000D03*
X20960Y-41000D03*
X21539Y-41000D03*
X21960Y-41000D03*
X22539Y-30000D03*
X22960Y-30000D03*
X23539Y-30000D03*
X23960Y-30000D03*
X24539Y-30000D03*
X24960Y-30000D03*
X25539Y-30000D03*
X25960Y-30000D03*
X22539Y-31000D03*
X22960Y-31000D03*
X23539Y-31000D03*
X23960Y-31000D03*
X24539Y-31000D03*
X24960Y-31000D03*
X25539Y-31000D03*
X25960Y-31000D03*
X22539Y-32000D03*
X22960Y-32000D03*
X23539Y-32000D03*
X23960Y-32000D03*
X24539Y-32000D03*
X24960Y-32000D03*
X25539Y-32000D03*
X25960Y-32000D03*
X22539Y-33000D03*
X22960Y-33000D03*
X23539Y-33000D03*
X23960Y-33000D03*
X24539Y-33000D03*
X24960Y-33000D03*
X25539Y-33000D03*
X25960Y-33000D03*
X22539Y-41000D03*
X22960Y-41000D03*
X23539Y-41000D03*
X23960Y-41000D03*
X24539Y-41000D03*
X24960Y-41000D03*
X25539Y-41000D03*
X25960Y-41000D03*
X22539Y-40000D03*
X22960Y-40000D03*
X23539Y-40000D03*
X23960Y-40000D03*
X24539Y-40000D03*
X24960Y-40000D03*
X25539Y-40000D03*
X25960Y-40000D03*
X22539Y-39000D03*
X22960Y-39000D03*
X23539Y-39000D03*
X23960Y-39000D03*
X24539Y-39000D03*
X24960Y-39000D03*
X25539Y-39000D03*
X25960Y-39000D03*
X22539Y-38000D03*
X22960Y-38000D03*
X23539Y-38000D03*
X23960Y-38000D03*
X24539Y-38000D03*
X24960Y-38000D03*
X25539Y-38000D03*
X25960Y-38000D03*
X22539Y-37000D03*
X22960Y-37000D03*
X23539Y-37000D03*
X23960Y-37000D03*
X24539Y-37000D03*
X24960Y-37000D03*
X25539Y-37000D03*
X25960Y-37000D03*
X18539Y-42000D03*
X18960Y-42000D03*
X19539Y-42000D03*
X19960Y-42000D03*
X20539Y-42000D03*
X20960Y-42000D03*
X21539Y-42000D03*
X21960Y-42000D03*
X22539Y-42000D03*
X22960Y-42000D03*
X23539Y-42000D03*
X23960Y-42000D03*
X24539Y-42000D03*
X24960Y-42000D03*
X25539Y-42000D03*
X25960Y-42000D03*
G54D17*
X18750Y-42500D03*
G54D18*
X19750Y-42500D03*
G54D17*
X20750Y-42500D03*
X21750Y-42500D03*
X22750Y-42500D03*
X23750Y-42500D03*
G54D18*
X24750Y-42500D03*
G54D17*
X25750Y-42500D03*
X18750Y-43500D03*
G54D18*
X19750Y-43500D03*
G54D17*
X20750Y-43500D03*
X21750Y-43500D03*
X22750Y-43500D03*
X23750Y-43500D03*
G54D18*
X24750Y-43500D03*
G54D17*
X25750Y-43500D03*
G54D16*
X22539Y-44000D03*
X22960Y-44000D03*
X23539Y-44000D03*
X23960Y-44000D03*
X24539Y-44000D03*
X24960Y-44000D03*
X25539Y-44000D03*
X25960Y-44000D03*
X18539Y-44000D03*
X18960Y-44000D03*
X19539Y-44000D03*
X19960Y-44000D03*
X20539Y-44000D03*
X20960Y-44000D03*
X21539Y-44000D03*
X21960Y-44000D03*
X18539Y-28000D03*
X18960Y-28000D03*
X19539Y-28000D03*
X19960Y-28000D03*
X20539Y-28000D03*
X20960Y-28000D03*
X21539Y-28000D03*
X21960Y-28000D03*
X22539Y-28000D03*
X22960Y-28000D03*
X23539Y-28000D03*
X23960Y-28000D03*
X24539Y-28000D03*
X24960Y-28000D03*
X25539Y-28000D03*
X25960Y-28000D03*
G54D17*
X18750Y-27500D03*
G54D18*
X19750Y-27500D03*
G54D17*
X20750Y-27500D03*
X21750Y-27500D03*
X22750Y-27500D03*
X23750Y-27500D03*
G54D18*
X24750Y-27500D03*
G54D17*
X25750Y-27500D03*
X18750Y-26500D03*
G54D18*
X19750Y-26500D03*
G54D17*
X20750Y-26500D03*
X21750Y-26500D03*
X22750Y-26500D03*
X23750Y-26500D03*
G54D18*
X24750Y-26500D03*
G54D17*
X25750Y-26500D03*
G54D16*
X22539Y-26000D03*
X22960Y-26000D03*
X23539Y-26000D03*
X23960Y-26000D03*
X24539Y-26000D03*
X24960Y-26000D03*
X25539Y-26000D03*
X25960Y-26000D03*
X18539Y-26000D03*
X18960Y-26000D03*
X19539Y-26000D03*
X19960Y-26000D03*
X20539Y-26000D03*
X20960Y-26000D03*
X21539Y-26000D03*
X21960Y-26000D03*
X10539Y-26000D03*
X10960Y-26000D03*
X11539Y-26000D03*
X11960Y-26000D03*
X12539Y-26000D03*
X12960Y-26000D03*
X13539Y-26000D03*
X13960Y-26000D03*
X14539Y-26000D03*
X14960Y-26000D03*
X15539Y-26000D03*
X15960Y-26000D03*
X16539Y-26000D03*
X16960Y-26000D03*
X17539Y-26000D03*
X17960Y-26000D03*
G54D17*
X10750Y-26500D03*
X11750Y-26500D03*
X12750Y-26500D03*
X13750Y-26500D03*
G54D18*
X14750Y-26500D03*
G54D17*
X15750Y-26500D03*
X16750Y-26500D03*
X17750Y-26500D03*
X10750Y-27500D03*
X11750Y-27500D03*
X12750Y-27500D03*
X13750Y-27500D03*
G54D18*
X14750Y-27500D03*
G54D17*
X15750Y-27500D03*
X16750Y-27500D03*
X17750Y-27500D03*
G54D16*
X14539Y-28000D03*
X14960Y-28000D03*
X15539Y-28000D03*
X15960Y-28000D03*
X16539Y-28000D03*
X16960Y-28000D03*
X17539Y-28000D03*
X17960Y-28000D03*
X10539Y-28000D03*
X10960Y-28000D03*
X11539Y-28000D03*
X11960Y-28000D03*
X12539Y-28000D03*
X12960Y-28000D03*
X13539Y-28000D03*
X13960Y-28000D03*
X10539Y-44000D03*
X10960Y-44000D03*
X11539Y-44000D03*
X11960Y-44000D03*
X12539Y-44000D03*
X12960Y-44000D03*
X13539Y-44000D03*
X13960Y-44000D03*
X14539Y-44000D03*
X14960Y-44000D03*
X15539Y-44000D03*
X15960Y-44000D03*
X16539Y-44000D03*
X16960Y-44000D03*
X17539Y-44000D03*
X17960Y-44000D03*
G54D17*
X10750Y-43500D03*
X11750Y-43500D03*
X12750Y-43500D03*
X13750Y-43500D03*
G54D18*
X14750Y-43500D03*
G54D17*
X15750Y-43500D03*
X16750Y-43500D03*
X17750Y-43500D03*
X10750Y-42500D03*
X11750Y-42500D03*
X12750Y-42500D03*
X13750Y-42500D03*
G54D18*
X14750Y-42500D03*
G54D17*
X15750Y-42500D03*
X16750Y-42500D03*
X17750Y-42500D03*
G54D16*
X14539Y-42000D03*
X14960Y-42000D03*
X15539Y-42000D03*
X15960Y-42000D03*
X16539Y-42000D03*
X16960Y-42000D03*
X17539Y-42000D03*
X17960Y-42000D03*
X10539Y-42000D03*
X10960Y-42000D03*
X11539Y-42000D03*
X11960Y-42000D03*
X12539Y-42000D03*
X12960Y-42000D03*
X13539Y-42000D03*
X13960Y-42000D03*
X14539Y-37000D03*
X14960Y-37000D03*
X15539Y-37000D03*
X15960Y-37000D03*
X16539Y-37000D03*
X16960Y-37000D03*
X17539Y-37000D03*
X17960Y-37000D03*
X14539Y-38000D03*
X14960Y-38000D03*
X15539Y-38000D03*
X15960Y-38000D03*
X16539Y-38000D03*
X16960Y-38000D03*
X17539Y-38000D03*
X17960Y-38000D03*
X14539Y-39000D03*
X14960Y-39000D03*
X15539Y-39000D03*
X15960Y-39000D03*
X16539Y-39000D03*
X16960Y-39000D03*
X17539Y-39000D03*
X17960Y-39000D03*
X14539Y-40000D03*
X14960Y-40000D03*
X15539Y-40000D03*
X15960Y-40000D03*
X16539Y-40000D03*
X16960Y-40000D03*
X17539Y-40000D03*
X17960Y-40000D03*
X14539Y-41000D03*
X14960Y-41000D03*
X15539Y-41000D03*
X15960Y-41000D03*
X16539Y-41000D03*
X16960Y-41000D03*
X17539Y-41000D03*
X17960Y-41000D03*
X14539Y-33000D03*
X14960Y-33000D03*
X15539Y-33000D03*
X15960Y-33000D03*
X16539Y-33000D03*
X16960Y-33000D03*
X17539Y-33000D03*
X17960Y-33000D03*
X14539Y-32000D03*
X14960Y-32000D03*
X15539Y-32000D03*
X15960Y-32000D03*
X16539Y-32000D03*
X16960Y-32000D03*
X17539Y-32000D03*
X17960Y-32000D03*
X14539Y-31000D03*
X14960Y-31000D03*
X15539Y-31000D03*
X15960Y-31000D03*
X16539Y-31000D03*
X16960Y-31000D03*
X17539Y-31000D03*
X17960Y-31000D03*
X14539Y-30000D03*
X14960Y-30000D03*
X15539Y-30000D03*
X15960Y-30000D03*
X16539Y-30000D03*
X16960Y-30000D03*
X17539Y-30000D03*
X17960Y-30000D03*
X10539Y-41000D03*
X10960Y-41000D03*
X11539Y-41000D03*
X11960Y-41000D03*
X12539Y-41000D03*
X12960Y-41000D03*
X13539Y-41000D03*
X13960Y-41000D03*
X10539Y-40000D03*
X10960Y-40000D03*
X11539Y-40000D03*
X11960Y-40000D03*
X12539Y-40000D03*
X12960Y-40000D03*
X13539Y-40000D03*
X13960Y-40000D03*
X10539Y-39000D03*
X10960Y-39000D03*
X11539Y-39000D03*
X11960Y-39000D03*
X12539Y-39000D03*
X12960Y-39000D03*
X13539Y-39000D03*
X13960Y-39000D03*
X10539Y-38000D03*
X10960Y-38000D03*
X11539Y-38000D03*
X11960Y-38000D03*
X12539Y-38000D03*
X12960Y-38000D03*
X13539Y-38000D03*
X13960Y-38000D03*
X10539Y-37000D03*
X10960Y-37000D03*
X11539Y-37000D03*
X11960Y-37000D03*
X12539Y-37000D03*
X12960Y-37000D03*
X13539Y-37000D03*
X13960Y-37000D03*
X10539Y-33000D03*
X10960Y-33000D03*
X11539Y-33000D03*
X11960Y-33000D03*
X12539Y-33000D03*
X12960Y-33000D03*
X13539Y-33000D03*
X13960Y-33000D03*
X10539Y-32000D03*
X10960Y-32000D03*
X11539Y-32000D03*
X11960Y-32000D03*
X12539Y-32000D03*
X12960Y-32000D03*
X13539Y-32000D03*
X13960Y-32000D03*
X10539Y-31000D03*
X10960Y-31000D03*
X11539Y-31000D03*
X11960Y-31000D03*
X12539Y-31000D03*
X12960Y-31000D03*
X13539Y-31000D03*
X13960Y-31000D03*
X10539Y-30000D03*
X10960Y-30000D03*
X11539Y-30000D03*
X11960Y-30000D03*
X12539Y-30000D03*
X12960Y-30000D03*
X13539Y-30000D03*
X13960Y-30000D03*
X10539Y-29000D03*
X10960Y-29000D03*
X11539Y-29000D03*
X11960Y-29000D03*
X12539Y-29000D03*
X12960Y-29000D03*
X13539Y-29000D03*
X13960Y-29000D03*
G54D17*
X10750Y-37500D03*
X11750Y-37500D03*
X12750Y-37500D03*
X13750Y-37500D03*
G54D18*
X14750Y-37500D03*
G54D17*
X15750Y-37500D03*
X16750Y-37500D03*
X17750Y-37500D03*
X10750Y-38500D03*
X11750Y-38500D03*
X12750Y-38500D03*
X13750Y-38500D03*
G54D18*
X14750Y-38500D03*
G54D17*
X15750Y-38500D03*
X16750Y-38500D03*
X17750Y-38500D03*
X10750Y-39500D03*
X11750Y-39500D03*
X12750Y-39500D03*
X13750Y-39500D03*
G54D18*
X14750Y-39500D03*
G54D17*
X15750Y-39500D03*
X16750Y-39500D03*
X17750Y-39500D03*
X10750Y-36500D03*
X11750Y-36500D03*
X12750Y-36500D03*
X13750Y-36500D03*
G54D18*
X14750Y-36500D03*
G54D17*
X15750Y-36500D03*
X16750Y-36500D03*
X17750Y-36500D03*
X10750Y-32500D03*
X11750Y-32500D03*
X12750Y-32500D03*
X13750Y-32500D03*
G54D18*
X14750Y-32500D03*
G54D17*
X15750Y-32500D03*
X16750Y-32500D03*
X17750Y-32500D03*
X10750Y-31500D03*
X11750Y-31500D03*
X12750Y-31500D03*
X13750Y-31500D03*
G54D18*
X14750Y-31500D03*
G54D17*
X15750Y-31500D03*
X16750Y-31500D03*
X17750Y-31500D03*
X10750Y-30500D03*
X11750Y-30500D03*
X12750Y-30500D03*
X13750Y-30500D03*
G54D18*
X14750Y-30500D03*
G54D17*
X15750Y-30500D03*
X16750Y-30500D03*
X17750Y-30500D03*
X10750Y-29500D03*
X11750Y-29500D03*
X12750Y-29500D03*
X13750Y-29500D03*
G54D18*
X14750Y-29500D03*
G54D17*
X15750Y-29500D03*
X16750Y-29500D03*
X17750Y-29500D03*
G54D16*
X14539Y-29000D03*
X14960Y-29000D03*
X15539Y-29000D03*
X15960Y-29000D03*
X16539Y-29000D03*
X16960Y-29000D03*
X17539Y-29000D03*
X17960Y-29000D03*
M02*
