M48
METRIC,TZ
T1C0.600
T2C1.016
T3C3.200
%
G90
G05
T1
X026670Y-066040
X026670Y-071120
X026670Y-073660
X026670Y-076200
X026670Y-078740
X026670Y-081280
X026670Y-083820
X026670Y-093980
X026670Y-096520
X026670Y-099060
X026670Y-101600
X026670Y-104140
X026670Y-106680
X026670Y-111760
X027940Y-066040
X027940Y-071120
X027940Y-073660
X027940Y-076200
X027940Y-078740
X027940Y-081280
X027940Y-083820
X027940Y-093980
X027940Y-096520
X027940Y-099060
X027940Y-101600
X027940Y-104140
X027940Y-106680
X027940Y-111760
X029210Y-066040
X029210Y-071120
X029210Y-073660
X029210Y-076200
X029210Y-078740
X029210Y-081280
X029210Y-083820
X029210Y-093980
X029210Y-096520
X029210Y-099060
X029210Y-101600
X029210Y-104140
X029210Y-106680
X029210Y-111760
X030480Y-066040
X030480Y-071120
X030480Y-073660
X030480Y-076200
X030480Y-078740
X030480Y-081280
X030480Y-083820
X030480Y-093980
X030480Y-096520
X030480Y-099060
X030480Y-101600
X030480Y-104140
X030480Y-106680
X030480Y-111760
X031750Y-066040
X031750Y-071120
X031750Y-073660
X031750Y-076200
X031750Y-078740
X031750Y-081280
X031750Y-083820
X031750Y-093980
X031750Y-096520
X031750Y-099060
X031750Y-101600
X031750Y-104140
X031750Y-106680
X031750Y-111760
X033020Y-066040
X033020Y-071120
X033020Y-073660
X033020Y-076200
X033020Y-078740
X033020Y-081280
X033020Y-083820
X033020Y-093980
X033020Y-096520
X033020Y-099060
X033020Y-101600
X033020Y-104140
X033020Y-106680
X033020Y-111760
X034290Y-066040
X034290Y-071120
X034290Y-073660
X034290Y-076200
X034290Y-078740
X034290Y-081280
X034290Y-083820
X034290Y-093980
X034290Y-096520
X034290Y-099060
X034290Y-101600
X034290Y-104140
X034290Y-106680
X034290Y-111760
X035560Y-066040
X035560Y-071120
X035560Y-073660
X035560Y-076200
X035560Y-078740
X035560Y-081280
X035560Y-083820
X035560Y-093980
X035560Y-096520
X035560Y-099060
X035560Y-101600
X035560Y-104140
X035560Y-106680
X035560Y-111760
X036830Y-066040
X036830Y-071120
X036830Y-073660
X036830Y-076200
X036830Y-078740
X036830Y-081280
X036830Y-083820
X036830Y-093980
X036830Y-096520
X036830Y-099060
X036830Y-101600
X036830Y-104140
X036830Y-106680
X036830Y-111760
X038100Y-066040
X038100Y-071120
X038100Y-073660
X038100Y-076200
X038100Y-078740
X038100Y-081280
X038100Y-083820
X038100Y-093980
X038100Y-096520
X038100Y-099060
X038100Y-101600
X038100Y-104140
X038100Y-106680
X038100Y-111760
X039370Y-066040
X039370Y-071120
X039370Y-073660
X039370Y-076200
X039370Y-078740
X039370Y-081280
X039370Y-083820
X039370Y-093980
X039370Y-096520
X039370Y-099060
X039370Y-101600
X039370Y-104140
X039370Y-106680
X039370Y-111760
X040640Y-066040
X040640Y-071120
X040640Y-073660
X040640Y-076200
X040640Y-078740
X040640Y-081280
X040640Y-083820
X040640Y-093980
X040640Y-096520
X040640Y-099060
X040640Y-101600
X040640Y-104140
X040640Y-106680
X040640Y-111760
X041910Y-066040
X041910Y-071120
X041910Y-073660
X041910Y-076200
X041910Y-078740
X041910Y-081280
X041910Y-083820
X041910Y-093980
X041910Y-096520
X041910Y-099060
X041910Y-101600
X041910Y-104140
X041910Y-106680
X041910Y-111760
X043180Y-066040
X043180Y-071120
X043180Y-073660
X043180Y-076200
X043180Y-078740
X043180Y-081280
X043180Y-083820
X043180Y-093980
X043180Y-096520
X043180Y-099060
X043180Y-101600
X043180Y-104140
X043180Y-106680
X043180Y-111760
X044450Y-066040
X044450Y-071120
X044450Y-073660
X044450Y-076200
X044450Y-078740
X044450Y-081280
X044450Y-083820
X044450Y-093980
X044450Y-096520
X044450Y-099060
X044450Y-101600
X044450Y-104140
X044450Y-106680
X044450Y-111760
X045720Y-066040
X045720Y-071120
X045720Y-073660
X045720Y-076200
X045720Y-078740
X045720Y-081280
X045720Y-083820
X045720Y-093980
X045720Y-096520
X045720Y-099060
X045720Y-101600
X045720Y-104140
X045720Y-106680
X045720Y-111760
X046990Y-066040
X046990Y-071120
X046990Y-073660
X046990Y-076200
X046990Y-078740
X046990Y-081280
X046990Y-083820
X046990Y-093980
X046990Y-096520
X046990Y-099060
X046990Y-101600
X046990Y-104140
X046990Y-106680
X046990Y-111760
X048260Y-066040
X048260Y-071120
X048260Y-073660
X048260Y-076200
X048260Y-078740
X048260Y-081280
X048260Y-083820
X048260Y-093980
X048260Y-096520
X048260Y-099060
X048260Y-101600
X048260Y-104140
X048260Y-106680
X048260Y-111760
X049530Y-066040
X049530Y-071120
X049530Y-073660
X049530Y-076200
X049530Y-078740
X049530Y-081280
X049530Y-083820
X049530Y-093980
X049530Y-096520
X049530Y-099060
X049530Y-101600
X049530Y-104140
X049530Y-106680
X049530Y-111760
X050800Y-066040
X050800Y-071120
X050800Y-073660
X050800Y-076200
X050800Y-078740
X050800Y-081280
X050800Y-083820
X050800Y-093980
X050800Y-096520
X050800Y-099060
X050800Y-101600
X050800Y-104140
X050800Y-106680
X050800Y-111760
X052070Y-066040
X052070Y-071120
X052070Y-073660
X052070Y-076200
X052070Y-078740
X052070Y-081280
X052070Y-083820
X052070Y-093980
X052070Y-096520
X052070Y-099060
X052070Y-101600
X052070Y-104140
X052070Y-106680
X052070Y-111760
X053340Y-066040
X053340Y-071120
X053340Y-073660
X053340Y-076200
X053340Y-078740
X053340Y-081280
X053340Y-083820
X053340Y-093980
X053340Y-096520
X053340Y-099060
X053340Y-101600
X053340Y-104140
X053340Y-106680
X053340Y-111760
X054610Y-066040
X054610Y-071120
X054610Y-073660
X054610Y-076200
X054610Y-078740
X054610Y-081280
X054610Y-083820
X054610Y-093980
X054610Y-096520
X054610Y-099060
X054610Y-101600
X054610Y-104140
X054610Y-106680
X054610Y-111760
X055880Y-066040
X055880Y-071120
X055880Y-073660
X055880Y-076200
X055880Y-078740
X055880Y-081280
X055880Y-083820
X055880Y-093980
X055880Y-096520
X055880Y-099060
X055880Y-101600
X055880Y-104140
X055880Y-106680
X055880Y-111760
X057150Y-066040
X057150Y-071120
X057150Y-073660
X057150Y-076200
X057150Y-078740
X057150Y-081280
X057150Y-083820
X057150Y-093980
X057150Y-096520
X057150Y-099060
X057150Y-101600
X057150Y-104140
X057150Y-106680
X057150Y-111760
X058420Y-066040
X058420Y-071120
X058420Y-073660
X058420Y-076200
X058420Y-078740
X058420Y-081280
X058420Y-083820
X058420Y-093980
X058420Y-096520
X058420Y-099060
X058420Y-101600
X058420Y-104140
X058420Y-106680
X058420Y-111760
X059690Y-066040
X059690Y-071120
X059690Y-073660
X059690Y-076200
X059690Y-078740
X059690Y-081280
X059690Y-083820
X059690Y-093980
X059690Y-096520
X059690Y-099060
X059690Y-101600
X059690Y-104140
X059690Y-106680
X059690Y-111760
X060960Y-066040
X060960Y-071120
X060960Y-073660
X060960Y-076200
X060960Y-078740
X060960Y-081280
X060960Y-083820
X060960Y-093980
X060960Y-096520
X060960Y-099060
X060960Y-101600
X060960Y-104140
X060960Y-106680
X060960Y-111760
X062230Y-066040
X062230Y-071120
X062230Y-073660
X062230Y-076200
X062230Y-078740
X062230Y-081280
X062230Y-083820
X062230Y-093980
X062230Y-096520
X062230Y-099060
X062230Y-101600
X062230Y-104140
X062230Y-106680
X062230Y-111760
X063500Y-066040
X063500Y-071120
X063500Y-073660
X063500Y-076200
X063500Y-078740
X063500Y-081280
X063500Y-083820
X063500Y-093980
X063500Y-096520
X063500Y-099060
X063500Y-101600
X063500Y-104140
X063500Y-106680
X063500Y-111760
X064770Y-066040
X064770Y-071120
X064770Y-073660
X064770Y-076200
X064770Y-078740
X064770Y-081280
X064770Y-083820
X064770Y-093980
X064770Y-096520
X064770Y-099060
X064770Y-101600
X064770Y-104140
X064770Y-106680
X064770Y-111760
X066040Y-066040
X066040Y-071120
X066040Y-073660
X066040Y-076200
X066040Y-078740
X066040Y-081280
X066040Y-083820
X066040Y-093980
X066040Y-096520
X066040Y-099060
X066040Y-101600
X066040Y-104140
X066040Y-106680
X066040Y-111760
X067310Y-066040
X067310Y-071120
X067310Y-073660
X067310Y-076200
X067310Y-078740
X067310Y-081280
X067310Y-083820
X067310Y-093980
X067310Y-096520
X067310Y-099060
X067310Y-101600
X067310Y-104140
X067310Y-106680
X067310Y-111760
X068580Y-073660
X068580Y-076200
X068580Y-078740
X068580Y-081280
X068580Y-083820
X068580Y-093980
X068580Y-096520
X068580Y-099060
X068580Y-101600
X068580Y-104140
X069850Y-073660
X069850Y-076200
X069850Y-078740
X069850Y-081280
X069850Y-083820
X069850Y-093980
X069850Y-096520
X069850Y-099060
X069850Y-101600
X069850Y-104140
X071120Y-066040
X071120Y-071120
X071120Y-073660
X071120Y-076200
X071120Y-078740
X071120Y-081280
X071120Y-083820
X071120Y-093980
X071120Y-096520
X071120Y-099060
X071120Y-101600
X071120Y-104140
X071120Y-106680
X071120Y-111760
X072390Y-066040
X072390Y-071120
X072390Y-073660
X072390Y-076200
X072390Y-078740
X072390Y-081280
X072390Y-083820
X072390Y-093980
X072390Y-096520
X072390Y-099060
X072390Y-101600
X072390Y-104140
X072390Y-106680
X072390Y-111760
X073660Y-066040
X073660Y-071120
X073660Y-073660
X073660Y-076200
X073660Y-078740
X073660Y-081280
X073660Y-083820
X073660Y-093980
X073660Y-096520
X073660Y-099060
X073660Y-101600
X073660Y-104140
X073660Y-106680
X073660Y-111760
X074930Y-066040
X074930Y-071120
X074930Y-073660
X074930Y-076200
X074930Y-078740
X074930Y-081280
X074930Y-083820
X074930Y-093980
X074930Y-096520
X074930Y-099060
X074930Y-101600
X074930Y-104140
X074930Y-106680
X074930Y-111760
X076200Y-066040
X076200Y-071120
X076200Y-073660
X076200Y-076200
X076200Y-078740
X076200Y-081280
X076200Y-083820
X076200Y-093980
X076200Y-096520
X076200Y-099060
X076200Y-101600
X076200Y-104140
X076200Y-106680
X076200Y-111760
X077470Y-066040
X077470Y-071120
X077470Y-073660
X077470Y-076200
X077470Y-078740
X077470Y-081280
X077470Y-083820
X077470Y-093980
X077470Y-096520
X077470Y-099060
X077470Y-101600
X077470Y-104140
X077470Y-106680
X077470Y-111760
X078740Y-066040
X078740Y-071120
X078740Y-073660
X078740Y-076200
X078740Y-078740
X078740Y-081280
X078740Y-083820
X078740Y-093980
X078740Y-096520
X078740Y-099060
X078740Y-101600
X078740Y-104140
X078740Y-106680
X078740Y-111760
X080010Y-066040
X080010Y-071120
X080010Y-073660
X080010Y-076200
X080010Y-078740
X080010Y-081280
X080010Y-083820
X080010Y-093980
X080010Y-096520
X080010Y-099060
X080010Y-101600
X080010Y-104140
X080010Y-106680
X080010Y-111760
X081280Y-066040
X081280Y-071120
X081280Y-073660
X081280Y-076200
X081280Y-078740
X081280Y-081280
X081280Y-083820
X081280Y-093980
X081280Y-096520
X081280Y-099060
X081280Y-101600
X081280Y-104140
X081280Y-106680
X081280Y-111760
X082550Y-066040
X082550Y-071120
X082550Y-073660
X082550Y-076200
X082550Y-078740
X082550Y-081280
X082550Y-083820
X082550Y-093980
X082550Y-096520
X082550Y-099060
X082550Y-101600
X082550Y-104140
X082550Y-106680
X082550Y-111760
X083820Y-066040
X083820Y-071120
X083820Y-073660
X083820Y-076200
X083820Y-078740
X083820Y-081280
X083820Y-083820
X083820Y-093980
X083820Y-096520
X083820Y-099060
X083820Y-101600
X083820Y-104140
X083820Y-106680
X083820Y-111760
X085090Y-066040
X085090Y-071120
X085090Y-073660
X085090Y-076200
X085090Y-078740
X085090Y-081280
X085090Y-083820
X085090Y-093980
X085090Y-096520
X085090Y-099060
X085090Y-101600
X085090Y-104140
X085090Y-106680
X085090Y-111760
X086360Y-066040
X086360Y-071120
X086360Y-073660
X086360Y-076200
X086360Y-078740
X086360Y-081280
X086360Y-083820
X086360Y-093980
X086360Y-096520
X086360Y-099060
X086360Y-101600
X086360Y-104140
X086360Y-106680
X086360Y-111760
X087630Y-066040
X087630Y-071120
X087630Y-073660
X087630Y-076200
X087630Y-078740
X087630Y-081280
X087630Y-083820
X087630Y-093980
X087630Y-096520
X087630Y-099060
X087630Y-101600
X087630Y-104140
X087630Y-106680
X087630Y-111760
X088900Y-066040
X088900Y-071120
X088900Y-073660
X088900Y-076200
X088900Y-078740
X088900Y-081280
X088900Y-083820
X088900Y-093980
X088900Y-096520
X088900Y-099060
X088900Y-101600
X088900Y-104140
X088900Y-106680
X088900Y-111760
X090170Y-066040
X090170Y-071120
X090170Y-073660
X090170Y-076200
X090170Y-078740
X090170Y-081280
X090170Y-083820
X090170Y-093980
X090170Y-096520
X090170Y-099060
X090170Y-101600
X090170Y-104140
X090170Y-106680
X090170Y-111760
X091440Y-066040
X091440Y-071120
X091440Y-073660
X091440Y-076200
X091440Y-078740
X091440Y-081280
X091440Y-083820
X091440Y-093980
X091440Y-096520
X091440Y-099060
X091440Y-101600
X091440Y-104140
X091440Y-106680
X091440Y-111760
X092710Y-066040
X092710Y-071120
X092710Y-073660
X092710Y-076200
X092710Y-078740
X092710Y-081280
X092710Y-083820
X092710Y-093980
X092710Y-096520
X092710Y-099060
X092710Y-101600
X092710Y-104140
X092710Y-106680
X092710Y-111760
X093980Y-066040
X093980Y-071120
X093980Y-073660
X093980Y-076200
X093980Y-078740
X093980Y-081280
X093980Y-083820
X093980Y-093980
X093980Y-096520
X093980Y-099060
X093980Y-101600
X093980Y-104140
X093980Y-106680
X093980Y-111760
X095250Y-066040
X095250Y-071120
X095250Y-073660
X095250Y-076200
X095250Y-078740
X095250Y-081280
X095250Y-083820
X095250Y-093980
X095250Y-096520
X095250Y-099060
X095250Y-101600
X095250Y-104140
X095250Y-106680
X095250Y-111760
X096520Y-066040
X096520Y-071120
X096520Y-073660
X096520Y-076200
X096520Y-078740
X096520Y-081280
X096520Y-083820
X096520Y-093980
X096520Y-096520
X096520Y-099060
X096520Y-101600
X096520Y-104140
X096520Y-106680
X096520Y-111760
X097790Y-066040
X097790Y-071120
X097790Y-073660
X097790Y-076200
X097790Y-078740
X097790Y-081280
X097790Y-083820
X097790Y-093980
X097790Y-096520
X097790Y-099060
X097790Y-101600
X097790Y-104140
X097790Y-106680
X097790Y-111760
X099060Y-066040
X099060Y-071120
X099060Y-073660
X099060Y-076200
X099060Y-078740
X099060Y-081280
X099060Y-083820
X099060Y-093980
X099060Y-096520
X099060Y-099060
X099060Y-101600
X099060Y-104140
X099060Y-106680
X099060Y-111760
X100330Y-066040
X100330Y-071120
X100330Y-073660
X100330Y-076200
X100330Y-078740
X100330Y-081280
X100330Y-083820
X100330Y-093980
X100330Y-096520
X100330Y-099060
X100330Y-101600
X100330Y-104140
X100330Y-106680
X100330Y-111760
X101600Y-066040
X101600Y-071120
X101600Y-073660
X101600Y-076200
X101600Y-078740
X101600Y-081280
X101600Y-083820
X101600Y-093980
X101600Y-096520
X101600Y-099060
X101600Y-101600
X101600Y-104140
X101600Y-106680
X101600Y-111760
X102870Y-066040
X102870Y-071120
X102870Y-073660
X102870Y-076200
X102870Y-078740
X102870Y-081280
X102870Y-083820
X102870Y-093980
X102870Y-096520
X102870Y-099060
X102870Y-101600
X102870Y-104140
X102870Y-106680
X102870Y-111760
X104140Y-066040
X104140Y-071120
X104140Y-073660
X104140Y-076200
X104140Y-078740
X104140Y-081280
X104140Y-083820
X104140Y-093980
X104140Y-096520
X104140Y-099060
X104140Y-101600
X104140Y-104140
X104140Y-106680
X104140Y-111760
X105410Y-066040
X105410Y-071120
X105410Y-073660
X105410Y-076200
X105410Y-078740
X105410Y-081280
X105410Y-083820
X105410Y-093980
X105410Y-096520
X105410Y-099060
X105410Y-101600
X105410Y-104140
X105410Y-106680
X105410Y-111760
X106680Y-066040
X106680Y-071120
X106680Y-073660
X106680Y-076200
X106680Y-078740
X106680Y-081280
X106680Y-083820
X106680Y-093980
X106680Y-096520
X106680Y-099060
X106680Y-101600
X106680Y-104140
X106680Y-106680
X106680Y-111760
X107950Y-066040
X107950Y-071120
X107950Y-073660
X107950Y-076200
X107950Y-078740
X107950Y-081280
X107950Y-083820
X107950Y-093980
X107950Y-096520
X107950Y-099060
X107950Y-101600
X107950Y-104140
X107950Y-106680
X107950Y-111760
X109220Y-066040
X109220Y-071120
X109220Y-073660
X109220Y-076200
X109220Y-078740
X109220Y-081280
X109220Y-083820
X109220Y-093980
X109220Y-096520
X109220Y-099060
X109220Y-101600
X109220Y-104140
X109220Y-106680
X109220Y-111760
X110490Y-066040
X110490Y-071120
X110490Y-073660
X110490Y-076200
X110490Y-078740
X110490Y-081280
X110490Y-083820
X110490Y-093980
X110490Y-096520
X110490Y-099060
X110490Y-101600
X110490Y-104140
X110490Y-106680
X110490Y-111760
X111760Y-066040
X111760Y-071120
X111760Y-073660
X111760Y-076200
X111760Y-078740
X111760Y-081280
X111760Y-083820
X111760Y-093980
X111760Y-096520
X111760Y-099060
X111760Y-101600
X111760Y-104140
X111760Y-106680
X111760Y-111760
X113030Y-066040
X113030Y-071120
X113030Y-073660
X113030Y-076200
X113030Y-078740
X113030Y-081280
X113030Y-083820
X113030Y-093980
X113030Y-096520
X113030Y-099060
X113030Y-101600
X113030Y-104140
X113030Y-106680
X113030Y-111760
X114300Y-066040
X114300Y-071120
X114300Y-073660
X114300Y-076200
X114300Y-078740
X114300Y-081280
X114300Y-083820
X114300Y-093980
X114300Y-096520
X114300Y-099060
X114300Y-101600
X114300Y-104140
X114300Y-106680
X114300Y-111760
T2
X027305Y-067310
X027305Y-069850
X027305Y-074930
X027305Y-077470
X027305Y-080010
X027305Y-082550
X027305Y-085090
X027305Y-092710
X027305Y-095250
X027305Y-097790
X027305Y-100330
X027305Y-102870
X027305Y-107950
X027305Y-110490
X029845Y-067310
X029845Y-069850
X029845Y-074930
X029845Y-077470
X029845Y-080010
X029845Y-082550
X029845Y-085090
X029845Y-092710
X029845Y-095250
X029845Y-097790
X029845Y-100330
X029845Y-102870
X029845Y-107950
X029845Y-110490
X032385Y-067310
X032385Y-069850
X032385Y-074930
X032385Y-077470
X032385Y-080010
X032385Y-082550
X032385Y-085090
X032385Y-092710
X032385Y-095250
X032385Y-097790
X032385Y-100330
X032385Y-102870
X032385Y-107950
X032385Y-110490
X034925Y-067310
X034925Y-069850
X034925Y-074930
X034925Y-077470
X034925Y-080010
X034925Y-082550
X034925Y-085090
X034925Y-092710
X034925Y-095250
X034925Y-097790
X034925Y-100330
X034925Y-102870
X034925Y-107950
X034925Y-110490
X037465Y-067310
X037465Y-069850
X037465Y-074930
X037465Y-077470
X037465Y-080010
X037465Y-082550
X037465Y-085090
X037465Y-092710
X037465Y-095250
X037465Y-097790
X037465Y-100330
X037465Y-102870
X037465Y-107950
X037465Y-110490
X040005Y-067310
X040005Y-069850
X040005Y-074930
X040005Y-077470
X040005Y-080010
X040005Y-082550
X040005Y-085090
X040005Y-092710
X040005Y-095250
X040005Y-097790
X040005Y-100330
X040005Y-102870
X040005Y-107950
X040005Y-110490
X042545Y-067310
X042545Y-069850
X042545Y-074930
X042545Y-077470
X042545Y-080010
X042545Y-082550
X042545Y-085090
X042545Y-092710
X042545Y-095250
X042545Y-097790
X042545Y-100330
X042545Y-102870
X042545Y-107950
X042545Y-110490
X045085Y-067310
X045085Y-069850
X045085Y-074930
X045085Y-077470
X045085Y-080010
X045085Y-082550
X045085Y-085090
X045085Y-092710
X045085Y-095250
X045085Y-097790
X045085Y-100330
X045085Y-102870
X045085Y-107950
X045085Y-110490
X047625Y-067310
X047625Y-069850
X047625Y-074930
X047625Y-077470
X047625Y-080010
X047625Y-082550
X047625Y-085090
X047625Y-092710
X047625Y-095250
X047625Y-097790
X047625Y-100330
X047625Y-102870
X047625Y-107950
X047625Y-110490
X050165Y-067310
X050165Y-069850
X050165Y-074930
X050165Y-077470
X050165Y-080010
X050165Y-082550
X050165Y-085090
X050165Y-092710
X050165Y-095250
X050165Y-097790
X050165Y-100330
X050165Y-102870
X050165Y-107950
X050165Y-110490
X052705Y-067310
X052705Y-069850
X052705Y-074930
X052705Y-077470
X052705Y-080010
X052705Y-082550
X052705Y-085090
X052705Y-092710
X052705Y-095250
X052705Y-097790
X052705Y-100330
X052705Y-102870
X052705Y-107950
X052705Y-110490
X055245Y-067310
X055245Y-069850
X055245Y-074930
X055245Y-077470
X055245Y-080010
X055245Y-082550
X055245Y-085090
X055245Y-092710
X055245Y-095250
X055245Y-097790
X055245Y-100330
X055245Y-102870
X055245Y-107950
X055245Y-110490
X057785Y-067310
X057785Y-069850
X057785Y-074930
X057785Y-077470
X057785Y-080010
X057785Y-082550
X057785Y-085090
X057785Y-092710
X057785Y-095250
X057785Y-097790
X057785Y-100330
X057785Y-102870
X057785Y-107950
X057785Y-110490
X060325Y-067310
X060325Y-069850
X060325Y-074930
X060325Y-077470
X060325Y-080010
X060325Y-082550
X060325Y-085090
X060325Y-092710
X060325Y-095250
X060325Y-097790
X060325Y-100330
X060325Y-102870
X060325Y-107950
X060325Y-110490
X062865Y-067310
X062865Y-069850
X062865Y-074930
X062865Y-077470
X062865Y-080010
X062865Y-082550
X062865Y-085090
X062865Y-092710
X062865Y-095250
X062865Y-097790
X062865Y-100330
X062865Y-102870
X062865Y-107950
X062865Y-110490
X065405Y-067310
X065405Y-069850
X065405Y-074930
X065405Y-077470
X065405Y-080010
X065405Y-082550
X065405Y-085090
X065405Y-092710
X065405Y-095250
X065405Y-097790
X065405Y-100330
X065405Y-102870
X065405Y-107950
X065405Y-110490
X067945Y-067310
X067945Y-069850
X067945Y-074930
X067945Y-077470
X067945Y-080010
X067945Y-082550
X067945Y-085090
X067945Y-092710
X067945Y-095250
X067945Y-097790
X067945Y-100330
X067945Y-102870
X067945Y-107950
X067945Y-110490
X070485Y-067310
X070485Y-069850
X070485Y-074930
X070485Y-077470
X070485Y-080010
X070485Y-082550
X070485Y-085090
X070485Y-092710
X070485Y-095250
X070485Y-097790
X070485Y-100330
X070485Y-102870
X070485Y-107950
X070485Y-110490
X073025Y-067310
X073025Y-069850
X073025Y-074930
X073025Y-077470
X073025Y-080010
X073025Y-082550
X073025Y-085090
X073025Y-092710
X073025Y-095250
X073025Y-097790
X073025Y-100330
X073025Y-102870
X073025Y-107950
X073025Y-110490
X075565Y-067310
X075565Y-069850
X075565Y-074930
X075565Y-077470
X075565Y-080010
X075565Y-082550
X075565Y-085090
X075565Y-092710
X075565Y-095250
X075565Y-097790
X075565Y-100330
X075565Y-102870
X075565Y-107950
X075565Y-110490
X078105Y-067310
X078105Y-069850
X078105Y-074930
X078105Y-077470
X078105Y-080010
X078105Y-082550
X078105Y-085090
X078105Y-092710
X078105Y-095250
X078105Y-097790
X078105Y-100330
X078105Y-102870
X078105Y-107950
X078105Y-110490
X080645Y-067310
X080645Y-069850
X080645Y-074930
X080645Y-077470
X080645Y-080010
X080645Y-082550
X080645Y-085090
X080645Y-092710
X080645Y-095250
X080645Y-097790
X080645Y-100330
X080645Y-102870
X080645Y-107950
X080645Y-110490
X083185Y-067310
X083185Y-069850
X083185Y-074930
X083185Y-077470
X083185Y-080010
X083185Y-082550
X083185Y-085090
X083185Y-092710
X083185Y-095250
X083185Y-097790
X083185Y-100330
X083185Y-102870
X083185Y-107950
X083185Y-110490
X085725Y-067310
X085725Y-069850
X085725Y-074930
X085725Y-077470
X085725Y-080010
X085725Y-082550
X085725Y-085090
X085725Y-092710
X085725Y-095250
X085725Y-097790
X085725Y-100330
X085725Y-102870
X085725Y-107950
X085725Y-110490
X088265Y-067310
X088265Y-069850
X088265Y-074930
X088265Y-077470
X088265Y-080010
X088265Y-082550
X088265Y-085090
X088265Y-092710
X088265Y-095250
X088265Y-097790
X088265Y-100330
X088265Y-102870
X088265Y-107950
X088265Y-110490
X090805Y-067310
X090805Y-069850
X090805Y-074930
X090805Y-077470
X090805Y-080010
X090805Y-082550
X090805Y-085090
X090805Y-092710
X090805Y-095250
X090805Y-097790
X090805Y-100330
X090805Y-102870
X090805Y-107950
X090805Y-110490
X093345Y-067310
X093345Y-069850
X093345Y-074930
X093345Y-077470
X093345Y-080010
X093345Y-082550
X093345Y-085090
X093345Y-092710
X093345Y-095250
X093345Y-097790
X093345Y-100330
X093345Y-102870
X093345Y-107950
X093345Y-110490
X095885Y-067310
X095885Y-069850
X095885Y-074930
X095885Y-077470
X095885Y-080010
X095885Y-082550
X095885Y-085090
X095885Y-092710
X095885Y-095250
X095885Y-097790
X095885Y-100330
X095885Y-102870
X095885Y-107950
X095885Y-110490
X098425Y-067310
X098425Y-069850
X098425Y-074930
X098425Y-077470
X098425Y-080010
X098425Y-082550
X098425Y-085090
X098425Y-092710
X098425Y-095250
X098425Y-097790
X098425Y-100330
X098425Y-102870
X098425Y-107950
X098425Y-110490
X100965Y-067310
X100965Y-069850
X100965Y-074930
X100965Y-077470
X100965Y-080010
X100965Y-082550
X100965Y-085090
X100965Y-092710
X100965Y-095250
X100965Y-097790
X100965Y-100330
X100965Y-102870
X100965Y-107950
X100965Y-110490
X103505Y-067310
X103505Y-069850
X103505Y-074930
X103505Y-077470
X103505Y-080010
X103505Y-082550
X103505Y-085090
X103505Y-092710
X103505Y-095250
X103505Y-097790
X103505Y-100330
X103505Y-102870
X103505Y-107950
X103505Y-110490
X106045Y-067310
X106045Y-069850
X106045Y-074930
X106045Y-077470
X106045Y-080010
X106045Y-082550
X106045Y-085090
X106045Y-092710
X106045Y-095250
X106045Y-097790
X106045Y-100330
X106045Y-102870
X106045Y-107950
X106045Y-110490
X108585Y-067310
X108585Y-069850
X108585Y-074930
X108585Y-077470
X108585Y-080010
X108585Y-082550
X108585Y-085090
X108585Y-092710
X108585Y-095250
X108585Y-097790
X108585Y-100330
X108585Y-102870
X108585Y-107950
X108585Y-110490
X111125Y-067310
X111125Y-069850
X111125Y-074930
X111125Y-077470
X111125Y-080010
X111125Y-082550
X111125Y-085090
X111125Y-092710
X111125Y-095250
X111125Y-097790
X111125Y-100330
X111125Y-102870
X111125Y-107950
X111125Y-110490
X113665Y-067310
X113665Y-069850
X113665Y-074930
X113665Y-077470
X113665Y-080010
X113665Y-082550
X113665Y-085090
X113665Y-092710
X113665Y-095250
X113665Y-097790
X113665Y-100330
X113665Y-102870
X113665Y-107950
X113665Y-110490
T3
X024000Y-088900
X117000Y-088900
T0
M30
