%FSLAX34Y34*%
G04 Gerber Fmt 3.4, Leading zero omitted, Abs format*
G04 (created by PCBNEW (2014-06-03 BZR 4917)-product) date Thu 12 Jun 2014 02:46:08 AM CEST*
%MOIN*%
G01*
G70*
G90*
G04 APERTURE LIST*
%ADD10C,0.005906*%
%ADD11C,0.013780*%
%ADD12C,0.007874*%
%ADD13C,0.000100*%
%ADD14C,0.125984*%
%ADD15C,0.039370*%
%ADD16C,0.064961*%
G04 APERTURE END LIST*
G54D10*
G54D11*
X45515Y-40226D02*
X45515Y-40648D01*
X45543Y-40732D01*
X45599Y-40789D01*
X45684Y-40817D01*
X45740Y-40817D01*
X45600Y-39817D02*
X45600Y-39226D01*
X45768Y-38817D02*
X45768Y-38226D01*
X45768Y-38507D02*
X45431Y-38507D01*
X45431Y-38817D02*
X45431Y-38226D01*
X45445Y-37254D02*
X45501Y-37226D01*
X45585Y-37226D01*
X45670Y-37254D01*
X45726Y-37310D01*
X45754Y-37367D01*
X45782Y-37479D01*
X45782Y-37564D01*
X45754Y-37676D01*
X45726Y-37732D01*
X45670Y-37789D01*
X45585Y-37817D01*
X45529Y-37817D01*
X45445Y-37789D01*
X45417Y-37760D01*
X45417Y-37564D01*
X45529Y-37564D01*
X45515Y-36507D02*
X45712Y-36507D01*
X45712Y-36817D02*
X45712Y-36226D01*
X45431Y-36226D01*
X45726Y-33507D02*
X45529Y-33507D01*
X45445Y-33817D02*
X45726Y-33817D01*
X45726Y-33226D01*
X45445Y-33226D01*
X45754Y-32817D02*
X45754Y-32226D01*
X45614Y-32226D01*
X45529Y-32254D01*
X45473Y-32310D01*
X45445Y-32367D01*
X45417Y-32479D01*
X45417Y-32564D01*
X45445Y-32676D01*
X45473Y-32732D01*
X45529Y-32789D01*
X45614Y-32817D01*
X45754Y-32817D01*
X45417Y-31760D02*
X45445Y-31789D01*
X45529Y-31817D01*
X45585Y-31817D01*
X45670Y-31789D01*
X45726Y-31732D01*
X45754Y-31676D01*
X45782Y-31564D01*
X45782Y-31479D01*
X45754Y-31367D01*
X45726Y-31310D01*
X45670Y-31254D01*
X45585Y-31226D01*
X45529Y-31226D01*
X45445Y-31254D01*
X45417Y-31282D01*
X45557Y-30507D02*
X45473Y-30535D01*
X45445Y-30564D01*
X45417Y-30620D01*
X45417Y-30704D01*
X45445Y-30760D01*
X45473Y-30789D01*
X45529Y-30817D01*
X45754Y-30817D01*
X45754Y-30226D01*
X45557Y-30226D01*
X45501Y-30254D01*
X45473Y-30282D01*
X45445Y-30339D01*
X45445Y-30395D01*
X45473Y-30451D01*
X45501Y-30479D01*
X45557Y-30507D01*
X45754Y-30507D01*
X45740Y-29648D02*
X45459Y-29648D01*
X45796Y-29817D02*
X45600Y-29226D01*
X45403Y-29817D01*
X40228Y-34676D02*
X39862Y-34676D01*
X40059Y-34901D01*
X39974Y-34901D01*
X39918Y-34929D01*
X39890Y-34957D01*
X39862Y-35014D01*
X39862Y-35154D01*
X39890Y-35210D01*
X39918Y-35239D01*
X39974Y-35267D01*
X40143Y-35267D01*
X40199Y-35239D01*
X40228Y-35210D01*
X39496Y-34676D02*
X39440Y-34676D01*
X39384Y-34704D01*
X39356Y-34732D01*
X39328Y-34789D01*
X39300Y-34901D01*
X39300Y-35042D01*
X39328Y-35154D01*
X39356Y-35210D01*
X39384Y-35239D01*
X39440Y-35267D01*
X39496Y-35267D01*
X39553Y-35239D01*
X39581Y-35210D01*
X39609Y-35154D01*
X39637Y-35042D01*
X39637Y-34901D01*
X39609Y-34789D01*
X39581Y-34732D01*
X39553Y-34704D01*
X39496Y-34676D01*
G54D12*
X39750Y-35500D02*
X39750Y-36000D01*
X39750Y-34500D02*
X39750Y-34000D01*
X14750Y-35500D02*
X14750Y-36000D01*
X14750Y-34000D02*
X14750Y-34500D01*
G54D11*
X14609Y-34676D02*
X14890Y-34676D01*
X14918Y-34957D01*
X14890Y-34929D01*
X14834Y-34901D01*
X14693Y-34901D01*
X14637Y-34929D01*
X14609Y-34957D01*
X14581Y-35014D01*
X14581Y-35154D01*
X14609Y-35210D01*
X14637Y-35239D01*
X14693Y-35267D01*
X14834Y-35267D01*
X14890Y-35239D01*
X14918Y-35210D01*
X9815Y-40176D02*
X9815Y-40598D01*
X9843Y-40682D01*
X9899Y-40739D01*
X9984Y-40767D01*
X10040Y-40767D01*
X9900Y-39767D02*
X9900Y-39176D01*
X10068Y-38767D02*
X10068Y-38176D01*
X10068Y-38457D02*
X9731Y-38457D01*
X9731Y-38767D02*
X9731Y-38176D01*
X9745Y-37204D02*
X9801Y-37176D01*
X9885Y-37176D01*
X9970Y-37204D01*
X10026Y-37260D01*
X10054Y-37317D01*
X10082Y-37429D01*
X10082Y-37514D01*
X10054Y-37626D01*
X10026Y-37682D01*
X9970Y-37739D01*
X9885Y-37767D01*
X9829Y-37767D01*
X9745Y-37739D01*
X9717Y-37710D01*
X9717Y-37514D01*
X9829Y-37514D01*
X9865Y-36457D02*
X10062Y-36457D01*
X10062Y-36767D02*
X10062Y-36176D01*
X9781Y-36176D01*
X10026Y-33457D02*
X9829Y-33457D01*
X9745Y-33767D02*
X10026Y-33767D01*
X10026Y-33176D01*
X9745Y-33176D01*
X10054Y-32767D02*
X10054Y-32176D01*
X9914Y-32176D01*
X9829Y-32204D01*
X9773Y-32260D01*
X9745Y-32317D01*
X9717Y-32429D01*
X9717Y-32514D01*
X9745Y-32626D01*
X9773Y-32682D01*
X9829Y-32739D01*
X9914Y-32767D01*
X10054Y-32767D01*
X9717Y-31710D02*
X9745Y-31739D01*
X9829Y-31767D01*
X9885Y-31767D01*
X9970Y-31739D01*
X10026Y-31682D01*
X10054Y-31626D01*
X10082Y-31514D01*
X10082Y-31429D01*
X10054Y-31317D01*
X10026Y-31260D01*
X9970Y-31204D01*
X9885Y-31176D01*
X9829Y-31176D01*
X9745Y-31204D01*
X9717Y-31232D01*
X9857Y-30457D02*
X9773Y-30485D01*
X9745Y-30514D01*
X9717Y-30570D01*
X9717Y-30654D01*
X9745Y-30710D01*
X9773Y-30739D01*
X9829Y-30767D01*
X10054Y-30767D01*
X10054Y-30176D01*
X9857Y-30176D01*
X9801Y-30204D01*
X9773Y-30232D01*
X9745Y-30289D01*
X9745Y-30345D01*
X9773Y-30401D01*
X9801Y-30429D01*
X9857Y-30457D01*
X10054Y-30457D01*
X10040Y-29598D02*
X9759Y-29598D01*
X10096Y-29767D02*
X9900Y-29176D01*
X9703Y-29767D01*
X10124Y-43492D02*
X9675Y-43492D01*
X10124Y-42492D02*
X9675Y-42492D01*
X9900Y-42717D02*
X9900Y-42267D01*
X45824Y-43492D02*
X45375Y-43492D01*
X45824Y-42492D02*
X45375Y-42492D01*
X45600Y-42717D02*
X45600Y-42267D01*
X10124Y-27492D02*
X9675Y-27492D01*
X10124Y-26492D02*
X9675Y-26492D01*
X9900Y-26717D02*
X9900Y-26267D01*
X45824Y-27492D02*
X45375Y-27492D01*
X45824Y-26492D02*
X45375Y-26492D01*
X45600Y-26717D02*
X45600Y-26267D01*
G54D12*
X27750Y-43000D02*
X45000Y-43000D01*
X27250Y-42750D02*
X27250Y-43250D01*
X10500Y-43000D02*
X26750Y-43000D01*
X10750Y-41250D02*
X10750Y-41750D01*
X14750Y-41250D02*
X14750Y-41750D01*
X19750Y-41250D02*
X19750Y-41750D01*
X24750Y-41250D02*
X24750Y-41750D01*
X29750Y-41250D02*
X29750Y-41750D01*
X34750Y-41250D02*
X34750Y-41750D01*
X39750Y-41250D02*
X39750Y-41750D01*
X44750Y-41250D02*
X44750Y-41750D01*
X10500Y-41500D02*
X45000Y-41500D01*
X44750Y-28250D02*
X44750Y-28750D01*
X39750Y-28250D02*
X39750Y-28750D01*
X34750Y-28250D02*
X34750Y-28750D01*
X29750Y-28250D02*
X29750Y-28750D01*
X27250Y-26750D02*
X27250Y-27250D01*
X24750Y-28250D02*
X24750Y-28750D01*
X19750Y-28250D02*
X19750Y-28750D01*
X14750Y-28250D02*
X14750Y-28750D01*
X10750Y-28250D02*
X10750Y-28750D01*
X45000Y-28500D02*
X10500Y-28500D01*
X27750Y-27000D02*
X45000Y-27000D01*
X10500Y-27000D02*
X26750Y-27000D01*
G54D11*
X33585Y-34211D02*
X33557Y-34183D01*
X33501Y-34154D01*
X33360Y-34154D01*
X33304Y-34183D01*
X33276Y-34211D01*
X33248Y-34267D01*
X33248Y-34323D01*
X33276Y-34408D01*
X33613Y-34745D01*
X33248Y-34745D01*
X32882Y-34154D02*
X32826Y-34154D01*
X32769Y-34183D01*
X32741Y-34211D01*
X32713Y-34267D01*
X32685Y-34379D01*
X32685Y-34520D01*
X32713Y-34633D01*
X32741Y-34689D01*
X32769Y-34717D01*
X32826Y-34745D01*
X32882Y-34745D01*
X32938Y-34717D01*
X32966Y-34689D01*
X32994Y-34633D01*
X33023Y-34520D01*
X33023Y-34379D01*
X32994Y-34267D01*
X32966Y-34211D01*
X32938Y-34183D01*
X32882Y-34154D01*
X32123Y-34745D02*
X32460Y-34745D01*
X32291Y-34745D02*
X32291Y-34154D01*
X32348Y-34239D01*
X32404Y-34295D01*
X32460Y-34323D01*
X31616Y-34351D02*
X31616Y-34745D01*
X31757Y-34126D02*
X31898Y-34548D01*
X31532Y-34548D01*
X30857Y-34520D02*
X30407Y-34520D01*
X29676Y-34745D02*
X29676Y-34154D01*
X29676Y-34379D02*
X29620Y-34351D01*
X29507Y-34351D01*
X29451Y-34379D01*
X29423Y-34408D01*
X29395Y-34464D01*
X29395Y-34633D01*
X29423Y-34689D01*
X29451Y-34717D01*
X29507Y-34745D01*
X29620Y-34745D01*
X29676Y-34717D01*
X29057Y-34745D02*
X29114Y-34717D01*
X29142Y-34661D01*
X29142Y-34154D01*
X28748Y-34745D02*
X28804Y-34717D01*
X28832Y-34689D01*
X28861Y-34633D01*
X28861Y-34464D01*
X28832Y-34408D01*
X28804Y-34379D01*
X28748Y-34351D01*
X28664Y-34351D01*
X28607Y-34379D01*
X28579Y-34408D01*
X28551Y-34464D01*
X28551Y-34633D01*
X28579Y-34689D01*
X28607Y-34717D01*
X28664Y-34745D01*
X28748Y-34745D01*
X28045Y-34351D02*
X28045Y-34829D01*
X28073Y-34886D01*
X28101Y-34914D01*
X28158Y-34942D01*
X28242Y-34942D01*
X28298Y-34914D01*
X28045Y-34717D02*
X28101Y-34745D01*
X28214Y-34745D01*
X28270Y-34717D01*
X28298Y-34689D01*
X28326Y-34633D01*
X28326Y-34464D01*
X28298Y-34408D01*
X28270Y-34379D01*
X28214Y-34351D01*
X28101Y-34351D01*
X28045Y-34379D01*
X27764Y-34689D02*
X27736Y-34717D01*
X27764Y-34745D01*
X27792Y-34717D01*
X27764Y-34689D01*
X27764Y-34745D01*
X27511Y-34717D02*
X27455Y-34745D01*
X27342Y-34745D01*
X27286Y-34717D01*
X27258Y-34661D01*
X27258Y-34633D01*
X27286Y-34576D01*
X27342Y-34548D01*
X27426Y-34548D01*
X27483Y-34520D01*
X27511Y-34464D01*
X27511Y-34436D01*
X27483Y-34379D01*
X27426Y-34351D01*
X27342Y-34351D01*
X27286Y-34379D01*
X27005Y-34351D02*
X27005Y-34942D01*
X27005Y-34379D02*
X26948Y-34351D01*
X26836Y-34351D01*
X26780Y-34379D01*
X26751Y-34408D01*
X26723Y-34464D01*
X26723Y-34633D01*
X26751Y-34689D01*
X26780Y-34717D01*
X26836Y-34745D01*
X26948Y-34745D01*
X27005Y-34717D01*
X26470Y-34745D02*
X26470Y-34351D01*
X26470Y-34154D02*
X26498Y-34183D01*
X26470Y-34211D01*
X26442Y-34183D01*
X26470Y-34154D01*
X26470Y-34211D01*
X26273Y-34351D02*
X26048Y-34351D01*
X26189Y-34154D02*
X26189Y-34661D01*
X26161Y-34717D01*
X26105Y-34745D01*
X26048Y-34745D01*
X25908Y-34351D02*
X25598Y-34351D01*
X25908Y-34745D01*
X25598Y-34745D01*
X25149Y-34717D02*
X25205Y-34745D01*
X25317Y-34745D01*
X25374Y-34717D01*
X25402Y-34661D01*
X25402Y-34436D01*
X25374Y-34379D01*
X25317Y-34351D01*
X25205Y-34351D01*
X25149Y-34379D01*
X25120Y-34436D01*
X25120Y-34492D01*
X25402Y-34548D01*
X24867Y-34351D02*
X24867Y-34745D01*
X24867Y-34408D02*
X24839Y-34379D01*
X24783Y-34351D01*
X24699Y-34351D01*
X24642Y-34379D01*
X24614Y-34436D01*
X24614Y-34745D01*
X24333Y-34351D02*
X24333Y-34942D01*
X24333Y-34379D02*
X24277Y-34351D01*
X24164Y-34351D01*
X24108Y-34379D01*
X24080Y-34408D01*
X24052Y-34464D01*
X24052Y-34633D01*
X24080Y-34689D01*
X24108Y-34717D01*
X24164Y-34745D01*
X24277Y-34745D01*
X24333Y-34717D01*
X23883Y-34351D02*
X23658Y-34351D01*
X23799Y-34745D02*
X23799Y-34239D01*
X23771Y-34183D01*
X23714Y-34154D01*
X23658Y-34154D01*
X23236Y-34717D02*
X23293Y-34745D01*
X23405Y-34745D01*
X23461Y-34717D01*
X23489Y-34661D01*
X23489Y-34436D01*
X23461Y-34379D01*
X23405Y-34351D01*
X23293Y-34351D01*
X23236Y-34379D01*
X23208Y-34436D01*
X23208Y-34492D01*
X23489Y-34548D01*
X22955Y-34745D02*
X22955Y-34351D01*
X22955Y-34154D02*
X22983Y-34183D01*
X22955Y-34211D01*
X22927Y-34183D01*
X22955Y-34154D01*
X22955Y-34211D01*
X22589Y-34745D02*
X22646Y-34717D01*
X22674Y-34661D01*
X22674Y-34154D01*
X22365Y-34689D02*
X22336Y-34717D01*
X22365Y-34745D01*
X22393Y-34717D01*
X22365Y-34689D01*
X22365Y-34745D01*
X21999Y-34745D02*
X22055Y-34717D01*
X22083Y-34689D01*
X22111Y-34633D01*
X22111Y-34464D01*
X22083Y-34408D01*
X22055Y-34379D01*
X21999Y-34351D01*
X21915Y-34351D01*
X21858Y-34379D01*
X21830Y-34408D01*
X21802Y-34464D01*
X21802Y-34633D01*
X21830Y-34689D01*
X21858Y-34717D01*
X21915Y-34745D01*
X21999Y-34745D01*
X21549Y-34745D02*
X21549Y-34351D01*
X21549Y-34464D02*
X21521Y-34408D01*
X21493Y-34379D01*
X21437Y-34351D01*
X21380Y-34351D01*
X20930Y-34351D02*
X20930Y-34829D01*
X20958Y-34886D01*
X20987Y-34914D01*
X21043Y-34942D01*
X21127Y-34942D01*
X21183Y-34914D01*
X20930Y-34717D02*
X20987Y-34745D01*
X21099Y-34745D01*
X21155Y-34717D01*
X21183Y-34689D01*
X21212Y-34633D01*
X21212Y-34464D01*
X21183Y-34408D01*
X21155Y-34379D01*
X21099Y-34351D01*
X20987Y-34351D01*
X20930Y-34379D01*
X28832Y-35119D02*
X28636Y-35710D01*
X28439Y-35119D01*
X28129Y-35119D02*
X28073Y-35119D01*
X28017Y-35147D01*
X27989Y-35175D01*
X27961Y-35232D01*
X27933Y-35344D01*
X27933Y-35485D01*
X27961Y-35597D01*
X27989Y-35653D01*
X28017Y-35681D01*
X28073Y-35710D01*
X28129Y-35710D01*
X28186Y-35681D01*
X28214Y-35653D01*
X28242Y-35597D01*
X28270Y-35485D01*
X28270Y-35344D01*
X28242Y-35232D01*
X28214Y-35175D01*
X28186Y-35147D01*
X28129Y-35119D01*
X27679Y-35653D02*
X27651Y-35681D01*
X27679Y-35710D01*
X27708Y-35681D01*
X27679Y-35653D01*
X27679Y-35710D01*
X27089Y-35710D02*
X27426Y-35710D01*
X27258Y-35710D02*
X27258Y-35119D01*
X27314Y-35203D01*
X27370Y-35260D01*
X27426Y-35288D01*
X26723Y-35119D02*
X26667Y-35119D01*
X26611Y-35147D01*
X26583Y-35175D01*
X26555Y-35232D01*
X26526Y-35344D01*
X26526Y-35485D01*
X26555Y-35597D01*
X26583Y-35653D01*
X26611Y-35681D01*
X26667Y-35710D01*
X26723Y-35710D01*
X26780Y-35681D01*
X26808Y-35653D01*
X26836Y-35597D01*
X26864Y-35485D01*
X26864Y-35344D01*
X26836Y-35232D01*
X26808Y-35175D01*
X26780Y-35147D01*
X26723Y-35119D01*
X26273Y-35653D02*
X26245Y-35681D01*
X26273Y-35710D01*
X26302Y-35681D01*
X26273Y-35653D01*
X26273Y-35710D01*
X25739Y-35710D02*
X25739Y-35400D01*
X25767Y-35344D01*
X25823Y-35316D01*
X25936Y-35316D01*
X25992Y-35344D01*
X25739Y-35681D02*
X25795Y-35710D01*
X25936Y-35710D01*
X25992Y-35681D01*
X26020Y-35625D01*
X26020Y-35569D01*
X25992Y-35513D01*
X25936Y-35485D01*
X25795Y-35485D01*
X25739Y-35456D01*
G54D13*
G36*
X43655Y-35844D02*
X43665Y-35838D01*
X43688Y-35824D01*
X43721Y-35802D01*
X43760Y-35776D01*
X43799Y-35750D01*
X43831Y-35729D01*
X43853Y-35714D01*
X43863Y-35709D01*
X43868Y-35711D01*
X43886Y-35720D01*
X43913Y-35734D01*
X43929Y-35742D01*
X43953Y-35752D01*
X43966Y-35755D01*
X43968Y-35751D01*
X43977Y-35732D01*
X43991Y-35700D01*
X44009Y-35657D01*
X44031Y-35607D01*
X44053Y-35554D01*
X44076Y-35499D01*
X44098Y-35446D01*
X44117Y-35399D01*
X44133Y-35361D01*
X44143Y-35334D01*
X44147Y-35323D01*
X44146Y-35320D01*
X44133Y-35308D01*
X44112Y-35292D01*
X44065Y-35254D01*
X44019Y-35197D01*
X43991Y-35132D01*
X43982Y-35059D01*
X43990Y-34992D01*
X44016Y-34928D01*
X44061Y-34870D01*
X44116Y-34827D01*
X44180Y-34800D01*
X44251Y-34791D01*
X44319Y-34799D01*
X44385Y-34825D01*
X44443Y-34869D01*
X44468Y-34897D01*
X44502Y-34956D01*
X44521Y-35018D01*
X44523Y-35034D01*
X44520Y-35103D01*
X44500Y-35170D01*
X44463Y-35229D01*
X44412Y-35278D01*
X44406Y-35282D01*
X44383Y-35300D01*
X44367Y-35312D01*
X44355Y-35322D01*
X44443Y-35534D01*
X44457Y-35567D01*
X44481Y-35625D01*
X44502Y-35675D01*
X44519Y-35715D01*
X44531Y-35741D01*
X44536Y-35752D01*
X44536Y-35753D01*
X44544Y-35754D01*
X44560Y-35748D01*
X44590Y-35734D01*
X44609Y-35724D01*
X44632Y-35713D01*
X44642Y-35709D01*
X44651Y-35714D01*
X44672Y-35728D01*
X44704Y-35749D01*
X44742Y-35774D01*
X44778Y-35799D01*
X44811Y-35821D01*
X44835Y-35836D01*
X44847Y-35843D01*
X44849Y-35843D01*
X44859Y-35837D01*
X44878Y-35821D01*
X44907Y-35794D01*
X44948Y-35753D01*
X44954Y-35747D01*
X44988Y-35713D01*
X45015Y-35684D01*
X45033Y-35664D01*
X45040Y-35655D01*
X45040Y-35655D01*
X45034Y-35643D01*
X45019Y-35619D01*
X44997Y-35585D01*
X44970Y-35546D01*
X44900Y-35444D01*
X44938Y-35348D01*
X44950Y-35318D01*
X44965Y-35283D01*
X44976Y-35257D01*
X44982Y-35246D01*
X44992Y-35242D01*
X45019Y-35236D01*
X45057Y-35228D01*
X45102Y-35220D01*
X45146Y-35212D01*
X45185Y-35204D01*
X45213Y-35199D01*
X45226Y-35196D01*
X45229Y-35194D01*
X45232Y-35188D01*
X45233Y-35175D01*
X45234Y-35151D01*
X45235Y-35114D01*
X45235Y-35059D01*
X45235Y-35053D01*
X45234Y-35002D01*
X45233Y-34960D01*
X45232Y-34934D01*
X45230Y-34923D01*
X45230Y-34923D01*
X45218Y-34920D01*
X45190Y-34914D01*
X45151Y-34907D01*
X45104Y-34898D01*
X45101Y-34897D01*
X45055Y-34888D01*
X45016Y-34880D01*
X44988Y-34874D01*
X44977Y-34870D01*
X44974Y-34867D01*
X44965Y-34849D01*
X44952Y-34820D01*
X44936Y-34785D01*
X44921Y-34748D01*
X44908Y-34715D01*
X44899Y-34691D01*
X44896Y-34680D01*
X44897Y-34679D01*
X44904Y-34668D01*
X44920Y-34644D01*
X44942Y-34611D01*
X44969Y-34571D01*
X44971Y-34568D01*
X44998Y-34529D01*
X45020Y-34495D01*
X45034Y-34472D01*
X45040Y-34461D01*
X45040Y-34460D01*
X45031Y-34448D01*
X45011Y-34426D01*
X44982Y-34396D01*
X44948Y-34361D01*
X44937Y-34351D01*
X44898Y-34313D01*
X44872Y-34289D01*
X44855Y-34276D01*
X44847Y-34273D01*
X44847Y-34273D01*
X44835Y-34280D01*
X44810Y-34296D01*
X44777Y-34319D01*
X44737Y-34346D01*
X44734Y-34348D01*
X44695Y-34375D01*
X44662Y-34397D01*
X44639Y-34413D01*
X44628Y-34419D01*
X44627Y-34419D01*
X44611Y-34414D01*
X44583Y-34404D01*
X44548Y-34391D01*
X44512Y-34376D01*
X44479Y-34362D01*
X44454Y-34351D01*
X44442Y-34344D01*
X44442Y-34344D01*
X44438Y-34330D01*
X44431Y-34300D01*
X44423Y-34260D01*
X44413Y-34212D01*
X44412Y-34204D01*
X44403Y-34157D01*
X44396Y-34118D01*
X44390Y-34091D01*
X44387Y-34080D01*
X44381Y-34079D01*
X44358Y-34077D01*
X44323Y-34076D01*
X44280Y-34076D01*
X44236Y-34076D01*
X44193Y-34077D01*
X44156Y-34078D01*
X44129Y-34080D01*
X44118Y-34082D01*
X44118Y-34083D01*
X44114Y-34098D01*
X44107Y-34127D01*
X44099Y-34168D01*
X44090Y-34216D01*
X44088Y-34225D01*
X44079Y-34271D01*
X44071Y-34310D01*
X44066Y-34336D01*
X44063Y-34347D01*
X44058Y-34349D01*
X44039Y-34357D01*
X44008Y-34370D01*
X43969Y-34386D01*
X43879Y-34422D01*
X43768Y-34347D01*
X43758Y-34340D01*
X43718Y-34313D01*
X43686Y-34291D01*
X43663Y-34276D01*
X43654Y-34271D01*
X43653Y-34271D01*
X43642Y-34281D01*
X43620Y-34302D01*
X43590Y-34331D01*
X43555Y-34365D01*
X43530Y-34391D01*
X43499Y-34422D01*
X43480Y-34443D01*
X43469Y-34456D01*
X43466Y-34464D01*
X43467Y-34470D01*
X43474Y-34481D01*
X43490Y-34505D01*
X43513Y-34539D01*
X43540Y-34578D01*
X43562Y-34611D01*
X43586Y-34648D01*
X43601Y-34674D01*
X43607Y-34687D01*
X43605Y-34692D01*
X43598Y-34714D01*
X43584Y-34747D01*
X43568Y-34786D01*
X43529Y-34873D01*
X43472Y-34884D01*
X43437Y-34891D01*
X43389Y-34900D01*
X43342Y-34909D01*
X43270Y-34923D01*
X43267Y-35189D01*
X43278Y-35194D01*
X43289Y-35197D01*
X43316Y-35203D01*
X43354Y-35211D01*
X43400Y-35219D01*
X43438Y-35226D01*
X43477Y-35234D01*
X43505Y-35239D01*
X43517Y-35242D01*
X43521Y-35246D01*
X43530Y-35265D01*
X43544Y-35295D01*
X43560Y-35331D01*
X43575Y-35368D01*
X43589Y-35403D01*
X43598Y-35429D01*
X43602Y-35442D01*
X43597Y-35453D01*
X43582Y-35476D01*
X43561Y-35508D01*
X43534Y-35547D01*
X43508Y-35585D01*
X43485Y-35618D01*
X43470Y-35642D01*
X43463Y-35653D01*
X43467Y-35660D01*
X43482Y-35679D01*
X43511Y-35709D01*
X43555Y-35752D01*
X43562Y-35759D01*
X43596Y-35792D01*
X43625Y-35819D01*
X43646Y-35837D01*
X43655Y-35844D01*
X43655Y-35844D01*
G37*
X43655Y-35844D02*
X43665Y-35838D01*
X43688Y-35824D01*
X43721Y-35802D01*
X43760Y-35776D01*
X43799Y-35750D01*
X43831Y-35729D01*
X43853Y-35714D01*
X43863Y-35709D01*
X43868Y-35711D01*
X43886Y-35720D01*
X43913Y-35734D01*
X43929Y-35742D01*
X43953Y-35752D01*
X43966Y-35755D01*
X43968Y-35751D01*
X43977Y-35732D01*
X43991Y-35700D01*
X44009Y-35657D01*
X44031Y-35607D01*
X44053Y-35554D01*
X44076Y-35499D01*
X44098Y-35446D01*
X44117Y-35399D01*
X44133Y-35361D01*
X44143Y-35334D01*
X44147Y-35323D01*
X44146Y-35320D01*
X44133Y-35308D01*
X44112Y-35292D01*
X44065Y-35254D01*
X44019Y-35197D01*
X43991Y-35132D01*
X43982Y-35059D01*
X43990Y-34992D01*
X44016Y-34928D01*
X44061Y-34870D01*
X44116Y-34827D01*
X44180Y-34800D01*
X44251Y-34791D01*
X44319Y-34799D01*
X44385Y-34825D01*
X44443Y-34869D01*
X44468Y-34897D01*
X44502Y-34956D01*
X44521Y-35018D01*
X44523Y-35034D01*
X44520Y-35103D01*
X44500Y-35170D01*
X44463Y-35229D01*
X44412Y-35278D01*
X44406Y-35282D01*
X44383Y-35300D01*
X44367Y-35312D01*
X44355Y-35322D01*
X44443Y-35534D01*
X44457Y-35567D01*
X44481Y-35625D01*
X44502Y-35675D01*
X44519Y-35715D01*
X44531Y-35741D01*
X44536Y-35752D01*
X44536Y-35753D01*
X44544Y-35754D01*
X44560Y-35748D01*
X44590Y-35734D01*
X44609Y-35724D01*
X44632Y-35713D01*
X44642Y-35709D01*
X44651Y-35714D01*
X44672Y-35728D01*
X44704Y-35749D01*
X44742Y-35774D01*
X44778Y-35799D01*
X44811Y-35821D01*
X44835Y-35836D01*
X44847Y-35843D01*
X44849Y-35843D01*
X44859Y-35837D01*
X44878Y-35821D01*
X44907Y-35794D01*
X44948Y-35753D01*
X44954Y-35747D01*
X44988Y-35713D01*
X45015Y-35684D01*
X45033Y-35664D01*
X45040Y-35655D01*
X45040Y-35655D01*
X45034Y-35643D01*
X45019Y-35619D01*
X44997Y-35585D01*
X44970Y-35546D01*
X44900Y-35444D01*
X44938Y-35348D01*
X44950Y-35318D01*
X44965Y-35283D01*
X44976Y-35257D01*
X44982Y-35246D01*
X44992Y-35242D01*
X45019Y-35236D01*
X45057Y-35228D01*
X45102Y-35220D01*
X45146Y-35212D01*
X45185Y-35204D01*
X45213Y-35199D01*
X45226Y-35196D01*
X45229Y-35194D01*
X45232Y-35188D01*
X45233Y-35175D01*
X45234Y-35151D01*
X45235Y-35114D01*
X45235Y-35059D01*
X45235Y-35053D01*
X45234Y-35002D01*
X45233Y-34960D01*
X45232Y-34934D01*
X45230Y-34923D01*
X45230Y-34923D01*
X45218Y-34920D01*
X45190Y-34914D01*
X45151Y-34907D01*
X45104Y-34898D01*
X45101Y-34897D01*
X45055Y-34888D01*
X45016Y-34880D01*
X44988Y-34874D01*
X44977Y-34870D01*
X44974Y-34867D01*
X44965Y-34849D01*
X44952Y-34820D01*
X44936Y-34785D01*
X44921Y-34748D01*
X44908Y-34715D01*
X44899Y-34691D01*
X44896Y-34680D01*
X44897Y-34679D01*
X44904Y-34668D01*
X44920Y-34644D01*
X44942Y-34611D01*
X44969Y-34571D01*
X44971Y-34568D01*
X44998Y-34529D01*
X45020Y-34495D01*
X45034Y-34472D01*
X45040Y-34461D01*
X45040Y-34460D01*
X45031Y-34448D01*
X45011Y-34426D01*
X44982Y-34396D01*
X44948Y-34361D01*
X44937Y-34351D01*
X44898Y-34313D01*
X44872Y-34289D01*
X44855Y-34276D01*
X44847Y-34273D01*
X44847Y-34273D01*
X44835Y-34280D01*
X44810Y-34296D01*
X44777Y-34319D01*
X44737Y-34346D01*
X44734Y-34348D01*
X44695Y-34375D01*
X44662Y-34397D01*
X44639Y-34413D01*
X44628Y-34419D01*
X44627Y-34419D01*
X44611Y-34414D01*
X44583Y-34404D01*
X44548Y-34391D01*
X44512Y-34376D01*
X44479Y-34362D01*
X44454Y-34351D01*
X44442Y-34344D01*
X44442Y-34344D01*
X44438Y-34330D01*
X44431Y-34300D01*
X44423Y-34260D01*
X44413Y-34212D01*
X44412Y-34204D01*
X44403Y-34157D01*
X44396Y-34118D01*
X44390Y-34091D01*
X44387Y-34080D01*
X44381Y-34079D01*
X44358Y-34077D01*
X44323Y-34076D01*
X44280Y-34076D01*
X44236Y-34076D01*
X44193Y-34077D01*
X44156Y-34078D01*
X44129Y-34080D01*
X44118Y-34082D01*
X44118Y-34083D01*
X44114Y-34098D01*
X44107Y-34127D01*
X44099Y-34168D01*
X44090Y-34216D01*
X44088Y-34225D01*
X44079Y-34271D01*
X44071Y-34310D01*
X44066Y-34336D01*
X44063Y-34347D01*
X44058Y-34349D01*
X44039Y-34357D01*
X44008Y-34370D01*
X43969Y-34386D01*
X43879Y-34422D01*
X43768Y-34347D01*
X43758Y-34340D01*
X43718Y-34313D01*
X43686Y-34291D01*
X43663Y-34276D01*
X43654Y-34271D01*
X43653Y-34271D01*
X43642Y-34281D01*
X43620Y-34302D01*
X43590Y-34331D01*
X43555Y-34365D01*
X43530Y-34391D01*
X43499Y-34422D01*
X43480Y-34443D01*
X43469Y-34456D01*
X43466Y-34464D01*
X43467Y-34470D01*
X43474Y-34481D01*
X43490Y-34505D01*
X43513Y-34539D01*
X43540Y-34578D01*
X43562Y-34611D01*
X43586Y-34648D01*
X43601Y-34674D01*
X43607Y-34687D01*
X43605Y-34692D01*
X43598Y-34714D01*
X43584Y-34747D01*
X43568Y-34786D01*
X43529Y-34873D01*
X43472Y-34884D01*
X43437Y-34891D01*
X43389Y-34900D01*
X43342Y-34909D01*
X43270Y-34923D01*
X43267Y-35189D01*
X43278Y-35194D01*
X43289Y-35197D01*
X43316Y-35203D01*
X43354Y-35211D01*
X43400Y-35219D01*
X43438Y-35226D01*
X43477Y-35234D01*
X43505Y-35239D01*
X43517Y-35242D01*
X43521Y-35246D01*
X43530Y-35265D01*
X43544Y-35295D01*
X43560Y-35331D01*
X43575Y-35368D01*
X43589Y-35403D01*
X43598Y-35429D01*
X43602Y-35442D01*
X43597Y-35453D01*
X43582Y-35476D01*
X43561Y-35508D01*
X43534Y-35547D01*
X43508Y-35585D01*
X43485Y-35618D01*
X43470Y-35642D01*
X43463Y-35653D01*
X43467Y-35660D01*
X43482Y-35679D01*
X43511Y-35709D01*
X43555Y-35752D01*
X43562Y-35759D01*
X43596Y-35792D01*
X43625Y-35819D01*
X43646Y-35837D01*
X43655Y-35844D01*
G36*
X11630Y-35821D02*
X11655Y-35818D01*
X11678Y-35810D01*
X11688Y-35805D01*
X11709Y-35790D01*
X11726Y-35772D01*
X11738Y-35751D01*
X11747Y-35729D01*
X11751Y-35705D01*
X11750Y-35681D01*
X11744Y-35657D01*
X11733Y-35633D01*
X11726Y-35624D01*
X11715Y-35612D01*
X11704Y-35602D01*
X11694Y-35594D01*
X11690Y-35592D01*
X11669Y-35582D01*
X11647Y-35576D01*
X11622Y-35575D01*
X11614Y-35576D01*
X11601Y-35578D01*
X11589Y-35581D01*
X11576Y-35586D01*
X11562Y-35594D01*
X11542Y-35610D01*
X11525Y-35630D01*
X11513Y-35652D01*
X11510Y-35663D01*
X11506Y-35675D01*
X11505Y-35684D01*
X11505Y-35686D01*
X11505Y-35686D01*
X11504Y-35681D01*
X11504Y-35680D01*
X11500Y-35664D01*
X11494Y-35648D01*
X11487Y-35634D01*
X11473Y-35616D01*
X11454Y-35598D01*
X11432Y-35586D01*
X11408Y-35578D01*
X11382Y-35575D01*
X11376Y-35575D01*
X11356Y-35577D01*
X11338Y-35583D01*
X11334Y-35584D01*
X11313Y-35596D01*
X11295Y-35611D01*
X11279Y-35630D01*
X11268Y-35650D01*
X11261Y-35672D01*
X11261Y-35673D01*
X11260Y-35679D01*
X11259Y-35682D01*
X11259Y-35682D01*
X11258Y-35678D01*
X11257Y-35672D01*
X11256Y-35670D01*
X11249Y-35648D01*
X11237Y-35628D01*
X11221Y-35609D01*
X11207Y-35597D01*
X11185Y-35585D01*
X11162Y-35577D01*
X11136Y-35575D01*
X11117Y-35576D01*
X11093Y-35583D01*
X11070Y-35594D01*
X11051Y-35609D01*
X11035Y-35629D01*
X11033Y-35632D01*
X11027Y-35641D01*
X11023Y-35649D01*
X11021Y-35654D01*
X11018Y-35665D01*
X11015Y-35676D01*
X11014Y-35684D01*
X11014Y-35685D01*
X11013Y-35686D01*
X11012Y-35680D01*
X11010Y-35667D01*
X11004Y-35650D01*
X10996Y-35635D01*
X10982Y-35615D01*
X10963Y-35598D01*
X10941Y-35586D01*
X10917Y-35578D01*
X10891Y-35575D01*
X10868Y-35577D01*
X10844Y-35584D01*
X10822Y-35595D01*
X10802Y-35612D01*
X10793Y-35623D01*
X10783Y-35637D01*
X10776Y-35652D01*
X10772Y-35665D01*
X10767Y-35690D01*
X10768Y-35714D01*
X10774Y-35737D01*
X10783Y-35758D01*
X10797Y-35778D01*
X10814Y-35794D01*
X10833Y-35807D01*
X10856Y-35816D01*
X10881Y-35820D01*
X10883Y-35820D01*
X10908Y-35820D01*
X10932Y-35814D01*
X10954Y-35803D01*
X10962Y-35798D01*
X10979Y-35783D01*
X10993Y-35766D01*
X11003Y-35747D01*
X11006Y-35740D01*
X11009Y-35730D01*
X11012Y-35719D01*
X11013Y-35711D01*
X11013Y-35706D01*
X11014Y-35711D01*
X11014Y-35715D01*
X11017Y-35726D01*
X11020Y-35738D01*
X11024Y-35748D01*
X11030Y-35760D01*
X11045Y-35780D01*
X11064Y-35797D01*
X11086Y-35810D01*
X11110Y-35818D01*
X11114Y-35819D01*
X11131Y-35821D01*
X11149Y-35820D01*
X11165Y-35818D01*
X11181Y-35812D01*
X11204Y-35801D01*
X11225Y-35784D01*
X11226Y-35782D01*
X11240Y-35765D01*
X11251Y-35744D01*
X11257Y-35723D01*
X11257Y-35722D01*
X11259Y-35716D01*
X11259Y-35714D01*
X11259Y-35716D01*
X11260Y-35721D01*
X11261Y-35723D01*
X11264Y-35735D01*
X11270Y-35749D01*
X11277Y-35763D01*
X11288Y-35778D01*
X11306Y-35795D01*
X11328Y-35809D01*
X11352Y-35817D01*
X11357Y-35818D01*
X11373Y-35820D01*
X11391Y-35820D01*
X11407Y-35818D01*
X11421Y-35814D01*
X11444Y-35804D01*
X11464Y-35789D01*
X11481Y-35770D01*
X11494Y-35748D01*
X11497Y-35741D01*
X11500Y-35730D01*
X11503Y-35719D01*
X11504Y-35711D01*
X11504Y-35710D01*
X11505Y-35710D01*
X11505Y-35715D01*
X11506Y-35715D01*
X11509Y-35731D01*
X11515Y-35747D01*
X11522Y-35762D01*
X11526Y-35767D01*
X11542Y-35786D01*
X11561Y-35801D01*
X11582Y-35812D01*
X11606Y-35819D01*
X11630Y-35821D01*
X11630Y-35821D01*
G37*
X11630Y-35821D02*
X11655Y-35818D01*
X11678Y-35810D01*
X11688Y-35805D01*
X11709Y-35790D01*
X11726Y-35772D01*
X11738Y-35751D01*
X11747Y-35729D01*
X11751Y-35705D01*
X11750Y-35681D01*
X11744Y-35657D01*
X11733Y-35633D01*
X11726Y-35624D01*
X11715Y-35612D01*
X11704Y-35602D01*
X11694Y-35594D01*
X11690Y-35592D01*
X11669Y-35582D01*
X11647Y-35576D01*
X11622Y-35575D01*
X11614Y-35576D01*
X11601Y-35578D01*
X11589Y-35581D01*
X11576Y-35586D01*
X11562Y-35594D01*
X11542Y-35610D01*
X11525Y-35630D01*
X11513Y-35652D01*
X11510Y-35663D01*
X11506Y-35675D01*
X11505Y-35684D01*
X11505Y-35686D01*
X11505Y-35686D01*
X11504Y-35681D01*
X11504Y-35680D01*
X11500Y-35664D01*
X11494Y-35648D01*
X11487Y-35634D01*
X11473Y-35616D01*
X11454Y-35598D01*
X11432Y-35586D01*
X11408Y-35578D01*
X11382Y-35575D01*
X11376Y-35575D01*
X11356Y-35577D01*
X11338Y-35583D01*
X11334Y-35584D01*
X11313Y-35596D01*
X11295Y-35611D01*
X11279Y-35630D01*
X11268Y-35650D01*
X11261Y-35672D01*
X11261Y-35673D01*
X11260Y-35679D01*
X11259Y-35682D01*
X11259Y-35682D01*
X11258Y-35678D01*
X11257Y-35672D01*
X11256Y-35670D01*
X11249Y-35648D01*
X11237Y-35628D01*
X11221Y-35609D01*
X11207Y-35597D01*
X11185Y-35585D01*
X11162Y-35577D01*
X11136Y-35575D01*
X11117Y-35576D01*
X11093Y-35583D01*
X11070Y-35594D01*
X11051Y-35609D01*
X11035Y-35629D01*
X11033Y-35632D01*
X11027Y-35641D01*
X11023Y-35649D01*
X11021Y-35654D01*
X11018Y-35665D01*
X11015Y-35676D01*
X11014Y-35684D01*
X11014Y-35685D01*
X11013Y-35686D01*
X11012Y-35680D01*
X11010Y-35667D01*
X11004Y-35650D01*
X10996Y-35635D01*
X10982Y-35615D01*
X10963Y-35598D01*
X10941Y-35586D01*
X10917Y-35578D01*
X10891Y-35575D01*
X10868Y-35577D01*
X10844Y-35584D01*
X10822Y-35595D01*
X10802Y-35612D01*
X10793Y-35623D01*
X10783Y-35637D01*
X10776Y-35652D01*
X10772Y-35665D01*
X10767Y-35690D01*
X10768Y-35714D01*
X10774Y-35737D01*
X10783Y-35758D01*
X10797Y-35778D01*
X10814Y-35794D01*
X10833Y-35807D01*
X10856Y-35816D01*
X10881Y-35820D01*
X10883Y-35820D01*
X10908Y-35820D01*
X10932Y-35814D01*
X10954Y-35803D01*
X10962Y-35798D01*
X10979Y-35783D01*
X10993Y-35766D01*
X11003Y-35747D01*
X11006Y-35740D01*
X11009Y-35730D01*
X11012Y-35719D01*
X11013Y-35711D01*
X11013Y-35706D01*
X11014Y-35711D01*
X11014Y-35715D01*
X11017Y-35726D01*
X11020Y-35738D01*
X11024Y-35748D01*
X11030Y-35760D01*
X11045Y-35780D01*
X11064Y-35797D01*
X11086Y-35810D01*
X11110Y-35818D01*
X11114Y-35819D01*
X11131Y-35821D01*
X11149Y-35820D01*
X11165Y-35818D01*
X11181Y-35812D01*
X11204Y-35801D01*
X11225Y-35784D01*
X11226Y-35782D01*
X11240Y-35765D01*
X11251Y-35744D01*
X11257Y-35723D01*
X11257Y-35722D01*
X11259Y-35716D01*
X11259Y-35714D01*
X11259Y-35716D01*
X11260Y-35721D01*
X11261Y-35723D01*
X11264Y-35735D01*
X11270Y-35749D01*
X11277Y-35763D01*
X11288Y-35778D01*
X11306Y-35795D01*
X11328Y-35809D01*
X11352Y-35817D01*
X11357Y-35818D01*
X11373Y-35820D01*
X11391Y-35820D01*
X11407Y-35818D01*
X11421Y-35814D01*
X11444Y-35804D01*
X11464Y-35789D01*
X11481Y-35770D01*
X11494Y-35748D01*
X11497Y-35741D01*
X11500Y-35730D01*
X11503Y-35719D01*
X11504Y-35711D01*
X11504Y-35710D01*
X11505Y-35710D01*
X11505Y-35715D01*
X11506Y-35715D01*
X11509Y-35731D01*
X11515Y-35747D01*
X11522Y-35762D01*
X11526Y-35767D01*
X11542Y-35786D01*
X11561Y-35801D01*
X11582Y-35812D01*
X11606Y-35819D01*
X11630Y-35821D01*
G36*
X10636Y-35575D02*
X10651Y-35574D01*
X10666Y-35573D01*
X10682Y-35569D01*
X10705Y-35559D01*
X10726Y-35544D01*
X10743Y-35526D01*
X10756Y-35504D01*
X10764Y-35481D01*
X10767Y-35456D01*
X10766Y-35431D01*
X10759Y-35407D01*
X10748Y-35385D01*
X10732Y-35366D01*
X10713Y-35349D01*
X10706Y-35345D01*
X10683Y-35335D01*
X10658Y-35329D01*
X10633Y-35329D01*
X10607Y-35334D01*
X10587Y-35343D01*
X10566Y-35357D01*
X10548Y-35375D01*
X10534Y-35397D01*
X10525Y-35421D01*
X10522Y-35434D01*
X10521Y-35450D01*
X10522Y-35466D01*
X10524Y-35479D01*
X10525Y-35484D01*
X10535Y-35508D01*
X10549Y-35530D01*
X10568Y-35548D01*
X10590Y-35562D01*
X10601Y-35567D01*
X10615Y-35571D01*
X10628Y-35574D01*
X10636Y-35575D01*
X10636Y-35575D01*
G37*
X10636Y-35575D02*
X10651Y-35574D01*
X10666Y-35573D01*
X10682Y-35569D01*
X10705Y-35559D01*
X10726Y-35544D01*
X10743Y-35526D01*
X10756Y-35504D01*
X10764Y-35481D01*
X10767Y-35456D01*
X10766Y-35431D01*
X10759Y-35407D01*
X10748Y-35385D01*
X10732Y-35366D01*
X10713Y-35349D01*
X10706Y-35345D01*
X10683Y-35335D01*
X10658Y-35329D01*
X10633Y-35329D01*
X10607Y-35334D01*
X10587Y-35343D01*
X10566Y-35357D01*
X10548Y-35375D01*
X10534Y-35397D01*
X10525Y-35421D01*
X10522Y-35434D01*
X10521Y-35450D01*
X10522Y-35466D01*
X10524Y-35479D01*
X10525Y-35484D01*
X10535Y-35508D01*
X10549Y-35530D01*
X10568Y-35548D01*
X10590Y-35562D01*
X10601Y-35567D01*
X10615Y-35571D01*
X10628Y-35574D01*
X10636Y-35575D01*
G36*
X11876Y-35575D02*
X11902Y-35572D01*
X11926Y-35563D01*
X11949Y-35549D01*
X11954Y-35545D01*
X11971Y-35527D01*
X11984Y-35506D01*
X11993Y-35482D01*
X11996Y-35469D01*
X11997Y-35453D01*
X11996Y-35438D01*
X11994Y-35425D01*
X11993Y-35419D01*
X11983Y-35394D01*
X11969Y-35373D01*
X11951Y-35356D01*
X11930Y-35342D01*
X11906Y-35333D01*
X11880Y-35329D01*
X11871Y-35329D01*
X11846Y-35332D01*
X11823Y-35339D01*
X11802Y-35351D01*
X11784Y-35367D01*
X11770Y-35386D01*
X11759Y-35408D01*
X11752Y-35432D01*
X11751Y-35457D01*
X11752Y-35472D01*
X11755Y-35486D01*
X11761Y-35500D01*
X11771Y-35519D01*
X11786Y-35538D01*
X11806Y-35554D01*
X11827Y-35566D01*
X11851Y-35573D01*
X11876Y-35575D01*
X11876Y-35575D01*
G37*
X11876Y-35575D02*
X11902Y-35572D01*
X11926Y-35563D01*
X11949Y-35549D01*
X11954Y-35545D01*
X11971Y-35527D01*
X11984Y-35506D01*
X11993Y-35482D01*
X11996Y-35469D01*
X11997Y-35453D01*
X11996Y-35438D01*
X11994Y-35425D01*
X11993Y-35419D01*
X11983Y-35394D01*
X11969Y-35373D01*
X11951Y-35356D01*
X11930Y-35342D01*
X11906Y-35333D01*
X11880Y-35329D01*
X11871Y-35329D01*
X11846Y-35332D01*
X11823Y-35339D01*
X11802Y-35351D01*
X11784Y-35367D01*
X11770Y-35386D01*
X11759Y-35408D01*
X11752Y-35432D01*
X11751Y-35457D01*
X11752Y-35472D01*
X11755Y-35486D01*
X11761Y-35500D01*
X11771Y-35519D01*
X11786Y-35538D01*
X11806Y-35554D01*
X11827Y-35566D01*
X11851Y-35573D01*
X11876Y-35575D01*
G36*
X10391Y-35328D02*
X10409Y-35328D01*
X10424Y-35326D01*
X10442Y-35321D01*
X10464Y-35309D01*
X10485Y-35292D01*
X10498Y-35277D01*
X10510Y-35256D01*
X10519Y-35232D01*
X10520Y-35222D01*
X10521Y-35208D01*
X10521Y-35193D01*
X10519Y-35180D01*
X10517Y-35173D01*
X10507Y-35148D01*
X10493Y-35127D01*
X10475Y-35109D01*
X10453Y-35095D01*
X10444Y-35091D01*
X10428Y-35086D01*
X10412Y-35084D01*
X10394Y-35083D01*
X10382Y-35084D01*
X10369Y-35086D01*
X10357Y-35089D01*
X10343Y-35095D01*
X10335Y-35100D01*
X10315Y-35115D01*
X10298Y-35134D01*
X10285Y-35156D01*
X10277Y-35181D01*
X10276Y-35187D01*
X10275Y-35202D01*
X10276Y-35217D01*
X10277Y-35230D01*
X10279Y-35239D01*
X10289Y-35263D01*
X10303Y-35284D01*
X10321Y-35302D01*
X10343Y-35315D01*
X10368Y-35325D01*
X10375Y-35326D01*
X10391Y-35328D01*
X10391Y-35328D01*
G37*
X10391Y-35328D02*
X10409Y-35328D01*
X10424Y-35326D01*
X10442Y-35321D01*
X10464Y-35309D01*
X10485Y-35292D01*
X10498Y-35277D01*
X10510Y-35256D01*
X10519Y-35232D01*
X10520Y-35222D01*
X10521Y-35208D01*
X10521Y-35193D01*
X10519Y-35180D01*
X10517Y-35173D01*
X10507Y-35148D01*
X10493Y-35127D01*
X10475Y-35109D01*
X10453Y-35095D01*
X10444Y-35091D01*
X10428Y-35086D01*
X10412Y-35084D01*
X10394Y-35083D01*
X10382Y-35084D01*
X10369Y-35086D01*
X10357Y-35089D01*
X10343Y-35095D01*
X10335Y-35100D01*
X10315Y-35115D01*
X10298Y-35134D01*
X10285Y-35156D01*
X10277Y-35181D01*
X10276Y-35187D01*
X10275Y-35202D01*
X10276Y-35217D01*
X10277Y-35230D01*
X10279Y-35239D01*
X10289Y-35263D01*
X10303Y-35284D01*
X10321Y-35302D01*
X10343Y-35315D01*
X10368Y-35325D01*
X10375Y-35326D01*
X10391Y-35328D01*
G36*
X11379Y-35328D02*
X11403Y-35327D01*
X11427Y-35320D01*
X11440Y-35314D01*
X11461Y-35299D01*
X11479Y-35281D01*
X11492Y-35259D01*
X11501Y-35235D01*
X11502Y-35230D01*
X11505Y-35210D01*
X11504Y-35191D01*
X11499Y-35170D01*
X11489Y-35146D01*
X11475Y-35125D01*
X11456Y-35108D01*
X11434Y-35095D01*
X11409Y-35086D01*
X11394Y-35082D01*
X11402Y-35081D01*
X11404Y-35081D01*
X11422Y-35076D01*
X11440Y-35068D01*
X11457Y-35057D01*
X11460Y-35054D01*
X11478Y-35036D01*
X11491Y-35016D01*
X11500Y-34993D01*
X11504Y-34969D01*
X11504Y-34945D01*
X11498Y-34921D01*
X11488Y-34898D01*
X11487Y-34897D01*
X11472Y-34877D01*
X11453Y-34860D01*
X11432Y-34848D01*
X11410Y-34841D01*
X11386Y-34838D01*
X11362Y-34839D01*
X11339Y-34845D01*
X11317Y-34856D01*
X11297Y-34871D01*
X11286Y-34883D01*
X11274Y-34901D01*
X11265Y-34920D01*
X11260Y-34938D01*
X11260Y-34943D01*
X11259Y-34945D01*
X11259Y-34943D01*
X11258Y-34938D01*
X11253Y-34922D01*
X11246Y-34904D01*
X11236Y-34888D01*
X11229Y-34880D01*
X11211Y-34862D01*
X11189Y-34849D01*
X11166Y-34841D01*
X11141Y-34837D01*
X11116Y-34839D01*
X11100Y-34843D01*
X11077Y-34853D01*
X11056Y-34867D01*
X11039Y-34885D01*
X11026Y-34907D01*
X11017Y-34931D01*
X11015Y-34943D01*
X11014Y-34968D01*
X11018Y-34993D01*
X11027Y-35016D01*
X11041Y-35036D01*
X11058Y-35054D01*
X11080Y-35069D01*
X11090Y-35073D01*
X11101Y-35077D01*
X11112Y-35080D01*
X11120Y-35082D01*
X11121Y-35082D01*
X11121Y-35082D01*
X11115Y-35084D01*
X11103Y-35087D01*
X11087Y-35093D01*
X11073Y-35100D01*
X11065Y-35105D01*
X11048Y-35120D01*
X11034Y-35137D01*
X11023Y-35156D01*
X11017Y-35176D01*
X11014Y-35199D01*
X11014Y-35220D01*
X11015Y-35224D01*
X11021Y-35250D01*
X11033Y-35272D01*
X11050Y-35292D01*
X11064Y-35305D01*
X11086Y-35318D01*
X11110Y-35326D01*
X11119Y-35327D01*
X11133Y-35328D01*
X11147Y-35327D01*
X11160Y-35326D01*
X11170Y-35324D01*
X11178Y-35322D01*
X11202Y-35310D01*
X11222Y-35294D01*
X11239Y-35274D01*
X11245Y-35264D01*
X11252Y-35247D01*
X11257Y-35231D01*
X11257Y-35230D01*
X11259Y-35224D01*
X11259Y-35222D01*
X11259Y-35222D01*
X11259Y-35189D01*
X11259Y-35189D01*
X11258Y-35186D01*
X11257Y-35180D01*
X11257Y-35178D01*
X11249Y-35156D01*
X11238Y-35136D01*
X11222Y-35117D01*
X11203Y-35102D01*
X11182Y-35091D01*
X11181Y-35091D01*
X11170Y-35087D01*
X11160Y-35085D01*
X11149Y-35082D01*
X11159Y-35080D01*
X11174Y-35077D01*
X11196Y-35067D01*
X11216Y-35053D01*
X11233Y-35036D01*
X11246Y-35016D01*
X11251Y-35005D01*
X11255Y-34992D01*
X11258Y-34982D01*
X11258Y-34977D01*
X11259Y-34975D01*
X11259Y-34977D01*
X11260Y-34982D01*
X11262Y-34991D01*
X11267Y-35004D01*
X11272Y-35016D01*
X11279Y-35028D01*
X11295Y-35047D01*
X11314Y-35063D01*
X11336Y-35074D01*
X11359Y-35081D01*
X11370Y-35082D01*
X11359Y-35085D01*
X11357Y-35085D01*
X11346Y-35088D01*
X11336Y-35091D01*
X11334Y-35092D01*
X11313Y-35103D01*
X11295Y-35119D01*
X11279Y-35137D01*
X11268Y-35158D01*
X11261Y-35180D01*
X11261Y-35181D01*
X11260Y-35187D01*
X11259Y-35189D01*
X11259Y-35222D01*
X11259Y-35222D01*
X11260Y-35225D01*
X11261Y-35231D01*
X11265Y-35247D01*
X11276Y-35269D01*
X11291Y-35289D01*
X11309Y-35305D01*
X11331Y-35318D01*
X11331Y-35318D01*
X11354Y-35325D01*
X11379Y-35328D01*
X11379Y-35328D01*
G37*
X11379Y-35328D02*
X11403Y-35327D01*
X11427Y-35320D01*
X11440Y-35314D01*
X11461Y-35299D01*
X11479Y-35281D01*
X11492Y-35259D01*
X11501Y-35235D01*
X11502Y-35230D01*
X11505Y-35210D01*
X11504Y-35191D01*
X11499Y-35170D01*
X11489Y-35146D01*
X11475Y-35125D01*
X11456Y-35108D01*
X11434Y-35095D01*
X11409Y-35086D01*
X11394Y-35082D01*
X11402Y-35081D01*
X11404Y-35081D01*
X11422Y-35076D01*
X11440Y-35068D01*
X11457Y-35057D01*
X11460Y-35054D01*
X11478Y-35036D01*
X11491Y-35016D01*
X11500Y-34993D01*
X11504Y-34969D01*
X11504Y-34945D01*
X11498Y-34921D01*
X11488Y-34898D01*
X11487Y-34897D01*
X11472Y-34877D01*
X11453Y-34860D01*
X11432Y-34848D01*
X11410Y-34841D01*
X11386Y-34838D01*
X11362Y-34839D01*
X11339Y-34845D01*
X11317Y-34856D01*
X11297Y-34871D01*
X11286Y-34883D01*
X11274Y-34901D01*
X11265Y-34920D01*
X11260Y-34938D01*
X11260Y-34943D01*
X11259Y-34945D01*
X11259Y-34943D01*
X11258Y-34938D01*
X11253Y-34922D01*
X11246Y-34904D01*
X11236Y-34888D01*
X11229Y-34880D01*
X11211Y-34862D01*
X11189Y-34849D01*
X11166Y-34841D01*
X11141Y-34837D01*
X11116Y-34839D01*
X11100Y-34843D01*
X11077Y-34853D01*
X11056Y-34867D01*
X11039Y-34885D01*
X11026Y-34907D01*
X11017Y-34931D01*
X11015Y-34943D01*
X11014Y-34968D01*
X11018Y-34993D01*
X11027Y-35016D01*
X11041Y-35036D01*
X11058Y-35054D01*
X11080Y-35069D01*
X11090Y-35073D01*
X11101Y-35077D01*
X11112Y-35080D01*
X11120Y-35082D01*
X11121Y-35082D01*
X11121Y-35082D01*
X11115Y-35084D01*
X11103Y-35087D01*
X11087Y-35093D01*
X11073Y-35100D01*
X11065Y-35105D01*
X11048Y-35120D01*
X11034Y-35137D01*
X11023Y-35156D01*
X11017Y-35176D01*
X11014Y-35199D01*
X11014Y-35220D01*
X11015Y-35224D01*
X11021Y-35250D01*
X11033Y-35272D01*
X11050Y-35292D01*
X11064Y-35305D01*
X11086Y-35318D01*
X11110Y-35326D01*
X11119Y-35327D01*
X11133Y-35328D01*
X11147Y-35327D01*
X11160Y-35326D01*
X11170Y-35324D01*
X11178Y-35322D01*
X11202Y-35310D01*
X11222Y-35294D01*
X11239Y-35274D01*
X11245Y-35264D01*
X11252Y-35247D01*
X11257Y-35231D01*
X11257Y-35230D01*
X11259Y-35224D01*
X11259Y-35222D01*
X11259Y-35222D01*
X11259Y-35189D01*
X11259Y-35189D01*
X11258Y-35186D01*
X11257Y-35180D01*
X11257Y-35178D01*
X11249Y-35156D01*
X11238Y-35136D01*
X11222Y-35117D01*
X11203Y-35102D01*
X11182Y-35091D01*
X11181Y-35091D01*
X11170Y-35087D01*
X11160Y-35085D01*
X11149Y-35082D01*
X11159Y-35080D01*
X11174Y-35077D01*
X11196Y-35067D01*
X11216Y-35053D01*
X11233Y-35036D01*
X11246Y-35016D01*
X11251Y-35005D01*
X11255Y-34992D01*
X11258Y-34982D01*
X11258Y-34977D01*
X11259Y-34975D01*
X11259Y-34977D01*
X11260Y-34982D01*
X11262Y-34991D01*
X11267Y-35004D01*
X11272Y-35016D01*
X11279Y-35028D01*
X11295Y-35047D01*
X11314Y-35063D01*
X11336Y-35074D01*
X11359Y-35081D01*
X11370Y-35082D01*
X11359Y-35085D01*
X11357Y-35085D01*
X11346Y-35088D01*
X11336Y-35091D01*
X11334Y-35092D01*
X11313Y-35103D01*
X11295Y-35119D01*
X11279Y-35137D01*
X11268Y-35158D01*
X11261Y-35180D01*
X11261Y-35181D01*
X11260Y-35187D01*
X11259Y-35189D01*
X11259Y-35222D01*
X11259Y-35222D01*
X11260Y-35225D01*
X11261Y-35231D01*
X11265Y-35247D01*
X11276Y-35269D01*
X11291Y-35289D01*
X11309Y-35305D01*
X11331Y-35318D01*
X11331Y-35318D01*
X11354Y-35325D01*
X11379Y-35328D01*
G36*
X12111Y-35328D02*
X12131Y-35328D01*
X12149Y-35325D01*
X12161Y-35322D01*
X12184Y-35311D01*
X12204Y-35296D01*
X12220Y-35277D01*
X12232Y-35255D01*
X12240Y-35231D01*
X12243Y-35206D01*
X12242Y-35195D01*
X12238Y-35170D01*
X12228Y-35146D01*
X12213Y-35124D01*
X12208Y-35120D01*
X12191Y-35105D01*
X12170Y-35093D01*
X12149Y-35086D01*
X12148Y-35086D01*
X12130Y-35083D01*
X12110Y-35083D01*
X12091Y-35086D01*
X12085Y-35088D01*
X12061Y-35097D01*
X12041Y-35111D01*
X12024Y-35129D01*
X12011Y-35149D01*
X12002Y-35171D01*
X11997Y-35195D01*
X11997Y-35220D01*
X12003Y-35245D01*
X12011Y-35263D01*
X12025Y-35284D01*
X12044Y-35302D01*
X12065Y-35316D01*
X12089Y-35325D01*
X12092Y-35325D01*
X12111Y-35328D01*
X12111Y-35328D01*
G37*
X12111Y-35328D02*
X12131Y-35328D01*
X12149Y-35325D01*
X12161Y-35322D01*
X12184Y-35311D01*
X12204Y-35296D01*
X12220Y-35277D01*
X12232Y-35255D01*
X12240Y-35231D01*
X12243Y-35206D01*
X12242Y-35195D01*
X12238Y-35170D01*
X12228Y-35146D01*
X12213Y-35124D01*
X12208Y-35120D01*
X12191Y-35105D01*
X12170Y-35093D01*
X12149Y-35086D01*
X12148Y-35086D01*
X12130Y-35083D01*
X12110Y-35083D01*
X12091Y-35086D01*
X12085Y-35088D01*
X12061Y-35097D01*
X12041Y-35111D01*
X12024Y-35129D01*
X12011Y-35149D01*
X12002Y-35171D01*
X11997Y-35195D01*
X11997Y-35220D01*
X12003Y-35245D01*
X12011Y-35263D01*
X12025Y-35284D01*
X12044Y-35302D01*
X12065Y-35316D01*
X12089Y-35325D01*
X12092Y-35325D01*
X12111Y-35328D01*
G36*
X10894Y-34591D02*
X10918Y-34588D01*
X10942Y-34580D01*
X10953Y-34574D01*
X10964Y-34566D01*
X10976Y-34556D01*
X10989Y-34542D01*
X11001Y-34522D01*
X11010Y-34498D01*
X11011Y-34491D01*
X11013Y-34475D01*
X11013Y-34457D01*
X11011Y-34442D01*
X11004Y-34422D01*
X10993Y-34400D01*
X10978Y-34382D01*
X10976Y-34379D01*
X10964Y-34370D01*
X10951Y-34361D01*
X10938Y-34355D01*
X10934Y-34353D01*
X10924Y-34350D01*
X10914Y-34347D01*
X10907Y-34346D01*
X10903Y-34346D01*
X10907Y-34345D01*
X10913Y-34343D01*
X10921Y-34341D01*
X10930Y-34339D01*
X10948Y-34330D01*
X10966Y-34319D01*
X10981Y-34306D01*
X10983Y-34303D01*
X10998Y-34282D01*
X11008Y-34258D01*
X11013Y-34234D01*
X11013Y-34209D01*
X11012Y-34203D01*
X11005Y-34178D01*
X10994Y-34156D01*
X10977Y-34135D01*
X10962Y-34122D01*
X10941Y-34110D01*
X10917Y-34102D01*
X10912Y-34101D01*
X10895Y-34099D01*
X10878Y-34100D01*
X10862Y-34102D01*
X10848Y-34107D01*
X10826Y-34118D01*
X10806Y-34133D01*
X10790Y-34151D01*
X10777Y-34173D01*
X10770Y-34196D01*
X10769Y-34199D01*
X10768Y-34205D01*
X10766Y-34207D01*
X10766Y-34205D01*
X10765Y-34199D01*
X10763Y-34189D01*
X10759Y-34178D01*
X10755Y-34168D01*
X10751Y-34161D01*
X10736Y-34140D01*
X10717Y-34123D01*
X10695Y-34110D01*
X10671Y-34102D01*
X10645Y-34099D01*
X10625Y-34101D01*
X10602Y-34107D01*
X10580Y-34117D01*
X10567Y-34126D01*
X10549Y-34144D01*
X10536Y-34165D01*
X10526Y-34188D01*
X10521Y-34212D01*
X10522Y-34236D01*
X10527Y-34259D01*
X10537Y-34283D01*
X10552Y-34304D01*
X10571Y-34321D01*
X10593Y-34334D01*
X10618Y-34343D01*
X10632Y-34346D01*
X10624Y-34347D01*
X10619Y-34348D01*
X10599Y-34354D01*
X10580Y-34364D01*
X10562Y-34377D01*
X10548Y-34392D01*
X10539Y-34405D01*
X10530Y-34422D01*
X10525Y-34438D01*
X10522Y-34451D01*
X10521Y-34467D01*
X10522Y-34482D01*
X10524Y-34495D01*
X10528Y-34510D01*
X10540Y-34533D01*
X10555Y-34554D01*
X10575Y-34570D01*
X10598Y-34582D01*
X10623Y-34590D01*
X10630Y-34591D01*
X10645Y-34591D01*
X10661Y-34590D01*
X10675Y-34588D01*
X10685Y-34585D01*
X10708Y-34573D01*
X10728Y-34558D01*
X10745Y-34539D01*
X10757Y-34517D01*
X10765Y-34493D01*
X10765Y-34491D01*
X10767Y-34485D01*
X10768Y-34486D01*
X10768Y-34452D01*
X10767Y-34451D01*
X10765Y-34446D01*
X10765Y-34445D01*
X10761Y-34428D01*
X10753Y-34411D01*
X10743Y-34395D01*
X10736Y-34386D01*
X10716Y-34368D01*
X10694Y-34356D01*
X10669Y-34348D01*
X10657Y-34345D01*
X10666Y-34344D01*
X10673Y-34342D01*
X10681Y-34340D01*
X10686Y-34338D01*
X10708Y-34327D01*
X10728Y-34312D01*
X10745Y-34293D01*
X10757Y-34272D01*
X10765Y-34248D01*
X10766Y-34242D01*
X10767Y-34239D01*
X10768Y-34241D01*
X10770Y-34249D01*
X10770Y-34249D01*
X10774Y-34262D01*
X10780Y-34277D01*
X10788Y-34290D01*
X10794Y-34298D01*
X10805Y-34310D01*
X10817Y-34321D01*
X10829Y-34329D01*
X10830Y-34330D01*
X10849Y-34338D01*
X10869Y-34344D01*
X10877Y-34345D01*
X10868Y-34347D01*
X10846Y-34353D01*
X10824Y-34365D01*
X10804Y-34380D01*
X10789Y-34399D01*
X10785Y-34405D01*
X10779Y-34417D01*
X10774Y-34429D01*
X10770Y-34441D01*
X10769Y-34449D01*
X10769Y-34449D01*
X10768Y-34452D01*
X10768Y-34486D01*
X10768Y-34486D01*
X10769Y-34491D01*
X10771Y-34498D01*
X10773Y-34506D01*
X10778Y-34519D01*
X10790Y-34540D01*
X10807Y-34558D01*
X10826Y-34573D01*
X10847Y-34583D01*
X10870Y-34590D01*
X10894Y-34591D01*
X10894Y-34591D01*
G37*
X10894Y-34591D02*
X10918Y-34588D01*
X10942Y-34580D01*
X10953Y-34574D01*
X10964Y-34566D01*
X10976Y-34556D01*
X10989Y-34542D01*
X11001Y-34522D01*
X11010Y-34498D01*
X11011Y-34491D01*
X11013Y-34475D01*
X11013Y-34457D01*
X11011Y-34442D01*
X11004Y-34422D01*
X10993Y-34400D01*
X10978Y-34382D01*
X10976Y-34379D01*
X10964Y-34370D01*
X10951Y-34361D01*
X10938Y-34355D01*
X10934Y-34353D01*
X10924Y-34350D01*
X10914Y-34347D01*
X10907Y-34346D01*
X10903Y-34346D01*
X10907Y-34345D01*
X10913Y-34343D01*
X10921Y-34341D01*
X10930Y-34339D01*
X10948Y-34330D01*
X10966Y-34319D01*
X10981Y-34306D01*
X10983Y-34303D01*
X10998Y-34282D01*
X11008Y-34258D01*
X11013Y-34234D01*
X11013Y-34209D01*
X11012Y-34203D01*
X11005Y-34178D01*
X10994Y-34156D01*
X10977Y-34135D01*
X10962Y-34122D01*
X10941Y-34110D01*
X10917Y-34102D01*
X10912Y-34101D01*
X10895Y-34099D01*
X10878Y-34100D01*
X10862Y-34102D01*
X10848Y-34107D01*
X10826Y-34118D01*
X10806Y-34133D01*
X10790Y-34151D01*
X10777Y-34173D01*
X10770Y-34196D01*
X10769Y-34199D01*
X10768Y-34205D01*
X10766Y-34207D01*
X10766Y-34205D01*
X10765Y-34199D01*
X10763Y-34189D01*
X10759Y-34178D01*
X10755Y-34168D01*
X10751Y-34161D01*
X10736Y-34140D01*
X10717Y-34123D01*
X10695Y-34110D01*
X10671Y-34102D01*
X10645Y-34099D01*
X10625Y-34101D01*
X10602Y-34107D01*
X10580Y-34117D01*
X10567Y-34126D01*
X10549Y-34144D01*
X10536Y-34165D01*
X10526Y-34188D01*
X10521Y-34212D01*
X10522Y-34236D01*
X10527Y-34259D01*
X10537Y-34283D01*
X10552Y-34304D01*
X10571Y-34321D01*
X10593Y-34334D01*
X10618Y-34343D01*
X10632Y-34346D01*
X10624Y-34347D01*
X10619Y-34348D01*
X10599Y-34354D01*
X10580Y-34364D01*
X10562Y-34377D01*
X10548Y-34392D01*
X10539Y-34405D01*
X10530Y-34422D01*
X10525Y-34438D01*
X10522Y-34451D01*
X10521Y-34467D01*
X10522Y-34482D01*
X10524Y-34495D01*
X10528Y-34510D01*
X10540Y-34533D01*
X10555Y-34554D01*
X10575Y-34570D01*
X10598Y-34582D01*
X10623Y-34590D01*
X10630Y-34591D01*
X10645Y-34591D01*
X10661Y-34590D01*
X10675Y-34588D01*
X10685Y-34585D01*
X10708Y-34573D01*
X10728Y-34558D01*
X10745Y-34539D01*
X10757Y-34517D01*
X10765Y-34493D01*
X10765Y-34491D01*
X10767Y-34485D01*
X10768Y-34486D01*
X10768Y-34452D01*
X10767Y-34451D01*
X10765Y-34446D01*
X10765Y-34445D01*
X10761Y-34428D01*
X10753Y-34411D01*
X10743Y-34395D01*
X10736Y-34386D01*
X10716Y-34368D01*
X10694Y-34356D01*
X10669Y-34348D01*
X10657Y-34345D01*
X10666Y-34344D01*
X10673Y-34342D01*
X10681Y-34340D01*
X10686Y-34338D01*
X10708Y-34327D01*
X10728Y-34312D01*
X10745Y-34293D01*
X10757Y-34272D01*
X10765Y-34248D01*
X10766Y-34242D01*
X10767Y-34239D01*
X10768Y-34241D01*
X10770Y-34249D01*
X10770Y-34249D01*
X10774Y-34262D01*
X10780Y-34277D01*
X10788Y-34290D01*
X10794Y-34298D01*
X10805Y-34310D01*
X10817Y-34321D01*
X10829Y-34329D01*
X10830Y-34330D01*
X10849Y-34338D01*
X10869Y-34344D01*
X10877Y-34345D01*
X10868Y-34347D01*
X10846Y-34353D01*
X10824Y-34365D01*
X10804Y-34380D01*
X10789Y-34399D01*
X10785Y-34405D01*
X10779Y-34417D01*
X10774Y-34429D01*
X10770Y-34441D01*
X10769Y-34449D01*
X10769Y-34449D01*
X10768Y-34452D01*
X10768Y-34486D01*
X10768Y-34486D01*
X10769Y-34491D01*
X10771Y-34498D01*
X10773Y-34506D01*
X10778Y-34519D01*
X10790Y-34540D01*
X10807Y-34558D01*
X10826Y-34573D01*
X10847Y-34583D01*
X10870Y-34590D01*
X10894Y-34591D01*
G36*
X11634Y-34591D02*
X11658Y-34588D01*
X11681Y-34579D01*
X11702Y-34566D01*
X11720Y-34550D01*
X11735Y-34529D01*
X11745Y-34506D01*
X11747Y-34498D01*
X11749Y-34491D01*
X11749Y-34490D01*
X11750Y-34485D01*
X11750Y-34485D01*
X11750Y-34451D01*
X11749Y-34448D01*
X11747Y-34439D01*
X11743Y-34425D01*
X11732Y-34403D01*
X11717Y-34384D01*
X11698Y-34368D01*
X11676Y-34355D01*
X11652Y-34348D01*
X11641Y-34345D01*
X11649Y-34344D01*
X11650Y-34343D01*
X11670Y-34338D01*
X11689Y-34329D01*
X11697Y-34324D01*
X11709Y-34314D01*
X11721Y-34302D01*
X11730Y-34290D01*
X11737Y-34279D01*
X11744Y-34264D01*
X11748Y-34249D01*
X11749Y-34242D01*
X11751Y-34239D01*
X11752Y-34241D01*
X11753Y-34248D01*
X11758Y-34264D01*
X11769Y-34287D01*
X11785Y-34308D01*
X11804Y-34324D01*
X11827Y-34336D01*
X11852Y-34344D01*
X11861Y-34345D01*
X11849Y-34348D01*
X11838Y-34351D01*
X11814Y-34361D01*
X11793Y-34376D01*
X11775Y-34395D01*
X11770Y-34402D01*
X11764Y-34413D01*
X11758Y-34426D01*
X11755Y-34435D01*
X11753Y-34445D01*
X11753Y-34445D01*
X11751Y-34450D01*
X11750Y-34451D01*
X11750Y-34485D01*
X11751Y-34486D01*
X11753Y-34492D01*
X11755Y-34501D01*
X11762Y-34519D01*
X11772Y-34537D01*
X11779Y-34546D01*
X11797Y-34565D01*
X11819Y-34578D01*
X11844Y-34588D01*
X11854Y-34590D01*
X11872Y-34591D01*
X11889Y-34590D01*
X11904Y-34588D01*
X11906Y-34587D01*
X11930Y-34578D01*
X11952Y-34563D01*
X11970Y-34545D01*
X11984Y-34523D01*
X11993Y-34499D01*
X11995Y-34487D01*
X11997Y-34470D01*
X11996Y-34453D01*
X11993Y-34438D01*
X11989Y-34425D01*
X11980Y-34407D01*
X11970Y-34392D01*
X11959Y-34380D01*
X11944Y-34368D01*
X11928Y-34358D01*
X11922Y-34355D01*
X11911Y-34351D01*
X11899Y-34348D01*
X11890Y-34346D01*
X11890Y-34346D01*
X11892Y-34345D01*
X11900Y-34343D01*
X11914Y-34338D01*
X11930Y-34332D01*
X11943Y-34324D01*
X11946Y-34322D01*
X11962Y-34308D01*
X11976Y-34290D01*
X11987Y-34272D01*
X11990Y-34263D01*
X11996Y-34238D01*
X11997Y-34213D01*
X11992Y-34188D01*
X11991Y-34183D01*
X11980Y-34160D01*
X11965Y-34140D01*
X11946Y-34123D01*
X11924Y-34110D01*
X11900Y-34102D01*
X11896Y-34101D01*
X11880Y-34099D01*
X11861Y-34100D01*
X11845Y-34102D01*
X11842Y-34103D01*
X11817Y-34113D01*
X11795Y-34127D01*
X11777Y-34146D01*
X11763Y-34168D01*
X11760Y-34175D01*
X11756Y-34186D01*
X11753Y-34197D01*
X11752Y-34205D01*
X11752Y-34206D01*
X11751Y-34207D01*
X11750Y-34204D01*
X11748Y-34197D01*
X11744Y-34180D01*
X11733Y-34158D01*
X11718Y-34139D01*
X11700Y-34123D01*
X11678Y-34110D01*
X11678Y-34110D01*
X11655Y-34102D01*
X11631Y-34099D01*
X11606Y-34101D01*
X11583Y-34108D01*
X11569Y-34114D01*
X11548Y-34129D01*
X11530Y-34147D01*
X11517Y-34168D01*
X11508Y-34192D01*
X11507Y-34197D01*
X11504Y-34217D01*
X11505Y-34236D01*
X11510Y-34259D01*
X11521Y-34283D01*
X11535Y-34303D01*
X11554Y-34321D01*
X11576Y-34334D01*
X11602Y-34343D01*
X11607Y-34344D01*
X11611Y-34346D01*
X11611Y-34346D01*
X11604Y-34347D01*
X11590Y-34351D01*
X11574Y-34358D01*
X11560Y-34366D01*
X11546Y-34376D01*
X11529Y-34395D01*
X11516Y-34417D01*
X11514Y-34421D01*
X11507Y-34445D01*
X11505Y-34470D01*
X11508Y-34496D01*
X11516Y-34519D01*
X11521Y-34531D01*
X11529Y-34542D01*
X11539Y-34554D01*
X11540Y-34554D01*
X11560Y-34571D01*
X11582Y-34583D01*
X11607Y-34590D01*
X11609Y-34590D01*
X11634Y-34591D01*
X11634Y-34591D01*
G37*
X11634Y-34591D02*
X11658Y-34588D01*
X11681Y-34579D01*
X11702Y-34566D01*
X11720Y-34550D01*
X11735Y-34529D01*
X11745Y-34506D01*
X11747Y-34498D01*
X11749Y-34491D01*
X11749Y-34490D01*
X11750Y-34485D01*
X11750Y-34485D01*
X11750Y-34451D01*
X11749Y-34448D01*
X11747Y-34439D01*
X11743Y-34425D01*
X11732Y-34403D01*
X11717Y-34384D01*
X11698Y-34368D01*
X11676Y-34355D01*
X11652Y-34348D01*
X11641Y-34345D01*
X11649Y-34344D01*
X11650Y-34343D01*
X11670Y-34338D01*
X11689Y-34329D01*
X11697Y-34324D01*
X11709Y-34314D01*
X11721Y-34302D01*
X11730Y-34290D01*
X11737Y-34279D01*
X11744Y-34264D01*
X11748Y-34249D01*
X11749Y-34242D01*
X11751Y-34239D01*
X11752Y-34241D01*
X11753Y-34248D01*
X11758Y-34264D01*
X11769Y-34287D01*
X11785Y-34308D01*
X11804Y-34324D01*
X11827Y-34336D01*
X11852Y-34344D01*
X11861Y-34345D01*
X11849Y-34348D01*
X11838Y-34351D01*
X11814Y-34361D01*
X11793Y-34376D01*
X11775Y-34395D01*
X11770Y-34402D01*
X11764Y-34413D01*
X11758Y-34426D01*
X11755Y-34435D01*
X11753Y-34445D01*
X11753Y-34445D01*
X11751Y-34450D01*
X11750Y-34451D01*
X11750Y-34485D01*
X11751Y-34486D01*
X11753Y-34492D01*
X11755Y-34501D01*
X11762Y-34519D01*
X11772Y-34537D01*
X11779Y-34546D01*
X11797Y-34565D01*
X11819Y-34578D01*
X11844Y-34588D01*
X11854Y-34590D01*
X11872Y-34591D01*
X11889Y-34590D01*
X11904Y-34588D01*
X11906Y-34587D01*
X11930Y-34578D01*
X11952Y-34563D01*
X11970Y-34545D01*
X11984Y-34523D01*
X11993Y-34499D01*
X11995Y-34487D01*
X11997Y-34470D01*
X11996Y-34453D01*
X11993Y-34438D01*
X11989Y-34425D01*
X11980Y-34407D01*
X11970Y-34392D01*
X11959Y-34380D01*
X11944Y-34368D01*
X11928Y-34358D01*
X11922Y-34355D01*
X11911Y-34351D01*
X11899Y-34348D01*
X11890Y-34346D01*
X11890Y-34346D01*
X11892Y-34345D01*
X11900Y-34343D01*
X11914Y-34338D01*
X11930Y-34332D01*
X11943Y-34324D01*
X11946Y-34322D01*
X11962Y-34308D01*
X11976Y-34290D01*
X11987Y-34272D01*
X11990Y-34263D01*
X11996Y-34238D01*
X11997Y-34213D01*
X11992Y-34188D01*
X11991Y-34183D01*
X11980Y-34160D01*
X11965Y-34140D01*
X11946Y-34123D01*
X11924Y-34110D01*
X11900Y-34102D01*
X11896Y-34101D01*
X11880Y-34099D01*
X11861Y-34100D01*
X11845Y-34102D01*
X11842Y-34103D01*
X11817Y-34113D01*
X11795Y-34127D01*
X11777Y-34146D01*
X11763Y-34168D01*
X11760Y-34175D01*
X11756Y-34186D01*
X11753Y-34197D01*
X11752Y-34205D01*
X11752Y-34206D01*
X11751Y-34207D01*
X11750Y-34204D01*
X11748Y-34197D01*
X11744Y-34180D01*
X11733Y-34158D01*
X11718Y-34139D01*
X11700Y-34123D01*
X11678Y-34110D01*
X11678Y-34110D01*
X11655Y-34102D01*
X11631Y-34099D01*
X11606Y-34101D01*
X11583Y-34108D01*
X11569Y-34114D01*
X11548Y-34129D01*
X11530Y-34147D01*
X11517Y-34168D01*
X11508Y-34192D01*
X11507Y-34197D01*
X11504Y-34217D01*
X11505Y-34236D01*
X11510Y-34259D01*
X11521Y-34283D01*
X11535Y-34303D01*
X11554Y-34321D01*
X11576Y-34334D01*
X11602Y-34343D01*
X11607Y-34344D01*
X11611Y-34346D01*
X11611Y-34346D01*
X11604Y-34347D01*
X11590Y-34351D01*
X11574Y-34358D01*
X11560Y-34366D01*
X11546Y-34376D01*
X11529Y-34395D01*
X11516Y-34417D01*
X11514Y-34421D01*
X11507Y-34445D01*
X11505Y-34470D01*
X11508Y-34496D01*
X11516Y-34519D01*
X11521Y-34531D01*
X11529Y-34542D01*
X11539Y-34554D01*
X11540Y-34554D01*
X11560Y-34571D01*
X11582Y-34583D01*
X11607Y-34590D01*
X11609Y-34590D01*
X11634Y-34591D01*
%LPC*%
G54D14*
X46062Y-35000D03*
X9448Y-35000D03*
G54D15*
X26500Y-32000D03*
X27000Y-32000D03*
X27500Y-32000D03*
X28000Y-32000D03*
X28500Y-32000D03*
X29000Y-32000D03*
X29500Y-32000D03*
X30000Y-32000D03*
G54D16*
X34750Y-38500D03*
X35750Y-38500D03*
X36750Y-38500D03*
X37750Y-38500D03*
X38750Y-38500D03*
X39750Y-38500D03*
X40750Y-38500D03*
X41750Y-38500D03*
X26750Y-38500D03*
X27750Y-38500D03*
X28750Y-38500D03*
X29750Y-38500D03*
X30750Y-38500D03*
X31750Y-38500D03*
X32750Y-38500D03*
X33750Y-38500D03*
X10750Y-40500D03*
X11750Y-40500D03*
X12750Y-40500D03*
X13750Y-40500D03*
X14750Y-40500D03*
X15750Y-40500D03*
X16750Y-40500D03*
X17750Y-40500D03*
X34750Y-31500D03*
X35750Y-31500D03*
X36750Y-31500D03*
X37750Y-31500D03*
X38750Y-31500D03*
X39750Y-31500D03*
X40750Y-31500D03*
X41750Y-31500D03*
X26750Y-30500D03*
X27750Y-30500D03*
X28750Y-30500D03*
X29750Y-30500D03*
X30750Y-30500D03*
X31750Y-30500D03*
X32750Y-30500D03*
X33750Y-30500D03*
X18750Y-30500D03*
X19750Y-30500D03*
X20750Y-30500D03*
X21750Y-30500D03*
X22750Y-30500D03*
X23750Y-30500D03*
X24750Y-30500D03*
X25750Y-30500D03*
X42750Y-32500D03*
X43750Y-32500D03*
X44750Y-32500D03*
X42750Y-31500D03*
X43750Y-31500D03*
X44750Y-31500D03*
X42750Y-30500D03*
X43750Y-30500D03*
X44750Y-30500D03*
X42750Y-29500D03*
X43750Y-29500D03*
X44750Y-29500D03*
X42750Y-27500D03*
X43750Y-27500D03*
X44750Y-27500D03*
X42750Y-26500D03*
X43750Y-26500D03*
X44750Y-26500D03*
X42750Y-33500D03*
X43750Y-33500D03*
X44750Y-33500D03*
X42750Y-40500D03*
X43750Y-40500D03*
X44750Y-40500D03*
X42750Y-39500D03*
X43750Y-39500D03*
X44750Y-39500D03*
X42750Y-38500D03*
X43750Y-38500D03*
X44750Y-38500D03*
X42750Y-37500D03*
X43750Y-37500D03*
X44750Y-37500D03*
X42750Y-36500D03*
X43750Y-36500D03*
X44750Y-36500D03*
X42750Y-43500D03*
X43750Y-43500D03*
X44750Y-43500D03*
X42750Y-42500D03*
X43750Y-42500D03*
X44750Y-42500D03*
G54D15*
X42500Y-26000D03*
X43000Y-26000D03*
X43500Y-26000D03*
X44000Y-26000D03*
X44500Y-26000D03*
X45000Y-26000D03*
X42500Y-28000D03*
X43000Y-28000D03*
X43500Y-28000D03*
X44000Y-28000D03*
X44500Y-28000D03*
X45000Y-28000D03*
X42500Y-29000D03*
X43000Y-29000D03*
X43500Y-29000D03*
X44000Y-29000D03*
X44500Y-29000D03*
X45000Y-29000D03*
X42500Y-30000D03*
X43000Y-30000D03*
X43500Y-30000D03*
X44000Y-30000D03*
X44500Y-30000D03*
X45000Y-30000D03*
X42500Y-31000D03*
X43000Y-31000D03*
X43500Y-31000D03*
X44000Y-31000D03*
X44500Y-31000D03*
X45000Y-31000D03*
X42500Y-32000D03*
X43000Y-32000D03*
X43500Y-32000D03*
X44000Y-32000D03*
X44500Y-32000D03*
X45000Y-32000D03*
X42500Y-33000D03*
X43000Y-33000D03*
X43500Y-33000D03*
X44000Y-33000D03*
X44500Y-33000D03*
X45000Y-33000D03*
X42500Y-44000D03*
X43000Y-44000D03*
X43500Y-44000D03*
X44000Y-44000D03*
X44500Y-44000D03*
X45000Y-44000D03*
X42500Y-42000D03*
X43000Y-42000D03*
X43500Y-42000D03*
X44000Y-42000D03*
X44500Y-42000D03*
X45000Y-42000D03*
X42500Y-41000D03*
X43000Y-41000D03*
X43500Y-41000D03*
X44000Y-41000D03*
X44500Y-41000D03*
X45000Y-41000D03*
X42500Y-40000D03*
X43000Y-40000D03*
X43500Y-40000D03*
X44000Y-40000D03*
X44500Y-40000D03*
X45000Y-40000D03*
X42500Y-39000D03*
X43000Y-39000D03*
X43500Y-39000D03*
X44000Y-39000D03*
X44500Y-39000D03*
X45000Y-39000D03*
X42500Y-38000D03*
X43000Y-38000D03*
X43500Y-38000D03*
X44000Y-38000D03*
X44500Y-38000D03*
X45000Y-38000D03*
X42500Y-37000D03*
X43000Y-37000D03*
X43500Y-37000D03*
X44000Y-37000D03*
X44500Y-37000D03*
X45000Y-37000D03*
X30500Y-29000D03*
X31000Y-29000D03*
X31500Y-29000D03*
X32000Y-29000D03*
X32500Y-29000D03*
X33000Y-29000D03*
X33500Y-29000D03*
X34000Y-29000D03*
G54D16*
X26750Y-33500D03*
X27750Y-33500D03*
X28750Y-33500D03*
X29750Y-33500D03*
X30750Y-33500D03*
X31750Y-33500D03*
X32750Y-33500D03*
X33750Y-33500D03*
X26750Y-29500D03*
X27750Y-29500D03*
X28750Y-29500D03*
X29750Y-29500D03*
X30750Y-29500D03*
X31750Y-29500D03*
X32750Y-29500D03*
X33750Y-29500D03*
X26750Y-31500D03*
X27750Y-31500D03*
X28750Y-31500D03*
X29750Y-31500D03*
X30750Y-31500D03*
X31750Y-31500D03*
X32750Y-31500D03*
X33750Y-31500D03*
X26750Y-32500D03*
X27750Y-32500D03*
X28750Y-32500D03*
X29750Y-32500D03*
X30750Y-32500D03*
X31750Y-32500D03*
X32750Y-32500D03*
X33750Y-32500D03*
X26750Y-36500D03*
X27750Y-36500D03*
X28750Y-36500D03*
X29750Y-36500D03*
X30750Y-36500D03*
X31750Y-36500D03*
X32750Y-36500D03*
X33750Y-36500D03*
X26750Y-40500D03*
X27750Y-40500D03*
X28750Y-40500D03*
X29750Y-40500D03*
X30750Y-40500D03*
X31750Y-40500D03*
X32750Y-40500D03*
X33750Y-40500D03*
X26750Y-39500D03*
X27750Y-39500D03*
X28750Y-39500D03*
X29750Y-39500D03*
X30750Y-39500D03*
X31750Y-39500D03*
X32750Y-39500D03*
X33750Y-39500D03*
X26750Y-37500D03*
X27750Y-37500D03*
X28750Y-37500D03*
X29750Y-37500D03*
X30750Y-37500D03*
X31750Y-37500D03*
X32750Y-37500D03*
X33750Y-37500D03*
G54D15*
X26500Y-29000D03*
X27000Y-29000D03*
X27500Y-29000D03*
X28000Y-29000D03*
X28500Y-29000D03*
X29000Y-29000D03*
X29500Y-29000D03*
X30000Y-29000D03*
X26500Y-30000D03*
X27000Y-30000D03*
X27500Y-30000D03*
X28000Y-30000D03*
X28500Y-30000D03*
X29000Y-30000D03*
X29500Y-30000D03*
X30000Y-30000D03*
X26500Y-31000D03*
X27000Y-31000D03*
X27500Y-31000D03*
X28000Y-31000D03*
X28500Y-31000D03*
X29000Y-31000D03*
X29500Y-31000D03*
X30000Y-31000D03*
X26500Y-33000D03*
X27000Y-33000D03*
X27500Y-33000D03*
X28000Y-33000D03*
X28500Y-33000D03*
X29000Y-33000D03*
X29500Y-33000D03*
X30000Y-33000D03*
X26500Y-37000D03*
X27000Y-37000D03*
X27500Y-37000D03*
X28000Y-37000D03*
X28500Y-37000D03*
X29000Y-37000D03*
X29500Y-37000D03*
X30000Y-37000D03*
X26500Y-38000D03*
X27000Y-38000D03*
X27500Y-38000D03*
X28000Y-38000D03*
X28500Y-38000D03*
X29000Y-38000D03*
X29500Y-38000D03*
X30000Y-38000D03*
X26500Y-39000D03*
X27000Y-39000D03*
X27500Y-39000D03*
X28000Y-39000D03*
X28500Y-39000D03*
X29000Y-39000D03*
X29500Y-39000D03*
X30000Y-39000D03*
X26500Y-40000D03*
X27000Y-40000D03*
X27500Y-40000D03*
X28000Y-40000D03*
X28500Y-40000D03*
X29000Y-40000D03*
X29500Y-40000D03*
X30000Y-40000D03*
X26500Y-41000D03*
X27000Y-41000D03*
X27500Y-41000D03*
X28000Y-41000D03*
X28500Y-41000D03*
X29000Y-41000D03*
X29500Y-41000D03*
X30000Y-41000D03*
X30500Y-30000D03*
X31000Y-30000D03*
X31500Y-30000D03*
X32000Y-30000D03*
X32500Y-30000D03*
X33000Y-30000D03*
X33500Y-30000D03*
X34000Y-30000D03*
X30500Y-31000D03*
X31000Y-31000D03*
X31500Y-31000D03*
X32000Y-31000D03*
X32500Y-31000D03*
X33000Y-31000D03*
X33500Y-31000D03*
X34000Y-31000D03*
X30500Y-32000D03*
X31000Y-32000D03*
X31500Y-32000D03*
X32000Y-32000D03*
X32500Y-32000D03*
X33000Y-32000D03*
X33500Y-32000D03*
X34000Y-32000D03*
X30500Y-33000D03*
X31000Y-33000D03*
X31500Y-33000D03*
X32000Y-33000D03*
X32500Y-33000D03*
X33000Y-33000D03*
X33500Y-33000D03*
X34000Y-33000D03*
X30500Y-41000D03*
X31000Y-41000D03*
X31500Y-41000D03*
X32000Y-41000D03*
X32500Y-41000D03*
X33000Y-41000D03*
X33500Y-41000D03*
X34000Y-41000D03*
X30500Y-40000D03*
X31000Y-40000D03*
X31500Y-40000D03*
X32000Y-40000D03*
X32500Y-40000D03*
X33000Y-40000D03*
X33500Y-40000D03*
X34000Y-40000D03*
X30500Y-39000D03*
X31000Y-39000D03*
X31500Y-39000D03*
X32000Y-39000D03*
X32500Y-39000D03*
X33000Y-39000D03*
X33500Y-39000D03*
X34000Y-39000D03*
X30500Y-38000D03*
X31000Y-38000D03*
X31500Y-38000D03*
X32000Y-38000D03*
X32500Y-38000D03*
X33000Y-38000D03*
X33500Y-38000D03*
X34000Y-38000D03*
X30500Y-37000D03*
X31000Y-37000D03*
X31500Y-37000D03*
X32000Y-37000D03*
X32500Y-37000D03*
X33000Y-37000D03*
X33500Y-37000D03*
X34000Y-37000D03*
X26500Y-42000D03*
X27000Y-42000D03*
X27500Y-42000D03*
X28000Y-42000D03*
X28500Y-42000D03*
X29000Y-42000D03*
X29500Y-42000D03*
X30000Y-42000D03*
X30500Y-42000D03*
X31000Y-42000D03*
X31500Y-42000D03*
X32000Y-42000D03*
X32500Y-42000D03*
X33000Y-42000D03*
X33500Y-42000D03*
X34000Y-42000D03*
G54D16*
X26750Y-42500D03*
X27750Y-42500D03*
X28750Y-42500D03*
X29750Y-42500D03*
X30750Y-42500D03*
X31750Y-42500D03*
X32750Y-42500D03*
X33750Y-42500D03*
X26750Y-43500D03*
X27750Y-43500D03*
X28750Y-43500D03*
X29750Y-43500D03*
X30750Y-43500D03*
X31750Y-43500D03*
X32750Y-43500D03*
X33750Y-43500D03*
G54D15*
X30500Y-44000D03*
X31000Y-44000D03*
X31500Y-44000D03*
X32000Y-44000D03*
X32500Y-44000D03*
X33000Y-44000D03*
X33500Y-44000D03*
X34000Y-44000D03*
X26500Y-44000D03*
X27000Y-44000D03*
X27500Y-44000D03*
X28000Y-44000D03*
X28500Y-44000D03*
X29000Y-44000D03*
X29500Y-44000D03*
X30000Y-44000D03*
X26500Y-28000D03*
X27000Y-28000D03*
X27500Y-28000D03*
X28000Y-28000D03*
X28500Y-28000D03*
X29000Y-28000D03*
X29500Y-28000D03*
X30000Y-28000D03*
X30500Y-28000D03*
X31000Y-28000D03*
X31500Y-28000D03*
X32000Y-28000D03*
X32500Y-28000D03*
X33000Y-28000D03*
X33500Y-28000D03*
X34000Y-28000D03*
G54D16*
X26750Y-27500D03*
X27750Y-27500D03*
X28750Y-27500D03*
X29750Y-27500D03*
X30750Y-27500D03*
X31750Y-27500D03*
X32750Y-27500D03*
X33750Y-27500D03*
X26750Y-26500D03*
X27750Y-26500D03*
X28750Y-26500D03*
X29750Y-26500D03*
X30750Y-26500D03*
X31750Y-26500D03*
X32750Y-26500D03*
X33750Y-26500D03*
G54D15*
X30500Y-26000D03*
X31000Y-26000D03*
X31500Y-26000D03*
X32000Y-26000D03*
X32500Y-26000D03*
X33000Y-26000D03*
X33500Y-26000D03*
X34000Y-26000D03*
X26500Y-26000D03*
X27000Y-26000D03*
X27500Y-26000D03*
X28000Y-26000D03*
X28500Y-26000D03*
X29000Y-26000D03*
X29500Y-26000D03*
X30000Y-26000D03*
X34500Y-26000D03*
X35000Y-26000D03*
X35500Y-26000D03*
X36000Y-26000D03*
X36500Y-26000D03*
X37000Y-26000D03*
X37500Y-26000D03*
X38000Y-26000D03*
X38500Y-26000D03*
X39000Y-26000D03*
X39500Y-26000D03*
X40000Y-26000D03*
X40500Y-26000D03*
X41000Y-26000D03*
X41500Y-26000D03*
X42000Y-26000D03*
G54D16*
X34750Y-26500D03*
X35750Y-26500D03*
X36750Y-26500D03*
X37750Y-26500D03*
X38750Y-26500D03*
X39750Y-26500D03*
X40750Y-26500D03*
X41750Y-26500D03*
X34750Y-27500D03*
X35750Y-27500D03*
X36750Y-27500D03*
X37750Y-27500D03*
X38750Y-27500D03*
X39750Y-27500D03*
X40750Y-27500D03*
X41750Y-27500D03*
G54D15*
X38500Y-28000D03*
X39000Y-28000D03*
X39500Y-28000D03*
X40000Y-28000D03*
X40500Y-28000D03*
X41000Y-28000D03*
X41500Y-28000D03*
X42000Y-28000D03*
X34500Y-28000D03*
X35000Y-28000D03*
X35500Y-28000D03*
X36000Y-28000D03*
X36500Y-28000D03*
X37000Y-28000D03*
X37500Y-28000D03*
X38000Y-28000D03*
X34500Y-44000D03*
X35000Y-44000D03*
X35500Y-44000D03*
X36000Y-44000D03*
X36500Y-44000D03*
X37000Y-44000D03*
X37500Y-44000D03*
X38000Y-44000D03*
X38500Y-44000D03*
X39000Y-44000D03*
X39500Y-44000D03*
X40000Y-44000D03*
X40500Y-44000D03*
X41000Y-44000D03*
X41500Y-44000D03*
X42000Y-44000D03*
G54D16*
X34750Y-43500D03*
X35750Y-43500D03*
X36750Y-43500D03*
X37750Y-43500D03*
X38750Y-43500D03*
X39750Y-43500D03*
X40750Y-43500D03*
X41750Y-43500D03*
X34750Y-42500D03*
X35750Y-42500D03*
X36750Y-42500D03*
X37750Y-42500D03*
X38750Y-42500D03*
X39750Y-42500D03*
X40750Y-42500D03*
X41750Y-42500D03*
G54D15*
X38500Y-42000D03*
X39000Y-42000D03*
X39500Y-42000D03*
X40000Y-42000D03*
X40500Y-42000D03*
X41000Y-42000D03*
X41500Y-42000D03*
X42000Y-42000D03*
X34500Y-42000D03*
X35000Y-42000D03*
X35500Y-42000D03*
X36000Y-42000D03*
X36500Y-42000D03*
X37000Y-42000D03*
X37500Y-42000D03*
X38000Y-42000D03*
X38500Y-37000D03*
X39000Y-37000D03*
X39500Y-37000D03*
X40000Y-37000D03*
X40500Y-37000D03*
X41000Y-37000D03*
X41500Y-37000D03*
X42000Y-37000D03*
X38500Y-38000D03*
X39000Y-38000D03*
X39500Y-38000D03*
X40000Y-38000D03*
X40500Y-38000D03*
X41000Y-38000D03*
X41500Y-38000D03*
X42000Y-38000D03*
X38500Y-39000D03*
X39000Y-39000D03*
X39500Y-39000D03*
X40000Y-39000D03*
X40500Y-39000D03*
X41000Y-39000D03*
X41500Y-39000D03*
X42000Y-39000D03*
X38500Y-40000D03*
X39000Y-40000D03*
X39500Y-40000D03*
X40000Y-40000D03*
X40500Y-40000D03*
X41000Y-40000D03*
X41500Y-40000D03*
X42000Y-40000D03*
X38500Y-41000D03*
X39000Y-41000D03*
X39500Y-41000D03*
X40000Y-41000D03*
X40500Y-41000D03*
X41000Y-41000D03*
X41500Y-41000D03*
X42000Y-41000D03*
X38500Y-33000D03*
X39000Y-33000D03*
X39500Y-33000D03*
X40000Y-33000D03*
X40500Y-33000D03*
X41000Y-33000D03*
X41500Y-33000D03*
X42000Y-33000D03*
X38500Y-32000D03*
X39000Y-32000D03*
X39500Y-32000D03*
X40000Y-32000D03*
X40500Y-32000D03*
X41000Y-32000D03*
X41500Y-32000D03*
X42000Y-32000D03*
X38500Y-31000D03*
X39000Y-31000D03*
X39500Y-31000D03*
X40000Y-31000D03*
X40500Y-31000D03*
X41000Y-31000D03*
X41500Y-31000D03*
X42000Y-31000D03*
X38500Y-30000D03*
X39000Y-30000D03*
X39500Y-30000D03*
X40000Y-30000D03*
X40500Y-30000D03*
X41000Y-30000D03*
X41500Y-30000D03*
X42000Y-30000D03*
X34500Y-41000D03*
X35000Y-41000D03*
X35500Y-41000D03*
X36000Y-41000D03*
X36500Y-41000D03*
X37000Y-41000D03*
X37500Y-41000D03*
X38000Y-41000D03*
X34500Y-40000D03*
X35000Y-40000D03*
X35500Y-40000D03*
X36000Y-40000D03*
X36500Y-40000D03*
X37000Y-40000D03*
X37500Y-40000D03*
X38000Y-40000D03*
X34500Y-39000D03*
X35000Y-39000D03*
X35500Y-39000D03*
X36000Y-39000D03*
X36500Y-39000D03*
X37000Y-39000D03*
X37500Y-39000D03*
X38000Y-39000D03*
X34500Y-38000D03*
X35000Y-38000D03*
X35500Y-38000D03*
X36000Y-38000D03*
X36500Y-38000D03*
X37000Y-38000D03*
X37500Y-38000D03*
X38000Y-38000D03*
X34500Y-37000D03*
X35000Y-37000D03*
X35500Y-37000D03*
X36000Y-37000D03*
X36500Y-37000D03*
X37000Y-37000D03*
X37500Y-37000D03*
X38000Y-37000D03*
X34500Y-33000D03*
X35000Y-33000D03*
X35500Y-33000D03*
X36000Y-33000D03*
X36500Y-33000D03*
X37000Y-33000D03*
X37500Y-33000D03*
X38000Y-33000D03*
X34500Y-32000D03*
X35000Y-32000D03*
X35500Y-32000D03*
X36000Y-32000D03*
X36500Y-32000D03*
X37000Y-32000D03*
X37500Y-32000D03*
X38000Y-32000D03*
X34500Y-31000D03*
X35000Y-31000D03*
X35500Y-31000D03*
X36000Y-31000D03*
X36500Y-31000D03*
X37000Y-31000D03*
X37500Y-31000D03*
X38000Y-31000D03*
X34500Y-30000D03*
X35000Y-30000D03*
X35500Y-30000D03*
X36000Y-30000D03*
X36500Y-30000D03*
X37000Y-30000D03*
X37500Y-30000D03*
X38000Y-30000D03*
X34500Y-29000D03*
X35000Y-29000D03*
X35500Y-29000D03*
X36000Y-29000D03*
X36500Y-29000D03*
X37000Y-29000D03*
X37500Y-29000D03*
X38000Y-29000D03*
G54D16*
X34750Y-37500D03*
X35750Y-37500D03*
X36750Y-37500D03*
X37750Y-37500D03*
X38750Y-37500D03*
X39750Y-37500D03*
X40750Y-37500D03*
X41750Y-37500D03*
X34750Y-39500D03*
X35750Y-39500D03*
X36750Y-39500D03*
X37750Y-39500D03*
X38750Y-39500D03*
X39750Y-39500D03*
X40750Y-39500D03*
X41750Y-39500D03*
X34750Y-40500D03*
X35750Y-40500D03*
X36750Y-40500D03*
X37750Y-40500D03*
X38750Y-40500D03*
X39750Y-40500D03*
X40750Y-40500D03*
X41750Y-40500D03*
X34750Y-36500D03*
X35750Y-36500D03*
X36750Y-36500D03*
X37750Y-36500D03*
X38750Y-36500D03*
X39750Y-36500D03*
X40750Y-36500D03*
X41750Y-36500D03*
X34750Y-32500D03*
X35750Y-32500D03*
X36750Y-32500D03*
X37750Y-32500D03*
X38750Y-32500D03*
X39750Y-32500D03*
X40750Y-32500D03*
X41750Y-32500D03*
X34750Y-30500D03*
X35750Y-30500D03*
X36750Y-30500D03*
X37750Y-30500D03*
X38750Y-30500D03*
X39750Y-30500D03*
X40750Y-30500D03*
X41750Y-30500D03*
X34750Y-29500D03*
X35750Y-29500D03*
X36750Y-29500D03*
X37750Y-29500D03*
X38750Y-29500D03*
X39750Y-29500D03*
X40750Y-29500D03*
X41750Y-29500D03*
X34750Y-33500D03*
X35750Y-33500D03*
X36750Y-33500D03*
X37750Y-33500D03*
X38750Y-33500D03*
X39750Y-33500D03*
X40750Y-33500D03*
X41750Y-33500D03*
G54D15*
X38500Y-29000D03*
X39000Y-29000D03*
X39500Y-29000D03*
X40000Y-29000D03*
X40500Y-29000D03*
X41000Y-29000D03*
X41500Y-29000D03*
X42000Y-29000D03*
X22500Y-29000D03*
X23000Y-29000D03*
X23500Y-29000D03*
X24000Y-29000D03*
X24500Y-29000D03*
X25000Y-29000D03*
X25500Y-29000D03*
X26000Y-29000D03*
G54D16*
X18750Y-33500D03*
X19750Y-33500D03*
X20750Y-33500D03*
X21750Y-33500D03*
X22750Y-33500D03*
X23750Y-33500D03*
X24750Y-33500D03*
X25750Y-33500D03*
X18750Y-29500D03*
X19750Y-29500D03*
X20750Y-29500D03*
X21750Y-29500D03*
X22750Y-29500D03*
X23750Y-29500D03*
X24750Y-29500D03*
X25750Y-29500D03*
X18750Y-31500D03*
X19750Y-31500D03*
X20750Y-31500D03*
X21750Y-31500D03*
X22750Y-31500D03*
X23750Y-31500D03*
X24750Y-31500D03*
X25750Y-31500D03*
X18750Y-32500D03*
X19750Y-32500D03*
X20750Y-32500D03*
X21750Y-32500D03*
X22750Y-32500D03*
X23750Y-32500D03*
X24750Y-32500D03*
X25750Y-32500D03*
X18750Y-36500D03*
X19750Y-36500D03*
X20750Y-36500D03*
X21750Y-36500D03*
X22750Y-36500D03*
X23750Y-36500D03*
X24750Y-36500D03*
X25750Y-36500D03*
X18750Y-40500D03*
X19750Y-40500D03*
X20750Y-40500D03*
X21750Y-40500D03*
X22750Y-40500D03*
X23750Y-40500D03*
X24750Y-40500D03*
X25750Y-40500D03*
X18750Y-39500D03*
X19750Y-39500D03*
X20750Y-39500D03*
X21750Y-39500D03*
X22750Y-39500D03*
X23750Y-39500D03*
X24750Y-39500D03*
X25750Y-39500D03*
X18750Y-38500D03*
X19750Y-38500D03*
X20750Y-38500D03*
X21750Y-38500D03*
X22750Y-38500D03*
X23750Y-38500D03*
X24750Y-38500D03*
X25750Y-38500D03*
X18750Y-37500D03*
X19750Y-37500D03*
X20750Y-37500D03*
X21750Y-37500D03*
X22750Y-37500D03*
X23750Y-37500D03*
X24750Y-37500D03*
X25750Y-37500D03*
G54D15*
X18500Y-29000D03*
X19000Y-29000D03*
X19500Y-29000D03*
X20000Y-29000D03*
X20500Y-29000D03*
X21000Y-29000D03*
X21500Y-29000D03*
X22000Y-29000D03*
X18500Y-30000D03*
X19000Y-30000D03*
X19500Y-30000D03*
X20000Y-30000D03*
X20500Y-30000D03*
X21000Y-30000D03*
X21500Y-30000D03*
X22000Y-30000D03*
X18500Y-31000D03*
X19000Y-31000D03*
X19500Y-31000D03*
X20000Y-31000D03*
X20500Y-31000D03*
X21000Y-31000D03*
X21500Y-31000D03*
X22000Y-31000D03*
X18500Y-32000D03*
X19000Y-32000D03*
X19500Y-32000D03*
X20000Y-32000D03*
X20500Y-32000D03*
X21000Y-32000D03*
X21500Y-32000D03*
X22000Y-32000D03*
X18500Y-33000D03*
X19000Y-33000D03*
X19500Y-33000D03*
X20000Y-33000D03*
X20500Y-33000D03*
X21000Y-33000D03*
X21500Y-33000D03*
X22000Y-33000D03*
X18500Y-37000D03*
X19000Y-37000D03*
X19500Y-37000D03*
X20000Y-37000D03*
X20500Y-37000D03*
X21000Y-37000D03*
X21500Y-37000D03*
X22000Y-37000D03*
X18500Y-38000D03*
X19000Y-38000D03*
X19500Y-38000D03*
X20000Y-38000D03*
X20500Y-38000D03*
X21000Y-38000D03*
X21500Y-38000D03*
X22000Y-38000D03*
X18500Y-39000D03*
X19000Y-39000D03*
X19500Y-39000D03*
X20000Y-39000D03*
X20500Y-39000D03*
X21000Y-39000D03*
X21500Y-39000D03*
X22000Y-39000D03*
X18500Y-40000D03*
X19000Y-40000D03*
X19500Y-40000D03*
X20000Y-40000D03*
X20500Y-40000D03*
X21000Y-40000D03*
X21500Y-40000D03*
X22000Y-40000D03*
X18500Y-41000D03*
X19000Y-41000D03*
X19500Y-41000D03*
X20000Y-41000D03*
X20500Y-41000D03*
X21000Y-41000D03*
X21500Y-41000D03*
X22000Y-41000D03*
X22500Y-30000D03*
X23000Y-30000D03*
X23500Y-30000D03*
X24000Y-30000D03*
X24500Y-30000D03*
X25000Y-30000D03*
X25500Y-30000D03*
X26000Y-30000D03*
X22500Y-31000D03*
X23000Y-31000D03*
X23500Y-31000D03*
X24000Y-31000D03*
X24500Y-31000D03*
X25000Y-31000D03*
X25500Y-31000D03*
X26000Y-31000D03*
X22500Y-32000D03*
X23000Y-32000D03*
X23500Y-32000D03*
X24000Y-32000D03*
X24500Y-32000D03*
X25000Y-32000D03*
X25500Y-32000D03*
X26000Y-32000D03*
X22500Y-33000D03*
X23000Y-33000D03*
X23500Y-33000D03*
X24000Y-33000D03*
X24500Y-33000D03*
X25000Y-33000D03*
X25500Y-33000D03*
X26000Y-33000D03*
X22500Y-41000D03*
X23000Y-41000D03*
X23500Y-41000D03*
X24000Y-41000D03*
X24500Y-41000D03*
X25000Y-41000D03*
X25500Y-41000D03*
X26000Y-41000D03*
X22500Y-40000D03*
X23000Y-40000D03*
X23500Y-40000D03*
X24000Y-40000D03*
X24500Y-40000D03*
X25000Y-40000D03*
X25500Y-40000D03*
X26000Y-40000D03*
X22500Y-39000D03*
X23000Y-39000D03*
X23500Y-39000D03*
X24000Y-39000D03*
X24500Y-39000D03*
X25000Y-39000D03*
X25500Y-39000D03*
X26000Y-39000D03*
X22500Y-38000D03*
X23000Y-38000D03*
X23500Y-38000D03*
X24000Y-38000D03*
X24500Y-38000D03*
X25000Y-38000D03*
X25500Y-38000D03*
X26000Y-38000D03*
X22500Y-37000D03*
X23000Y-37000D03*
X23500Y-37000D03*
X24000Y-37000D03*
X24500Y-37000D03*
X25000Y-37000D03*
X25500Y-37000D03*
X26000Y-37000D03*
X18500Y-42000D03*
X19000Y-42000D03*
X19500Y-42000D03*
X20000Y-42000D03*
X20500Y-42000D03*
X21000Y-42000D03*
X21500Y-42000D03*
X22000Y-42000D03*
X22500Y-42000D03*
X23000Y-42000D03*
X23500Y-42000D03*
X24000Y-42000D03*
X24500Y-42000D03*
X25000Y-42000D03*
X25500Y-42000D03*
X26000Y-42000D03*
G54D16*
X18750Y-42500D03*
X19750Y-42500D03*
X20750Y-42500D03*
X21750Y-42500D03*
X22750Y-42500D03*
X23750Y-42500D03*
X24750Y-42500D03*
X25750Y-42500D03*
X18750Y-43500D03*
X19750Y-43500D03*
X20750Y-43500D03*
X21750Y-43500D03*
X22750Y-43500D03*
X23750Y-43500D03*
X24750Y-43500D03*
X25750Y-43500D03*
G54D15*
X22500Y-44000D03*
X23000Y-44000D03*
X23500Y-44000D03*
X24000Y-44000D03*
X24500Y-44000D03*
X25000Y-44000D03*
X25500Y-44000D03*
X26000Y-44000D03*
X18500Y-44000D03*
X19000Y-44000D03*
X19500Y-44000D03*
X20000Y-44000D03*
X20500Y-44000D03*
X21000Y-44000D03*
X21500Y-44000D03*
X22000Y-44000D03*
X18500Y-28000D03*
X19000Y-28000D03*
X19500Y-28000D03*
X20000Y-28000D03*
X20500Y-28000D03*
X21000Y-28000D03*
X21500Y-28000D03*
X22000Y-28000D03*
X22500Y-28000D03*
X23000Y-28000D03*
X23500Y-28000D03*
X24000Y-28000D03*
X24500Y-28000D03*
X25000Y-28000D03*
X25500Y-28000D03*
X26000Y-28000D03*
G54D16*
X18750Y-27500D03*
X19750Y-27500D03*
X20750Y-27500D03*
X21750Y-27500D03*
X22750Y-27500D03*
X23750Y-27500D03*
X24750Y-27500D03*
X25750Y-27500D03*
X18750Y-26500D03*
X19750Y-26500D03*
X20750Y-26500D03*
X21750Y-26500D03*
X22750Y-26500D03*
X23750Y-26500D03*
X24750Y-26500D03*
X25750Y-26500D03*
G54D15*
X22500Y-26000D03*
X23000Y-26000D03*
X23500Y-26000D03*
X24000Y-26000D03*
X24500Y-26000D03*
X25000Y-26000D03*
X25500Y-26000D03*
X26000Y-26000D03*
X18500Y-26000D03*
X19000Y-26000D03*
X19500Y-26000D03*
X20000Y-26000D03*
X20500Y-26000D03*
X21000Y-26000D03*
X21500Y-26000D03*
X22000Y-26000D03*
X10500Y-26000D03*
X11000Y-26000D03*
X11500Y-26000D03*
X12000Y-26000D03*
X12500Y-26000D03*
X13000Y-26000D03*
X13500Y-26000D03*
X14000Y-26000D03*
X14500Y-26000D03*
X15000Y-26000D03*
X15500Y-26000D03*
X16000Y-26000D03*
X16500Y-26000D03*
X17000Y-26000D03*
X17500Y-26000D03*
X18000Y-26000D03*
G54D16*
X10750Y-26500D03*
X11750Y-26500D03*
X12750Y-26500D03*
X13750Y-26500D03*
X14750Y-26500D03*
X15750Y-26500D03*
X16750Y-26500D03*
X17750Y-26500D03*
X10750Y-27500D03*
X11750Y-27500D03*
X12750Y-27500D03*
X13750Y-27500D03*
X14750Y-27500D03*
X15750Y-27500D03*
X16750Y-27500D03*
X17750Y-27500D03*
G54D15*
X14500Y-28000D03*
X15000Y-28000D03*
X15500Y-28000D03*
X16000Y-28000D03*
X16500Y-28000D03*
X17000Y-28000D03*
X17500Y-28000D03*
X18000Y-28000D03*
X10500Y-28000D03*
X11000Y-28000D03*
X11500Y-28000D03*
X12000Y-28000D03*
X12500Y-28000D03*
X13000Y-28000D03*
X13500Y-28000D03*
X14000Y-28000D03*
X10500Y-44000D03*
X11000Y-44000D03*
X11500Y-44000D03*
X12000Y-44000D03*
X12500Y-44000D03*
X13000Y-44000D03*
X13500Y-44000D03*
X14000Y-44000D03*
X14500Y-44000D03*
X15000Y-44000D03*
X15500Y-44000D03*
X16000Y-44000D03*
X16500Y-44000D03*
X17000Y-44000D03*
X17500Y-44000D03*
X18000Y-44000D03*
G54D16*
X10750Y-43500D03*
X11750Y-43500D03*
X12750Y-43500D03*
X13750Y-43500D03*
X14750Y-43500D03*
X15750Y-43500D03*
X16750Y-43500D03*
X17750Y-43500D03*
X10750Y-42500D03*
X11750Y-42500D03*
X12750Y-42500D03*
X13750Y-42500D03*
X14750Y-42500D03*
X15750Y-42500D03*
X16750Y-42500D03*
X17750Y-42500D03*
G54D15*
X14500Y-42000D03*
X15000Y-42000D03*
X15500Y-42000D03*
X16000Y-42000D03*
X16500Y-42000D03*
X17000Y-42000D03*
X17500Y-42000D03*
X18000Y-42000D03*
X10500Y-42000D03*
X11000Y-42000D03*
X11500Y-42000D03*
X12000Y-42000D03*
X12500Y-42000D03*
X13000Y-42000D03*
X13500Y-42000D03*
X14000Y-42000D03*
X14500Y-37000D03*
X15000Y-37000D03*
X15500Y-37000D03*
X16000Y-37000D03*
X16500Y-37000D03*
X17000Y-37000D03*
X17500Y-37000D03*
X18000Y-37000D03*
X14500Y-38000D03*
X15000Y-38000D03*
X15500Y-38000D03*
X16000Y-38000D03*
X16500Y-38000D03*
X17000Y-38000D03*
X17500Y-38000D03*
X18000Y-38000D03*
X14500Y-39000D03*
X15000Y-39000D03*
X15500Y-39000D03*
X16000Y-39000D03*
X16500Y-39000D03*
X17000Y-39000D03*
X17500Y-39000D03*
X18000Y-39000D03*
X14500Y-40000D03*
X15000Y-40000D03*
X15500Y-40000D03*
X16000Y-40000D03*
X16500Y-40000D03*
X17000Y-40000D03*
X17500Y-40000D03*
X18000Y-40000D03*
X14500Y-41000D03*
X15000Y-41000D03*
X15500Y-41000D03*
X16000Y-41000D03*
X16500Y-41000D03*
X17000Y-41000D03*
X17500Y-41000D03*
X18000Y-41000D03*
X14500Y-33000D03*
X15000Y-33000D03*
X15500Y-33000D03*
X16000Y-33000D03*
X16500Y-33000D03*
X17000Y-33000D03*
X17500Y-33000D03*
X18000Y-33000D03*
X14500Y-32000D03*
X15000Y-32000D03*
X15500Y-32000D03*
X16000Y-32000D03*
X16500Y-32000D03*
X17000Y-32000D03*
X17500Y-32000D03*
X18000Y-32000D03*
X14500Y-31000D03*
X15000Y-31000D03*
X15500Y-31000D03*
X16000Y-31000D03*
X16500Y-31000D03*
X17000Y-31000D03*
X17500Y-31000D03*
X18000Y-31000D03*
X14500Y-30000D03*
X15000Y-30000D03*
X15500Y-30000D03*
X16000Y-30000D03*
X16500Y-30000D03*
X17000Y-30000D03*
X17500Y-30000D03*
X18000Y-30000D03*
X10500Y-41000D03*
X11000Y-41000D03*
X11500Y-41000D03*
X12000Y-41000D03*
X12500Y-41000D03*
X13000Y-41000D03*
X13500Y-41000D03*
X14000Y-41000D03*
X10500Y-40000D03*
X11000Y-40000D03*
X11500Y-40000D03*
X12000Y-40000D03*
X12500Y-40000D03*
X13000Y-40000D03*
X13500Y-40000D03*
X14000Y-40000D03*
X10500Y-39000D03*
X11000Y-39000D03*
X11500Y-39000D03*
X12000Y-39000D03*
X12500Y-39000D03*
X13000Y-39000D03*
X13500Y-39000D03*
X14000Y-39000D03*
X10500Y-38000D03*
X11000Y-38000D03*
X11500Y-38000D03*
X12000Y-38000D03*
X12500Y-38000D03*
X13000Y-38000D03*
X13500Y-38000D03*
X14000Y-38000D03*
X10500Y-37000D03*
X11000Y-37000D03*
X11500Y-37000D03*
X12000Y-37000D03*
X12500Y-37000D03*
X13000Y-37000D03*
X13500Y-37000D03*
X14000Y-37000D03*
X10500Y-33000D03*
X11000Y-33000D03*
X11500Y-33000D03*
X12000Y-33000D03*
X12500Y-33000D03*
X13000Y-33000D03*
X13500Y-33000D03*
X14000Y-33000D03*
X10500Y-32000D03*
X11000Y-32000D03*
X11500Y-32000D03*
X12000Y-32000D03*
X12500Y-32000D03*
X13000Y-32000D03*
X13500Y-32000D03*
X14000Y-32000D03*
X10500Y-31000D03*
X11000Y-31000D03*
X11500Y-31000D03*
X12000Y-31000D03*
X12500Y-31000D03*
X13000Y-31000D03*
X13500Y-31000D03*
X14000Y-31000D03*
X10500Y-30000D03*
X11000Y-30000D03*
X11500Y-30000D03*
X12000Y-30000D03*
X12500Y-30000D03*
X13000Y-30000D03*
X13500Y-30000D03*
X14000Y-30000D03*
X10500Y-29000D03*
X11000Y-29000D03*
X11500Y-29000D03*
X12000Y-29000D03*
X12500Y-29000D03*
X13000Y-29000D03*
X13500Y-29000D03*
X14000Y-29000D03*
G54D16*
X10750Y-37500D03*
X11750Y-37500D03*
X12750Y-37500D03*
X13750Y-37500D03*
X14750Y-37500D03*
X15750Y-37500D03*
X16750Y-37500D03*
X17750Y-37500D03*
X10750Y-38500D03*
X11750Y-38500D03*
X12750Y-38500D03*
X13750Y-38500D03*
X14750Y-38500D03*
X15750Y-38500D03*
X16750Y-38500D03*
X17750Y-38500D03*
X10750Y-39500D03*
X11750Y-39500D03*
X12750Y-39500D03*
X13750Y-39500D03*
X14750Y-39500D03*
X15750Y-39500D03*
X16750Y-39500D03*
X17750Y-39500D03*
X10750Y-36500D03*
X11750Y-36500D03*
X12750Y-36500D03*
X13750Y-36500D03*
X14750Y-36500D03*
X15750Y-36500D03*
X16750Y-36500D03*
X17750Y-36500D03*
X10750Y-32500D03*
X11750Y-32500D03*
X12750Y-32500D03*
X13750Y-32500D03*
X14750Y-32500D03*
X15750Y-32500D03*
X16750Y-32500D03*
X17750Y-32500D03*
X10750Y-31500D03*
X11750Y-31500D03*
X12750Y-31500D03*
X13750Y-31500D03*
X14750Y-31500D03*
X15750Y-31500D03*
X16750Y-31500D03*
X17750Y-31500D03*
X10750Y-30500D03*
X11750Y-30500D03*
X12750Y-30500D03*
X13750Y-30500D03*
X14750Y-30500D03*
X15750Y-30500D03*
X16750Y-30500D03*
X17750Y-30500D03*
X10750Y-29500D03*
X11750Y-29500D03*
X12750Y-29500D03*
X13750Y-29500D03*
X14750Y-29500D03*
X15750Y-29500D03*
X16750Y-29500D03*
X17750Y-29500D03*
X10750Y-33500D03*
X11750Y-33500D03*
X12750Y-33500D03*
X13750Y-33500D03*
X14750Y-33500D03*
X15750Y-33500D03*
X16750Y-33500D03*
X17750Y-33500D03*
G54D15*
X14500Y-29000D03*
X15000Y-29000D03*
X15500Y-29000D03*
X16000Y-29000D03*
X16500Y-29000D03*
X17000Y-29000D03*
X17500Y-29000D03*
X18000Y-29000D03*
M02*
