%FSLAX34Y34*%
G04 Gerber Fmt 3.4, Leading zero omitted, Abs format*
G04 (created by PCBNEW (2014-06-12 BZR 4942)-product) date Sat 14 Jun 2014 05:33:48 AM CEST*
%MOIN*%
G01*
G70*
G90*
G04 APERTURE LIST*
%ADD10C,0.005906*%
%ADD11C,0.007874*%
%ADD12C,0.011811*%
%ADD13C,0.013780*%
%ADD14C,0.015748*%
%ADD15C,0.125984*%
%ADD16O,0.064961X0.078740*%
%ADD17R,0.064961X0.078740*%
%ADD18O,0.047244X0.055118*%
G04 APERTURE END LIST*
G54D10*
G54D11*
X24682Y-41660D02*
X24480Y-41660D01*
X24581Y-41660D02*
X24581Y-41305D01*
X24547Y-41356D01*
X24513Y-41390D01*
X24480Y-41407D01*
X25003Y-41305D02*
X24834Y-41305D01*
X24817Y-41474D01*
X24834Y-41457D01*
X24868Y-41440D01*
X24952Y-41440D01*
X24986Y-41457D01*
X25003Y-41474D01*
X25019Y-41508D01*
X25019Y-41592D01*
X25003Y-41626D01*
X24986Y-41643D01*
X24952Y-41660D01*
X24868Y-41660D01*
X24834Y-41643D01*
X24817Y-41626D01*
X19682Y-41660D02*
X19480Y-41660D01*
X19581Y-41660D02*
X19581Y-41305D01*
X19547Y-41356D01*
X19513Y-41390D01*
X19480Y-41407D01*
X19901Y-41305D02*
X19935Y-41305D01*
X19969Y-41322D01*
X19986Y-41339D01*
X20003Y-41373D01*
X20019Y-41440D01*
X20019Y-41525D01*
X20003Y-41592D01*
X19986Y-41626D01*
X19969Y-41643D01*
X19935Y-41660D01*
X19901Y-41660D01*
X19868Y-41643D01*
X19851Y-41626D01*
X19834Y-41592D01*
X19817Y-41525D01*
X19817Y-41440D01*
X19834Y-41373D01*
X19851Y-41339D01*
X19868Y-41322D01*
X19901Y-41305D01*
X14834Y-41305D02*
X14665Y-41305D01*
X14648Y-41474D01*
X14665Y-41457D01*
X14699Y-41440D01*
X14783Y-41440D01*
X14817Y-41457D01*
X14834Y-41474D01*
X14851Y-41508D01*
X14851Y-41592D01*
X14834Y-41626D01*
X14817Y-41643D01*
X14783Y-41660D01*
X14699Y-41660D01*
X14665Y-41643D01*
X14648Y-41626D01*
X10851Y-41660D02*
X10648Y-41660D01*
X10750Y-41660D02*
X10750Y-41305D01*
X10716Y-41356D01*
X10682Y-41390D01*
X10648Y-41407D01*
X24682Y-28660D02*
X24480Y-28660D01*
X24581Y-28660D02*
X24581Y-28305D01*
X24547Y-28356D01*
X24513Y-28390D01*
X24480Y-28407D01*
X25003Y-28305D02*
X24834Y-28305D01*
X24817Y-28474D01*
X24834Y-28457D01*
X24868Y-28440D01*
X24952Y-28440D01*
X24986Y-28457D01*
X25003Y-28474D01*
X25019Y-28508D01*
X25019Y-28592D01*
X25003Y-28626D01*
X24986Y-28643D01*
X24952Y-28660D01*
X24868Y-28660D01*
X24834Y-28643D01*
X24817Y-28626D01*
X19682Y-28660D02*
X19480Y-28660D01*
X19581Y-28660D02*
X19581Y-28305D01*
X19547Y-28356D01*
X19513Y-28390D01*
X19480Y-28407D01*
X19901Y-28305D02*
X19935Y-28305D01*
X19969Y-28322D01*
X19986Y-28339D01*
X20003Y-28373D01*
X20019Y-28440D01*
X20019Y-28525D01*
X20003Y-28592D01*
X19986Y-28626D01*
X19969Y-28643D01*
X19935Y-28660D01*
X19901Y-28660D01*
X19868Y-28643D01*
X19851Y-28626D01*
X19834Y-28592D01*
X19817Y-28525D01*
X19817Y-28440D01*
X19834Y-28373D01*
X19851Y-28339D01*
X19868Y-28322D01*
X19901Y-28305D01*
X14834Y-28305D02*
X14665Y-28305D01*
X14648Y-28474D01*
X14665Y-28457D01*
X14699Y-28440D01*
X14783Y-28440D01*
X14817Y-28457D01*
X14834Y-28474D01*
X14851Y-28508D01*
X14851Y-28592D01*
X14834Y-28626D01*
X14817Y-28643D01*
X14783Y-28660D01*
X14699Y-28660D01*
X14665Y-28643D01*
X14648Y-28626D01*
X10851Y-28660D02*
X10648Y-28660D01*
X10750Y-28660D02*
X10750Y-28305D01*
X10716Y-28356D01*
X10682Y-28390D01*
X10648Y-28407D01*
G54D12*
X24750Y-35500D02*
X24750Y-36000D01*
X24750Y-34000D02*
X24750Y-34500D01*
X19750Y-35500D02*
X19750Y-36000D01*
X19750Y-34000D02*
X19750Y-34500D01*
X10750Y-34000D02*
X10750Y-34500D01*
X10750Y-35500D02*
X10750Y-36000D01*
X14750Y-35500D02*
X14750Y-36000D01*
X14750Y-34000D02*
X14750Y-34500D01*
G54D13*
X24637Y-35267D02*
X24300Y-35267D01*
X24468Y-35267D02*
X24468Y-34676D01*
X24412Y-34760D01*
X24356Y-34817D01*
X24300Y-34845D01*
X25171Y-34676D02*
X24890Y-34676D01*
X24862Y-34957D01*
X24890Y-34929D01*
X24946Y-34901D01*
X25087Y-34901D01*
X25143Y-34929D01*
X25171Y-34957D01*
X25199Y-35014D01*
X25199Y-35154D01*
X25171Y-35210D01*
X25143Y-35239D01*
X25087Y-35267D01*
X24946Y-35267D01*
X24890Y-35239D01*
X24862Y-35210D01*
X19637Y-35267D02*
X19300Y-35267D01*
X19468Y-35267D02*
X19468Y-34676D01*
X19412Y-34760D01*
X19356Y-34817D01*
X19300Y-34845D01*
X20003Y-34676D02*
X20059Y-34676D01*
X20115Y-34704D01*
X20143Y-34732D01*
X20171Y-34789D01*
X20199Y-34901D01*
X20199Y-35042D01*
X20171Y-35154D01*
X20143Y-35210D01*
X20115Y-35239D01*
X20059Y-35267D01*
X20003Y-35267D01*
X19946Y-35239D01*
X19918Y-35210D01*
X19890Y-35154D01*
X19862Y-35042D01*
X19862Y-34901D01*
X19890Y-34789D01*
X19918Y-34732D01*
X19946Y-34704D01*
X20003Y-34676D01*
X14890Y-34676D02*
X14609Y-34676D01*
X14581Y-34957D01*
X14609Y-34929D01*
X14665Y-34901D01*
X14806Y-34901D01*
X14862Y-34929D01*
X14890Y-34957D01*
X14918Y-35014D01*
X14918Y-35154D01*
X14890Y-35210D01*
X14862Y-35239D01*
X14806Y-35267D01*
X14665Y-35267D01*
X14609Y-35239D01*
X14581Y-35210D01*
X10918Y-35267D02*
X10581Y-35267D01*
X10750Y-35267D02*
X10750Y-34676D01*
X10693Y-34760D01*
X10637Y-34817D01*
X10581Y-34845D01*
X26359Y-29648D02*
X26640Y-29648D01*
X26303Y-29817D02*
X26500Y-29226D01*
X26696Y-29817D01*
X26542Y-30507D02*
X26626Y-30535D01*
X26654Y-30564D01*
X26682Y-30620D01*
X26682Y-30704D01*
X26654Y-30760D01*
X26626Y-30789D01*
X26570Y-30817D01*
X26345Y-30817D01*
X26345Y-30226D01*
X26542Y-30226D01*
X26598Y-30254D01*
X26626Y-30282D01*
X26654Y-30339D01*
X26654Y-30395D01*
X26626Y-30451D01*
X26598Y-30479D01*
X26542Y-30507D01*
X26345Y-30507D01*
X26682Y-31760D02*
X26654Y-31789D01*
X26570Y-31817D01*
X26514Y-31817D01*
X26429Y-31789D01*
X26373Y-31732D01*
X26345Y-31676D01*
X26317Y-31564D01*
X26317Y-31479D01*
X26345Y-31367D01*
X26373Y-31310D01*
X26429Y-31254D01*
X26514Y-31226D01*
X26570Y-31226D01*
X26654Y-31254D01*
X26682Y-31282D01*
X26345Y-32817D02*
X26345Y-32226D01*
X26485Y-32226D01*
X26570Y-32254D01*
X26626Y-32310D01*
X26654Y-32367D01*
X26682Y-32479D01*
X26682Y-32564D01*
X26654Y-32676D01*
X26626Y-32732D01*
X26570Y-32789D01*
X26485Y-32817D01*
X26345Y-32817D01*
X26373Y-33507D02*
X26570Y-33507D01*
X26654Y-33817D02*
X26373Y-33817D01*
X26373Y-33226D01*
X26654Y-33226D01*
X26584Y-36507D02*
X26387Y-36507D01*
X26387Y-36817D02*
X26387Y-36226D01*
X26668Y-36226D01*
X26654Y-37254D02*
X26598Y-37226D01*
X26514Y-37226D01*
X26429Y-37254D01*
X26373Y-37310D01*
X26345Y-37367D01*
X26317Y-37479D01*
X26317Y-37564D01*
X26345Y-37676D01*
X26373Y-37732D01*
X26429Y-37789D01*
X26514Y-37817D01*
X26570Y-37817D01*
X26654Y-37789D01*
X26682Y-37760D01*
X26682Y-37564D01*
X26570Y-37564D01*
X26331Y-38817D02*
X26331Y-38226D01*
X26331Y-38507D02*
X26668Y-38507D01*
X26668Y-38817D02*
X26668Y-38226D01*
X26500Y-39817D02*
X26500Y-39226D01*
X26584Y-40226D02*
X26584Y-40648D01*
X26556Y-40732D01*
X26500Y-40789D01*
X26415Y-40817D01*
X26359Y-40817D01*
X9984Y-40176D02*
X9984Y-40598D01*
X9956Y-40682D01*
X9900Y-40739D01*
X9815Y-40767D01*
X9759Y-40767D01*
X9900Y-39767D02*
X9900Y-39176D01*
X9731Y-38767D02*
X9731Y-38176D01*
X9731Y-38457D02*
X10068Y-38457D01*
X10068Y-38767D02*
X10068Y-38176D01*
X10054Y-37204D02*
X9998Y-37176D01*
X9914Y-37176D01*
X9829Y-37204D01*
X9773Y-37260D01*
X9745Y-37317D01*
X9717Y-37429D01*
X9717Y-37514D01*
X9745Y-37626D01*
X9773Y-37682D01*
X9829Y-37739D01*
X9914Y-37767D01*
X9970Y-37767D01*
X10054Y-37739D01*
X10082Y-37710D01*
X10082Y-37514D01*
X9970Y-37514D01*
X9984Y-36457D02*
X9787Y-36457D01*
X9787Y-36767D02*
X9787Y-36176D01*
X10068Y-36176D01*
X9773Y-33457D02*
X9970Y-33457D01*
X10054Y-33767D02*
X9773Y-33767D01*
X9773Y-33176D01*
X10054Y-33176D01*
X9745Y-32767D02*
X9745Y-32176D01*
X9885Y-32176D01*
X9970Y-32204D01*
X10026Y-32260D01*
X10054Y-32317D01*
X10082Y-32429D01*
X10082Y-32514D01*
X10054Y-32626D01*
X10026Y-32682D01*
X9970Y-32739D01*
X9885Y-32767D01*
X9745Y-32767D01*
X10082Y-31710D02*
X10054Y-31739D01*
X9970Y-31767D01*
X9914Y-31767D01*
X9829Y-31739D01*
X9773Y-31682D01*
X9745Y-31626D01*
X9717Y-31514D01*
X9717Y-31429D01*
X9745Y-31317D01*
X9773Y-31260D01*
X9829Y-31204D01*
X9914Y-31176D01*
X9970Y-31176D01*
X10054Y-31204D01*
X10082Y-31232D01*
X9942Y-30457D02*
X10026Y-30485D01*
X10054Y-30514D01*
X10082Y-30570D01*
X10082Y-30654D01*
X10054Y-30710D01*
X10026Y-30739D01*
X9970Y-30767D01*
X9745Y-30767D01*
X9745Y-30176D01*
X9942Y-30176D01*
X9998Y-30204D01*
X10026Y-30232D01*
X10054Y-30289D01*
X10054Y-30345D01*
X10026Y-30401D01*
X9998Y-30429D01*
X9942Y-30457D01*
X9745Y-30457D01*
X9759Y-29598D02*
X10040Y-29598D01*
X9703Y-29767D02*
X9900Y-29176D01*
X10096Y-29767D01*
X26724Y-42492D02*
X26275Y-42492D01*
X26500Y-42717D02*
X26500Y-42267D01*
X26724Y-43492D02*
X26275Y-43492D01*
X10124Y-43492D02*
X9675Y-43492D01*
X10124Y-42492D02*
X9675Y-42492D01*
X9900Y-42717D02*
X9900Y-42267D01*
X26724Y-26492D02*
X26275Y-26492D01*
X26500Y-26717D02*
X26500Y-26267D01*
X26724Y-27492D02*
X26275Y-27492D01*
X10124Y-27492D02*
X9675Y-27492D01*
X10124Y-26492D02*
X9675Y-26492D01*
X9900Y-26717D02*
X9900Y-26267D01*
G54D14*
X10500Y-43000D02*
X26100Y-43000D01*
X10500Y-27000D02*
X26100Y-27000D01*
%LPC*%
G54D15*
X9785Y-35000D03*
X26714Y-35000D03*
G54D16*
X10750Y-40500D03*
X11750Y-40500D03*
X12750Y-40500D03*
X13750Y-40500D03*
G54D17*
X14750Y-40500D03*
G54D16*
X15750Y-40500D03*
X16750Y-40500D03*
X17750Y-40500D03*
X18750Y-30500D03*
G54D17*
X19750Y-30500D03*
G54D16*
X20750Y-30500D03*
X21750Y-30500D03*
X22750Y-30500D03*
X23750Y-30500D03*
G54D17*
X24750Y-30500D03*
G54D16*
X25750Y-30500D03*
G54D18*
X22539Y-29000D03*
X22960Y-29000D03*
X23539Y-29000D03*
X23960Y-29000D03*
X24539Y-29000D03*
X24960Y-29000D03*
X25539Y-29000D03*
X25960Y-29000D03*
G54D16*
X18750Y-33500D03*
G54D17*
X19750Y-33500D03*
G54D16*
X20750Y-33500D03*
X21750Y-33500D03*
X22750Y-33500D03*
X23750Y-33500D03*
G54D17*
X24750Y-33500D03*
G54D16*
X25750Y-33500D03*
X18750Y-29500D03*
G54D17*
X19750Y-29500D03*
G54D16*
X20750Y-29500D03*
X21750Y-29500D03*
X22750Y-29500D03*
X23750Y-29500D03*
G54D17*
X24750Y-29500D03*
G54D16*
X25750Y-29500D03*
X18750Y-31500D03*
G54D17*
X19750Y-31500D03*
G54D16*
X20750Y-31500D03*
X21750Y-31500D03*
X22750Y-31500D03*
X23750Y-31500D03*
G54D17*
X24750Y-31500D03*
G54D16*
X25750Y-31500D03*
X18750Y-32500D03*
G54D17*
X19750Y-32500D03*
G54D16*
X20750Y-32500D03*
X21750Y-32500D03*
X22750Y-32500D03*
X23750Y-32500D03*
G54D17*
X24750Y-32500D03*
G54D16*
X25750Y-32500D03*
X18750Y-36500D03*
G54D17*
X19750Y-36500D03*
G54D16*
X20750Y-36500D03*
X21750Y-36500D03*
X22750Y-36500D03*
X23750Y-36500D03*
G54D17*
X24750Y-36500D03*
G54D16*
X25750Y-36500D03*
X18750Y-40500D03*
G54D17*
X19750Y-40500D03*
G54D16*
X20750Y-40500D03*
X21750Y-40500D03*
X22750Y-40500D03*
X23750Y-40500D03*
G54D17*
X24750Y-40500D03*
G54D16*
X25750Y-40500D03*
X18750Y-39500D03*
G54D17*
X19750Y-39500D03*
G54D16*
X20750Y-39500D03*
X21750Y-39500D03*
X22750Y-39500D03*
X23750Y-39500D03*
G54D17*
X24750Y-39500D03*
G54D16*
X25750Y-39500D03*
X18750Y-38500D03*
G54D17*
X19750Y-38500D03*
G54D16*
X20750Y-38500D03*
X21750Y-38500D03*
X22750Y-38500D03*
X23750Y-38500D03*
G54D17*
X24750Y-38500D03*
G54D16*
X25750Y-38500D03*
X18750Y-37500D03*
G54D17*
X19750Y-37500D03*
G54D16*
X20750Y-37500D03*
X21750Y-37500D03*
X22750Y-37500D03*
X23750Y-37500D03*
G54D17*
X24750Y-37500D03*
G54D16*
X25750Y-37500D03*
G54D18*
X18539Y-29000D03*
X18960Y-29000D03*
X19539Y-29000D03*
X19960Y-29000D03*
X20539Y-29000D03*
X20960Y-29000D03*
X21539Y-29000D03*
X21960Y-29000D03*
X18539Y-30000D03*
X18960Y-30000D03*
X19539Y-30000D03*
X19960Y-30000D03*
X20539Y-30000D03*
X20960Y-30000D03*
X21539Y-30000D03*
X21960Y-30000D03*
X18539Y-31000D03*
X18960Y-31000D03*
X19539Y-31000D03*
X19960Y-31000D03*
X20539Y-31000D03*
X20960Y-31000D03*
X21539Y-31000D03*
X21960Y-31000D03*
X18539Y-32000D03*
X18960Y-32000D03*
X19539Y-32000D03*
X19960Y-32000D03*
X20539Y-32000D03*
X20960Y-32000D03*
X21539Y-32000D03*
X21960Y-32000D03*
X18539Y-33000D03*
X18960Y-33000D03*
X19539Y-33000D03*
X19960Y-33000D03*
X20539Y-33000D03*
X20960Y-33000D03*
X21539Y-33000D03*
X21960Y-33000D03*
X18539Y-37000D03*
X18960Y-37000D03*
X19539Y-37000D03*
X19960Y-37000D03*
X20539Y-37000D03*
X20960Y-37000D03*
X21539Y-37000D03*
X21960Y-37000D03*
X18539Y-38000D03*
X18960Y-38000D03*
X19539Y-38000D03*
X19960Y-38000D03*
X20539Y-38000D03*
X20960Y-38000D03*
X21539Y-38000D03*
X21960Y-38000D03*
X18539Y-39000D03*
X18960Y-39000D03*
X19539Y-39000D03*
X19960Y-39000D03*
X20539Y-39000D03*
X20960Y-39000D03*
X21539Y-39000D03*
X21960Y-39000D03*
X18539Y-40000D03*
X18960Y-40000D03*
X19539Y-40000D03*
X19960Y-40000D03*
X20539Y-40000D03*
X20960Y-40000D03*
X21539Y-40000D03*
X21960Y-40000D03*
X18539Y-41000D03*
X18960Y-41000D03*
X19539Y-41000D03*
X19960Y-41000D03*
X20539Y-41000D03*
X20960Y-41000D03*
X21539Y-41000D03*
X21960Y-41000D03*
X22539Y-30000D03*
X22960Y-30000D03*
X23539Y-30000D03*
X23960Y-30000D03*
X24539Y-30000D03*
X24960Y-30000D03*
X25539Y-30000D03*
X25960Y-30000D03*
X22539Y-31000D03*
X22960Y-31000D03*
X23539Y-31000D03*
X23960Y-31000D03*
X24539Y-31000D03*
X24960Y-31000D03*
X25539Y-31000D03*
X25960Y-31000D03*
X22539Y-32000D03*
X22960Y-32000D03*
X23539Y-32000D03*
X23960Y-32000D03*
X24539Y-32000D03*
X24960Y-32000D03*
X25539Y-32000D03*
X25960Y-32000D03*
X22539Y-33000D03*
X22960Y-33000D03*
X23539Y-33000D03*
X23960Y-33000D03*
X24539Y-33000D03*
X24960Y-33000D03*
X25539Y-33000D03*
X25960Y-33000D03*
X22539Y-41000D03*
X22960Y-41000D03*
X23539Y-41000D03*
X23960Y-41000D03*
X24539Y-41000D03*
X24960Y-41000D03*
X25539Y-41000D03*
X25960Y-41000D03*
X22539Y-40000D03*
X22960Y-40000D03*
X23539Y-40000D03*
X23960Y-40000D03*
X24539Y-40000D03*
X24960Y-40000D03*
X25539Y-40000D03*
X25960Y-40000D03*
X22539Y-39000D03*
X22960Y-39000D03*
X23539Y-39000D03*
X23960Y-39000D03*
X24539Y-39000D03*
X24960Y-39000D03*
X25539Y-39000D03*
X25960Y-39000D03*
X22539Y-38000D03*
X22960Y-38000D03*
X23539Y-38000D03*
X23960Y-38000D03*
X24539Y-38000D03*
X24960Y-38000D03*
X25539Y-38000D03*
X25960Y-38000D03*
X22539Y-37000D03*
X22960Y-37000D03*
X23539Y-37000D03*
X23960Y-37000D03*
X24539Y-37000D03*
X24960Y-37000D03*
X25539Y-37000D03*
X25960Y-37000D03*
X18539Y-42000D03*
X18960Y-42000D03*
X19539Y-42000D03*
X19960Y-42000D03*
X20539Y-42000D03*
X20960Y-42000D03*
X21539Y-42000D03*
X21960Y-42000D03*
X22539Y-42000D03*
X22960Y-42000D03*
X23539Y-42000D03*
X23960Y-42000D03*
X24539Y-42000D03*
X24960Y-42000D03*
X25539Y-42000D03*
X25960Y-42000D03*
G54D16*
X18750Y-42500D03*
G54D17*
X19750Y-42500D03*
G54D16*
X20750Y-42500D03*
X21750Y-42500D03*
X22750Y-42500D03*
X23750Y-42500D03*
G54D17*
X24750Y-42500D03*
G54D16*
X25750Y-42500D03*
X18750Y-43500D03*
G54D17*
X19750Y-43500D03*
G54D16*
X20750Y-43500D03*
X21750Y-43500D03*
X22750Y-43500D03*
X23750Y-43500D03*
G54D17*
X24750Y-43500D03*
G54D16*
X25750Y-43500D03*
G54D18*
X22539Y-44000D03*
X22960Y-44000D03*
X23539Y-44000D03*
X23960Y-44000D03*
X24539Y-44000D03*
X24960Y-44000D03*
X25539Y-44000D03*
X25960Y-44000D03*
X18539Y-44000D03*
X18960Y-44000D03*
X19539Y-44000D03*
X19960Y-44000D03*
X20539Y-44000D03*
X20960Y-44000D03*
X21539Y-44000D03*
X21960Y-44000D03*
X18539Y-28000D03*
X18960Y-28000D03*
X19539Y-28000D03*
X19960Y-28000D03*
X20539Y-28000D03*
X20960Y-28000D03*
X21539Y-28000D03*
X21960Y-28000D03*
X22539Y-28000D03*
X22960Y-28000D03*
X23539Y-28000D03*
X23960Y-28000D03*
X24539Y-28000D03*
X24960Y-28000D03*
X25539Y-28000D03*
X25960Y-28000D03*
G54D16*
X18750Y-27500D03*
G54D17*
X19750Y-27500D03*
G54D16*
X20750Y-27500D03*
X21750Y-27500D03*
X22750Y-27500D03*
X23750Y-27500D03*
G54D17*
X24750Y-27500D03*
G54D16*
X25750Y-27500D03*
X18750Y-26500D03*
G54D17*
X19750Y-26500D03*
G54D16*
X20750Y-26500D03*
X21750Y-26500D03*
X22750Y-26500D03*
X23750Y-26500D03*
G54D17*
X24750Y-26500D03*
G54D16*
X25750Y-26500D03*
G54D18*
X22539Y-26000D03*
X22960Y-26000D03*
X23539Y-26000D03*
X23960Y-26000D03*
X24539Y-26000D03*
X24960Y-26000D03*
X25539Y-26000D03*
X25960Y-26000D03*
X18539Y-26000D03*
X18960Y-26000D03*
X19539Y-26000D03*
X19960Y-26000D03*
X20539Y-26000D03*
X20960Y-26000D03*
X21539Y-26000D03*
X21960Y-26000D03*
X10539Y-26000D03*
X10960Y-26000D03*
X11539Y-26000D03*
X11960Y-26000D03*
X12539Y-26000D03*
X12960Y-26000D03*
X13539Y-26000D03*
X13960Y-26000D03*
X14539Y-26000D03*
X14960Y-26000D03*
X15539Y-26000D03*
X15960Y-26000D03*
X16539Y-26000D03*
X16960Y-26000D03*
X17539Y-26000D03*
X17960Y-26000D03*
G54D16*
X10750Y-26500D03*
X11750Y-26500D03*
X12750Y-26500D03*
X13750Y-26500D03*
G54D17*
X14750Y-26500D03*
G54D16*
X15750Y-26500D03*
X16750Y-26500D03*
X17750Y-26500D03*
X10750Y-27500D03*
X11750Y-27500D03*
X12750Y-27500D03*
X13750Y-27500D03*
G54D17*
X14750Y-27500D03*
G54D16*
X15750Y-27500D03*
X16750Y-27500D03*
X17750Y-27500D03*
G54D18*
X14539Y-28000D03*
X14960Y-28000D03*
X15539Y-28000D03*
X15960Y-28000D03*
X16539Y-28000D03*
X16960Y-28000D03*
X17539Y-28000D03*
X17960Y-28000D03*
X10539Y-28000D03*
X10960Y-28000D03*
X11539Y-28000D03*
X11960Y-28000D03*
X12539Y-28000D03*
X12960Y-28000D03*
X13539Y-28000D03*
X13960Y-28000D03*
X10539Y-44000D03*
X10960Y-44000D03*
X11539Y-44000D03*
X11960Y-44000D03*
X12539Y-44000D03*
X12960Y-44000D03*
X13539Y-44000D03*
X13960Y-44000D03*
X14539Y-44000D03*
X14960Y-44000D03*
X15539Y-44000D03*
X15960Y-44000D03*
X16539Y-44000D03*
X16960Y-44000D03*
X17539Y-44000D03*
X17960Y-44000D03*
G54D16*
X10750Y-43500D03*
X11750Y-43500D03*
X12750Y-43500D03*
X13750Y-43500D03*
G54D17*
X14750Y-43500D03*
G54D16*
X15750Y-43500D03*
X16750Y-43500D03*
X17750Y-43500D03*
X10750Y-42500D03*
X11750Y-42500D03*
X12750Y-42500D03*
X13750Y-42500D03*
G54D17*
X14750Y-42500D03*
G54D16*
X15750Y-42500D03*
X16750Y-42500D03*
X17750Y-42500D03*
G54D18*
X14539Y-42000D03*
X14960Y-42000D03*
X15539Y-42000D03*
X15960Y-42000D03*
X16539Y-42000D03*
X16960Y-42000D03*
X17539Y-42000D03*
X17960Y-42000D03*
X10539Y-42000D03*
X10960Y-42000D03*
X11539Y-42000D03*
X11960Y-42000D03*
X12539Y-42000D03*
X12960Y-42000D03*
X13539Y-42000D03*
X13960Y-42000D03*
X14539Y-37000D03*
X14960Y-37000D03*
X15539Y-37000D03*
X15960Y-37000D03*
X16539Y-37000D03*
X16960Y-37000D03*
X17539Y-37000D03*
X17960Y-37000D03*
X14539Y-38000D03*
X14960Y-38000D03*
X15539Y-38000D03*
X15960Y-38000D03*
X16539Y-38000D03*
X16960Y-38000D03*
X17539Y-38000D03*
X17960Y-38000D03*
X14539Y-39000D03*
X14960Y-39000D03*
X15539Y-39000D03*
X15960Y-39000D03*
X16539Y-39000D03*
X16960Y-39000D03*
X17539Y-39000D03*
X17960Y-39000D03*
X14539Y-40000D03*
X14960Y-40000D03*
X15539Y-40000D03*
X15960Y-40000D03*
X16539Y-40000D03*
X16960Y-40000D03*
X17539Y-40000D03*
X17960Y-40000D03*
X14539Y-41000D03*
X14960Y-41000D03*
X15539Y-41000D03*
X15960Y-41000D03*
X16539Y-41000D03*
X16960Y-41000D03*
X17539Y-41000D03*
X17960Y-41000D03*
X14539Y-33000D03*
X14960Y-33000D03*
X15539Y-33000D03*
X15960Y-33000D03*
X16539Y-33000D03*
X16960Y-33000D03*
X17539Y-33000D03*
X17960Y-33000D03*
X14539Y-32000D03*
X14960Y-32000D03*
X15539Y-32000D03*
X15960Y-32000D03*
X16539Y-32000D03*
X16960Y-32000D03*
X17539Y-32000D03*
X17960Y-32000D03*
X14539Y-31000D03*
X14960Y-31000D03*
X15539Y-31000D03*
X15960Y-31000D03*
X16539Y-31000D03*
X16960Y-31000D03*
X17539Y-31000D03*
X17960Y-31000D03*
X14539Y-30000D03*
X14960Y-30000D03*
X15539Y-30000D03*
X15960Y-30000D03*
X16539Y-30000D03*
X16960Y-30000D03*
X17539Y-30000D03*
X17960Y-30000D03*
X10539Y-41000D03*
X10960Y-41000D03*
X11539Y-41000D03*
X11960Y-41000D03*
X12539Y-41000D03*
X12960Y-41000D03*
X13539Y-41000D03*
X13960Y-41000D03*
X10539Y-40000D03*
X10960Y-40000D03*
X11539Y-40000D03*
X11960Y-40000D03*
X12539Y-40000D03*
X12960Y-40000D03*
X13539Y-40000D03*
X13960Y-40000D03*
X10539Y-39000D03*
X10960Y-39000D03*
X11539Y-39000D03*
X11960Y-39000D03*
X12539Y-39000D03*
X12960Y-39000D03*
X13539Y-39000D03*
X13960Y-39000D03*
X10539Y-38000D03*
X10960Y-38000D03*
X11539Y-38000D03*
X11960Y-38000D03*
X12539Y-38000D03*
X12960Y-38000D03*
X13539Y-38000D03*
X13960Y-38000D03*
X10539Y-37000D03*
X10960Y-37000D03*
X11539Y-37000D03*
X11960Y-37000D03*
X12539Y-37000D03*
X12960Y-37000D03*
X13539Y-37000D03*
X13960Y-37000D03*
X10539Y-33000D03*
X10960Y-33000D03*
X11539Y-33000D03*
X11960Y-33000D03*
X12539Y-33000D03*
X12960Y-33000D03*
X13539Y-33000D03*
X13960Y-33000D03*
X10539Y-32000D03*
X10960Y-32000D03*
X11539Y-32000D03*
X11960Y-32000D03*
X12539Y-32000D03*
X12960Y-32000D03*
X13539Y-32000D03*
X13960Y-32000D03*
X10539Y-31000D03*
X10960Y-31000D03*
X11539Y-31000D03*
X11960Y-31000D03*
X12539Y-31000D03*
X12960Y-31000D03*
X13539Y-31000D03*
X13960Y-31000D03*
X10539Y-30000D03*
X10960Y-30000D03*
X11539Y-30000D03*
X11960Y-30000D03*
X12539Y-30000D03*
X12960Y-30000D03*
X13539Y-30000D03*
X13960Y-30000D03*
X10539Y-29000D03*
X10960Y-29000D03*
X11539Y-29000D03*
X11960Y-29000D03*
X12539Y-29000D03*
X12960Y-29000D03*
X13539Y-29000D03*
X13960Y-29000D03*
G54D16*
X10750Y-37500D03*
X11750Y-37500D03*
X12750Y-37500D03*
X13750Y-37500D03*
G54D17*
X14750Y-37500D03*
G54D16*
X15750Y-37500D03*
X16750Y-37500D03*
X17750Y-37500D03*
X10750Y-38500D03*
X11750Y-38500D03*
X12750Y-38500D03*
X13750Y-38500D03*
G54D17*
X14750Y-38500D03*
G54D16*
X15750Y-38500D03*
X16750Y-38500D03*
X17750Y-38500D03*
X10750Y-39500D03*
X11750Y-39500D03*
X12750Y-39500D03*
X13750Y-39500D03*
G54D17*
X14750Y-39500D03*
G54D16*
X15750Y-39500D03*
X16750Y-39500D03*
X17750Y-39500D03*
X10750Y-36500D03*
X11750Y-36500D03*
X12750Y-36500D03*
X13750Y-36500D03*
G54D17*
X14750Y-36500D03*
G54D16*
X15750Y-36500D03*
X16750Y-36500D03*
X17750Y-36500D03*
X10750Y-32500D03*
X11750Y-32500D03*
X12750Y-32500D03*
X13750Y-32500D03*
G54D17*
X14750Y-32500D03*
G54D16*
X15750Y-32500D03*
X16750Y-32500D03*
X17750Y-32500D03*
X10750Y-31500D03*
X11750Y-31500D03*
X12750Y-31500D03*
X13750Y-31500D03*
G54D17*
X14750Y-31500D03*
G54D16*
X15750Y-31500D03*
X16750Y-31500D03*
X17750Y-31500D03*
X10750Y-30500D03*
X11750Y-30500D03*
X12750Y-30500D03*
X13750Y-30500D03*
G54D17*
X14750Y-30500D03*
G54D16*
X15750Y-30500D03*
X16750Y-30500D03*
X17750Y-30500D03*
X10750Y-29500D03*
X11750Y-29500D03*
X12750Y-29500D03*
X13750Y-29500D03*
G54D17*
X14750Y-29500D03*
G54D16*
X15750Y-29500D03*
X16750Y-29500D03*
X17750Y-29500D03*
X10750Y-33500D03*
X11750Y-33500D03*
X12750Y-33500D03*
X13750Y-33500D03*
G54D17*
X14750Y-33500D03*
G54D16*
X15750Y-33500D03*
X16750Y-33500D03*
X17750Y-33500D03*
G54D18*
X14539Y-29000D03*
X14960Y-29000D03*
X15539Y-29000D03*
X15960Y-29000D03*
X16539Y-29000D03*
X16960Y-29000D03*
X17539Y-29000D03*
X17960Y-29000D03*
M02*
