%FSLAX34Y34*%
G04 Gerber Fmt 3.4, Leading zero omitted, Abs format*
G04 (created by PCBNEW (2014-06-12 BZR 4942)-product) date Sat 14 Jun 2014 05:33:48 AM CEST*
%MOIN*%
G01*
G70*
G90*
G04 APERTURE LIST*
%ADD10C,0.005906*%
%ADD11C,0.125984*%
%ADD12O,0.064961X0.078740*%
%ADD13R,0.064961X0.078740*%
%ADD14O,0.047244X0.055118*%
G04 APERTURE END LIST*
G54D10*
G54D11*
X9785Y-35000D03*
X26714Y-35000D03*
G54D12*
X10750Y-40500D03*
X11750Y-40500D03*
X12750Y-40500D03*
X13750Y-40500D03*
G54D13*
X14750Y-40500D03*
G54D12*
X15750Y-40500D03*
X16750Y-40500D03*
X17750Y-40500D03*
X18750Y-30500D03*
G54D13*
X19750Y-30500D03*
G54D12*
X20750Y-30500D03*
X21750Y-30500D03*
X22750Y-30500D03*
X23750Y-30500D03*
G54D13*
X24750Y-30500D03*
G54D12*
X25750Y-30500D03*
G54D14*
X22539Y-29000D03*
X22960Y-29000D03*
X23539Y-29000D03*
X23960Y-29000D03*
X24539Y-29000D03*
X24960Y-29000D03*
X25539Y-29000D03*
X25960Y-29000D03*
G54D12*
X18750Y-33500D03*
G54D13*
X19750Y-33500D03*
G54D12*
X20750Y-33500D03*
X21750Y-33500D03*
X22750Y-33500D03*
X23750Y-33500D03*
G54D13*
X24750Y-33500D03*
G54D12*
X25750Y-33500D03*
X18750Y-29500D03*
G54D13*
X19750Y-29500D03*
G54D12*
X20750Y-29500D03*
X21750Y-29500D03*
X22750Y-29500D03*
X23750Y-29500D03*
G54D13*
X24750Y-29500D03*
G54D12*
X25750Y-29500D03*
X18750Y-31500D03*
G54D13*
X19750Y-31500D03*
G54D12*
X20750Y-31500D03*
X21750Y-31500D03*
X22750Y-31500D03*
X23750Y-31500D03*
G54D13*
X24750Y-31500D03*
G54D12*
X25750Y-31500D03*
X18750Y-32500D03*
G54D13*
X19750Y-32500D03*
G54D12*
X20750Y-32500D03*
X21750Y-32500D03*
X22750Y-32500D03*
X23750Y-32500D03*
G54D13*
X24750Y-32500D03*
G54D12*
X25750Y-32500D03*
X18750Y-36500D03*
G54D13*
X19750Y-36500D03*
G54D12*
X20750Y-36500D03*
X21750Y-36500D03*
X22750Y-36500D03*
X23750Y-36500D03*
G54D13*
X24750Y-36500D03*
G54D12*
X25750Y-36500D03*
X18750Y-40500D03*
G54D13*
X19750Y-40500D03*
G54D12*
X20750Y-40500D03*
X21750Y-40500D03*
X22750Y-40500D03*
X23750Y-40500D03*
G54D13*
X24750Y-40500D03*
G54D12*
X25750Y-40500D03*
X18750Y-39500D03*
G54D13*
X19750Y-39500D03*
G54D12*
X20750Y-39500D03*
X21750Y-39500D03*
X22750Y-39500D03*
X23750Y-39500D03*
G54D13*
X24750Y-39500D03*
G54D12*
X25750Y-39500D03*
X18750Y-38500D03*
G54D13*
X19750Y-38500D03*
G54D12*
X20750Y-38500D03*
X21750Y-38500D03*
X22750Y-38500D03*
X23750Y-38500D03*
G54D13*
X24750Y-38500D03*
G54D12*
X25750Y-38500D03*
X18750Y-37500D03*
G54D13*
X19750Y-37500D03*
G54D12*
X20750Y-37500D03*
X21750Y-37500D03*
X22750Y-37500D03*
X23750Y-37500D03*
G54D13*
X24750Y-37500D03*
G54D12*
X25750Y-37500D03*
G54D14*
X18539Y-29000D03*
X18960Y-29000D03*
X19539Y-29000D03*
X19960Y-29000D03*
X20539Y-29000D03*
X20960Y-29000D03*
X21539Y-29000D03*
X21960Y-29000D03*
X18539Y-30000D03*
X18960Y-30000D03*
X19539Y-30000D03*
X19960Y-30000D03*
X20539Y-30000D03*
X20960Y-30000D03*
X21539Y-30000D03*
X21960Y-30000D03*
X18539Y-31000D03*
X18960Y-31000D03*
X19539Y-31000D03*
X19960Y-31000D03*
X20539Y-31000D03*
X20960Y-31000D03*
X21539Y-31000D03*
X21960Y-31000D03*
X18539Y-32000D03*
X18960Y-32000D03*
X19539Y-32000D03*
X19960Y-32000D03*
X20539Y-32000D03*
X20960Y-32000D03*
X21539Y-32000D03*
X21960Y-32000D03*
X18539Y-33000D03*
X18960Y-33000D03*
X19539Y-33000D03*
X19960Y-33000D03*
X20539Y-33000D03*
X20960Y-33000D03*
X21539Y-33000D03*
X21960Y-33000D03*
X18539Y-37000D03*
X18960Y-37000D03*
X19539Y-37000D03*
X19960Y-37000D03*
X20539Y-37000D03*
X20960Y-37000D03*
X21539Y-37000D03*
X21960Y-37000D03*
X18539Y-38000D03*
X18960Y-38000D03*
X19539Y-38000D03*
X19960Y-38000D03*
X20539Y-38000D03*
X20960Y-38000D03*
X21539Y-38000D03*
X21960Y-38000D03*
X18539Y-39000D03*
X18960Y-39000D03*
X19539Y-39000D03*
X19960Y-39000D03*
X20539Y-39000D03*
X20960Y-39000D03*
X21539Y-39000D03*
X21960Y-39000D03*
X18539Y-40000D03*
X18960Y-40000D03*
X19539Y-40000D03*
X19960Y-40000D03*
X20539Y-40000D03*
X20960Y-40000D03*
X21539Y-40000D03*
X21960Y-40000D03*
X18539Y-41000D03*
X18960Y-41000D03*
X19539Y-41000D03*
X19960Y-41000D03*
X20539Y-41000D03*
X20960Y-41000D03*
X21539Y-41000D03*
X21960Y-41000D03*
X22539Y-30000D03*
X22960Y-30000D03*
X23539Y-30000D03*
X23960Y-30000D03*
X24539Y-30000D03*
X24960Y-30000D03*
X25539Y-30000D03*
X25960Y-30000D03*
X22539Y-31000D03*
X22960Y-31000D03*
X23539Y-31000D03*
X23960Y-31000D03*
X24539Y-31000D03*
X24960Y-31000D03*
X25539Y-31000D03*
X25960Y-31000D03*
X22539Y-32000D03*
X22960Y-32000D03*
X23539Y-32000D03*
X23960Y-32000D03*
X24539Y-32000D03*
X24960Y-32000D03*
X25539Y-32000D03*
X25960Y-32000D03*
X22539Y-33000D03*
X22960Y-33000D03*
X23539Y-33000D03*
X23960Y-33000D03*
X24539Y-33000D03*
X24960Y-33000D03*
X25539Y-33000D03*
X25960Y-33000D03*
X22539Y-41000D03*
X22960Y-41000D03*
X23539Y-41000D03*
X23960Y-41000D03*
X24539Y-41000D03*
X24960Y-41000D03*
X25539Y-41000D03*
X25960Y-41000D03*
X22539Y-40000D03*
X22960Y-40000D03*
X23539Y-40000D03*
X23960Y-40000D03*
X24539Y-40000D03*
X24960Y-40000D03*
X25539Y-40000D03*
X25960Y-40000D03*
X22539Y-39000D03*
X22960Y-39000D03*
X23539Y-39000D03*
X23960Y-39000D03*
X24539Y-39000D03*
X24960Y-39000D03*
X25539Y-39000D03*
X25960Y-39000D03*
X22539Y-38000D03*
X22960Y-38000D03*
X23539Y-38000D03*
X23960Y-38000D03*
X24539Y-38000D03*
X24960Y-38000D03*
X25539Y-38000D03*
X25960Y-38000D03*
X22539Y-37000D03*
X22960Y-37000D03*
X23539Y-37000D03*
X23960Y-37000D03*
X24539Y-37000D03*
X24960Y-37000D03*
X25539Y-37000D03*
X25960Y-37000D03*
X18539Y-42000D03*
X18960Y-42000D03*
X19539Y-42000D03*
X19960Y-42000D03*
X20539Y-42000D03*
X20960Y-42000D03*
X21539Y-42000D03*
X21960Y-42000D03*
X22539Y-42000D03*
X22960Y-42000D03*
X23539Y-42000D03*
X23960Y-42000D03*
X24539Y-42000D03*
X24960Y-42000D03*
X25539Y-42000D03*
X25960Y-42000D03*
G54D12*
X18750Y-42500D03*
G54D13*
X19750Y-42500D03*
G54D12*
X20750Y-42500D03*
X21750Y-42500D03*
X22750Y-42500D03*
X23750Y-42500D03*
G54D13*
X24750Y-42500D03*
G54D12*
X25750Y-42500D03*
X18750Y-43500D03*
G54D13*
X19750Y-43500D03*
G54D12*
X20750Y-43500D03*
X21750Y-43500D03*
X22750Y-43500D03*
X23750Y-43500D03*
G54D13*
X24750Y-43500D03*
G54D12*
X25750Y-43500D03*
G54D14*
X22539Y-44000D03*
X22960Y-44000D03*
X23539Y-44000D03*
X23960Y-44000D03*
X24539Y-44000D03*
X24960Y-44000D03*
X25539Y-44000D03*
X25960Y-44000D03*
X18539Y-44000D03*
X18960Y-44000D03*
X19539Y-44000D03*
X19960Y-44000D03*
X20539Y-44000D03*
X20960Y-44000D03*
X21539Y-44000D03*
X21960Y-44000D03*
X18539Y-28000D03*
X18960Y-28000D03*
X19539Y-28000D03*
X19960Y-28000D03*
X20539Y-28000D03*
X20960Y-28000D03*
X21539Y-28000D03*
X21960Y-28000D03*
X22539Y-28000D03*
X22960Y-28000D03*
X23539Y-28000D03*
X23960Y-28000D03*
X24539Y-28000D03*
X24960Y-28000D03*
X25539Y-28000D03*
X25960Y-28000D03*
G54D12*
X18750Y-27500D03*
G54D13*
X19750Y-27500D03*
G54D12*
X20750Y-27500D03*
X21750Y-27500D03*
X22750Y-27500D03*
X23750Y-27500D03*
G54D13*
X24750Y-27500D03*
G54D12*
X25750Y-27500D03*
X18750Y-26500D03*
G54D13*
X19750Y-26500D03*
G54D12*
X20750Y-26500D03*
X21750Y-26500D03*
X22750Y-26500D03*
X23750Y-26500D03*
G54D13*
X24750Y-26500D03*
G54D12*
X25750Y-26500D03*
G54D14*
X22539Y-26000D03*
X22960Y-26000D03*
X23539Y-26000D03*
X23960Y-26000D03*
X24539Y-26000D03*
X24960Y-26000D03*
X25539Y-26000D03*
X25960Y-26000D03*
X18539Y-26000D03*
X18960Y-26000D03*
X19539Y-26000D03*
X19960Y-26000D03*
X20539Y-26000D03*
X20960Y-26000D03*
X21539Y-26000D03*
X21960Y-26000D03*
X10539Y-26000D03*
X10960Y-26000D03*
X11539Y-26000D03*
X11960Y-26000D03*
X12539Y-26000D03*
X12960Y-26000D03*
X13539Y-26000D03*
X13960Y-26000D03*
X14539Y-26000D03*
X14960Y-26000D03*
X15539Y-26000D03*
X15960Y-26000D03*
X16539Y-26000D03*
X16960Y-26000D03*
X17539Y-26000D03*
X17960Y-26000D03*
G54D12*
X10750Y-26500D03*
X11750Y-26500D03*
X12750Y-26500D03*
X13750Y-26500D03*
G54D13*
X14750Y-26500D03*
G54D12*
X15750Y-26500D03*
X16750Y-26500D03*
X17750Y-26500D03*
X10750Y-27500D03*
X11750Y-27500D03*
X12750Y-27500D03*
X13750Y-27500D03*
G54D13*
X14750Y-27500D03*
G54D12*
X15750Y-27500D03*
X16750Y-27500D03*
X17750Y-27500D03*
G54D14*
X14539Y-28000D03*
X14960Y-28000D03*
X15539Y-28000D03*
X15960Y-28000D03*
X16539Y-28000D03*
X16960Y-28000D03*
X17539Y-28000D03*
X17960Y-28000D03*
X10539Y-28000D03*
X10960Y-28000D03*
X11539Y-28000D03*
X11960Y-28000D03*
X12539Y-28000D03*
X12960Y-28000D03*
X13539Y-28000D03*
X13960Y-28000D03*
X10539Y-44000D03*
X10960Y-44000D03*
X11539Y-44000D03*
X11960Y-44000D03*
X12539Y-44000D03*
X12960Y-44000D03*
X13539Y-44000D03*
X13960Y-44000D03*
X14539Y-44000D03*
X14960Y-44000D03*
X15539Y-44000D03*
X15960Y-44000D03*
X16539Y-44000D03*
X16960Y-44000D03*
X17539Y-44000D03*
X17960Y-44000D03*
G54D12*
X10750Y-43500D03*
X11750Y-43500D03*
X12750Y-43500D03*
X13750Y-43500D03*
G54D13*
X14750Y-43500D03*
G54D12*
X15750Y-43500D03*
X16750Y-43500D03*
X17750Y-43500D03*
X10750Y-42500D03*
X11750Y-42500D03*
X12750Y-42500D03*
X13750Y-42500D03*
G54D13*
X14750Y-42500D03*
G54D12*
X15750Y-42500D03*
X16750Y-42500D03*
X17750Y-42500D03*
G54D14*
X14539Y-42000D03*
X14960Y-42000D03*
X15539Y-42000D03*
X15960Y-42000D03*
X16539Y-42000D03*
X16960Y-42000D03*
X17539Y-42000D03*
X17960Y-42000D03*
X10539Y-42000D03*
X10960Y-42000D03*
X11539Y-42000D03*
X11960Y-42000D03*
X12539Y-42000D03*
X12960Y-42000D03*
X13539Y-42000D03*
X13960Y-42000D03*
X14539Y-37000D03*
X14960Y-37000D03*
X15539Y-37000D03*
X15960Y-37000D03*
X16539Y-37000D03*
X16960Y-37000D03*
X17539Y-37000D03*
X17960Y-37000D03*
X14539Y-38000D03*
X14960Y-38000D03*
X15539Y-38000D03*
X15960Y-38000D03*
X16539Y-38000D03*
X16960Y-38000D03*
X17539Y-38000D03*
X17960Y-38000D03*
X14539Y-39000D03*
X14960Y-39000D03*
X15539Y-39000D03*
X15960Y-39000D03*
X16539Y-39000D03*
X16960Y-39000D03*
X17539Y-39000D03*
X17960Y-39000D03*
X14539Y-40000D03*
X14960Y-40000D03*
X15539Y-40000D03*
X15960Y-40000D03*
X16539Y-40000D03*
X16960Y-40000D03*
X17539Y-40000D03*
X17960Y-40000D03*
X14539Y-41000D03*
X14960Y-41000D03*
X15539Y-41000D03*
X15960Y-41000D03*
X16539Y-41000D03*
X16960Y-41000D03*
X17539Y-41000D03*
X17960Y-41000D03*
X14539Y-33000D03*
X14960Y-33000D03*
X15539Y-33000D03*
X15960Y-33000D03*
X16539Y-33000D03*
X16960Y-33000D03*
X17539Y-33000D03*
X17960Y-33000D03*
X14539Y-32000D03*
X14960Y-32000D03*
X15539Y-32000D03*
X15960Y-32000D03*
X16539Y-32000D03*
X16960Y-32000D03*
X17539Y-32000D03*
X17960Y-32000D03*
X14539Y-31000D03*
X14960Y-31000D03*
X15539Y-31000D03*
X15960Y-31000D03*
X16539Y-31000D03*
X16960Y-31000D03*
X17539Y-31000D03*
X17960Y-31000D03*
X14539Y-30000D03*
X14960Y-30000D03*
X15539Y-30000D03*
X15960Y-30000D03*
X16539Y-30000D03*
X16960Y-30000D03*
X17539Y-30000D03*
X17960Y-30000D03*
X10539Y-41000D03*
X10960Y-41000D03*
X11539Y-41000D03*
X11960Y-41000D03*
X12539Y-41000D03*
X12960Y-41000D03*
X13539Y-41000D03*
X13960Y-41000D03*
X10539Y-40000D03*
X10960Y-40000D03*
X11539Y-40000D03*
X11960Y-40000D03*
X12539Y-40000D03*
X12960Y-40000D03*
X13539Y-40000D03*
X13960Y-40000D03*
X10539Y-39000D03*
X10960Y-39000D03*
X11539Y-39000D03*
X11960Y-39000D03*
X12539Y-39000D03*
X12960Y-39000D03*
X13539Y-39000D03*
X13960Y-39000D03*
X10539Y-38000D03*
X10960Y-38000D03*
X11539Y-38000D03*
X11960Y-38000D03*
X12539Y-38000D03*
X12960Y-38000D03*
X13539Y-38000D03*
X13960Y-38000D03*
X10539Y-37000D03*
X10960Y-37000D03*
X11539Y-37000D03*
X11960Y-37000D03*
X12539Y-37000D03*
X12960Y-37000D03*
X13539Y-37000D03*
X13960Y-37000D03*
X10539Y-33000D03*
X10960Y-33000D03*
X11539Y-33000D03*
X11960Y-33000D03*
X12539Y-33000D03*
X12960Y-33000D03*
X13539Y-33000D03*
X13960Y-33000D03*
X10539Y-32000D03*
X10960Y-32000D03*
X11539Y-32000D03*
X11960Y-32000D03*
X12539Y-32000D03*
X12960Y-32000D03*
X13539Y-32000D03*
X13960Y-32000D03*
X10539Y-31000D03*
X10960Y-31000D03*
X11539Y-31000D03*
X11960Y-31000D03*
X12539Y-31000D03*
X12960Y-31000D03*
X13539Y-31000D03*
X13960Y-31000D03*
X10539Y-30000D03*
X10960Y-30000D03*
X11539Y-30000D03*
X11960Y-30000D03*
X12539Y-30000D03*
X12960Y-30000D03*
X13539Y-30000D03*
X13960Y-30000D03*
X10539Y-29000D03*
X10960Y-29000D03*
X11539Y-29000D03*
X11960Y-29000D03*
X12539Y-29000D03*
X12960Y-29000D03*
X13539Y-29000D03*
X13960Y-29000D03*
G54D12*
X10750Y-37500D03*
X11750Y-37500D03*
X12750Y-37500D03*
X13750Y-37500D03*
G54D13*
X14750Y-37500D03*
G54D12*
X15750Y-37500D03*
X16750Y-37500D03*
X17750Y-37500D03*
X10750Y-38500D03*
X11750Y-38500D03*
X12750Y-38500D03*
X13750Y-38500D03*
G54D13*
X14750Y-38500D03*
G54D12*
X15750Y-38500D03*
X16750Y-38500D03*
X17750Y-38500D03*
X10750Y-39500D03*
X11750Y-39500D03*
X12750Y-39500D03*
X13750Y-39500D03*
G54D13*
X14750Y-39500D03*
G54D12*
X15750Y-39500D03*
X16750Y-39500D03*
X17750Y-39500D03*
X10750Y-36500D03*
X11750Y-36500D03*
X12750Y-36500D03*
X13750Y-36500D03*
G54D13*
X14750Y-36500D03*
G54D12*
X15750Y-36500D03*
X16750Y-36500D03*
X17750Y-36500D03*
X10750Y-32500D03*
X11750Y-32500D03*
X12750Y-32500D03*
X13750Y-32500D03*
G54D13*
X14750Y-32500D03*
G54D12*
X15750Y-32500D03*
X16750Y-32500D03*
X17750Y-32500D03*
X10750Y-31500D03*
X11750Y-31500D03*
X12750Y-31500D03*
X13750Y-31500D03*
G54D13*
X14750Y-31500D03*
G54D12*
X15750Y-31500D03*
X16750Y-31500D03*
X17750Y-31500D03*
X10750Y-30500D03*
X11750Y-30500D03*
X12750Y-30500D03*
X13750Y-30500D03*
G54D13*
X14750Y-30500D03*
G54D12*
X15750Y-30500D03*
X16750Y-30500D03*
X17750Y-30500D03*
X10750Y-29500D03*
X11750Y-29500D03*
X12750Y-29500D03*
X13750Y-29500D03*
G54D13*
X14750Y-29500D03*
G54D12*
X15750Y-29500D03*
X16750Y-29500D03*
X17750Y-29500D03*
X10750Y-33500D03*
X11750Y-33500D03*
X12750Y-33500D03*
X13750Y-33500D03*
G54D13*
X14750Y-33500D03*
G54D12*
X15750Y-33500D03*
X16750Y-33500D03*
X17750Y-33500D03*
G54D14*
X14539Y-29000D03*
X14960Y-29000D03*
X15539Y-29000D03*
X15960Y-29000D03*
X16539Y-29000D03*
X16960Y-29000D03*
X17539Y-29000D03*
X17960Y-29000D03*
M02*
