%FSLAX34Y34*%
G04 Gerber Fmt 3.4, Leading zero omitted, Abs format*
G04 (created by PCBNEW (2014-06-12 BZR 4942)-product) date Sat 14 Jun 2014 05:33:48 AM CEST*
%MOIN*%
G01*
G70*
G90*
G04 APERTURE LIST*
%ADD10C,0.005906*%
%ADD11C,0.003937*%
%ADD12O,0.064961X0.078740*%
%ADD13R,0.064961X0.078740*%
%ADD14O,0.047244X0.055118*%
G04 APERTURE END LIST*
G54D10*
G54D11*
G36*
X18978Y-34274D02*
X18977Y-34278D01*
X18973Y-34293D01*
X18966Y-34307D01*
X18956Y-34320D01*
X18943Y-34332D01*
X18926Y-34343D01*
X18912Y-34350D01*
X18912Y-34266D01*
X18911Y-34257D01*
X18906Y-34247D01*
X18903Y-34243D01*
X18894Y-34230D01*
X18884Y-34221D01*
X18876Y-34216D01*
X18868Y-34215D01*
X18858Y-34215D01*
X18848Y-34216D01*
X18838Y-34219D01*
X18838Y-34219D01*
X18824Y-34227D01*
X18809Y-34238D01*
X18792Y-34251D01*
X18776Y-34267D01*
X18759Y-34285D01*
X18743Y-34305D01*
X18732Y-34318D01*
X18728Y-34325D01*
X18748Y-34322D01*
X18759Y-34321D01*
X18772Y-34319D01*
X18784Y-34317D01*
X18792Y-34316D01*
X18814Y-34312D01*
X18834Y-34307D01*
X18853Y-34302D01*
X18870Y-34297D01*
X18884Y-34291D01*
X18896Y-34285D01*
X18905Y-34279D01*
X18910Y-34274D01*
X18911Y-34273D01*
X18912Y-34266D01*
X18912Y-34350D01*
X18907Y-34352D01*
X18884Y-34361D01*
X18857Y-34369D01*
X18827Y-34376D01*
X18794Y-34381D01*
X18775Y-34384D01*
X18766Y-34385D01*
X18755Y-34387D01*
X18743Y-34388D01*
X18731Y-34389D01*
X18719Y-34391D01*
X18707Y-34392D01*
X18698Y-34393D01*
X18691Y-34393D01*
X18686Y-34394D01*
X18686Y-34394D01*
X18684Y-34395D01*
X18681Y-34400D01*
X18677Y-34407D01*
X18672Y-34416D01*
X18667Y-34427D01*
X18661Y-34439D01*
X18655Y-34452D01*
X18648Y-34465D01*
X18642Y-34478D01*
X18636Y-34491D01*
X18631Y-34503D01*
X18626Y-34513D01*
X18625Y-34517D01*
X18607Y-34562D01*
X18607Y-34399D01*
X18574Y-34400D01*
X18567Y-34400D01*
X18557Y-34400D01*
X18543Y-34401D01*
X18527Y-34401D01*
X18509Y-34401D01*
X18489Y-34401D01*
X18467Y-34402D01*
X18444Y-34402D01*
X18420Y-34402D01*
X18396Y-34402D01*
X18391Y-34402D01*
X18373Y-34402D01*
X18355Y-34402D01*
X18338Y-34403D01*
X18321Y-34403D01*
X18303Y-34403D01*
X18286Y-34403D01*
X18267Y-34403D01*
X18249Y-34402D01*
X18229Y-34402D01*
X18209Y-34402D01*
X18187Y-34402D01*
X18164Y-34402D01*
X18140Y-34401D01*
X18114Y-34401D01*
X18086Y-34401D01*
X18056Y-34400D01*
X18023Y-34400D01*
X17988Y-34399D01*
X17951Y-34399D01*
X17911Y-34398D01*
X17868Y-34397D01*
X17821Y-34396D01*
X17772Y-34395D01*
X17719Y-34395D01*
X17650Y-34393D01*
X17584Y-34392D01*
X17521Y-34391D01*
X17461Y-34391D01*
X17403Y-34390D01*
X17347Y-34389D01*
X17292Y-34389D01*
X17239Y-34388D01*
X17186Y-34388D01*
X17134Y-34388D01*
X17082Y-34388D01*
X17029Y-34388D01*
X16976Y-34389D01*
X16921Y-34389D01*
X16866Y-34390D01*
X16808Y-34390D01*
X16749Y-34391D01*
X16687Y-34392D01*
X16622Y-34393D01*
X16553Y-34394D01*
X16537Y-34395D01*
X16483Y-34395D01*
X16433Y-34396D01*
X16387Y-34397D01*
X16343Y-34398D01*
X16303Y-34399D01*
X16265Y-34399D01*
X16230Y-34400D01*
X16197Y-34400D01*
X16167Y-34401D01*
X16138Y-34401D01*
X16112Y-34401D01*
X16087Y-34402D01*
X16064Y-34402D01*
X16042Y-34402D01*
X16021Y-34402D01*
X16001Y-34402D01*
X15982Y-34403D01*
X15964Y-34403D01*
X15946Y-34403D01*
X15928Y-34403D01*
X15911Y-34402D01*
X15893Y-34402D01*
X15875Y-34402D01*
X15863Y-34402D01*
X15839Y-34402D01*
X15815Y-34402D01*
X15792Y-34402D01*
X15770Y-34401D01*
X15750Y-34401D01*
X15731Y-34401D01*
X15715Y-34401D01*
X15701Y-34400D01*
X15690Y-34400D01*
X15683Y-34400D01*
X15682Y-34400D01*
X15650Y-34399D01*
X15661Y-34422D01*
X15689Y-34484D01*
X15715Y-34548D01*
X15737Y-34615D01*
X15756Y-34682D01*
X15772Y-34751D01*
X15785Y-34821D01*
X15794Y-34891D01*
X15801Y-34962D01*
X15801Y-34963D01*
X15801Y-34974D01*
X15801Y-34987D01*
X15802Y-35003D01*
X15802Y-35021D01*
X15802Y-35039D01*
X15802Y-35057D01*
X15801Y-35075D01*
X15801Y-35091D01*
X15800Y-35105D01*
X15800Y-35117D01*
X15800Y-35117D01*
X15793Y-35188D01*
X15783Y-35259D01*
X15769Y-35330D01*
X15752Y-35400D01*
X15731Y-35470D01*
X15707Y-35538D01*
X15680Y-35604D01*
X15663Y-35643D01*
X15659Y-35651D01*
X15656Y-35658D01*
X15653Y-35664D01*
X15652Y-35667D01*
X15652Y-35667D01*
X15654Y-35667D01*
X15660Y-35668D01*
X15668Y-35667D01*
X15679Y-35667D01*
X15691Y-35667D01*
X15706Y-35667D01*
X15721Y-35666D01*
X15724Y-35666D01*
X15742Y-35666D01*
X15760Y-35665D01*
X15778Y-35665D01*
X15797Y-35665D01*
X15817Y-35664D01*
X15838Y-35664D01*
X15861Y-35664D01*
X15884Y-35664D01*
X15909Y-35664D01*
X15936Y-35664D01*
X15964Y-35664D01*
X15994Y-35664D01*
X16026Y-35665D01*
X16061Y-35665D01*
X16097Y-35665D01*
X16136Y-35666D01*
X16178Y-35666D01*
X16222Y-35667D01*
X16270Y-35668D01*
X16320Y-35669D01*
X16373Y-35669D01*
X16430Y-35670D01*
X16490Y-35672D01*
X16546Y-35672D01*
X16631Y-35674D01*
X16712Y-35675D01*
X16791Y-35676D01*
X16866Y-35677D01*
X16939Y-35678D01*
X17009Y-35678D01*
X17077Y-35679D01*
X17143Y-35679D01*
X17208Y-35679D01*
X17271Y-35678D01*
X17333Y-35678D01*
X17394Y-35677D01*
X17413Y-35677D01*
X17439Y-35677D01*
X17468Y-35676D01*
X17500Y-35676D01*
X17533Y-35675D01*
X17566Y-35675D01*
X17600Y-35674D01*
X17634Y-35674D01*
X17666Y-35673D01*
X17696Y-35673D01*
X17711Y-35672D01*
X17764Y-35671D01*
X17813Y-35671D01*
X17859Y-35670D01*
X17901Y-35669D01*
X17941Y-35668D01*
X17978Y-35668D01*
X18012Y-35667D01*
X18044Y-35667D01*
X18074Y-35666D01*
X18102Y-35666D01*
X18127Y-35666D01*
X18151Y-35665D01*
X18174Y-35665D01*
X18195Y-35665D01*
X18215Y-35665D01*
X18234Y-35665D01*
X18252Y-35664D01*
X18270Y-35664D01*
X18287Y-35664D01*
X18304Y-35664D01*
X18321Y-35664D01*
X18338Y-35664D01*
X18355Y-35665D01*
X18373Y-35665D01*
X18389Y-35665D01*
X18413Y-35665D01*
X18437Y-35665D01*
X18461Y-35665D01*
X18483Y-35666D01*
X18504Y-35666D01*
X18523Y-35666D01*
X18540Y-35666D01*
X18554Y-35667D01*
X18565Y-35667D01*
X18574Y-35667D01*
X18576Y-35667D01*
X18607Y-35668D01*
X18596Y-35645D01*
X18573Y-35595D01*
X18551Y-35542D01*
X18531Y-35487D01*
X18513Y-35430D01*
X18497Y-35372D01*
X18483Y-35313D01*
X18472Y-35254D01*
X18466Y-35211D01*
X18458Y-35146D01*
X18454Y-35079D01*
X18454Y-35012D01*
X18457Y-34945D01*
X18463Y-34879D01*
X18465Y-34863D01*
X18473Y-34810D01*
X18483Y-34756D01*
X18496Y-34701D01*
X18510Y-34648D01*
X18526Y-34595D01*
X18544Y-34543D01*
X18563Y-34494D01*
X18584Y-34447D01*
X18596Y-34421D01*
X18607Y-34399D01*
X18607Y-34562D01*
X18599Y-34583D01*
X18577Y-34651D01*
X18558Y-34720D01*
X18543Y-34790D01*
X18531Y-34860D01*
X18529Y-34876D01*
X18522Y-34935D01*
X18519Y-34995D01*
X18519Y-35056D01*
X18521Y-35115D01*
X18525Y-35158D01*
X18533Y-35225D01*
X18545Y-35291D01*
X18561Y-35357D01*
X18579Y-35423D01*
X18600Y-35487D01*
X18624Y-35549D01*
X18631Y-35565D01*
X18635Y-35576D01*
X18641Y-35588D01*
X18648Y-35603D01*
X18655Y-35617D01*
X18662Y-35632D01*
X18669Y-35645D01*
X18675Y-35656D01*
X18680Y-35665D01*
X18684Y-35673D01*
X18706Y-35675D01*
X18744Y-35679D01*
X18778Y-35683D01*
X18809Y-35688D01*
X18837Y-35694D01*
X18861Y-35699D01*
X18883Y-35706D01*
X18903Y-35713D01*
X18920Y-35721D01*
X18935Y-35729D01*
X18943Y-35735D01*
X18957Y-35747D01*
X18967Y-35761D01*
X18974Y-35776D01*
X18978Y-35792D01*
X18978Y-35809D01*
X18974Y-35826D01*
X18967Y-35844D01*
X18960Y-35858D01*
X18947Y-35875D01*
X18933Y-35890D01*
X18918Y-35902D01*
X18912Y-35905D01*
X18912Y-35799D01*
X18912Y-35796D01*
X18909Y-35793D01*
X18906Y-35790D01*
X18896Y-35783D01*
X18883Y-35776D01*
X18867Y-35770D01*
X18848Y-35764D01*
X18827Y-35758D01*
X18803Y-35753D01*
X18778Y-35749D01*
X18760Y-35746D01*
X18750Y-35745D01*
X18742Y-35744D01*
X18736Y-35743D01*
X18732Y-35743D01*
X18732Y-35743D01*
X18728Y-35742D01*
X18732Y-35748D01*
X18741Y-35761D01*
X18752Y-35774D01*
X18764Y-35787D01*
X18776Y-35800D01*
X18787Y-35812D01*
X18798Y-35821D01*
X18803Y-35826D01*
X18820Y-35838D01*
X18835Y-35846D01*
X18849Y-35851D01*
X18862Y-35853D01*
X18873Y-35851D01*
X18876Y-35850D01*
X18884Y-35846D01*
X18892Y-35838D01*
X18900Y-35830D01*
X18906Y-35820D01*
X18910Y-35811D01*
X18912Y-35804D01*
X18912Y-35799D01*
X18912Y-35905D01*
X18901Y-35911D01*
X18896Y-35912D01*
X18891Y-35914D01*
X18886Y-35915D01*
X18881Y-35916D01*
X18874Y-35916D01*
X18864Y-35916D01*
X18858Y-35916D01*
X18847Y-35915D01*
X18839Y-35915D01*
X18833Y-35914D01*
X18828Y-35913D01*
X18823Y-35912D01*
X18817Y-35909D01*
X18814Y-35908D01*
X18792Y-35897D01*
X18770Y-35883D01*
X18747Y-35864D01*
X18725Y-35843D01*
X18703Y-35818D01*
X18681Y-35789D01*
X18659Y-35758D01*
X18658Y-35756D01*
X18653Y-35748D01*
X18649Y-35742D01*
X18646Y-35739D01*
X18643Y-35737D01*
X18641Y-35736D01*
X18638Y-35735D01*
X18631Y-35735D01*
X18620Y-35734D01*
X18606Y-35733D01*
X18589Y-35733D01*
X18569Y-35732D01*
X18547Y-35732D01*
X18521Y-35731D01*
X18494Y-35731D01*
X18464Y-35730D01*
X18433Y-35730D01*
X18399Y-35730D01*
X18388Y-35729D01*
X18369Y-35729D01*
X18351Y-35729D01*
X18333Y-35729D01*
X18315Y-35729D01*
X18297Y-35729D01*
X18278Y-35729D01*
X18258Y-35729D01*
X18238Y-35729D01*
X18216Y-35730D01*
X18194Y-35730D01*
X18170Y-35730D01*
X18145Y-35730D01*
X18118Y-35731D01*
X18089Y-35731D01*
X18058Y-35732D01*
X18025Y-35732D01*
X17989Y-35733D01*
X17951Y-35733D01*
X17911Y-35734D01*
X17867Y-35735D01*
X17821Y-35736D01*
X17771Y-35737D01*
X17718Y-35737D01*
X17665Y-35738D01*
X17604Y-35740D01*
X17540Y-35740D01*
X17473Y-35741D01*
X17404Y-35742D01*
X17333Y-35742D01*
X17260Y-35743D01*
X17187Y-35743D01*
X17114Y-35743D01*
X17040Y-35743D01*
X16968Y-35742D01*
X16896Y-35742D01*
X16825Y-35742D01*
X16757Y-35741D01*
X16691Y-35740D01*
X16628Y-35739D01*
X16590Y-35738D01*
X16534Y-35737D01*
X16481Y-35736D01*
X16431Y-35736D01*
X16385Y-35735D01*
X16341Y-35734D01*
X16301Y-35733D01*
X16263Y-35733D01*
X16227Y-35732D01*
X16194Y-35732D01*
X16164Y-35731D01*
X16135Y-35731D01*
X16108Y-35730D01*
X16082Y-35730D01*
X16058Y-35730D01*
X16036Y-35730D01*
X16014Y-35729D01*
X15994Y-35729D01*
X15974Y-35729D01*
X15955Y-35729D01*
X15937Y-35729D01*
X15918Y-35729D01*
X15900Y-35729D01*
X15882Y-35729D01*
X15868Y-35729D01*
X15837Y-35730D01*
X15807Y-35730D01*
X15778Y-35730D01*
X15751Y-35731D01*
X15725Y-35731D01*
X15702Y-35732D01*
X15681Y-35732D01*
X15662Y-35733D01*
X15647Y-35733D01*
X15634Y-35734D01*
X15624Y-35735D01*
X15618Y-35735D01*
X15617Y-35735D01*
X15614Y-35736D01*
X15611Y-35739D01*
X15608Y-35743D01*
X15604Y-35749D01*
X15602Y-35752D01*
X15591Y-35769D01*
X15578Y-35786D01*
X15565Y-35804D01*
X15551Y-35821D01*
X15537Y-35837D01*
X15529Y-35846D01*
X15529Y-35743D01*
X15527Y-35743D01*
X15522Y-35743D01*
X15515Y-35744D01*
X15506Y-35745D01*
X15500Y-35746D01*
X15483Y-35748D01*
X15465Y-35751D01*
X15447Y-35754D01*
X15430Y-35758D01*
X15415Y-35761D01*
X15402Y-35765D01*
X15400Y-35765D01*
X15388Y-35769D01*
X15377Y-35774D01*
X15366Y-35779D01*
X15356Y-35784D01*
X15350Y-35789D01*
X15348Y-35791D01*
X15344Y-35795D01*
X15343Y-35799D01*
X15343Y-35804D01*
X15343Y-35804D01*
X15345Y-35812D01*
X15350Y-35822D01*
X15356Y-35831D01*
X15364Y-35840D01*
X15372Y-35847D01*
X15378Y-35850D01*
X15385Y-35852D01*
X15395Y-35853D01*
X15405Y-35851D01*
X15415Y-35849D01*
X15421Y-35847D01*
X15437Y-35838D01*
X15455Y-35825D01*
X15472Y-35810D01*
X15491Y-35791D01*
X15510Y-35768D01*
X15517Y-35760D01*
X15522Y-35753D01*
X15526Y-35748D01*
X15528Y-35744D01*
X15529Y-35743D01*
X15529Y-35846D01*
X15524Y-35851D01*
X15512Y-35863D01*
X15511Y-35864D01*
X15492Y-35879D01*
X15473Y-35893D01*
X15454Y-35904D01*
X15435Y-35911D01*
X15434Y-35912D01*
X15428Y-35914D01*
X15423Y-35915D01*
X15417Y-35915D01*
X15409Y-35916D01*
X15398Y-35916D01*
X15394Y-35916D01*
X15383Y-35916D01*
X15374Y-35916D01*
X15368Y-35915D01*
X15363Y-35914D01*
X15359Y-35913D01*
X15355Y-35911D01*
X15338Y-35903D01*
X15323Y-35891D01*
X15309Y-35877D01*
X15299Y-35863D01*
X15288Y-35845D01*
X15281Y-35828D01*
X15277Y-35811D01*
X15277Y-35795D01*
X15277Y-35790D01*
X15281Y-35776D01*
X15287Y-35763D01*
X15295Y-35750D01*
X15307Y-35739D01*
X15321Y-35729D01*
X15338Y-35719D01*
X15359Y-35711D01*
X15382Y-35703D01*
X15408Y-35696D01*
X15438Y-35690D01*
X15472Y-35684D01*
X15508Y-35679D01*
X15548Y-35675D01*
X15559Y-35674D01*
X15574Y-35673D01*
X15587Y-35647D01*
X15614Y-35593D01*
X15638Y-35536D01*
X15660Y-35477D01*
X15680Y-35416D01*
X15697Y-35353D01*
X15711Y-35288D01*
X15723Y-35223D01*
X15731Y-35156D01*
X15732Y-35155D01*
X15733Y-35139D01*
X15734Y-35121D01*
X15735Y-35100D01*
X15736Y-35078D01*
X15736Y-35054D01*
X15736Y-35030D01*
X15736Y-35007D01*
X15736Y-34984D01*
X15735Y-34962D01*
X15734Y-34943D01*
X15733Y-34927D01*
X15732Y-34921D01*
X15723Y-34848D01*
X15711Y-34777D01*
X15695Y-34708D01*
X15676Y-34640D01*
X15654Y-34574D01*
X15629Y-34509D01*
X15609Y-34464D01*
X15606Y-34457D01*
X15601Y-34449D01*
X15597Y-34439D01*
X15592Y-34429D01*
X15587Y-34420D01*
X15582Y-34411D01*
X15578Y-34403D01*
X15575Y-34398D01*
X15573Y-34395D01*
X15573Y-34394D01*
X15571Y-34394D01*
X15566Y-34394D01*
X15559Y-34393D01*
X15550Y-34392D01*
X15540Y-34391D01*
X15528Y-34390D01*
X15528Y-34325D01*
X15528Y-34324D01*
X15526Y-34320D01*
X15524Y-34317D01*
X15506Y-34295D01*
X15489Y-34274D01*
X15471Y-34256D01*
X15454Y-34241D01*
X15438Y-34230D01*
X15431Y-34225D01*
X15418Y-34219D01*
X15405Y-34215D01*
X15393Y-34214D01*
X15383Y-34215D01*
X15378Y-34217D01*
X15369Y-34222D01*
X15361Y-34230D01*
X15354Y-34239D01*
X15348Y-34249D01*
X15344Y-34258D01*
X15343Y-34263D01*
X15343Y-34268D01*
X15344Y-34272D01*
X15347Y-34276D01*
X15357Y-34283D01*
X15369Y-34290D01*
X15385Y-34297D01*
X15405Y-34303D01*
X15427Y-34309D01*
X15452Y-34314D01*
X15480Y-34319D01*
X15506Y-34322D01*
X15515Y-34323D01*
X15522Y-34324D01*
X15526Y-34325D01*
X15528Y-34325D01*
X15528Y-34390D01*
X15501Y-34387D01*
X15465Y-34382D01*
X15432Y-34376D01*
X15402Y-34370D01*
X15376Y-34363D01*
X15354Y-34355D01*
X15334Y-34346D01*
X15317Y-34336D01*
X15304Y-34325D01*
X15293Y-34314D01*
X15285Y-34301D01*
X15279Y-34287D01*
X15278Y-34278D01*
X15277Y-34263D01*
X15279Y-34247D01*
X15284Y-34230D01*
X15292Y-34214D01*
X15302Y-34199D01*
X15314Y-34184D01*
X15327Y-34172D01*
X15342Y-34162D01*
X15348Y-34159D01*
X15362Y-34152D01*
X15391Y-34151D01*
X15403Y-34151D01*
X15412Y-34151D01*
X15418Y-34152D01*
X15424Y-34152D01*
X15428Y-34153D01*
X15433Y-34155D01*
X15454Y-34164D01*
X15476Y-34176D01*
X15497Y-34192D01*
X15519Y-34212D01*
X15541Y-34235D01*
X15564Y-34261D01*
X15584Y-34289D01*
X15590Y-34298D01*
X15596Y-34307D01*
X15601Y-34314D01*
X15605Y-34320D01*
X15605Y-34320D01*
X15609Y-34326D01*
X15613Y-34330D01*
X15616Y-34331D01*
X15617Y-34332D01*
X15623Y-34332D01*
X15632Y-34333D01*
X15644Y-34333D01*
X15659Y-34334D01*
X15677Y-34335D01*
X15697Y-34335D01*
X15720Y-34336D01*
X15744Y-34336D01*
X15770Y-34336D01*
X15798Y-34337D01*
X15827Y-34337D01*
X15857Y-34337D01*
X15865Y-34338D01*
X15883Y-34338D01*
X15902Y-34338D01*
X15921Y-34338D01*
X15940Y-34338D01*
X15960Y-34338D01*
X15980Y-34338D01*
X16002Y-34338D01*
X16024Y-34337D01*
X16048Y-34337D01*
X16073Y-34337D01*
X16099Y-34337D01*
X16128Y-34336D01*
X16158Y-34336D01*
X16191Y-34335D01*
X16225Y-34335D01*
X16262Y-34334D01*
X16302Y-34334D01*
X16344Y-34333D01*
X16389Y-34332D01*
X16438Y-34331D01*
X16489Y-34330D01*
X16544Y-34329D01*
X16582Y-34328D01*
X16638Y-34328D01*
X16698Y-34327D01*
X16760Y-34326D01*
X16824Y-34325D01*
X16891Y-34325D01*
X16959Y-34325D01*
X17028Y-34324D01*
X17097Y-34324D01*
X17167Y-34324D01*
X17236Y-34324D01*
X17305Y-34325D01*
X17373Y-34325D01*
X17439Y-34325D01*
X17503Y-34326D01*
X17565Y-34327D01*
X17624Y-34328D01*
X17673Y-34328D01*
X17730Y-34330D01*
X17784Y-34331D01*
X17835Y-34331D01*
X17882Y-34332D01*
X17927Y-34333D01*
X17968Y-34334D01*
X18007Y-34334D01*
X18043Y-34335D01*
X18077Y-34336D01*
X18109Y-34336D01*
X18139Y-34336D01*
X18167Y-34337D01*
X18193Y-34337D01*
X18218Y-34337D01*
X18241Y-34337D01*
X18263Y-34338D01*
X18285Y-34338D01*
X18305Y-34338D01*
X18325Y-34338D01*
X18344Y-34338D01*
X18363Y-34338D01*
X18382Y-34338D01*
X18390Y-34338D01*
X18422Y-34337D01*
X18453Y-34337D01*
X18482Y-34337D01*
X18510Y-34336D01*
X18535Y-34336D01*
X18559Y-34335D01*
X18580Y-34334D01*
X18598Y-34334D01*
X18613Y-34333D01*
X18625Y-34333D01*
X18634Y-34332D01*
X18638Y-34332D01*
X18642Y-34331D01*
X18645Y-34329D01*
X18647Y-34327D01*
X18651Y-34322D01*
X18654Y-34316D01*
X18676Y-34284D01*
X18699Y-34255D01*
X18722Y-34228D01*
X18731Y-34219D01*
X18752Y-34199D01*
X18772Y-34183D01*
X18791Y-34170D01*
X18811Y-34160D01*
X18818Y-34157D01*
X18823Y-34155D01*
X18828Y-34154D01*
X18833Y-34153D01*
X18839Y-34152D01*
X18846Y-34152D01*
X18856Y-34152D01*
X18863Y-34152D01*
X18893Y-34152D01*
X18908Y-34159D01*
X18923Y-34168D01*
X18937Y-34180D01*
X18949Y-34194D01*
X18960Y-34209D01*
X18968Y-34225D01*
X18974Y-34242D01*
X18978Y-34258D01*
X18978Y-34274D01*
X18978Y-34274D01*
X18978Y-34274D01*
G37*
X18978Y-34274D02*
X18977Y-34278D01*
X18973Y-34293D01*
X18966Y-34307D01*
X18956Y-34320D01*
X18943Y-34332D01*
X18926Y-34343D01*
X18912Y-34350D01*
X18912Y-34266D01*
X18911Y-34257D01*
X18906Y-34247D01*
X18903Y-34243D01*
X18894Y-34230D01*
X18884Y-34221D01*
X18876Y-34216D01*
X18868Y-34215D01*
X18858Y-34215D01*
X18848Y-34216D01*
X18838Y-34219D01*
X18838Y-34219D01*
X18824Y-34227D01*
X18809Y-34238D01*
X18792Y-34251D01*
X18776Y-34267D01*
X18759Y-34285D01*
X18743Y-34305D01*
X18732Y-34318D01*
X18728Y-34325D01*
X18748Y-34322D01*
X18759Y-34321D01*
X18772Y-34319D01*
X18784Y-34317D01*
X18792Y-34316D01*
X18814Y-34312D01*
X18834Y-34307D01*
X18853Y-34302D01*
X18870Y-34297D01*
X18884Y-34291D01*
X18896Y-34285D01*
X18905Y-34279D01*
X18910Y-34274D01*
X18911Y-34273D01*
X18912Y-34266D01*
X18912Y-34350D01*
X18907Y-34352D01*
X18884Y-34361D01*
X18857Y-34369D01*
X18827Y-34376D01*
X18794Y-34381D01*
X18775Y-34384D01*
X18766Y-34385D01*
X18755Y-34387D01*
X18743Y-34388D01*
X18731Y-34389D01*
X18719Y-34391D01*
X18707Y-34392D01*
X18698Y-34393D01*
X18691Y-34393D01*
X18686Y-34394D01*
X18686Y-34394D01*
X18684Y-34395D01*
X18681Y-34400D01*
X18677Y-34407D01*
X18672Y-34416D01*
X18667Y-34427D01*
X18661Y-34439D01*
X18655Y-34452D01*
X18648Y-34465D01*
X18642Y-34478D01*
X18636Y-34491D01*
X18631Y-34503D01*
X18626Y-34513D01*
X18625Y-34517D01*
X18607Y-34562D01*
X18607Y-34399D01*
X18574Y-34400D01*
X18567Y-34400D01*
X18557Y-34400D01*
X18543Y-34401D01*
X18527Y-34401D01*
X18509Y-34401D01*
X18489Y-34401D01*
X18467Y-34402D01*
X18444Y-34402D01*
X18420Y-34402D01*
X18396Y-34402D01*
X18391Y-34402D01*
X18373Y-34402D01*
X18355Y-34402D01*
X18338Y-34403D01*
X18321Y-34403D01*
X18303Y-34403D01*
X18286Y-34403D01*
X18267Y-34403D01*
X18249Y-34402D01*
X18229Y-34402D01*
X18209Y-34402D01*
X18187Y-34402D01*
X18164Y-34402D01*
X18140Y-34401D01*
X18114Y-34401D01*
X18086Y-34401D01*
X18056Y-34400D01*
X18023Y-34400D01*
X17988Y-34399D01*
X17951Y-34399D01*
X17911Y-34398D01*
X17868Y-34397D01*
X17821Y-34396D01*
X17772Y-34395D01*
X17719Y-34395D01*
X17650Y-34393D01*
X17584Y-34392D01*
X17521Y-34391D01*
X17461Y-34391D01*
X17403Y-34390D01*
X17347Y-34389D01*
X17292Y-34389D01*
X17239Y-34388D01*
X17186Y-34388D01*
X17134Y-34388D01*
X17082Y-34388D01*
X17029Y-34388D01*
X16976Y-34389D01*
X16921Y-34389D01*
X16866Y-34390D01*
X16808Y-34390D01*
X16749Y-34391D01*
X16687Y-34392D01*
X16622Y-34393D01*
X16553Y-34394D01*
X16537Y-34395D01*
X16483Y-34395D01*
X16433Y-34396D01*
X16387Y-34397D01*
X16343Y-34398D01*
X16303Y-34399D01*
X16265Y-34399D01*
X16230Y-34400D01*
X16197Y-34400D01*
X16167Y-34401D01*
X16138Y-34401D01*
X16112Y-34401D01*
X16087Y-34402D01*
X16064Y-34402D01*
X16042Y-34402D01*
X16021Y-34402D01*
X16001Y-34402D01*
X15982Y-34403D01*
X15964Y-34403D01*
X15946Y-34403D01*
X15928Y-34403D01*
X15911Y-34402D01*
X15893Y-34402D01*
X15875Y-34402D01*
X15863Y-34402D01*
X15839Y-34402D01*
X15815Y-34402D01*
X15792Y-34402D01*
X15770Y-34401D01*
X15750Y-34401D01*
X15731Y-34401D01*
X15715Y-34401D01*
X15701Y-34400D01*
X15690Y-34400D01*
X15683Y-34400D01*
X15682Y-34400D01*
X15650Y-34399D01*
X15661Y-34422D01*
X15689Y-34484D01*
X15715Y-34548D01*
X15737Y-34615D01*
X15756Y-34682D01*
X15772Y-34751D01*
X15785Y-34821D01*
X15794Y-34891D01*
X15801Y-34962D01*
X15801Y-34963D01*
X15801Y-34974D01*
X15801Y-34987D01*
X15802Y-35003D01*
X15802Y-35021D01*
X15802Y-35039D01*
X15802Y-35057D01*
X15801Y-35075D01*
X15801Y-35091D01*
X15800Y-35105D01*
X15800Y-35117D01*
X15800Y-35117D01*
X15793Y-35188D01*
X15783Y-35259D01*
X15769Y-35330D01*
X15752Y-35400D01*
X15731Y-35470D01*
X15707Y-35538D01*
X15680Y-35604D01*
X15663Y-35643D01*
X15659Y-35651D01*
X15656Y-35658D01*
X15653Y-35664D01*
X15652Y-35667D01*
X15652Y-35667D01*
X15654Y-35667D01*
X15660Y-35668D01*
X15668Y-35667D01*
X15679Y-35667D01*
X15691Y-35667D01*
X15706Y-35667D01*
X15721Y-35666D01*
X15724Y-35666D01*
X15742Y-35666D01*
X15760Y-35665D01*
X15778Y-35665D01*
X15797Y-35665D01*
X15817Y-35664D01*
X15838Y-35664D01*
X15861Y-35664D01*
X15884Y-35664D01*
X15909Y-35664D01*
X15936Y-35664D01*
X15964Y-35664D01*
X15994Y-35664D01*
X16026Y-35665D01*
X16061Y-35665D01*
X16097Y-35665D01*
X16136Y-35666D01*
X16178Y-35666D01*
X16222Y-35667D01*
X16270Y-35668D01*
X16320Y-35669D01*
X16373Y-35669D01*
X16430Y-35670D01*
X16490Y-35672D01*
X16546Y-35672D01*
X16631Y-35674D01*
X16712Y-35675D01*
X16791Y-35676D01*
X16866Y-35677D01*
X16939Y-35678D01*
X17009Y-35678D01*
X17077Y-35679D01*
X17143Y-35679D01*
X17208Y-35679D01*
X17271Y-35678D01*
X17333Y-35678D01*
X17394Y-35677D01*
X17413Y-35677D01*
X17439Y-35677D01*
X17468Y-35676D01*
X17500Y-35676D01*
X17533Y-35675D01*
X17566Y-35675D01*
X17600Y-35674D01*
X17634Y-35674D01*
X17666Y-35673D01*
X17696Y-35673D01*
X17711Y-35672D01*
X17764Y-35671D01*
X17813Y-35671D01*
X17859Y-35670D01*
X17901Y-35669D01*
X17941Y-35668D01*
X17978Y-35668D01*
X18012Y-35667D01*
X18044Y-35667D01*
X18074Y-35666D01*
X18102Y-35666D01*
X18127Y-35666D01*
X18151Y-35665D01*
X18174Y-35665D01*
X18195Y-35665D01*
X18215Y-35665D01*
X18234Y-35665D01*
X18252Y-35664D01*
X18270Y-35664D01*
X18287Y-35664D01*
X18304Y-35664D01*
X18321Y-35664D01*
X18338Y-35664D01*
X18355Y-35665D01*
X18373Y-35665D01*
X18389Y-35665D01*
X18413Y-35665D01*
X18437Y-35665D01*
X18461Y-35665D01*
X18483Y-35666D01*
X18504Y-35666D01*
X18523Y-35666D01*
X18540Y-35666D01*
X18554Y-35667D01*
X18565Y-35667D01*
X18574Y-35667D01*
X18576Y-35667D01*
X18607Y-35668D01*
X18596Y-35645D01*
X18573Y-35595D01*
X18551Y-35542D01*
X18531Y-35487D01*
X18513Y-35430D01*
X18497Y-35372D01*
X18483Y-35313D01*
X18472Y-35254D01*
X18466Y-35211D01*
X18458Y-35146D01*
X18454Y-35079D01*
X18454Y-35012D01*
X18457Y-34945D01*
X18463Y-34879D01*
X18465Y-34863D01*
X18473Y-34810D01*
X18483Y-34756D01*
X18496Y-34701D01*
X18510Y-34648D01*
X18526Y-34595D01*
X18544Y-34543D01*
X18563Y-34494D01*
X18584Y-34447D01*
X18596Y-34421D01*
X18607Y-34399D01*
X18607Y-34562D01*
X18599Y-34583D01*
X18577Y-34651D01*
X18558Y-34720D01*
X18543Y-34790D01*
X18531Y-34860D01*
X18529Y-34876D01*
X18522Y-34935D01*
X18519Y-34995D01*
X18519Y-35056D01*
X18521Y-35115D01*
X18525Y-35158D01*
X18533Y-35225D01*
X18545Y-35291D01*
X18561Y-35357D01*
X18579Y-35423D01*
X18600Y-35487D01*
X18624Y-35549D01*
X18631Y-35565D01*
X18635Y-35576D01*
X18641Y-35588D01*
X18648Y-35603D01*
X18655Y-35617D01*
X18662Y-35632D01*
X18669Y-35645D01*
X18675Y-35656D01*
X18680Y-35665D01*
X18684Y-35673D01*
X18706Y-35675D01*
X18744Y-35679D01*
X18778Y-35683D01*
X18809Y-35688D01*
X18837Y-35694D01*
X18861Y-35699D01*
X18883Y-35706D01*
X18903Y-35713D01*
X18920Y-35721D01*
X18935Y-35729D01*
X18943Y-35735D01*
X18957Y-35747D01*
X18967Y-35761D01*
X18974Y-35776D01*
X18978Y-35792D01*
X18978Y-35809D01*
X18974Y-35826D01*
X18967Y-35844D01*
X18960Y-35858D01*
X18947Y-35875D01*
X18933Y-35890D01*
X18918Y-35902D01*
X18912Y-35905D01*
X18912Y-35799D01*
X18912Y-35796D01*
X18909Y-35793D01*
X18906Y-35790D01*
X18896Y-35783D01*
X18883Y-35776D01*
X18867Y-35770D01*
X18848Y-35764D01*
X18827Y-35758D01*
X18803Y-35753D01*
X18778Y-35749D01*
X18760Y-35746D01*
X18750Y-35745D01*
X18742Y-35744D01*
X18736Y-35743D01*
X18732Y-35743D01*
X18732Y-35743D01*
X18728Y-35742D01*
X18732Y-35748D01*
X18741Y-35761D01*
X18752Y-35774D01*
X18764Y-35787D01*
X18776Y-35800D01*
X18787Y-35812D01*
X18798Y-35821D01*
X18803Y-35826D01*
X18820Y-35838D01*
X18835Y-35846D01*
X18849Y-35851D01*
X18862Y-35853D01*
X18873Y-35851D01*
X18876Y-35850D01*
X18884Y-35846D01*
X18892Y-35838D01*
X18900Y-35830D01*
X18906Y-35820D01*
X18910Y-35811D01*
X18912Y-35804D01*
X18912Y-35799D01*
X18912Y-35905D01*
X18901Y-35911D01*
X18896Y-35912D01*
X18891Y-35914D01*
X18886Y-35915D01*
X18881Y-35916D01*
X18874Y-35916D01*
X18864Y-35916D01*
X18858Y-35916D01*
X18847Y-35915D01*
X18839Y-35915D01*
X18833Y-35914D01*
X18828Y-35913D01*
X18823Y-35912D01*
X18817Y-35909D01*
X18814Y-35908D01*
X18792Y-35897D01*
X18770Y-35883D01*
X18747Y-35864D01*
X18725Y-35843D01*
X18703Y-35818D01*
X18681Y-35789D01*
X18659Y-35758D01*
X18658Y-35756D01*
X18653Y-35748D01*
X18649Y-35742D01*
X18646Y-35739D01*
X18643Y-35737D01*
X18641Y-35736D01*
X18638Y-35735D01*
X18631Y-35735D01*
X18620Y-35734D01*
X18606Y-35733D01*
X18589Y-35733D01*
X18569Y-35732D01*
X18547Y-35732D01*
X18521Y-35731D01*
X18494Y-35731D01*
X18464Y-35730D01*
X18433Y-35730D01*
X18399Y-35730D01*
X18388Y-35729D01*
X18369Y-35729D01*
X18351Y-35729D01*
X18333Y-35729D01*
X18315Y-35729D01*
X18297Y-35729D01*
X18278Y-35729D01*
X18258Y-35729D01*
X18238Y-35729D01*
X18216Y-35730D01*
X18194Y-35730D01*
X18170Y-35730D01*
X18145Y-35730D01*
X18118Y-35731D01*
X18089Y-35731D01*
X18058Y-35732D01*
X18025Y-35732D01*
X17989Y-35733D01*
X17951Y-35733D01*
X17911Y-35734D01*
X17867Y-35735D01*
X17821Y-35736D01*
X17771Y-35737D01*
X17718Y-35737D01*
X17665Y-35738D01*
X17604Y-35740D01*
X17540Y-35740D01*
X17473Y-35741D01*
X17404Y-35742D01*
X17333Y-35742D01*
X17260Y-35743D01*
X17187Y-35743D01*
X17114Y-35743D01*
X17040Y-35743D01*
X16968Y-35742D01*
X16896Y-35742D01*
X16825Y-35742D01*
X16757Y-35741D01*
X16691Y-35740D01*
X16628Y-35739D01*
X16590Y-35738D01*
X16534Y-35737D01*
X16481Y-35736D01*
X16431Y-35736D01*
X16385Y-35735D01*
X16341Y-35734D01*
X16301Y-35733D01*
X16263Y-35733D01*
X16227Y-35732D01*
X16194Y-35732D01*
X16164Y-35731D01*
X16135Y-35731D01*
X16108Y-35730D01*
X16082Y-35730D01*
X16058Y-35730D01*
X16036Y-35730D01*
X16014Y-35729D01*
X15994Y-35729D01*
X15974Y-35729D01*
X15955Y-35729D01*
X15937Y-35729D01*
X15918Y-35729D01*
X15900Y-35729D01*
X15882Y-35729D01*
X15868Y-35729D01*
X15837Y-35730D01*
X15807Y-35730D01*
X15778Y-35730D01*
X15751Y-35731D01*
X15725Y-35731D01*
X15702Y-35732D01*
X15681Y-35732D01*
X15662Y-35733D01*
X15647Y-35733D01*
X15634Y-35734D01*
X15624Y-35735D01*
X15618Y-35735D01*
X15617Y-35735D01*
X15614Y-35736D01*
X15611Y-35739D01*
X15608Y-35743D01*
X15604Y-35749D01*
X15602Y-35752D01*
X15591Y-35769D01*
X15578Y-35786D01*
X15565Y-35804D01*
X15551Y-35821D01*
X15537Y-35837D01*
X15529Y-35846D01*
X15529Y-35743D01*
X15527Y-35743D01*
X15522Y-35743D01*
X15515Y-35744D01*
X15506Y-35745D01*
X15500Y-35746D01*
X15483Y-35748D01*
X15465Y-35751D01*
X15447Y-35754D01*
X15430Y-35758D01*
X15415Y-35761D01*
X15402Y-35765D01*
X15400Y-35765D01*
X15388Y-35769D01*
X15377Y-35774D01*
X15366Y-35779D01*
X15356Y-35784D01*
X15350Y-35789D01*
X15348Y-35791D01*
X15344Y-35795D01*
X15343Y-35799D01*
X15343Y-35804D01*
X15343Y-35804D01*
X15345Y-35812D01*
X15350Y-35822D01*
X15356Y-35831D01*
X15364Y-35840D01*
X15372Y-35847D01*
X15378Y-35850D01*
X15385Y-35852D01*
X15395Y-35853D01*
X15405Y-35851D01*
X15415Y-35849D01*
X15421Y-35847D01*
X15437Y-35838D01*
X15455Y-35825D01*
X15472Y-35810D01*
X15491Y-35791D01*
X15510Y-35768D01*
X15517Y-35760D01*
X15522Y-35753D01*
X15526Y-35748D01*
X15528Y-35744D01*
X15529Y-35743D01*
X15529Y-35846D01*
X15524Y-35851D01*
X15512Y-35863D01*
X15511Y-35864D01*
X15492Y-35879D01*
X15473Y-35893D01*
X15454Y-35904D01*
X15435Y-35911D01*
X15434Y-35912D01*
X15428Y-35914D01*
X15423Y-35915D01*
X15417Y-35915D01*
X15409Y-35916D01*
X15398Y-35916D01*
X15394Y-35916D01*
X15383Y-35916D01*
X15374Y-35916D01*
X15368Y-35915D01*
X15363Y-35914D01*
X15359Y-35913D01*
X15355Y-35911D01*
X15338Y-35903D01*
X15323Y-35891D01*
X15309Y-35877D01*
X15299Y-35863D01*
X15288Y-35845D01*
X15281Y-35828D01*
X15277Y-35811D01*
X15277Y-35795D01*
X15277Y-35790D01*
X15281Y-35776D01*
X15287Y-35763D01*
X15295Y-35750D01*
X15307Y-35739D01*
X15321Y-35729D01*
X15338Y-35719D01*
X15359Y-35711D01*
X15382Y-35703D01*
X15408Y-35696D01*
X15438Y-35690D01*
X15472Y-35684D01*
X15508Y-35679D01*
X15548Y-35675D01*
X15559Y-35674D01*
X15574Y-35673D01*
X15587Y-35647D01*
X15614Y-35593D01*
X15638Y-35536D01*
X15660Y-35477D01*
X15680Y-35416D01*
X15697Y-35353D01*
X15711Y-35288D01*
X15723Y-35223D01*
X15731Y-35156D01*
X15732Y-35155D01*
X15733Y-35139D01*
X15734Y-35121D01*
X15735Y-35100D01*
X15736Y-35078D01*
X15736Y-35054D01*
X15736Y-35030D01*
X15736Y-35007D01*
X15736Y-34984D01*
X15735Y-34962D01*
X15734Y-34943D01*
X15733Y-34927D01*
X15732Y-34921D01*
X15723Y-34848D01*
X15711Y-34777D01*
X15695Y-34708D01*
X15676Y-34640D01*
X15654Y-34574D01*
X15629Y-34509D01*
X15609Y-34464D01*
X15606Y-34457D01*
X15601Y-34449D01*
X15597Y-34439D01*
X15592Y-34429D01*
X15587Y-34420D01*
X15582Y-34411D01*
X15578Y-34403D01*
X15575Y-34398D01*
X15573Y-34395D01*
X15573Y-34394D01*
X15571Y-34394D01*
X15566Y-34394D01*
X15559Y-34393D01*
X15550Y-34392D01*
X15540Y-34391D01*
X15528Y-34390D01*
X15528Y-34325D01*
X15528Y-34324D01*
X15526Y-34320D01*
X15524Y-34317D01*
X15506Y-34295D01*
X15489Y-34274D01*
X15471Y-34256D01*
X15454Y-34241D01*
X15438Y-34230D01*
X15431Y-34225D01*
X15418Y-34219D01*
X15405Y-34215D01*
X15393Y-34214D01*
X15383Y-34215D01*
X15378Y-34217D01*
X15369Y-34222D01*
X15361Y-34230D01*
X15354Y-34239D01*
X15348Y-34249D01*
X15344Y-34258D01*
X15343Y-34263D01*
X15343Y-34268D01*
X15344Y-34272D01*
X15347Y-34276D01*
X15357Y-34283D01*
X15369Y-34290D01*
X15385Y-34297D01*
X15405Y-34303D01*
X15427Y-34309D01*
X15452Y-34314D01*
X15480Y-34319D01*
X15506Y-34322D01*
X15515Y-34323D01*
X15522Y-34324D01*
X15526Y-34325D01*
X15528Y-34325D01*
X15528Y-34390D01*
X15501Y-34387D01*
X15465Y-34382D01*
X15432Y-34376D01*
X15402Y-34370D01*
X15376Y-34363D01*
X15354Y-34355D01*
X15334Y-34346D01*
X15317Y-34336D01*
X15304Y-34325D01*
X15293Y-34314D01*
X15285Y-34301D01*
X15279Y-34287D01*
X15278Y-34278D01*
X15277Y-34263D01*
X15279Y-34247D01*
X15284Y-34230D01*
X15292Y-34214D01*
X15302Y-34199D01*
X15314Y-34184D01*
X15327Y-34172D01*
X15342Y-34162D01*
X15348Y-34159D01*
X15362Y-34152D01*
X15391Y-34151D01*
X15403Y-34151D01*
X15412Y-34151D01*
X15418Y-34152D01*
X15424Y-34152D01*
X15428Y-34153D01*
X15433Y-34155D01*
X15454Y-34164D01*
X15476Y-34176D01*
X15497Y-34192D01*
X15519Y-34212D01*
X15541Y-34235D01*
X15564Y-34261D01*
X15584Y-34289D01*
X15590Y-34298D01*
X15596Y-34307D01*
X15601Y-34314D01*
X15605Y-34320D01*
X15605Y-34320D01*
X15609Y-34326D01*
X15613Y-34330D01*
X15616Y-34331D01*
X15617Y-34332D01*
X15623Y-34332D01*
X15632Y-34333D01*
X15644Y-34333D01*
X15659Y-34334D01*
X15677Y-34335D01*
X15697Y-34335D01*
X15720Y-34336D01*
X15744Y-34336D01*
X15770Y-34336D01*
X15798Y-34337D01*
X15827Y-34337D01*
X15857Y-34337D01*
X15865Y-34338D01*
X15883Y-34338D01*
X15902Y-34338D01*
X15921Y-34338D01*
X15940Y-34338D01*
X15960Y-34338D01*
X15980Y-34338D01*
X16002Y-34338D01*
X16024Y-34337D01*
X16048Y-34337D01*
X16073Y-34337D01*
X16099Y-34337D01*
X16128Y-34336D01*
X16158Y-34336D01*
X16191Y-34335D01*
X16225Y-34335D01*
X16262Y-34334D01*
X16302Y-34334D01*
X16344Y-34333D01*
X16389Y-34332D01*
X16438Y-34331D01*
X16489Y-34330D01*
X16544Y-34329D01*
X16582Y-34328D01*
X16638Y-34328D01*
X16698Y-34327D01*
X16760Y-34326D01*
X16824Y-34325D01*
X16891Y-34325D01*
X16959Y-34325D01*
X17028Y-34324D01*
X17097Y-34324D01*
X17167Y-34324D01*
X17236Y-34324D01*
X17305Y-34325D01*
X17373Y-34325D01*
X17439Y-34325D01*
X17503Y-34326D01*
X17565Y-34327D01*
X17624Y-34328D01*
X17673Y-34328D01*
X17730Y-34330D01*
X17784Y-34331D01*
X17835Y-34331D01*
X17882Y-34332D01*
X17927Y-34333D01*
X17968Y-34334D01*
X18007Y-34334D01*
X18043Y-34335D01*
X18077Y-34336D01*
X18109Y-34336D01*
X18139Y-34336D01*
X18167Y-34337D01*
X18193Y-34337D01*
X18218Y-34337D01*
X18241Y-34337D01*
X18263Y-34338D01*
X18285Y-34338D01*
X18305Y-34338D01*
X18325Y-34338D01*
X18344Y-34338D01*
X18363Y-34338D01*
X18382Y-34338D01*
X18390Y-34338D01*
X18422Y-34337D01*
X18453Y-34337D01*
X18482Y-34337D01*
X18510Y-34336D01*
X18535Y-34336D01*
X18559Y-34335D01*
X18580Y-34334D01*
X18598Y-34334D01*
X18613Y-34333D01*
X18625Y-34333D01*
X18634Y-34332D01*
X18638Y-34332D01*
X18642Y-34331D01*
X18645Y-34329D01*
X18647Y-34327D01*
X18651Y-34322D01*
X18654Y-34316D01*
X18676Y-34284D01*
X18699Y-34255D01*
X18722Y-34228D01*
X18731Y-34219D01*
X18752Y-34199D01*
X18772Y-34183D01*
X18791Y-34170D01*
X18811Y-34160D01*
X18818Y-34157D01*
X18823Y-34155D01*
X18828Y-34154D01*
X18833Y-34153D01*
X18839Y-34152D01*
X18846Y-34152D01*
X18856Y-34152D01*
X18863Y-34152D01*
X18893Y-34152D01*
X18908Y-34159D01*
X18923Y-34168D01*
X18937Y-34180D01*
X18949Y-34194D01*
X18960Y-34209D01*
X18968Y-34225D01*
X18974Y-34242D01*
X18978Y-34258D01*
X18978Y-34274D01*
X18978Y-34274D01*
G36*
X16768Y-35158D02*
X16768Y-35176D01*
X16767Y-35194D01*
X16765Y-35210D01*
X16763Y-35223D01*
X16754Y-35255D01*
X16742Y-35285D01*
X16727Y-35313D01*
X16709Y-35339D01*
X16690Y-35361D01*
X16668Y-35381D01*
X16645Y-35397D01*
X16645Y-35184D01*
X16645Y-35168D01*
X16645Y-35153D01*
X16644Y-35139D01*
X16643Y-35128D01*
X16642Y-35121D01*
X16638Y-35107D01*
X16633Y-35092D01*
X16627Y-35078D01*
X16622Y-35066D01*
X16620Y-35063D01*
X16612Y-35052D01*
X16602Y-35041D01*
X16591Y-35032D01*
X16582Y-35024D01*
X16564Y-35016D01*
X16545Y-35011D01*
X16525Y-35008D01*
X16505Y-35009D01*
X16484Y-35012D01*
X16464Y-35018D01*
X16453Y-35024D01*
X16444Y-35029D01*
X16435Y-35037D01*
X16425Y-35046D01*
X16416Y-35055D01*
X16408Y-35065D01*
X16403Y-35073D01*
X16393Y-35094D01*
X16385Y-35116D01*
X16380Y-35140D01*
X16377Y-35167D01*
X16376Y-35177D01*
X16376Y-35206D01*
X16380Y-35234D01*
X16386Y-35260D01*
X16395Y-35286D01*
X16400Y-35296D01*
X16408Y-35313D01*
X16417Y-35326D01*
X16426Y-35338D01*
X16436Y-35349D01*
X16438Y-35351D01*
X16453Y-35363D01*
X16470Y-35372D01*
X16488Y-35379D01*
X16507Y-35382D01*
X16525Y-35382D01*
X16540Y-35380D01*
X16559Y-35373D01*
X16576Y-35363D01*
X16592Y-35350D01*
X16606Y-35334D01*
X16617Y-35314D01*
X16627Y-35291D01*
X16636Y-35266D01*
X16642Y-35239D01*
X16643Y-35228D01*
X16644Y-35215D01*
X16645Y-35200D01*
X16645Y-35184D01*
X16645Y-35397D01*
X16644Y-35397D01*
X16619Y-35411D01*
X16592Y-35421D01*
X16577Y-35425D01*
X16569Y-35426D01*
X16559Y-35428D01*
X16548Y-35429D01*
X16537Y-35431D01*
X16527Y-35432D01*
X16518Y-35432D01*
X16512Y-35432D01*
X16512Y-35432D01*
X16508Y-35432D01*
X16502Y-35432D01*
X16495Y-35431D01*
X16490Y-35431D01*
X16461Y-35426D01*
X16433Y-35419D01*
X16406Y-35408D01*
X16381Y-35394D01*
X16357Y-35377D01*
X16336Y-35356D01*
X16316Y-35333D01*
X16299Y-35307D01*
X16288Y-35286D01*
X16274Y-35256D01*
X16264Y-35225D01*
X16255Y-35192D01*
X16249Y-35157D01*
X16245Y-35121D01*
X16244Y-35081D01*
X16244Y-35072D01*
X16246Y-35025D01*
X16251Y-34979D01*
X16259Y-34934D01*
X16271Y-34891D01*
X16286Y-34850D01*
X16304Y-34810D01*
X16325Y-34772D01*
X16332Y-34760D01*
X16342Y-34747D01*
X16354Y-34733D01*
X16367Y-34718D01*
X16381Y-34705D01*
X16395Y-34693D01*
X16406Y-34685D01*
X16434Y-34668D01*
X16464Y-34655D01*
X16494Y-34645D01*
X16525Y-34639D01*
X16558Y-34636D01*
X16587Y-34636D01*
X16613Y-34639D01*
X16637Y-34645D01*
X16660Y-34653D01*
X16680Y-34663D01*
X16698Y-34674D01*
X16714Y-34688D01*
X16727Y-34703D01*
X16737Y-34720D01*
X16743Y-34732D01*
X16747Y-34751D01*
X16749Y-34769D01*
X16747Y-34787D01*
X16742Y-34803D01*
X16735Y-34818D01*
X16734Y-34818D01*
X16724Y-34830D01*
X16713Y-34839D01*
X16700Y-34845D01*
X16686Y-34848D01*
X16672Y-34849D01*
X16658Y-34847D01*
X16645Y-34843D01*
X16633Y-34836D01*
X16623Y-34827D01*
X16615Y-34815D01*
X16613Y-34812D01*
X16609Y-34799D01*
X16607Y-34785D01*
X16608Y-34771D01*
X16609Y-34766D01*
X16611Y-34761D01*
X16613Y-34754D01*
X16617Y-34745D01*
X16620Y-34737D01*
X16624Y-34728D01*
X16627Y-34722D01*
X16628Y-34717D01*
X16628Y-34714D01*
X16628Y-34711D01*
X16628Y-34709D01*
X16623Y-34702D01*
X16616Y-34695D01*
X16606Y-34691D01*
X16593Y-34687D01*
X16580Y-34685D01*
X16564Y-34685D01*
X16548Y-34686D01*
X16532Y-34689D01*
X16520Y-34693D01*
X16499Y-34702D01*
X16479Y-34714D01*
X16461Y-34730D01*
X16444Y-34748D01*
X16429Y-34770D01*
X16417Y-34790D01*
X16407Y-34812D01*
X16399Y-34833D01*
X16392Y-34856D01*
X16386Y-34880D01*
X16381Y-34906D01*
X16378Y-34926D01*
X16378Y-34933D01*
X16377Y-34942D01*
X16376Y-34952D01*
X16374Y-34964D01*
X16373Y-34977D01*
X16372Y-34990D01*
X16371Y-35002D01*
X16370Y-35013D01*
X16369Y-35022D01*
X16368Y-35029D01*
X16368Y-35033D01*
X16368Y-35033D01*
X16369Y-35033D01*
X16372Y-35030D01*
X16373Y-35029D01*
X16393Y-35006D01*
X16413Y-34987D01*
X16433Y-34972D01*
X16454Y-34959D01*
X16469Y-34953D01*
X16492Y-34945D01*
X16517Y-34941D01*
X16543Y-34939D01*
X16569Y-34939D01*
X16595Y-34943D01*
X16611Y-34947D01*
X16638Y-34956D01*
X16662Y-34969D01*
X16685Y-34984D01*
X16705Y-35002D01*
X16723Y-35023D01*
X16738Y-35046D01*
X16750Y-35071D01*
X16759Y-35098D01*
X16766Y-35127D01*
X16766Y-35128D01*
X16767Y-35142D01*
X16768Y-35158D01*
X16768Y-35158D01*
X16768Y-35158D01*
G37*
X16768Y-35158D02*
X16768Y-35176D01*
X16767Y-35194D01*
X16765Y-35210D01*
X16763Y-35223D01*
X16754Y-35255D01*
X16742Y-35285D01*
X16727Y-35313D01*
X16709Y-35339D01*
X16690Y-35361D01*
X16668Y-35381D01*
X16645Y-35397D01*
X16645Y-35184D01*
X16645Y-35168D01*
X16645Y-35153D01*
X16644Y-35139D01*
X16643Y-35128D01*
X16642Y-35121D01*
X16638Y-35107D01*
X16633Y-35092D01*
X16627Y-35078D01*
X16622Y-35066D01*
X16620Y-35063D01*
X16612Y-35052D01*
X16602Y-35041D01*
X16591Y-35032D01*
X16582Y-35024D01*
X16564Y-35016D01*
X16545Y-35011D01*
X16525Y-35008D01*
X16505Y-35009D01*
X16484Y-35012D01*
X16464Y-35018D01*
X16453Y-35024D01*
X16444Y-35029D01*
X16435Y-35037D01*
X16425Y-35046D01*
X16416Y-35055D01*
X16408Y-35065D01*
X16403Y-35073D01*
X16393Y-35094D01*
X16385Y-35116D01*
X16380Y-35140D01*
X16377Y-35167D01*
X16376Y-35177D01*
X16376Y-35206D01*
X16380Y-35234D01*
X16386Y-35260D01*
X16395Y-35286D01*
X16400Y-35296D01*
X16408Y-35313D01*
X16417Y-35326D01*
X16426Y-35338D01*
X16436Y-35349D01*
X16438Y-35351D01*
X16453Y-35363D01*
X16470Y-35372D01*
X16488Y-35379D01*
X16507Y-35382D01*
X16525Y-35382D01*
X16540Y-35380D01*
X16559Y-35373D01*
X16576Y-35363D01*
X16592Y-35350D01*
X16606Y-35334D01*
X16617Y-35314D01*
X16627Y-35291D01*
X16636Y-35266D01*
X16642Y-35239D01*
X16643Y-35228D01*
X16644Y-35215D01*
X16645Y-35200D01*
X16645Y-35184D01*
X16645Y-35397D01*
X16644Y-35397D01*
X16619Y-35411D01*
X16592Y-35421D01*
X16577Y-35425D01*
X16569Y-35426D01*
X16559Y-35428D01*
X16548Y-35429D01*
X16537Y-35431D01*
X16527Y-35432D01*
X16518Y-35432D01*
X16512Y-35432D01*
X16512Y-35432D01*
X16508Y-35432D01*
X16502Y-35432D01*
X16495Y-35431D01*
X16490Y-35431D01*
X16461Y-35426D01*
X16433Y-35419D01*
X16406Y-35408D01*
X16381Y-35394D01*
X16357Y-35377D01*
X16336Y-35356D01*
X16316Y-35333D01*
X16299Y-35307D01*
X16288Y-35286D01*
X16274Y-35256D01*
X16264Y-35225D01*
X16255Y-35192D01*
X16249Y-35157D01*
X16245Y-35121D01*
X16244Y-35081D01*
X16244Y-35072D01*
X16246Y-35025D01*
X16251Y-34979D01*
X16259Y-34934D01*
X16271Y-34891D01*
X16286Y-34850D01*
X16304Y-34810D01*
X16325Y-34772D01*
X16332Y-34760D01*
X16342Y-34747D01*
X16354Y-34733D01*
X16367Y-34718D01*
X16381Y-34705D01*
X16395Y-34693D01*
X16406Y-34685D01*
X16434Y-34668D01*
X16464Y-34655D01*
X16494Y-34645D01*
X16525Y-34639D01*
X16558Y-34636D01*
X16587Y-34636D01*
X16613Y-34639D01*
X16637Y-34645D01*
X16660Y-34653D01*
X16680Y-34663D01*
X16698Y-34674D01*
X16714Y-34688D01*
X16727Y-34703D01*
X16737Y-34720D01*
X16743Y-34732D01*
X16747Y-34751D01*
X16749Y-34769D01*
X16747Y-34787D01*
X16742Y-34803D01*
X16735Y-34818D01*
X16734Y-34818D01*
X16724Y-34830D01*
X16713Y-34839D01*
X16700Y-34845D01*
X16686Y-34848D01*
X16672Y-34849D01*
X16658Y-34847D01*
X16645Y-34843D01*
X16633Y-34836D01*
X16623Y-34827D01*
X16615Y-34815D01*
X16613Y-34812D01*
X16609Y-34799D01*
X16607Y-34785D01*
X16608Y-34771D01*
X16609Y-34766D01*
X16611Y-34761D01*
X16613Y-34754D01*
X16617Y-34745D01*
X16620Y-34737D01*
X16624Y-34728D01*
X16627Y-34722D01*
X16628Y-34717D01*
X16628Y-34714D01*
X16628Y-34711D01*
X16628Y-34709D01*
X16623Y-34702D01*
X16616Y-34695D01*
X16606Y-34691D01*
X16593Y-34687D01*
X16580Y-34685D01*
X16564Y-34685D01*
X16548Y-34686D01*
X16532Y-34689D01*
X16520Y-34693D01*
X16499Y-34702D01*
X16479Y-34714D01*
X16461Y-34730D01*
X16444Y-34748D01*
X16429Y-34770D01*
X16417Y-34790D01*
X16407Y-34812D01*
X16399Y-34833D01*
X16392Y-34856D01*
X16386Y-34880D01*
X16381Y-34906D01*
X16378Y-34926D01*
X16378Y-34933D01*
X16377Y-34942D01*
X16376Y-34952D01*
X16374Y-34964D01*
X16373Y-34977D01*
X16372Y-34990D01*
X16371Y-35002D01*
X16370Y-35013D01*
X16369Y-35022D01*
X16368Y-35029D01*
X16368Y-35033D01*
X16368Y-35033D01*
X16369Y-35033D01*
X16372Y-35030D01*
X16373Y-35029D01*
X16393Y-35006D01*
X16413Y-34987D01*
X16433Y-34972D01*
X16454Y-34959D01*
X16469Y-34953D01*
X16492Y-34945D01*
X16517Y-34941D01*
X16543Y-34939D01*
X16569Y-34939D01*
X16595Y-34943D01*
X16611Y-34947D01*
X16638Y-34956D01*
X16662Y-34969D01*
X16685Y-34984D01*
X16705Y-35002D01*
X16723Y-35023D01*
X16738Y-35046D01*
X16750Y-35071D01*
X16759Y-35098D01*
X16766Y-35127D01*
X16766Y-35128D01*
X16767Y-35142D01*
X16768Y-35158D01*
X16768Y-35158D01*
G36*
X17376Y-34656D02*
X17376Y-34664D01*
X17375Y-34670D01*
X17374Y-34675D01*
X17372Y-34681D01*
X17369Y-34689D01*
X17367Y-34692D01*
X17364Y-34699D01*
X17360Y-34709D01*
X17354Y-34721D01*
X17348Y-34734D01*
X17342Y-34746D01*
X17340Y-34752D01*
X17324Y-34784D01*
X17309Y-34817D01*
X17294Y-34850D01*
X17280Y-34883D01*
X17266Y-34915D01*
X17253Y-34947D01*
X17241Y-34976D01*
X17230Y-35005D01*
X17221Y-35030D01*
X17213Y-35054D01*
X17207Y-35075D01*
X17206Y-35076D01*
X17201Y-35094D01*
X17197Y-35111D01*
X17193Y-35128D01*
X17190Y-35144D01*
X17188Y-35161D01*
X17186Y-35179D01*
X17184Y-35198D01*
X17183Y-35219D01*
X17182Y-35243D01*
X17181Y-35270D01*
X17181Y-35277D01*
X17181Y-35296D01*
X17181Y-35313D01*
X17180Y-35326D01*
X17180Y-35337D01*
X17179Y-35345D01*
X17179Y-35352D01*
X17178Y-35358D01*
X17178Y-35363D01*
X17177Y-35367D01*
X17176Y-35372D01*
X17176Y-35372D01*
X17171Y-35389D01*
X17165Y-35402D01*
X17157Y-35413D01*
X17147Y-35421D01*
X17136Y-35426D01*
X17130Y-35428D01*
X17117Y-35430D01*
X17103Y-35430D01*
X17091Y-35429D01*
X17088Y-35428D01*
X17074Y-35423D01*
X17062Y-35414D01*
X17053Y-35402D01*
X17045Y-35388D01*
X17041Y-35374D01*
X17039Y-35367D01*
X17039Y-35356D01*
X17038Y-35344D01*
X17039Y-35332D01*
X17040Y-35320D01*
X17040Y-35314D01*
X17045Y-35290D01*
X17051Y-35263D01*
X17059Y-35234D01*
X17070Y-35202D01*
X17077Y-35183D01*
X17082Y-35170D01*
X17086Y-35157D01*
X17091Y-35145D01*
X17096Y-35133D01*
X17101Y-35121D01*
X17107Y-35108D01*
X17113Y-35095D01*
X17119Y-35080D01*
X17126Y-35065D01*
X17135Y-35048D01*
X17144Y-35029D01*
X17154Y-35008D01*
X17166Y-34984D01*
X17178Y-34959D01*
X17193Y-34930D01*
X17201Y-34913D01*
X17211Y-34893D01*
X17221Y-34873D01*
X17231Y-34854D01*
X17240Y-34836D01*
X17248Y-34819D01*
X17255Y-34805D01*
X17261Y-34792D01*
X17266Y-34782D01*
X17270Y-34774D01*
X17272Y-34771D01*
X17282Y-34748D01*
X17213Y-34748D01*
X17194Y-34748D01*
X17173Y-34747D01*
X17151Y-34747D01*
X17129Y-34746D01*
X17109Y-34746D01*
X17091Y-34745D01*
X17084Y-34745D01*
X17069Y-34744D01*
X17054Y-34743D01*
X17040Y-34743D01*
X17027Y-34742D01*
X17017Y-34742D01*
X17010Y-34742D01*
X17008Y-34742D01*
X16999Y-34742D01*
X16992Y-34743D01*
X16986Y-34744D01*
X16980Y-34746D01*
X16975Y-34750D01*
X16971Y-34755D01*
X16967Y-34762D01*
X16963Y-34771D01*
X16959Y-34782D01*
X16955Y-34796D01*
X16951Y-34812D01*
X16946Y-34832D01*
X16942Y-34852D01*
X16938Y-34866D01*
X16935Y-34879D01*
X16932Y-34890D01*
X16930Y-34900D01*
X16928Y-34907D01*
X16927Y-34911D01*
X16927Y-34911D01*
X16925Y-34911D01*
X16920Y-34911D01*
X16913Y-34910D01*
X16905Y-34909D01*
X16897Y-34908D01*
X16889Y-34906D01*
X16883Y-34905D01*
X16879Y-34904D01*
X16878Y-34904D01*
X16878Y-34902D01*
X16879Y-34897D01*
X16880Y-34889D01*
X16881Y-34878D01*
X16882Y-34865D01*
X16884Y-34850D01*
X16886Y-34834D01*
X16889Y-34816D01*
X16891Y-34797D01*
X16893Y-34778D01*
X16896Y-34759D01*
X16898Y-34740D01*
X16900Y-34721D01*
X16903Y-34704D01*
X16905Y-34687D01*
X16907Y-34673D01*
X16908Y-34660D01*
X16910Y-34649D01*
X16911Y-34641D01*
X16911Y-34637D01*
X16912Y-34635D01*
X16913Y-34635D01*
X16918Y-34636D01*
X16925Y-34636D01*
X16934Y-34636D01*
X16935Y-34637D01*
X16978Y-34639D01*
X17021Y-34641D01*
X17063Y-34643D01*
X17106Y-34644D01*
X17147Y-34645D01*
X17187Y-34645D01*
X17225Y-34645D01*
X17261Y-34645D01*
X17295Y-34644D01*
X17326Y-34643D01*
X17354Y-34641D01*
X17362Y-34641D01*
X17376Y-34639D01*
X17376Y-34656D01*
X17376Y-34656D01*
X17376Y-34656D01*
G37*
X17376Y-34656D02*
X17376Y-34664D01*
X17375Y-34670D01*
X17374Y-34675D01*
X17372Y-34681D01*
X17369Y-34689D01*
X17367Y-34692D01*
X17364Y-34699D01*
X17360Y-34709D01*
X17354Y-34721D01*
X17348Y-34734D01*
X17342Y-34746D01*
X17340Y-34752D01*
X17324Y-34784D01*
X17309Y-34817D01*
X17294Y-34850D01*
X17280Y-34883D01*
X17266Y-34915D01*
X17253Y-34947D01*
X17241Y-34976D01*
X17230Y-35005D01*
X17221Y-35030D01*
X17213Y-35054D01*
X17207Y-35075D01*
X17206Y-35076D01*
X17201Y-35094D01*
X17197Y-35111D01*
X17193Y-35128D01*
X17190Y-35144D01*
X17188Y-35161D01*
X17186Y-35179D01*
X17184Y-35198D01*
X17183Y-35219D01*
X17182Y-35243D01*
X17181Y-35270D01*
X17181Y-35277D01*
X17181Y-35296D01*
X17181Y-35313D01*
X17180Y-35326D01*
X17180Y-35337D01*
X17179Y-35345D01*
X17179Y-35352D01*
X17178Y-35358D01*
X17178Y-35363D01*
X17177Y-35367D01*
X17176Y-35372D01*
X17176Y-35372D01*
X17171Y-35389D01*
X17165Y-35402D01*
X17157Y-35413D01*
X17147Y-35421D01*
X17136Y-35426D01*
X17130Y-35428D01*
X17117Y-35430D01*
X17103Y-35430D01*
X17091Y-35429D01*
X17088Y-35428D01*
X17074Y-35423D01*
X17062Y-35414D01*
X17053Y-35402D01*
X17045Y-35388D01*
X17041Y-35374D01*
X17039Y-35367D01*
X17039Y-35356D01*
X17038Y-35344D01*
X17039Y-35332D01*
X17040Y-35320D01*
X17040Y-35314D01*
X17045Y-35290D01*
X17051Y-35263D01*
X17059Y-35234D01*
X17070Y-35202D01*
X17077Y-35183D01*
X17082Y-35170D01*
X17086Y-35157D01*
X17091Y-35145D01*
X17096Y-35133D01*
X17101Y-35121D01*
X17107Y-35108D01*
X17113Y-35095D01*
X17119Y-35080D01*
X17126Y-35065D01*
X17135Y-35048D01*
X17144Y-35029D01*
X17154Y-35008D01*
X17166Y-34984D01*
X17178Y-34959D01*
X17193Y-34930D01*
X17201Y-34913D01*
X17211Y-34893D01*
X17221Y-34873D01*
X17231Y-34854D01*
X17240Y-34836D01*
X17248Y-34819D01*
X17255Y-34805D01*
X17261Y-34792D01*
X17266Y-34782D01*
X17270Y-34774D01*
X17272Y-34771D01*
X17282Y-34748D01*
X17213Y-34748D01*
X17194Y-34748D01*
X17173Y-34747D01*
X17151Y-34747D01*
X17129Y-34746D01*
X17109Y-34746D01*
X17091Y-34745D01*
X17084Y-34745D01*
X17069Y-34744D01*
X17054Y-34743D01*
X17040Y-34743D01*
X17027Y-34742D01*
X17017Y-34742D01*
X17010Y-34742D01*
X17008Y-34742D01*
X16999Y-34742D01*
X16992Y-34743D01*
X16986Y-34744D01*
X16980Y-34746D01*
X16975Y-34750D01*
X16971Y-34755D01*
X16967Y-34762D01*
X16963Y-34771D01*
X16959Y-34782D01*
X16955Y-34796D01*
X16951Y-34812D01*
X16946Y-34832D01*
X16942Y-34852D01*
X16938Y-34866D01*
X16935Y-34879D01*
X16932Y-34890D01*
X16930Y-34900D01*
X16928Y-34907D01*
X16927Y-34911D01*
X16927Y-34911D01*
X16925Y-34911D01*
X16920Y-34911D01*
X16913Y-34910D01*
X16905Y-34909D01*
X16897Y-34908D01*
X16889Y-34906D01*
X16883Y-34905D01*
X16879Y-34904D01*
X16878Y-34904D01*
X16878Y-34902D01*
X16879Y-34897D01*
X16880Y-34889D01*
X16881Y-34878D01*
X16882Y-34865D01*
X16884Y-34850D01*
X16886Y-34834D01*
X16889Y-34816D01*
X16891Y-34797D01*
X16893Y-34778D01*
X16896Y-34759D01*
X16898Y-34740D01*
X16900Y-34721D01*
X16903Y-34704D01*
X16905Y-34687D01*
X16907Y-34673D01*
X16908Y-34660D01*
X16910Y-34649D01*
X16911Y-34641D01*
X16911Y-34637D01*
X16912Y-34635D01*
X16913Y-34635D01*
X16918Y-34636D01*
X16925Y-34636D01*
X16934Y-34636D01*
X16935Y-34637D01*
X16978Y-34639D01*
X17021Y-34641D01*
X17063Y-34643D01*
X17106Y-34644D01*
X17147Y-34645D01*
X17187Y-34645D01*
X17225Y-34645D01*
X17261Y-34645D01*
X17295Y-34644D01*
X17326Y-34643D01*
X17354Y-34641D01*
X17362Y-34641D01*
X17376Y-34639D01*
X17376Y-34656D01*
X17376Y-34656D01*
G36*
X18013Y-35221D02*
X17945Y-35221D01*
X17877Y-35221D01*
X17878Y-35276D01*
X17878Y-35292D01*
X17879Y-35306D01*
X17879Y-35318D01*
X17880Y-35328D01*
X17880Y-35334D01*
X17881Y-35336D01*
X17886Y-35345D01*
X17893Y-35352D01*
X17901Y-35356D01*
X17907Y-35357D01*
X17916Y-35358D01*
X17927Y-35360D01*
X17939Y-35361D01*
X17951Y-35362D01*
X17962Y-35362D01*
X17968Y-35362D01*
X17981Y-35362D01*
X17981Y-35389D01*
X17981Y-35416D01*
X17819Y-35416D01*
X17657Y-35416D01*
X17657Y-35389D01*
X17657Y-35362D01*
X17674Y-35362D01*
X17687Y-35362D01*
X17700Y-35361D01*
X17713Y-35360D01*
X17725Y-35359D01*
X17735Y-35358D01*
X17743Y-35356D01*
X17746Y-35356D01*
X17756Y-35351D01*
X17762Y-35344D01*
X17766Y-35335D01*
X17766Y-35335D01*
X17767Y-35331D01*
X17767Y-35325D01*
X17768Y-35315D01*
X17768Y-35304D01*
X17768Y-35291D01*
X17768Y-35277D01*
X17768Y-35275D01*
X17768Y-35221D01*
X17768Y-35158D01*
X17768Y-34994D01*
X17768Y-34965D01*
X17768Y-34940D01*
X17768Y-34918D01*
X17768Y-34899D01*
X17768Y-34883D01*
X17768Y-34870D01*
X17768Y-34859D01*
X17768Y-34850D01*
X17767Y-34843D01*
X17767Y-34838D01*
X17767Y-34835D01*
X17766Y-34833D01*
X17766Y-34832D01*
X17766Y-34833D01*
X17764Y-34834D01*
X17761Y-34839D01*
X17756Y-34846D01*
X17749Y-34855D01*
X17741Y-34867D01*
X17731Y-34880D01*
X17720Y-34895D01*
X17709Y-34911D01*
X17696Y-34928D01*
X17683Y-34946D01*
X17670Y-34964D01*
X17656Y-34983D01*
X17642Y-35003D01*
X17628Y-35022D01*
X17614Y-35040D01*
X17601Y-35058D01*
X17589Y-35076D01*
X17577Y-35092D01*
X17566Y-35107D01*
X17556Y-35120D01*
X17548Y-35132D01*
X17541Y-35142D01*
X17536Y-35149D01*
X17532Y-35154D01*
X17530Y-35156D01*
X17530Y-35156D01*
X17531Y-35157D01*
X17534Y-35157D01*
X17539Y-35158D01*
X17546Y-35158D01*
X17556Y-35158D01*
X17568Y-35158D01*
X17583Y-35158D01*
X17602Y-35158D01*
X17624Y-35158D01*
X17649Y-35158D01*
X17768Y-35158D01*
X17768Y-35221D01*
X17614Y-35221D01*
X17459Y-35221D01*
X17459Y-35189D01*
X17459Y-35158D01*
X17647Y-34896D01*
X17834Y-34635D01*
X17859Y-34635D01*
X17884Y-34634D01*
X17882Y-34652D01*
X17882Y-34663D01*
X17881Y-34677D01*
X17881Y-34694D01*
X17880Y-34714D01*
X17880Y-34737D01*
X17879Y-34762D01*
X17879Y-34790D01*
X17879Y-34820D01*
X17878Y-34851D01*
X17878Y-34884D01*
X17878Y-34918D01*
X17878Y-34954D01*
X17878Y-34990D01*
X17878Y-34993D01*
X17878Y-35158D01*
X17945Y-35158D01*
X18013Y-35158D01*
X18013Y-35190D01*
X18013Y-35221D01*
X18013Y-35221D01*
X18013Y-35221D01*
G37*
X18013Y-35221D02*
X17945Y-35221D01*
X17877Y-35221D01*
X17878Y-35276D01*
X17878Y-35292D01*
X17879Y-35306D01*
X17879Y-35318D01*
X17880Y-35328D01*
X17880Y-35334D01*
X17881Y-35336D01*
X17886Y-35345D01*
X17893Y-35352D01*
X17901Y-35356D01*
X17907Y-35357D01*
X17916Y-35358D01*
X17927Y-35360D01*
X17939Y-35361D01*
X17951Y-35362D01*
X17962Y-35362D01*
X17968Y-35362D01*
X17981Y-35362D01*
X17981Y-35389D01*
X17981Y-35416D01*
X17819Y-35416D01*
X17657Y-35416D01*
X17657Y-35389D01*
X17657Y-35362D01*
X17674Y-35362D01*
X17687Y-35362D01*
X17700Y-35361D01*
X17713Y-35360D01*
X17725Y-35359D01*
X17735Y-35358D01*
X17743Y-35356D01*
X17746Y-35356D01*
X17756Y-35351D01*
X17762Y-35344D01*
X17766Y-35335D01*
X17766Y-35335D01*
X17767Y-35331D01*
X17767Y-35325D01*
X17768Y-35315D01*
X17768Y-35304D01*
X17768Y-35291D01*
X17768Y-35277D01*
X17768Y-35275D01*
X17768Y-35221D01*
X17768Y-35158D01*
X17768Y-34994D01*
X17768Y-34965D01*
X17768Y-34940D01*
X17768Y-34918D01*
X17768Y-34899D01*
X17768Y-34883D01*
X17768Y-34870D01*
X17768Y-34859D01*
X17768Y-34850D01*
X17767Y-34843D01*
X17767Y-34838D01*
X17767Y-34835D01*
X17766Y-34833D01*
X17766Y-34832D01*
X17766Y-34833D01*
X17764Y-34834D01*
X17761Y-34839D01*
X17756Y-34846D01*
X17749Y-34855D01*
X17741Y-34867D01*
X17731Y-34880D01*
X17720Y-34895D01*
X17709Y-34911D01*
X17696Y-34928D01*
X17683Y-34946D01*
X17670Y-34964D01*
X17656Y-34983D01*
X17642Y-35003D01*
X17628Y-35022D01*
X17614Y-35040D01*
X17601Y-35058D01*
X17589Y-35076D01*
X17577Y-35092D01*
X17566Y-35107D01*
X17556Y-35120D01*
X17548Y-35132D01*
X17541Y-35142D01*
X17536Y-35149D01*
X17532Y-35154D01*
X17530Y-35156D01*
X17530Y-35156D01*
X17531Y-35157D01*
X17534Y-35157D01*
X17539Y-35158D01*
X17546Y-35158D01*
X17556Y-35158D01*
X17568Y-35158D01*
X17583Y-35158D01*
X17602Y-35158D01*
X17624Y-35158D01*
X17649Y-35158D01*
X17768Y-35158D01*
X17768Y-35221D01*
X17614Y-35221D01*
X17459Y-35221D01*
X17459Y-35189D01*
X17459Y-35158D01*
X17647Y-34896D01*
X17834Y-34635D01*
X17859Y-34635D01*
X17884Y-34634D01*
X17882Y-34652D01*
X17882Y-34663D01*
X17881Y-34677D01*
X17881Y-34694D01*
X17880Y-34714D01*
X17880Y-34737D01*
X17879Y-34762D01*
X17879Y-34790D01*
X17879Y-34820D01*
X17878Y-34851D01*
X17878Y-34884D01*
X17878Y-34918D01*
X17878Y-34954D01*
X17878Y-34990D01*
X17878Y-34993D01*
X17878Y-35158D01*
X17945Y-35158D01*
X18013Y-35158D01*
X18013Y-35190D01*
X18013Y-35221D01*
X18013Y-35221D01*
G54D12*
X10750Y-40500D03*
X11750Y-40500D03*
X12750Y-40500D03*
X13750Y-40500D03*
G54D13*
X14750Y-40500D03*
G54D12*
X15750Y-40500D03*
X16750Y-40500D03*
X17750Y-40500D03*
X18750Y-30500D03*
G54D13*
X19750Y-30500D03*
G54D12*
X20750Y-30500D03*
X21750Y-30500D03*
X22750Y-30500D03*
X23750Y-30500D03*
G54D13*
X24750Y-30500D03*
G54D12*
X25750Y-30500D03*
G54D14*
X22539Y-29000D03*
X22960Y-29000D03*
X23539Y-29000D03*
X23960Y-29000D03*
X24539Y-29000D03*
X24960Y-29000D03*
X25539Y-29000D03*
X25960Y-29000D03*
G54D12*
X18750Y-33500D03*
G54D13*
X19750Y-33500D03*
G54D12*
X20750Y-33500D03*
X21750Y-33500D03*
X22750Y-33500D03*
X23750Y-33500D03*
G54D13*
X24750Y-33500D03*
G54D12*
X25750Y-33500D03*
X18750Y-29500D03*
G54D13*
X19750Y-29500D03*
G54D12*
X20750Y-29500D03*
X21750Y-29500D03*
X22750Y-29500D03*
X23750Y-29500D03*
G54D13*
X24750Y-29500D03*
G54D12*
X25750Y-29500D03*
X18750Y-31500D03*
G54D13*
X19750Y-31500D03*
G54D12*
X20750Y-31500D03*
X21750Y-31500D03*
X22750Y-31500D03*
X23750Y-31500D03*
G54D13*
X24750Y-31500D03*
G54D12*
X25750Y-31500D03*
X18750Y-32500D03*
G54D13*
X19750Y-32500D03*
G54D12*
X20750Y-32500D03*
X21750Y-32500D03*
X22750Y-32500D03*
X23750Y-32500D03*
G54D13*
X24750Y-32500D03*
G54D12*
X25750Y-32500D03*
X18750Y-36500D03*
G54D13*
X19750Y-36500D03*
G54D12*
X20750Y-36500D03*
X21750Y-36500D03*
X22750Y-36500D03*
X23750Y-36500D03*
G54D13*
X24750Y-36500D03*
G54D12*
X25750Y-36500D03*
X18750Y-40500D03*
G54D13*
X19750Y-40500D03*
G54D12*
X20750Y-40500D03*
X21750Y-40500D03*
X22750Y-40500D03*
X23750Y-40500D03*
G54D13*
X24750Y-40500D03*
G54D12*
X25750Y-40500D03*
X18750Y-39500D03*
G54D13*
X19750Y-39500D03*
G54D12*
X20750Y-39500D03*
X21750Y-39500D03*
X22750Y-39500D03*
X23750Y-39500D03*
G54D13*
X24750Y-39500D03*
G54D12*
X25750Y-39500D03*
X18750Y-38500D03*
G54D13*
X19750Y-38500D03*
G54D12*
X20750Y-38500D03*
X21750Y-38500D03*
X22750Y-38500D03*
X23750Y-38500D03*
G54D13*
X24750Y-38500D03*
G54D12*
X25750Y-38500D03*
X18750Y-37500D03*
G54D13*
X19750Y-37500D03*
G54D12*
X20750Y-37500D03*
X21750Y-37500D03*
X22750Y-37500D03*
X23750Y-37500D03*
G54D13*
X24750Y-37500D03*
G54D12*
X25750Y-37500D03*
G54D14*
X18539Y-29000D03*
X18960Y-29000D03*
X19539Y-29000D03*
X19960Y-29000D03*
X20539Y-29000D03*
X20960Y-29000D03*
X21539Y-29000D03*
X21960Y-29000D03*
X18539Y-30000D03*
X18960Y-30000D03*
X19539Y-30000D03*
X19960Y-30000D03*
X20539Y-30000D03*
X20960Y-30000D03*
X21539Y-30000D03*
X21960Y-30000D03*
X18539Y-31000D03*
X18960Y-31000D03*
X19539Y-31000D03*
X19960Y-31000D03*
X20539Y-31000D03*
X20960Y-31000D03*
X21539Y-31000D03*
X21960Y-31000D03*
X18539Y-32000D03*
X18960Y-32000D03*
X19539Y-32000D03*
X19960Y-32000D03*
X20539Y-32000D03*
X20960Y-32000D03*
X21539Y-32000D03*
X21960Y-32000D03*
X18539Y-33000D03*
X18960Y-33000D03*
X19539Y-33000D03*
X19960Y-33000D03*
X20539Y-33000D03*
X20960Y-33000D03*
X21539Y-33000D03*
X21960Y-33000D03*
X18539Y-37000D03*
X18960Y-37000D03*
X19539Y-37000D03*
X19960Y-37000D03*
X20539Y-37000D03*
X20960Y-37000D03*
X21539Y-37000D03*
X21960Y-37000D03*
X18539Y-38000D03*
X18960Y-38000D03*
X19539Y-38000D03*
X19960Y-38000D03*
X20539Y-38000D03*
X20960Y-38000D03*
X21539Y-38000D03*
X21960Y-38000D03*
X18539Y-39000D03*
X18960Y-39000D03*
X19539Y-39000D03*
X19960Y-39000D03*
X20539Y-39000D03*
X20960Y-39000D03*
X21539Y-39000D03*
X21960Y-39000D03*
X18539Y-40000D03*
X18960Y-40000D03*
X19539Y-40000D03*
X19960Y-40000D03*
X20539Y-40000D03*
X20960Y-40000D03*
X21539Y-40000D03*
X21960Y-40000D03*
X18539Y-41000D03*
X18960Y-41000D03*
X19539Y-41000D03*
X19960Y-41000D03*
X20539Y-41000D03*
X20960Y-41000D03*
X21539Y-41000D03*
X21960Y-41000D03*
X22539Y-30000D03*
X22960Y-30000D03*
X23539Y-30000D03*
X23960Y-30000D03*
X24539Y-30000D03*
X24960Y-30000D03*
X25539Y-30000D03*
X25960Y-30000D03*
X22539Y-31000D03*
X22960Y-31000D03*
X23539Y-31000D03*
X23960Y-31000D03*
X24539Y-31000D03*
X24960Y-31000D03*
X25539Y-31000D03*
X25960Y-31000D03*
X22539Y-32000D03*
X22960Y-32000D03*
X23539Y-32000D03*
X23960Y-32000D03*
X24539Y-32000D03*
X24960Y-32000D03*
X25539Y-32000D03*
X25960Y-32000D03*
X22539Y-33000D03*
X22960Y-33000D03*
X23539Y-33000D03*
X23960Y-33000D03*
X24539Y-33000D03*
X24960Y-33000D03*
X25539Y-33000D03*
X25960Y-33000D03*
X22539Y-41000D03*
X22960Y-41000D03*
X23539Y-41000D03*
X23960Y-41000D03*
X24539Y-41000D03*
X24960Y-41000D03*
X25539Y-41000D03*
X25960Y-41000D03*
X22539Y-40000D03*
X22960Y-40000D03*
X23539Y-40000D03*
X23960Y-40000D03*
X24539Y-40000D03*
X24960Y-40000D03*
X25539Y-40000D03*
X25960Y-40000D03*
X22539Y-39000D03*
X22960Y-39000D03*
X23539Y-39000D03*
X23960Y-39000D03*
X24539Y-39000D03*
X24960Y-39000D03*
X25539Y-39000D03*
X25960Y-39000D03*
X22539Y-38000D03*
X22960Y-38000D03*
X23539Y-38000D03*
X23960Y-38000D03*
X24539Y-38000D03*
X24960Y-38000D03*
X25539Y-38000D03*
X25960Y-38000D03*
X22539Y-37000D03*
X22960Y-37000D03*
X23539Y-37000D03*
X23960Y-37000D03*
X24539Y-37000D03*
X24960Y-37000D03*
X25539Y-37000D03*
X25960Y-37000D03*
X18539Y-42000D03*
X18960Y-42000D03*
X19539Y-42000D03*
X19960Y-42000D03*
X20539Y-42000D03*
X20960Y-42000D03*
X21539Y-42000D03*
X21960Y-42000D03*
X22539Y-42000D03*
X22960Y-42000D03*
X23539Y-42000D03*
X23960Y-42000D03*
X24539Y-42000D03*
X24960Y-42000D03*
X25539Y-42000D03*
X25960Y-42000D03*
G54D12*
X18750Y-42500D03*
G54D13*
X19750Y-42500D03*
G54D12*
X20750Y-42500D03*
X21750Y-42500D03*
X22750Y-42500D03*
X23750Y-42500D03*
G54D13*
X24750Y-42500D03*
G54D12*
X25750Y-42500D03*
X18750Y-43500D03*
G54D13*
X19750Y-43500D03*
G54D12*
X20750Y-43500D03*
X21750Y-43500D03*
X22750Y-43500D03*
X23750Y-43500D03*
G54D13*
X24750Y-43500D03*
G54D12*
X25750Y-43500D03*
G54D14*
X22539Y-44000D03*
X22960Y-44000D03*
X23539Y-44000D03*
X23960Y-44000D03*
X24539Y-44000D03*
X24960Y-44000D03*
X25539Y-44000D03*
X25960Y-44000D03*
X18539Y-44000D03*
X18960Y-44000D03*
X19539Y-44000D03*
X19960Y-44000D03*
X20539Y-44000D03*
X20960Y-44000D03*
X21539Y-44000D03*
X21960Y-44000D03*
X18539Y-28000D03*
X18960Y-28000D03*
X19539Y-28000D03*
X19960Y-28000D03*
X20539Y-28000D03*
X20960Y-28000D03*
X21539Y-28000D03*
X21960Y-28000D03*
X22539Y-28000D03*
X22960Y-28000D03*
X23539Y-28000D03*
X23960Y-28000D03*
X24539Y-28000D03*
X24960Y-28000D03*
X25539Y-28000D03*
X25960Y-28000D03*
G54D12*
X18750Y-27500D03*
G54D13*
X19750Y-27500D03*
G54D12*
X20750Y-27500D03*
X21750Y-27500D03*
X22750Y-27500D03*
X23750Y-27500D03*
G54D13*
X24750Y-27500D03*
G54D12*
X25750Y-27500D03*
X18750Y-26500D03*
G54D13*
X19750Y-26500D03*
G54D12*
X20750Y-26500D03*
X21750Y-26500D03*
X22750Y-26500D03*
X23750Y-26500D03*
G54D13*
X24750Y-26500D03*
G54D12*
X25750Y-26500D03*
G54D14*
X22539Y-26000D03*
X22960Y-26000D03*
X23539Y-26000D03*
X23960Y-26000D03*
X24539Y-26000D03*
X24960Y-26000D03*
X25539Y-26000D03*
X25960Y-26000D03*
X18539Y-26000D03*
X18960Y-26000D03*
X19539Y-26000D03*
X19960Y-26000D03*
X20539Y-26000D03*
X20960Y-26000D03*
X21539Y-26000D03*
X21960Y-26000D03*
X10539Y-26000D03*
X10960Y-26000D03*
X11539Y-26000D03*
X11960Y-26000D03*
X12539Y-26000D03*
X12960Y-26000D03*
X13539Y-26000D03*
X13960Y-26000D03*
X14539Y-26000D03*
X14960Y-26000D03*
X15539Y-26000D03*
X15960Y-26000D03*
X16539Y-26000D03*
X16960Y-26000D03*
X17539Y-26000D03*
X17960Y-26000D03*
G54D12*
X10750Y-26500D03*
X11750Y-26500D03*
X12750Y-26500D03*
X13750Y-26500D03*
G54D13*
X14750Y-26500D03*
G54D12*
X15750Y-26500D03*
X16750Y-26500D03*
X17750Y-26500D03*
X10750Y-27500D03*
X11750Y-27500D03*
X12750Y-27500D03*
X13750Y-27500D03*
G54D13*
X14750Y-27500D03*
G54D12*
X15750Y-27500D03*
X16750Y-27500D03*
X17750Y-27500D03*
G54D14*
X14539Y-28000D03*
X14960Y-28000D03*
X15539Y-28000D03*
X15960Y-28000D03*
X16539Y-28000D03*
X16960Y-28000D03*
X17539Y-28000D03*
X17960Y-28000D03*
X10539Y-28000D03*
X10960Y-28000D03*
X11539Y-28000D03*
X11960Y-28000D03*
X12539Y-28000D03*
X12960Y-28000D03*
X13539Y-28000D03*
X13960Y-28000D03*
X10539Y-44000D03*
X10960Y-44000D03*
X11539Y-44000D03*
X11960Y-44000D03*
X12539Y-44000D03*
X12960Y-44000D03*
X13539Y-44000D03*
X13960Y-44000D03*
X14539Y-44000D03*
X14960Y-44000D03*
X15539Y-44000D03*
X15960Y-44000D03*
X16539Y-44000D03*
X16960Y-44000D03*
X17539Y-44000D03*
X17960Y-44000D03*
G54D12*
X10750Y-43500D03*
X11750Y-43500D03*
X12750Y-43500D03*
X13750Y-43500D03*
G54D13*
X14750Y-43500D03*
G54D12*
X15750Y-43500D03*
X16750Y-43500D03*
X17750Y-43500D03*
X10750Y-42500D03*
X11750Y-42500D03*
X12750Y-42500D03*
X13750Y-42500D03*
G54D13*
X14750Y-42500D03*
G54D12*
X15750Y-42500D03*
X16750Y-42500D03*
X17750Y-42500D03*
G54D14*
X14539Y-42000D03*
X14960Y-42000D03*
X15539Y-42000D03*
X15960Y-42000D03*
X16539Y-42000D03*
X16960Y-42000D03*
X17539Y-42000D03*
X17960Y-42000D03*
X10539Y-42000D03*
X10960Y-42000D03*
X11539Y-42000D03*
X11960Y-42000D03*
X12539Y-42000D03*
X12960Y-42000D03*
X13539Y-42000D03*
X13960Y-42000D03*
X14539Y-37000D03*
X14960Y-37000D03*
X15539Y-37000D03*
X15960Y-37000D03*
X16539Y-37000D03*
X16960Y-37000D03*
X17539Y-37000D03*
X17960Y-37000D03*
X14539Y-38000D03*
X14960Y-38000D03*
X15539Y-38000D03*
X15960Y-38000D03*
X16539Y-38000D03*
X16960Y-38000D03*
X17539Y-38000D03*
X17960Y-38000D03*
X14539Y-39000D03*
X14960Y-39000D03*
X15539Y-39000D03*
X15960Y-39000D03*
X16539Y-39000D03*
X16960Y-39000D03*
X17539Y-39000D03*
X17960Y-39000D03*
X14539Y-40000D03*
X14960Y-40000D03*
X15539Y-40000D03*
X15960Y-40000D03*
X16539Y-40000D03*
X16960Y-40000D03*
X17539Y-40000D03*
X17960Y-40000D03*
X14539Y-41000D03*
X14960Y-41000D03*
X15539Y-41000D03*
X15960Y-41000D03*
X16539Y-41000D03*
X16960Y-41000D03*
X17539Y-41000D03*
X17960Y-41000D03*
X14539Y-33000D03*
X14960Y-33000D03*
X15539Y-33000D03*
X15960Y-33000D03*
X16539Y-33000D03*
X16960Y-33000D03*
X17539Y-33000D03*
X17960Y-33000D03*
X14539Y-32000D03*
X14960Y-32000D03*
X15539Y-32000D03*
X15960Y-32000D03*
X16539Y-32000D03*
X16960Y-32000D03*
X17539Y-32000D03*
X17960Y-32000D03*
X14539Y-31000D03*
X14960Y-31000D03*
X15539Y-31000D03*
X15960Y-31000D03*
X16539Y-31000D03*
X16960Y-31000D03*
X17539Y-31000D03*
X17960Y-31000D03*
X14539Y-30000D03*
X14960Y-30000D03*
X15539Y-30000D03*
X15960Y-30000D03*
X16539Y-30000D03*
X16960Y-30000D03*
X17539Y-30000D03*
X17960Y-30000D03*
X10539Y-41000D03*
X10960Y-41000D03*
X11539Y-41000D03*
X11960Y-41000D03*
X12539Y-41000D03*
X12960Y-41000D03*
X13539Y-41000D03*
X13960Y-41000D03*
X10539Y-40000D03*
X10960Y-40000D03*
X11539Y-40000D03*
X11960Y-40000D03*
X12539Y-40000D03*
X12960Y-40000D03*
X13539Y-40000D03*
X13960Y-40000D03*
X10539Y-39000D03*
X10960Y-39000D03*
X11539Y-39000D03*
X11960Y-39000D03*
X12539Y-39000D03*
X12960Y-39000D03*
X13539Y-39000D03*
X13960Y-39000D03*
X10539Y-38000D03*
X10960Y-38000D03*
X11539Y-38000D03*
X11960Y-38000D03*
X12539Y-38000D03*
X12960Y-38000D03*
X13539Y-38000D03*
X13960Y-38000D03*
X10539Y-37000D03*
X10960Y-37000D03*
X11539Y-37000D03*
X11960Y-37000D03*
X12539Y-37000D03*
X12960Y-37000D03*
X13539Y-37000D03*
X13960Y-37000D03*
X10539Y-33000D03*
X10960Y-33000D03*
X11539Y-33000D03*
X11960Y-33000D03*
X12539Y-33000D03*
X12960Y-33000D03*
X13539Y-33000D03*
X13960Y-33000D03*
X10539Y-32000D03*
X10960Y-32000D03*
X11539Y-32000D03*
X11960Y-32000D03*
X12539Y-32000D03*
X12960Y-32000D03*
X13539Y-32000D03*
X13960Y-32000D03*
X10539Y-31000D03*
X10960Y-31000D03*
X11539Y-31000D03*
X11960Y-31000D03*
X12539Y-31000D03*
X12960Y-31000D03*
X13539Y-31000D03*
X13960Y-31000D03*
X10539Y-30000D03*
X10960Y-30000D03*
X11539Y-30000D03*
X11960Y-30000D03*
X12539Y-30000D03*
X12960Y-30000D03*
X13539Y-30000D03*
X13960Y-30000D03*
X10539Y-29000D03*
X10960Y-29000D03*
X11539Y-29000D03*
X11960Y-29000D03*
X12539Y-29000D03*
X12960Y-29000D03*
X13539Y-29000D03*
X13960Y-29000D03*
G54D12*
X10750Y-37500D03*
X11750Y-37500D03*
X12750Y-37500D03*
X13750Y-37500D03*
G54D13*
X14750Y-37500D03*
G54D12*
X15750Y-37500D03*
X16750Y-37500D03*
X17750Y-37500D03*
X10750Y-38500D03*
X11750Y-38500D03*
X12750Y-38500D03*
X13750Y-38500D03*
G54D13*
X14750Y-38500D03*
G54D12*
X15750Y-38500D03*
X16750Y-38500D03*
X17750Y-38500D03*
X10750Y-39500D03*
X11750Y-39500D03*
X12750Y-39500D03*
X13750Y-39500D03*
G54D13*
X14750Y-39500D03*
G54D12*
X15750Y-39500D03*
X16750Y-39500D03*
X17750Y-39500D03*
X10750Y-36500D03*
X11750Y-36500D03*
X12750Y-36500D03*
X13750Y-36500D03*
G54D13*
X14750Y-36500D03*
G54D12*
X15750Y-36500D03*
X16750Y-36500D03*
X17750Y-36500D03*
X10750Y-32500D03*
X11750Y-32500D03*
X12750Y-32500D03*
X13750Y-32500D03*
G54D13*
X14750Y-32500D03*
G54D12*
X15750Y-32500D03*
X16750Y-32500D03*
X17750Y-32500D03*
X10750Y-31500D03*
X11750Y-31500D03*
X12750Y-31500D03*
X13750Y-31500D03*
G54D13*
X14750Y-31500D03*
G54D12*
X15750Y-31500D03*
X16750Y-31500D03*
X17750Y-31500D03*
X10750Y-30500D03*
X11750Y-30500D03*
X12750Y-30500D03*
X13750Y-30500D03*
G54D13*
X14750Y-30500D03*
G54D12*
X15750Y-30500D03*
X16750Y-30500D03*
X17750Y-30500D03*
X10750Y-29500D03*
X11750Y-29500D03*
X12750Y-29500D03*
X13750Y-29500D03*
G54D13*
X14750Y-29500D03*
G54D12*
X15750Y-29500D03*
X16750Y-29500D03*
X17750Y-29500D03*
X10750Y-33500D03*
X11750Y-33500D03*
X12750Y-33500D03*
X13750Y-33500D03*
G54D13*
X14750Y-33500D03*
G54D12*
X15750Y-33500D03*
X16750Y-33500D03*
X17750Y-33500D03*
G54D14*
X14539Y-29000D03*
X14960Y-29000D03*
X15539Y-29000D03*
X15960Y-29000D03*
X16539Y-29000D03*
X16960Y-29000D03*
X17539Y-29000D03*
X17960Y-29000D03*
M02*
