%FSLAX34Y34*%
G04 Gerber Fmt 3.4, Leading zero omitted, Abs format*
G04 (created by PCBNEW (2014-06-03 BZR 4917)-product) date Thu 12 Jun 2014 04:24:27 AM CEST*
%MOIN*%
G01*
G70*
G90*
G04 APERTURE LIST*
%ADD10C,0.005906*%
%ADD11C,0.013780*%
%ADD12C,0.007874*%
%ADD13C,0.009843*%
%ADD14C,0.000100*%
%ADD15C,0.125984*%
%ADD16C,0.064961*%
%ADD17C,0.039370*%
G04 APERTURE END LIST*
G54D10*
G54D11*
X26415Y-40226D02*
X26415Y-40648D01*
X26443Y-40732D01*
X26499Y-40789D01*
X26584Y-40817D01*
X26640Y-40817D01*
X26500Y-39817D02*
X26500Y-39226D01*
X26668Y-38817D02*
X26668Y-38226D01*
X26668Y-38507D02*
X26331Y-38507D01*
X26331Y-38817D02*
X26331Y-38226D01*
X26345Y-37254D02*
X26401Y-37226D01*
X26485Y-37226D01*
X26570Y-37254D01*
X26626Y-37310D01*
X26654Y-37367D01*
X26682Y-37479D01*
X26682Y-37564D01*
X26654Y-37676D01*
X26626Y-37732D01*
X26570Y-37789D01*
X26485Y-37817D01*
X26429Y-37817D01*
X26345Y-37789D01*
X26317Y-37760D01*
X26317Y-37564D01*
X26429Y-37564D01*
X26415Y-36507D02*
X26612Y-36507D01*
X26612Y-36817D02*
X26612Y-36226D01*
X26331Y-36226D01*
X26626Y-33507D02*
X26429Y-33507D01*
X26345Y-33817D02*
X26626Y-33817D01*
X26626Y-33226D01*
X26345Y-33226D01*
X26654Y-32817D02*
X26654Y-32226D01*
X26514Y-32226D01*
X26429Y-32254D01*
X26373Y-32310D01*
X26345Y-32367D01*
X26317Y-32479D01*
X26317Y-32564D01*
X26345Y-32676D01*
X26373Y-32732D01*
X26429Y-32789D01*
X26514Y-32817D01*
X26654Y-32817D01*
X26317Y-31760D02*
X26345Y-31789D01*
X26429Y-31817D01*
X26485Y-31817D01*
X26570Y-31789D01*
X26626Y-31732D01*
X26654Y-31676D01*
X26682Y-31564D01*
X26682Y-31479D01*
X26654Y-31367D01*
X26626Y-31310D01*
X26570Y-31254D01*
X26485Y-31226D01*
X26429Y-31226D01*
X26345Y-31254D01*
X26317Y-31282D01*
X26457Y-30507D02*
X26373Y-30535D01*
X26345Y-30564D01*
X26317Y-30620D01*
X26317Y-30704D01*
X26345Y-30760D01*
X26373Y-30789D01*
X26429Y-30817D01*
X26654Y-30817D01*
X26654Y-30226D01*
X26457Y-30226D01*
X26401Y-30254D01*
X26373Y-30282D01*
X26345Y-30339D01*
X26345Y-30395D01*
X26373Y-30451D01*
X26401Y-30479D01*
X26457Y-30507D01*
X26654Y-30507D01*
X26640Y-29648D02*
X26359Y-29648D01*
X26696Y-29817D02*
X26500Y-29226D01*
X26303Y-29817D01*
X9815Y-40176D02*
X9815Y-40598D01*
X9843Y-40682D01*
X9899Y-40739D01*
X9984Y-40767D01*
X10040Y-40767D01*
X9900Y-39767D02*
X9900Y-39176D01*
X10068Y-38767D02*
X10068Y-38176D01*
X10068Y-38457D02*
X9731Y-38457D01*
X9731Y-38767D02*
X9731Y-38176D01*
X9745Y-37204D02*
X9801Y-37176D01*
X9885Y-37176D01*
X9970Y-37204D01*
X10026Y-37260D01*
X10054Y-37317D01*
X10082Y-37429D01*
X10082Y-37514D01*
X10054Y-37626D01*
X10026Y-37682D01*
X9970Y-37739D01*
X9885Y-37767D01*
X9829Y-37767D01*
X9745Y-37739D01*
X9717Y-37710D01*
X9717Y-37514D01*
X9829Y-37514D01*
X9865Y-36457D02*
X10062Y-36457D01*
X10062Y-36767D02*
X10062Y-36176D01*
X9781Y-36176D01*
X10026Y-33457D02*
X9829Y-33457D01*
X9745Y-33767D02*
X10026Y-33767D01*
X10026Y-33176D01*
X9745Y-33176D01*
X10054Y-32767D02*
X10054Y-32176D01*
X9914Y-32176D01*
X9829Y-32204D01*
X9773Y-32260D01*
X9745Y-32317D01*
X9717Y-32429D01*
X9717Y-32514D01*
X9745Y-32626D01*
X9773Y-32682D01*
X9829Y-32739D01*
X9914Y-32767D01*
X10054Y-32767D01*
X9717Y-31710D02*
X9745Y-31739D01*
X9829Y-31767D01*
X9885Y-31767D01*
X9970Y-31739D01*
X10026Y-31682D01*
X10054Y-31626D01*
X10082Y-31514D01*
X10082Y-31429D01*
X10054Y-31317D01*
X10026Y-31260D01*
X9970Y-31204D01*
X9885Y-31176D01*
X9829Y-31176D01*
X9745Y-31204D01*
X9717Y-31232D01*
X9857Y-30457D02*
X9773Y-30485D01*
X9745Y-30514D01*
X9717Y-30570D01*
X9717Y-30654D01*
X9745Y-30710D01*
X9773Y-30739D01*
X9829Y-30767D01*
X10054Y-30767D01*
X10054Y-30176D01*
X9857Y-30176D01*
X9801Y-30204D01*
X9773Y-30232D01*
X9745Y-30289D01*
X9745Y-30345D01*
X9773Y-30401D01*
X9801Y-30429D01*
X9857Y-30457D01*
X10054Y-30457D01*
X10040Y-29598D02*
X9759Y-29598D01*
X10096Y-29767D02*
X9900Y-29176D01*
X9703Y-29767D01*
X10124Y-43492D02*
X9675Y-43492D01*
X10124Y-42492D02*
X9675Y-42492D01*
X9900Y-42717D02*
X9900Y-42267D01*
X26724Y-43492D02*
X26275Y-43492D01*
X26724Y-42492D02*
X26275Y-42492D01*
X26500Y-42717D02*
X26500Y-42267D01*
X10124Y-27492D02*
X9675Y-27492D01*
X10124Y-26492D02*
X9675Y-26492D01*
X9900Y-26717D02*
X9900Y-26267D01*
X26724Y-27492D02*
X26275Y-27492D01*
X26724Y-26492D02*
X26275Y-26492D01*
X26500Y-26717D02*
X26500Y-26267D01*
G54D12*
X10500Y-43000D02*
X26100Y-43000D01*
X10750Y-41250D02*
X10750Y-41750D01*
X14750Y-41250D02*
X14750Y-41750D01*
X19750Y-41250D02*
X19750Y-41750D01*
X24750Y-41250D02*
X24750Y-41750D01*
X24750Y-28250D02*
X24750Y-28750D01*
X19750Y-28250D02*
X19750Y-28750D01*
X14750Y-28250D02*
X14750Y-28750D01*
X10750Y-28250D02*
X10750Y-28750D01*
X10500Y-27000D02*
X26100Y-27000D01*
G54D13*
X23050Y-34356D02*
X23029Y-34333D01*
X22988Y-34311D01*
X22885Y-34311D01*
X22844Y-34333D01*
X22823Y-34356D01*
X22802Y-34401D01*
X22802Y-34446D01*
X22823Y-34513D01*
X23070Y-34783D01*
X22802Y-34783D01*
X22534Y-34311D02*
X22493Y-34311D01*
X22452Y-34333D01*
X22431Y-34356D01*
X22411Y-34401D01*
X22390Y-34491D01*
X22390Y-34603D01*
X22411Y-34693D01*
X22431Y-34738D01*
X22452Y-34761D01*
X22493Y-34783D01*
X22534Y-34783D01*
X22576Y-34761D01*
X22596Y-34738D01*
X22617Y-34693D01*
X22637Y-34603D01*
X22637Y-34491D01*
X22617Y-34401D01*
X22596Y-34356D01*
X22576Y-34333D01*
X22534Y-34311D01*
X21977Y-34783D02*
X22225Y-34783D01*
X22101Y-34783D02*
X22101Y-34311D01*
X22142Y-34378D01*
X22184Y-34423D01*
X22225Y-34446D01*
X21606Y-34468D02*
X21606Y-34783D01*
X21709Y-34288D02*
X21813Y-34626D01*
X21544Y-34626D01*
X21049Y-34603D02*
X20720Y-34603D01*
X20183Y-34783D02*
X20183Y-34311D01*
X20183Y-34491D02*
X20142Y-34468D01*
X20060Y-34468D01*
X20018Y-34491D01*
X19998Y-34513D01*
X19977Y-34558D01*
X19977Y-34693D01*
X19998Y-34738D01*
X20018Y-34761D01*
X20060Y-34783D01*
X20142Y-34783D01*
X20183Y-34761D01*
X19730Y-34783D02*
X19771Y-34761D01*
X19792Y-34716D01*
X19792Y-34311D01*
X19503Y-34783D02*
X19544Y-34761D01*
X19565Y-34738D01*
X19585Y-34693D01*
X19585Y-34558D01*
X19565Y-34513D01*
X19544Y-34491D01*
X19503Y-34468D01*
X19441Y-34468D01*
X19400Y-34491D01*
X19379Y-34513D01*
X19358Y-34558D01*
X19358Y-34693D01*
X19379Y-34738D01*
X19400Y-34761D01*
X19441Y-34783D01*
X19503Y-34783D01*
X18987Y-34468D02*
X18987Y-34851D01*
X19008Y-34896D01*
X19028Y-34918D01*
X19070Y-34941D01*
X19132Y-34941D01*
X19173Y-34918D01*
X18987Y-34761D02*
X19028Y-34783D01*
X19111Y-34783D01*
X19152Y-34761D01*
X19173Y-34738D01*
X19193Y-34693D01*
X19193Y-34558D01*
X19173Y-34513D01*
X19152Y-34491D01*
X19111Y-34468D01*
X19028Y-34468D01*
X18987Y-34491D01*
X18781Y-34738D02*
X18760Y-34761D01*
X18781Y-34783D01*
X18802Y-34761D01*
X18781Y-34738D01*
X18781Y-34783D01*
X18595Y-34761D02*
X18554Y-34783D01*
X18472Y-34783D01*
X18430Y-34761D01*
X18410Y-34716D01*
X18410Y-34693D01*
X18430Y-34648D01*
X18472Y-34626D01*
X18534Y-34626D01*
X18575Y-34603D01*
X18595Y-34558D01*
X18595Y-34536D01*
X18575Y-34491D01*
X18534Y-34468D01*
X18472Y-34468D01*
X18430Y-34491D01*
X18224Y-34468D02*
X18224Y-34941D01*
X18224Y-34491D02*
X18183Y-34468D01*
X18100Y-34468D01*
X18059Y-34491D01*
X18039Y-34513D01*
X18018Y-34558D01*
X18018Y-34693D01*
X18039Y-34738D01*
X18059Y-34761D01*
X18100Y-34783D01*
X18183Y-34783D01*
X18224Y-34761D01*
X17832Y-34783D02*
X17832Y-34468D01*
X17832Y-34311D02*
X17853Y-34333D01*
X17832Y-34356D01*
X17812Y-34333D01*
X17832Y-34311D01*
X17832Y-34356D01*
X17688Y-34468D02*
X17523Y-34468D01*
X17626Y-34311D02*
X17626Y-34716D01*
X17606Y-34761D01*
X17564Y-34783D01*
X17523Y-34783D01*
X17420Y-34468D02*
X17193Y-34468D01*
X17420Y-34783D01*
X17193Y-34783D01*
X16863Y-34761D02*
X16904Y-34783D01*
X16987Y-34783D01*
X17028Y-34761D01*
X17049Y-34716D01*
X17049Y-34536D01*
X17028Y-34491D01*
X16987Y-34468D01*
X16904Y-34468D01*
X16863Y-34491D01*
X16843Y-34536D01*
X16843Y-34581D01*
X17049Y-34626D01*
X16657Y-34468D02*
X16657Y-34783D01*
X16657Y-34513D02*
X16636Y-34491D01*
X16595Y-34468D01*
X16533Y-34468D01*
X16492Y-34491D01*
X16471Y-34536D01*
X16471Y-34783D01*
X16265Y-34468D02*
X16265Y-34941D01*
X16265Y-34491D02*
X16224Y-34468D01*
X16141Y-34468D01*
X16100Y-34491D01*
X16079Y-34513D01*
X16059Y-34558D01*
X16059Y-34693D01*
X16079Y-34738D01*
X16100Y-34761D01*
X16141Y-34783D01*
X16224Y-34783D01*
X16265Y-34761D01*
X15935Y-34468D02*
X15770Y-34468D01*
X15873Y-34783D02*
X15873Y-34378D01*
X15853Y-34333D01*
X15811Y-34311D01*
X15770Y-34311D01*
X15461Y-34761D02*
X15502Y-34783D01*
X15585Y-34783D01*
X15626Y-34761D01*
X15646Y-34716D01*
X15646Y-34536D01*
X15626Y-34491D01*
X15585Y-34468D01*
X15502Y-34468D01*
X15461Y-34491D01*
X15440Y-34536D01*
X15440Y-34581D01*
X15646Y-34626D01*
X15255Y-34783D02*
X15255Y-34468D01*
X15255Y-34311D02*
X15275Y-34333D01*
X15255Y-34356D01*
X15234Y-34333D01*
X15255Y-34311D01*
X15255Y-34356D01*
X14986Y-34783D02*
X15028Y-34761D01*
X15048Y-34716D01*
X15048Y-34311D01*
X14822Y-34738D02*
X14801Y-34761D01*
X14822Y-34783D01*
X14842Y-34761D01*
X14822Y-34738D01*
X14822Y-34783D01*
X14553Y-34783D02*
X14595Y-34761D01*
X14615Y-34738D01*
X14636Y-34693D01*
X14636Y-34558D01*
X14615Y-34513D01*
X14595Y-34491D01*
X14553Y-34468D01*
X14492Y-34468D01*
X14450Y-34491D01*
X14430Y-34513D01*
X14409Y-34558D01*
X14409Y-34693D01*
X14430Y-34738D01*
X14450Y-34761D01*
X14492Y-34783D01*
X14553Y-34783D01*
X14223Y-34783D02*
X14223Y-34468D01*
X14223Y-34558D02*
X14203Y-34513D01*
X14182Y-34491D01*
X14141Y-34468D01*
X14100Y-34468D01*
X13770Y-34468D02*
X13770Y-34851D01*
X13790Y-34896D01*
X13811Y-34918D01*
X13852Y-34941D01*
X13914Y-34941D01*
X13955Y-34918D01*
X13770Y-34761D02*
X13811Y-34783D01*
X13894Y-34783D01*
X13935Y-34761D01*
X13955Y-34738D01*
X13976Y-34693D01*
X13976Y-34558D01*
X13955Y-34513D01*
X13935Y-34491D01*
X13894Y-34468D01*
X13811Y-34468D01*
X13770Y-34491D01*
X19565Y-35071D02*
X19420Y-35543D01*
X19276Y-35071D01*
X19049Y-35071D02*
X19008Y-35071D01*
X18967Y-35093D01*
X18946Y-35116D01*
X18925Y-35161D01*
X18905Y-35251D01*
X18905Y-35363D01*
X18925Y-35453D01*
X18946Y-35498D01*
X18967Y-35521D01*
X19008Y-35543D01*
X19049Y-35543D01*
X19090Y-35521D01*
X19111Y-35498D01*
X19132Y-35453D01*
X19152Y-35363D01*
X19152Y-35251D01*
X19132Y-35161D01*
X19111Y-35116D01*
X19090Y-35093D01*
X19049Y-35071D01*
X18719Y-35498D02*
X18699Y-35521D01*
X18719Y-35543D01*
X18740Y-35521D01*
X18719Y-35498D01*
X18719Y-35543D01*
X18286Y-35543D02*
X18534Y-35543D01*
X18410Y-35543D02*
X18410Y-35071D01*
X18451Y-35138D01*
X18492Y-35183D01*
X18534Y-35206D01*
X18018Y-35071D02*
X17977Y-35071D01*
X17935Y-35093D01*
X17915Y-35116D01*
X17894Y-35161D01*
X17874Y-35251D01*
X17874Y-35363D01*
X17894Y-35453D01*
X17915Y-35498D01*
X17935Y-35521D01*
X17977Y-35543D01*
X18018Y-35543D01*
X18059Y-35521D01*
X18080Y-35498D01*
X18100Y-35453D01*
X18121Y-35363D01*
X18121Y-35251D01*
X18100Y-35161D01*
X18080Y-35116D01*
X18059Y-35093D01*
X18018Y-35071D01*
X17688Y-35498D02*
X17667Y-35521D01*
X17688Y-35543D01*
X17709Y-35521D01*
X17688Y-35498D01*
X17688Y-35543D01*
X17296Y-35543D02*
X17296Y-35296D01*
X17317Y-35251D01*
X17358Y-35228D01*
X17441Y-35228D01*
X17482Y-35251D01*
X17296Y-35521D02*
X17337Y-35543D01*
X17441Y-35543D01*
X17482Y-35521D01*
X17502Y-35476D01*
X17502Y-35431D01*
X17482Y-35386D01*
X17441Y-35363D01*
X17337Y-35363D01*
X17296Y-35341D01*
G54D14*
G36*
X24154Y-35884D02*
X24164Y-35878D01*
X24187Y-35864D01*
X24220Y-35842D01*
X24259Y-35816D01*
X24298Y-35790D01*
X24330Y-35769D01*
X24352Y-35754D01*
X24362Y-35749D01*
X24367Y-35751D01*
X24385Y-35760D01*
X24412Y-35774D01*
X24428Y-35782D01*
X24452Y-35792D01*
X24465Y-35795D01*
X24467Y-35791D01*
X24476Y-35772D01*
X24490Y-35740D01*
X24508Y-35697D01*
X24530Y-35647D01*
X24552Y-35594D01*
X24575Y-35539D01*
X24597Y-35486D01*
X24616Y-35439D01*
X24632Y-35401D01*
X24642Y-35374D01*
X24646Y-35363D01*
X24645Y-35360D01*
X24632Y-35348D01*
X24611Y-35332D01*
X24564Y-35294D01*
X24518Y-35237D01*
X24490Y-35172D01*
X24481Y-35099D01*
X24489Y-35032D01*
X24515Y-34968D01*
X24560Y-34910D01*
X24615Y-34867D01*
X24679Y-34840D01*
X24750Y-34831D01*
X24818Y-34839D01*
X24884Y-34865D01*
X24942Y-34909D01*
X24967Y-34937D01*
X25001Y-34996D01*
X25020Y-35058D01*
X25022Y-35074D01*
X25019Y-35143D01*
X24999Y-35210D01*
X24962Y-35269D01*
X24911Y-35318D01*
X24905Y-35322D01*
X24882Y-35340D01*
X24866Y-35352D01*
X24854Y-35362D01*
X24942Y-35574D01*
X24956Y-35607D01*
X24980Y-35665D01*
X25001Y-35715D01*
X25018Y-35755D01*
X25030Y-35781D01*
X25035Y-35792D01*
X25035Y-35793D01*
X25043Y-35794D01*
X25059Y-35788D01*
X25089Y-35774D01*
X25108Y-35764D01*
X25131Y-35753D01*
X25141Y-35749D01*
X25150Y-35754D01*
X25171Y-35768D01*
X25203Y-35789D01*
X25241Y-35814D01*
X25277Y-35839D01*
X25310Y-35861D01*
X25334Y-35876D01*
X25346Y-35883D01*
X25348Y-35883D01*
X25358Y-35877D01*
X25377Y-35861D01*
X25406Y-35834D01*
X25447Y-35793D01*
X25453Y-35787D01*
X25487Y-35753D01*
X25514Y-35724D01*
X25532Y-35704D01*
X25539Y-35695D01*
X25539Y-35695D01*
X25533Y-35683D01*
X25518Y-35659D01*
X25496Y-35625D01*
X25469Y-35586D01*
X25399Y-35484D01*
X25437Y-35388D01*
X25449Y-35358D01*
X25464Y-35323D01*
X25475Y-35297D01*
X25481Y-35286D01*
X25491Y-35282D01*
X25518Y-35276D01*
X25556Y-35268D01*
X25601Y-35260D01*
X25645Y-35252D01*
X25684Y-35244D01*
X25712Y-35239D01*
X25725Y-35236D01*
X25728Y-35234D01*
X25731Y-35228D01*
X25732Y-35215D01*
X25733Y-35191D01*
X25734Y-35154D01*
X25734Y-35099D01*
X25734Y-35093D01*
X25733Y-35042D01*
X25732Y-35000D01*
X25731Y-34974D01*
X25729Y-34963D01*
X25729Y-34963D01*
X25717Y-34960D01*
X25689Y-34954D01*
X25650Y-34947D01*
X25603Y-34938D01*
X25600Y-34937D01*
X25554Y-34928D01*
X25515Y-34920D01*
X25487Y-34914D01*
X25476Y-34910D01*
X25473Y-34907D01*
X25464Y-34889D01*
X25451Y-34860D01*
X25435Y-34825D01*
X25420Y-34788D01*
X25407Y-34755D01*
X25398Y-34731D01*
X25395Y-34720D01*
X25396Y-34719D01*
X25403Y-34708D01*
X25419Y-34684D01*
X25441Y-34651D01*
X25468Y-34611D01*
X25470Y-34608D01*
X25497Y-34569D01*
X25519Y-34535D01*
X25533Y-34512D01*
X25539Y-34501D01*
X25539Y-34500D01*
X25530Y-34488D01*
X25510Y-34466D01*
X25481Y-34436D01*
X25447Y-34401D01*
X25436Y-34391D01*
X25397Y-34353D01*
X25371Y-34329D01*
X25354Y-34316D01*
X25346Y-34313D01*
X25346Y-34313D01*
X25334Y-34320D01*
X25309Y-34336D01*
X25276Y-34359D01*
X25236Y-34386D01*
X25233Y-34388D01*
X25194Y-34415D01*
X25161Y-34437D01*
X25138Y-34453D01*
X25127Y-34459D01*
X25126Y-34459D01*
X25110Y-34454D01*
X25082Y-34444D01*
X25047Y-34431D01*
X25011Y-34416D01*
X24978Y-34402D01*
X24953Y-34391D01*
X24941Y-34384D01*
X24941Y-34384D01*
X24937Y-34370D01*
X24930Y-34340D01*
X24922Y-34300D01*
X24912Y-34252D01*
X24911Y-34244D01*
X24902Y-34197D01*
X24895Y-34158D01*
X24889Y-34131D01*
X24886Y-34120D01*
X24880Y-34119D01*
X24857Y-34117D01*
X24822Y-34116D01*
X24779Y-34116D01*
X24735Y-34116D01*
X24692Y-34117D01*
X24655Y-34118D01*
X24628Y-34120D01*
X24617Y-34122D01*
X24617Y-34123D01*
X24613Y-34138D01*
X24606Y-34167D01*
X24598Y-34208D01*
X24589Y-34256D01*
X24587Y-34265D01*
X24578Y-34311D01*
X24570Y-34350D01*
X24565Y-34376D01*
X24562Y-34387D01*
X24557Y-34389D01*
X24538Y-34397D01*
X24507Y-34410D01*
X24468Y-34426D01*
X24378Y-34462D01*
X24267Y-34387D01*
X24257Y-34380D01*
X24217Y-34353D01*
X24185Y-34331D01*
X24162Y-34316D01*
X24153Y-34311D01*
X24152Y-34311D01*
X24141Y-34321D01*
X24119Y-34342D01*
X24089Y-34371D01*
X24054Y-34405D01*
X24029Y-34431D01*
X23998Y-34462D01*
X23979Y-34483D01*
X23968Y-34496D01*
X23965Y-34504D01*
X23966Y-34510D01*
X23973Y-34521D01*
X23989Y-34545D01*
X24012Y-34579D01*
X24039Y-34618D01*
X24061Y-34651D01*
X24085Y-34688D01*
X24100Y-34714D01*
X24106Y-34727D01*
X24104Y-34732D01*
X24097Y-34754D01*
X24083Y-34787D01*
X24067Y-34826D01*
X24028Y-34913D01*
X23971Y-34924D01*
X23936Y-34931D01*
X23888Y-34940D01*
X23841Y-34949D01*
X23769Y-34963D01*
X23766Y-35229D01*
X23777Y-35234D01*
X23788Y-35237D01*
X23815Y-35243D01*
X23853Y-35251D01*
X23899Y-35259D01*
X23937Y-35266D01*
X23976Y-35274D01*
X24004Y-35279D01*
X24016Y-35282D01*
X24020Y-35286D01*
X24029Y-35305D01*
X24043Y-35335D01*
X24059Y-35371D01*
X24074Y-35408D01*
X24088Y-35443D01*
X24097Y-35469D01*
X24101Y-35482D01*
X24096Y-35493D01*
X24081Y-35516D01*
X24060Y-35548D01*
X24033Y-35587D01*
X24007Y-35625D01*
X23984Y-35658D01*
X23969Y-35682D01*
X23962Y-35693D01*
X23966Y-35700D01*
X23981Y-35719D01*
X24010Y-35749D01*
X24054Y-35792D01*
X24061Y-35799D01*
X24095Y-35832D01*
X24124Y-35859D01*
X24145Y-35877D01*
X24154Y-35884D01*
X24154Y-35884D01*
G37*
X24154Y-35884D02*
X24164Y-35878D01*
X24187Y-35864D01*
X24220Y-35842D01*
X24259Y-35816D01*
X24298Y-35790D01*
X24330Y-35769D01*
X24352Y-35754D01*
X24362Y-35749D01*
X24367Y-35751D01*
X24385Y-35760D01*
X24412Y-35774D01*
X24428Y-35782D01*
X24452Y-35792D01*
X24465Y-35795D01*
X24467Y-35791D01*
X24476Y-35772D01*
X24490Y-35740D01*
X24508Y-35697D01*
X24530Y-35647D01*
X24552Y-35594D01*
X24575Y-35539D01*
X24597Y-35486D01*
X24616Y-35439D01*
X24632Y-35401D01*
X24642Y-35374D01*
X24646Y-35363D01*
X24645Y-35360D01*
X24632Y-35348D01*
X24611Y-35332D01*
X24564Y-35294D01*
X24518Y-35237D01*
X24490Y-35172D01*
X24481Y-35099D01*
X24489Y-35032D01*
X24515Y-34968D01*
X24560Y-34910D01*
X24615Y-34867D01*
X24679Y-34840D01*
X24750Y-34831D01*
X24818Y-34839D01*
X24884Y-34865D01*
X24942Y-34909D01*
X24967Y-34937D01*
X25001Y-34996D01*
X25020Y-35058D01*
X25022Y-35074D01*
X25019Y-35143D01*
X24999Y-35210D01*
X24962Y-35269D01*
X24911Y-35318D01*
X24905Y-35322D01*
X24882Y-35340D01*
X24866Y-35352D01*
X24854Y-35362D01*
X24942Y-35574D01*
X24956Y-35607D01*
X24980Y-35665D01*
X25001Y-35715D01*
X25018Y-35755D01*
X25030Y-35781D01*
X25035Y-35792D01*
X25035Y-35793D01*
X25043Y-35794D01*
X25059Y-35788D01*
X25089Y-35774D01*
X25108Y-35764D01*
X25131Y-35753D01*
X25141Y-35749D01*
X25150Y-35754D01*
X25171Y-35768D01*
X25203Y-35789D01*
X25241Y-35814D01*
X25277Y-35839D01*
X25310Y-35861D01*
X25334Y-35876D01*
X25346Y-35883D01*
X25348Y-35883D01*
X25358Y-35877D01*
X25377Y-35861D01*
X25406Y-35834D01*
X25447Y-35793D01*
X25453Y-35787D01*
X25487Y-35753D01*
X25514Y-35724D01*
X25532Y-35704D01*
X25539Y-35695D01*
X25539Y-35695D01*
X25533Y-35683D01*
X25518Y-35659D01*
X25496Y-35625D01*
X25469Y-35586D01*
X25399Y-35484D01*
X25437Y-35388D01*
X25449Y-35358D01*
X25464Y-35323D01*
X25475Y-35297D01*
X25481Y-35286D01*
X25491Y-35282D01*
X25518Y-35276D01*
X25556Y-35268D01*
X25601Y-35260D01*
X25645Y-35252D01*
X25684Y-35244D01*
X25712Y-35239D01*
X25725Y-35236D01*
X25728Y-35234D01*
X25731Y-35228D01*
X25732Y-35215D01*
X25733Y-35191D01*
X25734Y-35154D01*
X25734Y-35099D01*
X25734Y-35093D01*
X25733Y-35042D01*
X25732Y-35000D01*
X25731Y-34974D01*
X25729Y-34963D01*
X25729Y-34963D01*
X25717Y-34960D01*
X25689Y-34954D01*
X25650Y-34947D01*
X25603Y-34938D01*
X25600Y-34937D01*
X25554Y-34928D01*
X25515Y-34920D01*
X25487Y-34914D01*
X25476Y-34910D01*
X25473Y-34907D01*
X25464Y-34889D01*
X25451Y-34860D01*
X25435Y-34825D01*
X25420Y-34788D01*
X25407Y-34755D01*
X25398Y-34731D01*
X25395Y-34720D01*
X25396Y-34719D01*
X25403Y-34708D01*
X25419Y-34684D01*
X25441Y-34651D01*
X25468Y-34611D01*
X25470Y-34608D01*
X25497Y-34569D01*
X25519Y-34535D01*
X25533Y-34512D01*
X25539Y-34501D01*
X25539Y-34500D01*
X25530Y-34488D01*
X25510Y-34466D01*
X25481Y-34436D01*
X25447Y-34401D01*
X25436Y-34391D01*
X25397Y-34353D01*
X25371Y-34329D01*
X25354Y-34316D01*
X25346Y-34313D01*
X25346Y-34313D01*
X25334Y-34320D01*
X25309Y-34336D01*
X25276Y-34359D01*
X25236Y-34386D01*
X25233Y-34388D01*
X25194Y-34415D01*
X25161Y-34437D01*
X25138Y-34453D01*
X25127Y-34459D01*
X25126Y-34459D01*
X25110Y-34454D01*
X25082Y-34444D01*
X25047Y-34431D01*
X25011Y-34416D01*
X24978Y-34402D01*
X24953Y-34391D01*
X24941Y-34384D01*
X24941Y-34384D01*
X24937Y-34370D01*
X24930Y-34340D01*
X24922Y-34300D01*
X24912Y-34252D01*
X24911Y-34244D01*
X24902Y-34197D01*
X24895Y-34158D01*
X24889Y-34131D01*
X24886Y-34120D01*
X24880Y-34119D01*
X24857Y-34117D01*
X24822Y-34116D01*
X24779Y-34116D01*
X24735Y-34116D01*
X24692Y-34117D01*
X24655Y-34118D01*
X24628Y-34120D01*
X24617Y-34122D01*
X24617Y-34123D01*
X24613Y-34138D01*
X24606Y-34167D01*
X24598Y-34208D01*
X24589Y-34256D01*
X24587Y-34265D01*
X24578Y-34311D01*
X24570Y-34350D01*
X24565Y-34376D01*
X24562Y-34387D01*
X24557Y-34389D01*
X24538Y-34397D01*
X24507Y-34410D01*
X24468Y-34426D01*
X24378Y-34462D01*
X24267Y-34387D01*
X24257Y-34380D01*
X24217Y-34353D01*
X24185Y-34331D01*
X24162Y-34316D01*
X24153Y-34311D01*
X24152Y-34311D01*
X24141Y-34321D01*
X24119Y-34342D01*
X24089Y-34371D01*
X24054Y-34405D01*
X24029Y-34431D01*
X23998Y-34462D01*
X23979Y-34483D01*
X23968Y-34496D01*
X23965Y-34504D01*
X23966Y-34510D01*
X23973Y-34521D01*
X23989Y-34545D01*
X24012Y-34579D01*
X24039Y-34618D01*
X24061Y-34651D01*
X24085Y-34688D01*
X24100Y-34714D01*
X24106Y-34727D01*
X24104Y-34732D01*
X24097Y-34754D01*
X24083Y-34787D01*
X24067Y-34826D01*
X24028Y-34913D01*
X23971Y-34924D01*
X23936Y-34931D01*
X23888Y-34940D01*
X23841Y-34949D01*
X23769Y-34963D01*
X23766Y-35229D01*
X23777Y-35234D01*
X23788Y-35237D01*
X23815Y-35243D01*
X23853Y-35251D01*
X23899Y-35259D01*
X23937Y-35266D01*
X23976Y-35274D01*
X24004Y-35279D01*
X24016Y-35282D01*
X24020Y-35286D01*
X24029Y-35305D01*
X24043Y-35335D01*
X24059Y-35371D01*
X24074Y-35408D01*
X24088Y-35443D01*
X24097Y-35469D01*
X24101Y-35482D01*
X24096Y-35493D01*
X24081Y-35516D01*
X24060Y-35548D01*
X24033Y-35587D01*
X24007Y-35625D01*
X23984Y-35658D01*
X23969Y-35682D01*
X23962Y-35693D01*
X23966Y-35700D01*
X23981Y-35719D01*
X24010Y-35749D01*
X24054Y-35792D01*
X24061Y-35799D01*
X24095Y-35832D01*
X24124Y-35859D01*
X24145Y-35877D01*
X24154Y-35884D01*
G36*
X12121Y-35861D02*
X12146Y-35858D01*
X12169Y-35850D01*
X12179Y-35845D01*
X12200Y-35830D01*
X12217Y-35812D01*
X12229Y-35791D01*
X12238Y-35769D01*
X12242Y-35745D01*
X12241Y-35721D01*
X12235Y-35697D01*
X12224Y-35673D01*
X12217Y-35664D01*
X12206Y-35652D01*
X12195Y-35642D01*
X12185Y-35634D01*
X12181Y-35632D01*
X12160Y-35622D01*
X12138Y-35616D01*
X12113Y-35615D01*
X12105Y-35616D01*
X12092Y-35618D01*
X12080Y-35621D01*
X12067Y-35626D01*
X12053Y-35634D01*
X12033Y-35650D01*
X12016Y-35670D01*
X12004Y-35692D01*
X12001Y-35703D01*
X11997Y-35715D01*
X11996Y-35724D01*
X11996Y-35726D01*
X11996Y-35726D01*
X11995Y-35721D01*
X11995Y-35720D01*
X11991Y-35704D01*
X11985Y-35688D01*
X11978Y-35674D01*
X11964Y-35656D01*
X11945Y-35638D01*
X11923Y-35626D01*
X11899Y-35618D01*
X11873Y-35615D01*
X11867Y-35615D01*
X11847Y-35617D01*
X11829Y-35623D01*
X11825Y-35624D01*
X11804Y-35636D01*
X11786Y-35651D01*
X11770Y-35670D01*
X11759Y-35690D01*
X11752Y-35712D01*
X11752Y-35713D01*
X11751Y-35719D01*
X11750Y-35722D01*
X11750Y-35722D01*
X11749Y-35718D01*
X11748Y-35712D01*
X11747Y-35710D01*
X11740Y-35688D01*
X11728Y-35668D01*
X11712Y-35649D01*
X11698Y-35637D01*
X11676Y-35625D01*
X11653Y-35617D01*
X11627Y-35615D01*
X11608Y-35616D01*
X11584Y-35623D01*
X11561Y-35634D01*
X11542Y-35649D01*
X11526Y-35669D01*
X11524Y-35672D01*
X11518Y-35681D01*
X11514Y-35689D01*
X11512Y-35694D01*
X11509Y-35705D01*
X11506Y-35716D01*
X11505Y-35724D01*
X11505Y-35725D01*
X11504Y-35726D01*
X11503Y-35720D01*
X11501Y-35707D01*
X11495Y-35690D01*
X11487Y-35675D01*
X11473Y-35655D01*
X11454Y-35638D01*
X11432Y-35626D01*
X11408Y-35618D01*
X11382Y-35615D01*
X11359Y-35617D01*
X11335Y-35624D01*
X11313Y-35635D01*
X11293Y-35652D01*
X11284Y-35663D01*
X11274Y-35677D01*
X11267Y-35692D01*
X11263Y-35705D01*
X11258Y-35730D01*
X11259Y-35754D01*
X11265Y-35777D01*
X11274Y-35798D01*
X11288Y-35818D01*
X11305Y-35834D01*
X11324Y-35847D01*
X11347Y-35856D01*
X11372Y-35860D01*
X11374Y-35860D01*
X11399Y-35860D01*
X11423Y-35854D01*
X11445Y-35843D01*
X11453Y-35838D01*
X11470Y-35823D01*
X11484Y-35806D01*
X11494Y-35787D01*
X11497Y-35780D01*
X11500Y-35770D01*
X11503Y-35759D01*
X11504Y-35751D01*
X11504Y-35746D01*
X11505Y-35751D01*
X11505Y-35755D01*
X11508Y-35766D01*
X11511Y-35778D01*
X11515Y-35788D01*
X11521Y-35800D01*
X11536Y-35820D01*
X11555Y-35837D01*
X11577Y-35850D01*
X11601Y-35858D01*
X11605Y-35859D01*
X11622Y-35861D01*
X11640Y-35860D01*
X11656Y-35858D01*
X11672Y-35852D01*
X11695Y-35841D01*
X11716Y-35824D01*
X11717Y-35822D01*
X11731Y-35805D01*
X11742Y-35784D01*
X11748Y-35763D01*
X11748Y-35762D01*
X11750Y-35756D01*
X11750Y-35754D01*
X11750Y-35756D01*
X11751Y-35761D01*
X11752Y-35763D01*
X11755Y-35775D01*
X11761Y-35789D01*
X11768Y-35803D01*
X11779Y-35818D01*
X11797Y-35835D01*
X11819Y-35849D01*
X11843Y-35857D01*
X11848Y-35858D01*
X11864Y-35860D01*
X11882Y-35860D01*
X11898Y-35858D01*
X11912Y-35854D01*
X11935Y-35844D01*
X11955Y-35829D01*
X11972Y-35810D01*
X11985Y-35788D01*
X11988Y-35781D01*
X11991Y-35770D01*
X11994Y-35759D01*
X11995Y-35751D01*
X11995Y-35750D01*
X11996Y-35750D01*
X11996Y-35755D01*
X11997Y-35755D01*
X12000Y-35771D01*
X12006Y-35787D01*
X12013Y-35802D01*
X12017Y-35807D01*
X12033Y-35826D01*
X12052Y-35841D01*
X12073Y-35852D01*
X12097Y-35859D01*
X12121Y-35861D01*
X12121Y-35861D01*
G37*
X12121Y-35861D02*
X12146Y-35858D01*
X12169Y-35850D01*
X12179Y-35845D01*
X12200Y-35830D01*
X12217Y-35812D01*
X12229Y-35791D01*
X12238Y-35769D01*
X12242Y-35745D01*
X12241Y-35721D01*
X12235Y-35697D01*
X12224Y-35673D01*
X12217Y-35664D01*
X12206Y-35652D01*
X12195Y-35642D01*
X12185Y-35634D01*
X12181Y-35632D01*
X12160Y-35622D01*
X12138Y-35616D01*
X12113Y-35615D01*
X12105Y-35616D01*
X12092Y-35618D01*
X12080Y-35621D01*
X12067Y-35626D01*
X12053Y-35634D01*
X12033Y-35650D01*
X12016Y-35670D01*
X12004Y-35692D01*
X12001Y-35703D01*
X11997Y-35715D01*
X11996Y-35724D01*
X11996Y-35726D01*
X11996Y-35726D01*
X11995Y-35721D01*
X11995Y-35720D01*
X11991Y-35704D01*
X11985Y-35688D01*
X11978Y-35674D01*
X11964Y-35656D01*
X11945Y-35638D01*
X11923Y-35626D01*
X11899Y-35618D01*
X11873Y-35615D01*
X11867Y-35615D01*
X11847Y-35617D01*
X11829Y-35623D01*
X11825Y-35624D01*
X11804Y-35636D01*
X11786Y-35651D01*
X11770Y-35670D01*
X11759Y-35690D01*
X11752Y-35712D01*
X11752Y-35713D01*
X11751Y-35719D01*
X11750Y-35722D01*
X11750Y-35722D01*
X11749Y-35718D01*
X11748Y-35712D01*
X11747Y-35710D01*
X11740Y-35688D01*
X11728Y-35668D01*
X11712Y-35649D01*
X11698Y-35637D01*
X11676Y-35625D01*
X11653Y-35617D01*
X11627Y-35615D01*
X11608Y-35616D01*
X11584Y-35623D01*
X11561Y-35634D01*
X11542Y-35649D01*
X11526Y-35669D01*
X11524Y-35672D01*
X11518Y-35681D01*
X11514Y-35689D01*
X11512Y-35694D01*
X11509Y-35705D01*
X11506Y-35716D01*
X11505Y-35724D01*
X11505Y-35725D01*
X11504Y-35726D01*
X11503Y-35720D01*
X11501Y-35707D01*
X11495Y-35690D01*
X11487Y-35675D01*
X11473Y-35655D01*
X11454Y-35638D01*
X11432Y-35626D01*
X11408Y-35618D01*
X11382Y-35615D01*
X11359Y-35617D01*
X11335Y-35624D01*
X11313Y-35635D01*
X11293Y-35652D01*
X11284Y-35663D01*
X11274Y-35677D01*
X11267Y-35692D01*
X11263Y-35705D01*
X11258Y-35730D01*
X11259Y-35754D01*
X11265Y-35777D01*
X11274Y-35798D01*
X11288Y-35818D01*
X11305Y-35834D01*
X11324Y-35847D01*
X11347Y-35856D01*
X11372Y-35860D01*
X11374Y-35860D01*
X11399Y-35860D01*
X11423Y-35854D01*
X11445Y-35843D01*
X11453Y-35838D01*
X11470Y-35823D01*
X11484Y-35806D01*
X11494Y-35787D01*
X11497Y-35780D01*
X11500Y-35770D01*
X11503Y-35759D01*
X11504Y-35751D01*
X11504Y-35746D01*
X11505Y-35751D01*
X11505Y-35755D01*
X11508Y-35766D01*
X11511Y-35778D01*
X11515Y-35788D01*
X11521Y-35800D01*
X11536Y-35820D01*
X11555Y-35837D01*
X11577Y-35850D01*
X11601Y-35858D01*
X11605Y-35859D01*
X11622Y-35861D01*
X11640Y-35860D01*
X11656Y-35858D01*
X11672Y-35852D01*
X11695Y-35841D01*
X11716Y-35824D01*
X11717Y-35822D01*
X11731Y-35805D01*
X11742Y-35784D01*
X11748Y-35763D01*
X11748Y-35762D01*
X11750Y-35756D01*
X11750Y-35754D01*
X11750Y-35756D01*
X11751Y-35761D01*
X11752Y-35763D01*
X11755Y-35775D01*
X11761Y-35789D01*
X11768Y-35803D01*
X11779Y-35818D01*
X11797Y-35835D01*
X11819Y-35849D01*
X11843Y-35857D01*
X11848Y-35858D01*
X11864Y-35860D01*
X11882Y-35860D01*
X11898Y-35858D01*
X11912Y-35854D01*
X11935Y-35844D01*
X11955Y-35829D01*
X11972Y-35810D01*
X11985Y-35788D01*
X11988Y-35781D01*
X11991Y-35770D01*
X11994Y-35759D01*
X11995Y-35751D01*
X11995Y-35750D01*
X11996Y-35750D01*
X11996Y-35755D01*
X11997Y-35755D01*
X12000Y-35771D01*
X12006Y-35787D01*
X12013Y-35802D01*
X12017Y-35807D01*
X12033Y-35826D01*
X12052Y-35841D01*
X12073Y-35852D01*
X12097Y-35859D01*
X12121Y-35861D01*
G36*
X11127Y-35615D02*
X11142Y-35614D01*
X11157Y-35613D01*
X11173Y-35609D01*
X11196Y-35599D01*
X11217Y-35584D01*
X11234Y-35566D01*
X11247Y-35544D01*
X11255Y-35521D01*
X11258Y-35496D01*
X11257Y-35471D01*
X11250Y-35447D01*
X11239Y-35425D01*
X11223Y-35406D01*
X11204Y-35389D01*
X11197Y-35385D01*
X11174Y-35375D01*
X11149Y-35369D01*
X11124Y-35369D01*
X11098Y-35374D01*
X11078Y-35383D01*
X11057Y-35397D01*
X11039Y-35415D01*
X11025Y-35437D01*
X11016Y-35461D01*
X11013Y-35474D01*
X11012Y-35490D01*
X11013Y-35506D01*
X11015Y-35519D01*
X11016Y-35524D01*
X11026Y-35548D01*
X11040Y-35570D01*
X11059Y-35588D01*
X11081Y-35602D01*
X11092Y-35607D01*
X11106Y-35611D01*
X11119Y-35614D01*
X11127Y-35615D01*
X11127Y-35615D01*
G37*
X11127Y-35615D02*
X11142Y-35614D01*
X11157Y-35613D01*
X11173Y-35609D01*
X11196Y-35599D01*
X11217Y-35584D01*
X11234Y-35566D01*
X11247Y-35544D01*
X11255Y-35521D01*
X11258Y-35496D01*
X11257Y-35471D01*
X11250Y-35447D01*
X11239Y-35425D01*
X11223Y-35406D01*
X11204Y-35389D01*
X11197Y-35385D01*
X11174Y-35375D01*
X11149Y-35369D01*
X11124Y-35369D01*
X11098Y-35374D01*
X11078Y-35383D01*
X11057Y-35397D01*
X11039Y-35415D01*
X11025Y-35437D01*
X11016Y-35461D01*
X11013Y-35474D01*
X11012Y-35490D01*
X11013Y-35506D01*
X11015Y-35519D01*
X11016Y-35524D01*
X11026Y-35548D01*
X11040Y-35570D01*
X11059Y-35588D01*
X11081Y-35602D01*
X11092Y-35607D01*
X11106Y-35611D01*
X11119Y-35614D01*
X11127Y-35615D01*
G36*
X12367Y-35615D02*
X12393Y-35612D01*
X12417Y-35603D01*
X12440Y-35589D01*
X12445Y-35585D01*
X12462Y-35567D01*
X12475Y-35546D01*
X12484Y-35522D01*
X12487Y-35509D01*
X12488Y-35493D01*
X12487Y-35478D01*
X12485Y-35465D01*
X12484Y-35459D01*
X12474Y-35434D01*
X12460Y-35413D01*
X12442Y-35396D01*
X12421Y-35382D01*
X12397Y-35373D01*
X12371Y-35369D01*
X12362Y-35369D01*
X12337Y-35372D01*
X12314Y-35379D01*
X12293Y-35391D01*
X12275Y-35407D01*
X12261Y-35426D01*
X12250Y-35448D01*
X12243Y-35472D01*
X12242Y-35497D01*
X12243Y-35512D01*
X12246Y-35526D01*
X12252Y-35540D01*
X12262Y-35559D01*
X12277Y-35578D01*
X12297Y-35594D01*
X12318Y-35606D01*
X12342Y-35613D01*
X12367Y-35615D01*
X12367Y-35615D01*
G37*
X12367Y-35615D02*
X12393Y-35612D01*
X12417Y-35603D01*
X12440Y-35589D01*
X12445Y-35585D01*
X12462Y-35567D01*
X12475Y-35546D01*
X12484Y-35522D01*
X12487Y-35509D01*
X12488Y-35493D01*
X12487Y-35478D01*
X12485Y-35465D01*
X12484Y-35459D01*
X12474Y-35434D01*
X12460Y-35413D01*
X12442Y-35396D01*
X12421Y-35382D01*
X12397Y-35373D01*
X12371Y-35369D01*
X12362Y-35369D01*
X12337Y-35372D01*
X12314Y-35379D01*
X12293Y-35391D01*
X12275Y-35407D01*
X12261Y-35426D01*
X12250Y-35448D01*
X12243Y-35472D01*
X12242Y-35497D01*
X12243Y-35512D01*
X12246Y-35526D01*
X12252Y-35540D01*
X12262Y-35559D01*
X12277Y-35578D01*
X12297Y-35594D01*
X12318Y-35606D01*
X12342Y-35613D01*
X12367Y-35615D01*
G36*
X10882Y-35368D02*
X10900Y-35368D01*
X10915Y-35366D01*
X10933Y-35361D01*
X10955Y-35349D01*
X10976Y-35332D01*
X10989Y-35317D01*
X11001Y-35296D01*
X11010Y-35272D01*
X11011Y-35262D01*
X11012Y-35248D01*
X11012Y-35233D01*
X11010Y-35220D01*
X11008Y-35213D01*
X10998Y-35188D01*
X10984Y-35167D01*
X10966Y-35149D01*
X10944Y-35135D01*
X10935Y-35131D01*
X10919Y-35126D01*
X10903Y-35124D01*
X10885Y-35123D01*
X10873Y-35124D01*
X10860Y-35126D01*
X10848Y-35129D01*
X10834Y-35135D01*
X10826Y-35140D01*
X10806Y-35155D01*
X10789Y-35174D01*
X10776Y-35196D01*
X10768Y-35221D01*
X10767Y-35227D01*
X10766Y-35242D01*
X10767Y-35257D01*
X10768Y-35270D01*
X10770Y-35279D01*
X10780Y-35303D01*
X10794Y-35324D01*
X10812Y-35342D01*
X10834Y-35355D01*
X10859Y-35365D01*
X10866Y-35366D01*
X10882Y-35368D01*
X10882Y-35368D01*
G37*
X10882Y-35368D02*
X10900Y-35368D01*
X10915Y-35366D01*
X10933Y-35361D01*
X10955Y-35349D01*
X10976Y-35332D01*
X10989Y-35317D01*
X11001Y-35296D01*
X11010Y-35272D01*
X11011Y-35262D01*
X11012Y-35248D01*
X11012Y-35233D01*
X11010Y-35220D01*
X11008Y-35213D01*
X10998Y-35188D01*
X10984Y-35167D01*
X10966Y-35149D01*
X10944Y-35135D01*
X10935Y-35131D01*
X10919Y-35126D01*
X10903Y-35124D01*
X10885Y-35123D01*
X10873Y-35124D01*
X10860Y-35126D01*
X10848Y-35129D01*
X10834Y-35135D01*
X10826Y-35140D01*
X10806Y-35155D01*
X10789Y-35174D01*
X10776Y-35196D01*
X10768Y-35221D01*
X10767Y-35227D01*
X10766Y-35242D01*
X10767Y-35257D01*
X10768Y-35270D01*
X10770Y-35279D01*
X10780Y-35303D01*
X10794Y-35324D01*
X10812Y-35342D01*
X10834Y-35355D01*
X10859Y-35365D01*
X10866Y-35366D01*
X10882Y-35368D01*
G36*
X11870Y-35368D02*
X11894Y-35367D01*
X11918Y-35360D01*
X11931Y-35354D01*
X11952Y-35339D01*
X11970Y-35321D01*
X11983Y-35299D01*
X11992Y-35275D01*
X11993Y-35270D01*
X11996Y-35250D01*
X11995Y-35231D01*
X11990Y-35210D01*
X11980Y-35186D01*
X11966Y-35165D01*
X11947Y-35148D01*
X11925Y-35135D01*
X11900Y-35126D01*
X11885Y-35122D01*
X11893Y-35121D01*
X11895Y-35121D01*
X11913Y-35116D01*
X11931Y-35108D01*
X11948Y-35097D01*
X11951Y-35094D01*
X11969Y-35076D01*
X11982Y-35056D01*
X11991Y-35033D01*
X11995Y-35009D01*
X11995Y-34985D01*
X11989Y-34961D01*
X11979Y-34938D01*
X11978Y-34937D01*
X11963Y-34917D01*
X11944Y-34900D01*
X11923Y-34888D01*
X11901Y-34881D01*
X11877Y-34878D01*
X11853Y-34879D01*
X11830Y-34885D01*
X11808Y-34896D01*
X11788Y-34911D01*
X11777Y-34923D01*
X11765Y-34941D01*
X11756Y-34960D01*
X11751Y-34978D01*
X11751Y-34983D01*
X11750Y-34985D01*
X11750Y-34983D01*
X11749Y-34978D01*
X11744Y-34962D01*
X11737Y-34944D01*
X11727Y-34928D01*
X11720Y-34920D01*
X11702Y-34902D01*
X11680Y-34889D01*
X11657Y-34881D01*
X11632Y-34877D01*
X11607Y-34879D01*
X11591Y-34883D01*
X11568Y-34893D01*
X11547Y-34907D01*
X11530Y-34925D01*
X11517Y-34947D01*
X11508Y-34971D01*
X11506Y-34983D01*
X11505Y-35008D01*
X11509Y-35033D01*
X11518Y-35056D01*
X11532Y-35076D01*
X11549Y-35094D01*
X11571Y-35109D01*
X11581Y-35113D01*
X11592Y-35117D01*
X11603Y-35120D01*
X11611Y-35122D01*
X11612Y-35122D01*
X11612Y-35122D01*
X11606Y-35124D01*
X11594Y-35127D01*
X11578Y-35133D01*
X11564Y-35140D01*
X11556Y-35145D01*
X11539Y-35160D01*
X11525Y-35177D01*
X11514Y-35196D01*
X11508Y-35216D01*
X11505Y-35239D01*
X11505Y-35260D01*
X11506Y-35264D01*
X11512Y-35290D01*
X11524Y-35312D01*
X11541Y-35332D01*
X11555Y-35345D01*
X11577Y-35358D01*
X11601Y-35366D01*
X11610Y-35367D01*
X11624Y-35368D01*
X11638Y-35367D01*
X11651Y-35366D01*
X11661Y-35364D01*
X11669Y-35362D01*
X11693Y-35350D01*
X11713Y-35334D01*
X11730Y-35314D01*
X11736Y-35304D01*
X11743Y-35287D01*
X11748Y-35271D01*
X11748Y-35270D01*
X11750Y-35264D01*
X11750Y-35262D01*
X11750Y-35262D01*
X11750Y-35229D01*
X11750Y-35229D01*
X11749Y-35226D01*
X11748Y-35220D01*
X11748Y-35218D01*
X11740Y-35196D01*
X11729Y-35176D01*
X11713Y-35157D01*
X11694Y-35142D01*
X11673Y-35131D01*
X11672Y-35131D01*
X11661Y-35127D01*
X11651Y-35125D01*
X11640Y-35122D01*
X11650Y-35120D01*
X11665Y-35117D01*
X11687Y-35107D01*
X11707Y-35093D01*
X11724Y-35076D01*
X11737Y-35056D01*
X11742Y-35045D01*
X11746Y-35032D01*
X11749Y-35022D01*
X11749Y-35017D01*
X11750Y-35015D01*
X11750Y-35017D01*
X11751Y-35022D01*
X11753Y-35031D01*
X11758Y-35044D01*
X11763Y-35056D01*
X11770Y-35068D01*
X11786Y-35087D01*
X11805Y-35103D01*
X11827Y-35114D01*
X11850Y-35121D01*
X11861Y-35122D01*
X11850Y-35125D01*
X11848Y-35125D01*
X11837Y-35128D01*
X11827Y-35131D01*
X11825Y-35132D01*
X11804Y-35143D01*
X11786Y-35159D01*
X11770Y-35177D01*
X11759Y-35198D01*
X11752Y-35220D01*
X11752Y-35221D01*
X11751Y-35227D01*
X11750Y-35229D01*
X11750Y-35262D01*
X11750Y-35262D01*
X11751Y-35265D01*
X11752Y-35271D01*
X11756Y-35287D01*
X11767Y-35309D01*
X11782Y-35329D01*
X11800Y-35345D01*
X11822Y-35358D01*
X11822Y-35358D01*
X11845Y-35365D01*
X11870Y-35368D01*
X11870Y-35368D01*
G37*
X11870Y-35368D02*
X11894Y-35367D01*
X11918Y-35360D01*
X11931Y-35354D01*
X11952Y-35339D01*
X11970Y-35321D01*
X11983Y-35299D01*
X11992Y-35275D01*
X11993Y-35270D01*
X11996Y-35250D01*
X11995Y-35231D01*
X11990Y-35210D01*
X11980Y-35186D01*
X11966Y-35165D01*
X11947Y-35148D01*
X11925Y-35135D01*
X11900Y-35126D01*
X11885Y-35122D01*
X11893Y-35121D01*
X11895Y-35121D01*
X11913Y-35116D01*
X11931Y-35108D01*
X11948Y-35097D01*
X11951Y-35094D01*
X11969Y-35076D01*
X11982Y-35056D01*
X11991Y-35033D01*
X11995Y-35009D01*
X11995Y-34985D01*
X11989Y-34961D01*
X11979Y-34938D01*
X11978Y-34937D01*
X11963Y-34917D01*
X11944Y-34900D01*
X11923Y-34888D01*
X11901Y-34881D01*
X11877Y-34878D01*
X11853Y-34879D01*
X11830Y-34885D01*
X11808Y-34896D01*
X11788Y-34911D01*
X11777Y-34923D01*
X11765Y-34941D01*
X11756Y-34960D01*
X11751Y-34978D01*
X11751Y-34983D01*
X11750Y-34985D01*
X11750Y-34983D01*
X11749Y-34978D01*
X11744Y-34962D01*
X11737Y-34944D01*
X11727Y-34928D01*
X11720Y-34920D01*
X11702Y-34902D01*
X11680Y-34889D01*
X11657Y-34881D01*
X11632Y-34877D01*
X11607Y-34879D01*
X11591Y-34883D01*
X11568Y-34893D01*
X11547Y-34907D01*
X11530Y-34925D01*
X11517Y-34947D01*
X11508Y-34971D01*
X11506Y-34983D01*
X11505Y-35008D01*
X11509Y-35033D01*
X11518Y-35056D01*
X11532Y-35076D01*
X11549Y-35094D01*
X11571Y-35109D01*
X11581Y-35113D01*
X11592Y-35117D01*
X11603Y-35120D01*
X11611Y-35122D01*
X11612Y-35122D01*
X11612Y-35122D01*
X11606Y-35124D01*
X11594Y-35127D01*
X11578Y-35133D01*
X11564Y-35140D01*
X11556Y-35145D01*
X11539Y-35160D01*
X11525Y-35177D01*
X11514Y-35196D01*
X11508Y-35216D01*
X11505Y-35239D01*
X11505Y-35260D01*
X11506Y-35264D01*
X11512Y-35290D01*
X11524Y-35312D01*
X11541Y-35332D01*
X11555Y-35345D01*
X11577Y-35358D01*
X11601Y-35366D01*
X11610Y-35367D01*
X11624Y-35368D01*
X11638Y-35367D01*
X11651Y-35366D01*
X11661Y-35364D01*
X11669Y-35362D01*
X11693Y-35350D01*
X11713Y-35334D01*
X11730Y-35314D01*
X11736Y-35304D01*
X11743Y-35287D01*
X11748Y-35271D01*
X11748Y-35270D01*
X11750Y-35264D01*
X11750Y-35262D01*
X11750Y-35262D01*
X11750Y-35229D01*
X11750Y-35229D01*
X11749Y-35226D01*
X11748Y-35220D01*
X11748Y-35218D01*
X11740Y-35196D01*
X11729Y-35176D01*
X11713Y-35157D01*
X11694Y-35142D01*
X11673Y-35131D01*
X11672Y-35131D01*
X11661Y-35127D01*
X11651Y-35125D01*
X11640Y-35122D01*
X11650Y-35120D01*
X11665Y-35117D01*
X11687Y-35107D01*
X11707Y-35093D01*
X11724Y-35076D01*
X11737Y-35056D01*
X11742Y-35045D01*
X11746Y-35032D01*
X11749Y-35022D01*
X11749Y-35017D01*
X11750Y-35015D01*
X11750Y-35017D01*
X11751Y-35022D01*
X11753Y-35031D01*
X11758Y-35044D01*
X11763Y-35056D01*
X11770Y-35068D01*
X11786Y-35087D01*
X11805Y-35103D01*
X11827Y-35114D01*
X11850Y-35121D01*
X11861Y-35122D01*
X11850Y-35125D01*
X11848Y-35125D01*
X11837Y-35128D01*
X11827Y-35131D01*
X11825Y-35132D01*
X11804Y-35143D01*
X11786Y-35159D01*
X11770Y-35177D01*
X11759Y-35198D01*
X11752Y-35220D01*
X11752Y-35221D01*
X11751Y-35227D01*
X11750Y-35229D01*
X11750Y-35262D01*
X11750Y-35262D01*
X11751Y-35265D01*
X11752Y-35271D01*
X11756Y-35287D01*
X11767Y-35309D01*
X11782Y-35329D01*
X11800Y-35345D01*
X11822Y-35358D01*
X11822Y-35358D01*
X11845Y-35365D01*
X11870Y-35368D01*
G36*
X12602Y-35368D02*
X12622Y-35368D01*
X12640Y-35365D01*
X12652Y-35362D01*
X12675Y-35351D01*
X12695Y-35336D01*
X12711Y-35317D01*
X12723Y-35295D01*
X12731Y-35271D01*
X12734Y-35246D01*
X12733Y-35235D01*
X12729Y-35210D01*
X12719Y-35186D01*
X12704Y-35164D01*
X12699Y-35160D01*
X12682Y-35145D01*
X12661Y-35133D01*
X12640Y-35126D01*
X12639Y-35126D01*
X12621Y-35123D01*
X12601Y-35123D01*
X12582Y-35126D01*
X12576Y-35128D01*
X12552Y-35137D01*
X12532Y-35151D01*
X12515Y-35169D01*
X12502Y-35189D01*
X12493Y-35211D01*
X12488Y-35235D01*
X12488Y-35260D01*
X12494Y-35285D01*
X12502Y-35303D01*
X12516Y-35324D01*
X12535Y-35342D01*
X12556Y-35356D01*
X12580Y-35365D01*
X12583Y-35365D01*
X12602Y-35368D01*
X12602Y-35368D01*
G37*
X12602Y-35368D02*
X12622Y-35368D01*
X12640Y-35365D01*
X12652Y-35362D01*
X12675Y-35351D01*
X12695Y-35336D01*
X12711Y-35317D01*
X12723Y-35295D01*
X12731Y-35271D01*
X12734Y-35246D01*
X12733Y-35235D01*
X12729Y-35210D01*
X12719Y-35186D01*
X12704Y-35164D01*
X12699Y-35160D01*
X12682Y-35145D01*
X12661Y-35133D01*
X12640Y-35126D01*
X12639Y-35126D01*
X12621Y-35123D01*
X12601Y-35123D01*
X12582Y-35126D01*
X12576Y-35128D01*
X12552Y-35137D01*
X12532Y-35151D01*
X12515Y-35169D01*
X12502Y-35189D01*
X12493Y-35211D01*
X12488Y-35235D01*
X12488Y-35260D01*
X12494Y-35285D01*
X12502Y-35303D01*
X12516Y-35324D01*
X12535Y-35342D01*
X12556Y-35356D01*
X12580Y-35365D01*
X12583Y-35365D01*
X12602Y-35368D01*
G36*
X11385Y-34631D02*
X11409Y-34628D01*
X11433Y-34620D01*
X11444Y-34614D01*
X11455Y-34606D01*
X11467Y-34596D01*
X11480Y-34582D01*
X11492Y-34562D01*
X11501Y-34538D01*
X11502Y-34531D01*
X11504Y-34515D01*
X11504Y-34497D01*
X11502Y-34482D01*
X11495Y-34462D01*
X11484Y-34440D01*
X11469Y-34422D01*
X11467Y-34419D01*
X11455Y-34410D01*
X11442Y-34401D01*
X11429Y-34395D01*
X11425Y-34393D01*
X11415Y-34390D01*
X11405Y-34387D01*
X11398Y-34386D01*
X11394Y-34386D01*
X11398Y-34385D01*
X11404Y-34383D01*
X11412Y-34381D01*
X11421Y-34379D01*
X11439Y-34370D01*
X11457Y-34359D01*
X11472Y-34346D01*
X11474Y-34343D01*
X11489Y-34322D01*
X11499Y-34298D01*
X11504Y-34274D01*
X11504Y-34249D01*
X11503Y-34243D01*
X11496Y-34218D01*
X11485Y-34196D01*
X11468Y-34175D01*
X11453Y-34162D01*
X11432Y-34150D01*
X11408Y-34142D01*
X11403Y-34141D01*
X11386Y-34139D01*
X11369Y-34140D01*
X11353Y-34142D01*
X11339Y-34147D01*
X11317Y-34158D01*
X11297Y-34173D01*
X11281Y-34191D01*
X11268Y-34213D01*
X11261Y-34236D01*
X11260Y-34239D01*
X11259Y-34245D01*
X11257Y-34247D01*
X11257Y-34245D01*
X11256Y-34239D01*
X11254Y-34229D01*
X11250Y-34218D01*
X11246Y-34208D01*
X11242Y-34201D01*
X11227Y-34180D01*
X11208Y-34163D01*
X11186Y-34150D01*
X11162Y-34142D01*
X11136Y-34139D01*
X11116Y-34141D01*
X11093Y-34147D01*
X11071Y-34157D01*
X11058Y-34166D01*
X11040Y-34184D01*
X11027Y-34205D01*
X11017Y-34228D01*
X11012Y-34252D01*
X11013Y-34276D01*
X11018Y-34299D01*
X11028Y-34323D01*
X11043Y-34344D01*
X11062Y-34361D01*
X11084Y-34374D01*
X11109Y-34383D01*
X11123Y-34386D01*
X11115Y-34387D01*
X11110Y-34388D01*
X11090Y-34394D01*
X11071Y-34404D01*
X11053Y-34417D01*
X11039Y-34432D01*
X11030Y-34445D01*
X11021Y-34462D01*
X11016Y-34478D01*
X11013Y-34491D01*
X11012Y-34507D01*
X11013Y-34522D01*
X11015Y-34535D01*
X11019Y-34550D01*
X11031Y-34573D01*
X11046Y-34594D01*
X11066Y-34610D01*
X11089Y-34622D01*
X11114Y-34630D01*
X11121Y-34631D01*
X11136Y-34631D01*
X11152Y-34630D01*
X11166Y-34628D01*
X11176Y-34625D01*
X11199Y-34613D01*
X11219Y-34598D01*
X11236Y-34579D01*
X11248Y-34557D01*
X11256Y-34533D01*
X11256Y-34531D01*
X11258Y-34525D01*
X11259Y-34526D01*
X11259Y-34492D01*
X11258Y-34491D01*
X11256Y-34486D01*
X11256Y-34485D01*
X11252Y-34468D01*
X11244Y-34451D01*
X11234Y-34435D01*
X11227Y-34426D01*
X11207Y-34408D01*
X11185Y-34396D01*
X11160Y-34388D01*
X11148Y-34385D01*
X11157Y-34384D01*
X11164Y-34382D01*
X11172Y-34380D01*
X11177Y-34378D01*
X11199Y-34367D01*
X11219Y-34352D01*
X11236Y-34333D01*
X11248Y-34312D01*
X11256Y-34288D01*
X11257Y-34282D01*
X11258Y-34279D01*
X11259Y-34281D01*
X11261Y-34289D01*
X11261Y-34289D01*
X11265Y-34302D01*
X11271Y-34317D01*
X11279Y-34330D01*
X11285Y-34338D01*
X11296Y-34350D01*
X11308Y-34361D01*
X11320Y-34369D01*
X11321Y-34370D01*
X11340Y-34378D01*
X11360Y-34384D01*
X11368Y-34385D01*
X11359Y-34387D01*
X11337Y-34393D01*
X11315Y-34405D01*
X11295Y-34420D01*
X11280Y-34439D01*
X11276Y-34445D01*
X11270Y-34457D01*
X11265Y-34469D01*
X11261Y-34481D01*
X11260Y-34489D01*
X11260Y-34489D01*
X11259Y-34492D01*
X11259Y-34526D01*
X11259Y-34526D01*
X11260Y-34531D01*
X11262Y-34538D01*
X11264Y-34546D01*
X11269Y-34559D01*
X11281Y-34580D01*
X11298Y-34598D01*
X11317Y-34613D01*
X11338Y-34623D01*
X11361Y-34630D01*
X11385Y-34631D01*
X11385Y-34631D01*
G37*
X11385Y-34631D02*
X11409Y-34628D01*
X11433Y-34620D01*
X11444Y-34614D01*
X11455Y-34606D01*
X11467Y-34596D01*
X11480Y-34582D01*
X11492Y-34562D01*
X11501Y-34538D01*
X11502Y-34531D01*
X11504Y-34515D01*
X11504Y-34497D01*
X11502Y-34482D01*
X11495Y-34462D01*
X11484Y-34440D01*
X11469Y-34422D01*
X11467Y-34419D01*
X11455Y-34410D01*
X11442Y-34401D01*
X11429Y-34395D01*
X11425Y-34393D01*
X11415Y-34390D01*
X11405Y-34387D01*
X11398Y-34386D01*
X11394Y-34386D01*
X11398Y-34385D01*
X11404Y-34383D01*
X11412Y-34381D01*
X11421Y-34379D01*
X11439Y-34370D01*
X11457Y-34359D01*
X11472Y-34346D01*
X11474Y-34343D01*
X11489Y-34322D01*
X11499Y-34298D01*
X11504Y-34274D01*
X11504Y-34249D01*
X11503Y-34243D01*
X11496Y-34218D01*
X11485Y-34196D01*
X11468Y-34175D01*
X11453Y-34162D01*
X11432Y-34150D01*
X11408Y-34142D01*
X11403Y-34141D01*
X11386Y-34139D01*
X11369Y-34140D01*
X11353Y-34142D01*
X11339Y-34147D01*
X11317Y-34158D01*
X11297Y-34173D01*
X11281Y-34191D01*
X11268Y-34213D01*
X11261Y-34236D01*
X11260Y-34239D01*
X11259Y-34245D01*
X11257Y-34247D01*
X11257Y-34245D01*
X11256Y-34239D01*
X11254Y-34229D01*
X11250Y-34218D01*
X11246Y-34208D01*
X11242Y-34201D01*
X11227Y-34180D01*
X11208Y-34163D01*
X11186Y-34150D01*
X11162Y-34142D01*
X11136Y-34139D01*
X11116Y-34141D01*
X11093Y-34147D01*
X11071Y-34157D01*
X11058Y-34166D01*
X11040Y-34184D01*
X11027Y-34205D01*
X11017Y-34228D01*
X11012Y-34252D01*
X11013Y-34276D01*
X11018Y-34299D01*
X11028Y-34323D01*
X11043Y-34344D01*
X11062Y-34361D01*
X11084Y-34374D01*
X11109Y-34383D01*
X11123Y-34386D01*
X11115Y-34387D01*
X11110Y-34388D01*
X11090Y-34394D01*
X11071Y-34404D01*
X11053Y-34417D01*
X11039Y-34432D01*
X11030Y-34445D01*
X11021Y-34462D01*
X11016Y-34478D01*
X11013Y-34491D01*
X11012Y-34507D01*
X11013Y-34522D01*
X11015Y-34535D01*
X11019Y-34550D01*
X11031Y-34573D01*
X11046Y-34594D01*
X11066Y-34610D01*
X11089Y-34622D01*
X11114Y-34630D01*
X11121Y-34631D01*
X11136Y-34631D01*
X11152Y-34630D01*
X11166Y-34628D01*
X11176Y-34625D01*
X11199Y-34613D01*
X11219Y-34598D01*
X11236Y-34579D01*
X11248Y-34557D01*
X11256Y-34533D01*
X11256Y-34531D01*
X11258Y-34525D01*
X11259Y-34526D01*
X11259Y-34492D01*
X11258Y-34491D01*
X11256Y-34486D01*
X11256Y-34485D01*
X11252Y-34468D01*
X11244Y-34451D01*
X11234Y-34435D01*
X11227Y-34426D01*
X11207Y-34408D01*
X11185Y-34396D01*
X11160Y-34388D01*
X11148Y-34385D01*
X11157Y-34384D01*
X11164Y-34382D01*
X11172Y-34380D01*
X11177Y-34378D01*
X11199Y-34367D01*
X11219Y-34352D01*
X11236Y-34333D01*
X11248Y-34312D01*
X11256Y-34288D01*
X11257Y-34282D01*
X11258Y-34279D01*
X11259Y-34281D01*
X11261Y-34289D01*
X11261Y-34289D01*
X11265Y-34302D01*
X11271Y-34317D01*
X11279Y-34330D01*
X11285Y-34338D01*
X11296Y-34350D01*
X11308Y-34361D01*
X11320Y-34369D01*
X11321Y-34370D01*
X11340Y-34378D01*
X11360Y-34384D01*
X11368Y-34385D01*
X11359Y-34387D01*
X11337Y-34393D01*
X11315Y-34405D01*
X11295Y-34420D01*
X11280Y-34439D01*
X11276Y-34445D01*
X11270Y-34457D01*
X11265Y-34469D01*
X11261Y-34481D01*
X11260Y-34489D01*
X11260Y-34489D01*
X11259Y-34492D01*
X11259Y-34526D01*
X11259Y-34526D01*
X11260Y-34531D01*
X11262Y-34538D01*
X11264Y-34546D01*
X11269Y-34559D01*
X11281Y-34580D01*
X11298Y-34598D01*
X11317Y-34613D01*
X11338Y-34623D01*
X11361Y-34630D01*
X11385Y-34631D01*
G36*
X12125Y-34631D02*
X12149Y-34628D01*
X12172Y-34619D01*
X12193Y-34606D01*
X12211Y-34590D01*
X12226Y-34569D01*
X12236Y-34546D01*
X12238Y-34538D01*
X12240Y-34531D01*
X12240Y-34530D01*
X12241Y-34525D01*
X12241Y-34525D01*
X12241Y-34491D01*
X12240Y-34488D01*
X12238Y-34479D01*
X12234Y-34465D01*
X12223Y-34443D01*
X12208Y-34424D01*
X12189Y-34408D01*
X12167Y-34395D01*
X12143Y-34388D01*
X12132Y-34385D01*
X12140Y-34384D01*
X12141Y-34383D01*
X12161Y-34378D01*
X12180Y-34369D01*
X12188Y-34364D01*
X12200Y-34354D01*
X12212Y-34342D01*
X12221Y-34330D01*
X12228Y-34319D01*
X12235Y-34304D01*
X12239Y-34289D01*
X12240Y-34282D01*
X12242Y-34279D01*
X12243Y-34281D01*
X12244Y-34288D01*
X12249Y-34304D01*
X12260Y-34327D01*
X12276Y-34348D01*
X12295Y-34364D01*
X12318Y-34376D01*
X12343Y-34384D01*
X12352Y-34385D01*
X12340Y-34388D01*
X12329Y-34391D01*
X12305Y-34401D01*
X12284Y-34416D01*
X12266Y-34435D01*
X12261Y-34442D01*
X12255Y-34453D01*
X12249Y-34466D01*
X12246Y-34475D01*
X12244Y-34485D01*
X12244Y-34485D01*
X12242Y-34490D01*
X12241Y-34491D01*
X12241Y-34525D01*
X12242Y-34526D01*
X12244Y-34532D01*
X12246Y-34541D01*
X12253Y-34559D01*
X12263Y-34577D01*
X12270Y-34586D01*
X12288Y-34605D01*
X12310Y-34618D01*
X12335Y-34628D01*
X12345Y-34630D01*
X12363Y-34631D01*
X12380Y-34630D01*
X12395Y-34628D01*
X12397Y-34627D01*
X12421Y-34618D01*
X12443Y-34603D01*
X12461Y-34585D01*
X12475Y-34563D01*
X12484Y-34539D01*
X12486Y-34527D01*
X12488Y-34510D01*
X12487Y-34493D01*
X12484Y-34478D01*
X12480Y-34465D01*
X12471Y-34447D01*
X12461Y-34432D01*
X12450Y-34420D01*
X12435Y-34408D01*
X12419Y-34398D01*
X12413Y-34395D01*
X12402Y-34391D01*
X12390Y-34388D01*
X12381Y-34386D01*
X12381Y-34386D01*
X12383Y-34385D01*
X12391Y-34383D01*
X12405Y-34378D01*
X12421Y-34372D01*
X12434Y-34364D01*
X12437Y-34362D01*
X12453Y-34348D01*
X12467Y-34330D01*
X12478Y-34312D01*
X12481Y-34303D01*
X12487Y-34278D01*
X12488Y-34253D01*
X12483Y-34228D01*
X12482Y-34223D01*
X12471Y-34200D01*
X12456Y-34180D01*
X12437Y-34163D01*
X12415Y-34150D01*
X12391Y-34142D01*
X12387Y-34141D01*
X12371Y-34139D01*
X12352Y-34140D01*
X12336Y-34142D01*
X12333Y-34143D01*
X12308Y-34153D01*
X12286Y-34167D01*
X12268Y-34186D01*
X12254Y-34208D01*
X12251Y-34215D01*
X12247Y-34226D01*
X12244Y-34237D01*
X12243Y-34245D01*
X12243Y-34246D01*
X12242Y-34247D01*
X12241Y-34244D01*
X12239Y-34237D01*
X12235Y-34220D01*
X12224Y-34198D01*
X12209Y-34179D01*
X12191Y-34163D01*
X12169Y-34150D01*
X12169Y-34150D01*
X12146Y-34142D01*
X12122Y-34139D01*
X12097Y-34141D01*
X12074Y-34148D01*
X12060Y-34154D01*
X12039Y-34169D01*
X12021Y-34187D01*
X12008Y-34208D01*
X11999Y-34232D01*
X11998Y-34237D01*
X11995Y-34257D01*
X11996Y-34276D01*
X12001Y-34299D01*
X12012Y-34323D01*
X12026Y-34343D01*
X12045Y-34361D01*
X12067Y-34374D01*
X12093Y-34383D01*
X12098Y-34384D01*
X12102Y-34386D01*
X12102Y-34386D01*
X12095Y-34387D01*
X12081Y-34391D01*
X12065Y-34398D01*
X12051Y-34406D01*
X12037Y-34416D01*
X12020Y-34435D01*
X12007Y-34457D01*
X12005Y-34461D01*
X11998Y-34485D01*
X11996Y-34510D01*
X11999Y-34536D01*
X12007Y-34559D01*
X12012Y-34571D01*
X12020Y-34582D01*
X12030Y-34594D01*
X12031Y-34594D01*
X12051Y-34611D01*
X12073Y-34623D01*
X12098Y-34630D01*
X12100Y-34630D01*
X12125Y-34631D01*
X12125Y-34631D01*
G37*
X12125Y-34631D02*
X12149Y-34628D01*
X12172Y-34619D01*
X12193Y-34606D01*
X12211Y-34590D01*
X12226Y-34569D01*
X12236Y-34546D01*
X12238Y-34538D01*
X12240Y-34531D01*
X12240Y-34530D01*
X12241Y-34525D01*
X12241Y-34525D01*
X12241Y-34491D01*
X12240Y-34488D01*
X12238Y-34479D01*
X12234Y-34465D01*
X12223Y-34443D01*
X12208Y-34424D01*
X12189Y-34408D01*
X12167Y-34395D01*
X12143Y-34388D01*
X12132Y-34385D01*
X12140Y-34384D01*
X12141Y-34383D01*
X12161Y-34378D01*
X12180Y-34369D01*
X12188Y-34364D01*
X12200Y-34354D01*
X12212Y-34342D01*
X12221Y-34330D01*
X12228Y-34319D01*
X12235Y-34304D01*
X12239Y-34289D01*
X12240Y-34282D01*
X12242Y-34279D01*
X12243Y-34281D01*
X12244Y-34288D01*
X12249Y-34304D01*
X12260Y-34327D01*
X12276Y-34348D01*
X12295Y-34364D01*
X12318Y-34376D01*
X12343Y-34384D01*
X12352Y-34385D01*
X12340Y-34388D01*
X12329Y-34391D01*
X12305Y-34401D01*
X12284Y-34416D01*
X12266Y-34435D01*
X12261Y-34442D01*
X12255Y-34453D01*
X12249Y-34466D01*
X12246Y-34475D01*
X12244Y-34485D01*
X12244Y-34485D01*
X12242Y-34490D01*
X12241Y-34491D01*
X12241Y-34525D01*
X12242Y-34526D01*
X12244Y-34532D01*
X12246Y-34541D01*
X12253Y-34559D01*
X12263Y-34577D01*
X12270Y-34586D01*
X12288Y-34605D01*
X12310Y-34618D01*
X12335Y-34628D01*
X12345Y-34630D01*
X12363Y-34631D01*
X12380Y-34630D01*
X12395Y-34628D01*
X12397Y-34627D01*
X12421Y-34618D01*
X12443Y-34603D01*
X12461Y-34585D01*
X12475Y-34563D01*
X12484Y-34539D01*
X12486Y-34527D01*
X12488Y-34510D01*
X12487Y-34493D01*
X12484Y-34478D01*
X12480Y-34465D01*
X12471Y-34447D01*
X12461Y-34432D01*
X12450Y-34420D01*
X12435Y-34408D01*
X12419Y-34398D01*
X12413Y-34395D01*
X12402Y-34391D01*
X12390Y-34388D01*
X12381Y-34386D01*
X12381Y-34386D01*
X12383Y-34385D01*
X12391Y-34383D01*
X12405Y-34378D01*
X12421Y-34372D01*
X12434Y-34364D01*
X12437Y-34362D01*
X12453Y-34348D01*
X12467Y-34330D01*
X12478Y-34312D01*
X12481Y-34303D01*
X12487Y-34278D01*
X12488Y-34253D01*
X12483Y-34228D01*
X12482Y-34223D01*
X12471Y-34200D01*
X12456Y-34180D01*
X12437Y-34163D01*
X12415Y-34150D01*
X12391Y-34142D01*
X12387Y-34141D01*
X12371Y-34139D01*
X12352Y-34140D01*
X12336Y-34142D01*
X12333Y-34143D01*
X12308Y-34153D01*
X12286Y-34167D01*
X12268Y-34186D01*
X12254Y-34208D01*
X12251Y-34215D01*
X12247Y-34226D01*
X12244Y-34237D01*
X12243Y-34245D01*
X12243Y-34246D01*
X12242Y-34247D01*
X12241Y-34244D01*
X12239Y-34237D01*
X12235Y-34220D01*
X12224Y-34198D01*
X12209Y-34179D01*
X12191Y-34163D01*
X12169Y-34150D01*
X12169Y-34150D01*
X12146Y-34142D01*
X12122Y-34139D01*
X12097Y-34141D01*
X12074Y-34148D01*
X12060Y-34154D01*
X12039Y-34169D01*
X12021Y-34187D01*
X12008Y-34208D01*
X11999Y-34232D01*
X11998Y-34237D01*
X11995Y-34257D01*
X11996Y-34276D01*
X12001Y-34299D01*
X12012Y-34323D01*
X12026Y-34343D01*
X12045Y-34361D01*
X12067Y-34374D01*
X12093Y-34383D01*
X12098Y-34384D01*
X12102Y-34386D01*
X12102Y-34386D01*
X12095Y-34387D01*
X12081Y-34391D01*
X12065Y-34398D01*
X12051Y-34406D01*
X12037Y-34416D01*
X12020Y-34435D01*
X12007Y-34457D01*
X12005Y-34461D01*
X11998Y-34485D01*
X11996Y-34510D01*
X11999Y-34536D01*
X12007Y-34559D01*
X12012Y-34571D01*
X12020Y-34582D01*
X12030Y-34594D01*
X12031Y-34594D01*
X12051Y-34611D01*
X12073Y-34623D01*
X12098Y-34630D01*
X12100Y-34630D01*
X12125Y-34631D01*
%LPC*%
G54D15*
X9785Y-35000D03*
X26714Y-35000D03*
G54D16*
X10750Y-40500D03*
X11750Y-40500D03*
X12750Y-40500D03*
X13750Y-40500D03*
X14750Y-40500D03*
X15750Y-40500D03*
X16750Y-40500D03*
X17750Y-40500D03*
X18750Y-30500D03*
X19750Y-30500D03*
X20750Y-30500D03*
X21750Y-30500D03*
X22750Y-30500D03*
X23750Y-30500D03*
X24750Y-30500D03*
X25750Y-30500D03*
G54D17*
X22500Y-29000D03*
X23000Y-29000D03*
X23500Y-29000D03*
X24000Y-29000D03*
X24500Y-29000D03*
X25000Y-29000D03*
X25500Y-29000D03*
X26000Y-29000D03*
G54D16*
X18750Y-33500D03*
X19750Y-33500D03*
X20750Y-33500D03*
X21750Y-33500D03*
X22750Y-33500D03*
X23750Y-33500D03*
X24750Y-33500D03*
X25750Y-33500D03*
X18750Y-29500D03*
X19750Y-29500D03*
X20750Y-29500D03*
X21750Y-29500D03*
X22750Y-29500D03*
X23750Y-29500D03*
X24750Y-29500D03*
X25750Y-29500D03*
X18750Y-31500D03*
X19750Y-31500D03*
X20750Y-31500D03*
X21750Y-31500D03*
X22750Y-31500D03*
X23750Y-31500D03*
X24750Y-31500D03*
X25750Y-31500D03*
X18750Y-32500D03*
X19750Y-32500D03*
X20750Y-32500D03*
X21750Y-32500D03*
X22750Y-32500D03*
X23750Y-32500D03*
X24750Y-32500D03*
X25750Y-32500D03*
X18750Y-36500D03*
X19750Y-36500D03*
X20750Y-36500D03*
X21750Y-36500D03*
X22750Y-36500D03*
X23750Y-36500D03*
X24750Y-36500D03*
X25750Y-36500D03*
X18750Y-40500D03*
X19750Y-40500D03*
X20750Y-40500D03*
X21750Y-40500D03*
X22750Y-40500D03*
X23750Y-40500D03*
X24750Y-40500D03*
X25750Y-40500D03*
X18750Y-39500D03*
X19750Y-39500D03*
X20750Y-39500D03*
X21750Y-39500D03*
X22750Y-39500D03*
X23750Y-39500D03*
X24750Y-39500D03*
X25750Y-39500D03*
X18750Y-38500D03*
X19750Y-38500D03*
X20750Y-38500D03*
X21750Y-38500D03*
X22750Y-38500D03*
X23750Y-38500D03*
X24750Y-38500D03*
X25750Y-38500D03*
X18750Y-37500D03*
X19750Y-37500D03*
X20750Y-37500D03*
X21750Y-37500D03*
X22750Y-37500D03*
X23750Y-37500D03*
X24750Y-37500D03*
X25750Y-37500D03*
G54D17*
X18500Y-29000D03*
X19000Y-29000D03*
X19500Y-29000D03*
X20000Y-29000D03*
X20500Y-29000D03*
X21000Y-29000D03*
X21500Y-29000D03*
X22000Y-29000D03*
X18500Y-30000D03*
X19000Y-30000D03*
X19500Y-30000D03*
X20000Y-30000D03*
X20500Y-30000D03*
X21000Y-30000D03*
X21500Y-30000D03*
X22000Y-30000D03*
X18500Y-31000D03*
X19000Y-31000D03*
X19500Y-31000D03*
X20000Y-31000D03*
X20500Y-31000D03*
X21000Y-31000D03*
X21500Y-31000D03*
X22000Y-31000D03*
X18500Y-32000D03*
X19000Y-32000D03*
X19500Y-32000D03*
X20000Y-32000D03*
X20500Y-32000D03*
X21000Y-32000D03*
X21500Y-32000D03*
X22000Y-32000D03*
X18500Y-33000D03*
X19000Y-33000D03*
X19500Y-33000D03*
X20000Y-33000D03*
X20500Y-33000D03*
X21000Y-33000D03*
X21500Y-33000D03*
X22000Y-33000D03*
X18500Y-37000D03*
X19000Y-37000D03*
X19500Y-37000D03*
X20000Y-37000D03*
X20500Y-37000D03*
X21000Y-37000D03*
X21500Y-37000D03*
X22000Y-37000D03*
X18500Y-38000D03*
X19000Y-38000D03*
X19500Y-38000D03*
X20000Y-38000D03*
X20500Y-38000D03*
X21000Y-38000D03*
X21500Y-38000D03*
X22000Y-38000D03*
X18500Y-39000D03*
X19000Y-39000D03*
X19500Y-39000D03*
X20000Y-39000D03*
X20500Y-39000D03*
X21000Y-39000D03*
X21500Y-39000D03*
X22000Y-39000D03*
X18500Y-40000D03*
X19000Y-40000D03*
X19500Y-40000D03*
X20000Y-40000D03*
X20500Y-40000D03*
X21000Y-40000D03*
X21500Y-40000D03*
X22000Y-40000D03*
X18500Y-41000D03*
X19000Y-41000D03*
X19500Y-41000D03*
X20000Y-41000D03*
X20500Y-41000D03*
X21000Y-41000D03*
X21500Y-41000D03*
X22000Y-41000D03*
X22500Y-30000D03*
X23000Y-30000D03*
X23500Y-30000D03*
X24000Y-30000D03*
X24500Y-30000D03*
X25000Y-30000D03*
X25500Y-30000D03*
X26000Y-30000D03*
X22500Y-31000D03*
X23000Y-31000D03*
X23500Y-31000D03*
X24000Y-31000D03*
X24500Y-31000D03*
X25000Y-31000D03*
X25500Y-31000D03*
X26000Y-31000D03*
X22500Y-32000D03*
X23000Y-32000D03*
X23500Y-32000D03*
X24000Y-32000D03*
X24500Y-32000D03*
X25000Y-32000D03*
X25500Y-32000D03*
X26000Y-32000D03*
X22500Y-33000D03*
X23000Y-33000D03*
X23500Y-33000D03*
X24000Y-33000D03*
X24500Y-33000D03*
X25000Y-33000D03*
X25500Y-33000D03*
X26000Y-33000D03*
X22500Y-41000D03*
X23000Y-41000D03*
X23500Y-41000D03*
X24000Y-41000D03*
X24500Y-41000D03*
X25000Y-41000D03*
X25500Y-41000D03*
X26000Y-41000D03*
X22500Y-40000D03*
X23000Y-40000D03*
X23500Y-40000D03*
X24000Y-40000D03*
X24500Y-40000D03*
X25000Y-40000D03*
X25500Y-40000D03*
X26000Y-40000D03*
X22500Y-39000D03*
X23000Y-39000D03*
X23500Y-39000D03*
X24000Y-39000D03*
X24500Y-39000D03*
X25000Y-39000D03*
X25500Y-39000D03*
X26000Y-39000D03*
X22500Y-38000D03*
X23000Y-38000D03*
X23500Y-38000D03*
X24000Y-38000D03*
X24500Y-38000D03*
X25000Y-38000D03*
X25500Y-38000D03*
X26000Y-38000D03*
X22500Y-37000D03*
X23000Y-37000D03*
X23500Y-37000D03*
X24000Y-37000D03*
X24500Y-37000D03*
X25000Y-37000D03*
X25500Y-37000D03*
X26000Y-37000D03*
X18500Y-42000D03*
X19000Y-42000D03*
X19500Y-42000D03*
X20000Y-42000D03*
X20500Y-42000D03*
X21000Y-42000D03*
X21500Y-42000D03*
X22000Y-42000D03*
X22500Y-42000D03*
X23000Y-42000D03*
X23500Y-42000D03*
X24000Y-42000D03*
X24500Y-42000D03*
X25000Y-42000D03*
X25500Y-42000D03*
X26000Y-42000D03*
G54D16*
X18750Y-42500D03*
X19750Y-42500D03*
X20750Y-42500D03*
X21750Y-42500D03*
X22750Y-42500D03*
X23750Y-42500D03*
X24750Y-42500D03*
X25750Y-42500D03*
X18750Y-43500D03*
X19750Y-43500D03*
X20750Y-43500D03*
X21750Y-43500D03*
X22750Y-43500D03*
X23750Y-43500D03*
X24750Y-43500D03*
X25750Y-43500D03*
G54D17*
X22500Y-44000D03*
X23000Y-44000D03*
X23500Y-44000D03*
X24000Y-44000D03*
X24500Y-44000D03*
X25000Y-44000D03*
X25500Y-44000D03*
X26000Y-44000D03*
X18500Y-44000D03*
X19000Y-44000D03*
X19500Y-44000D03*
X20000Y-44000D03*
X20500Y-44000D03*
X21000Y-44000D03*
X21500Y-44000D03*
X22000Y-44000D03*
X18500Y-28000D03*
X19000Y-28000D03*
X19500Y-28000D03*
X20000Y-28000D03*
X20500Y-28000D03*
X21000Y-28000D03*
X21500Y-28000D03*
X22000Y-28000D03*
X22500Y-28000D03*
X23000Y-28000D03*
X23500Y-28000D03*
X24000Y-28000D03*
X24500Y-28000D03*
X25000Y-28000D03*
X25500Y-28000D03*
X26000Y-28000D03*
G54D16*
X18750Y-27500D03*
X19750Y-27500D03*
X20750Y-27500D03*
X21750Y-27500D03*
X22750Y-27500D03*
X23750Y-27500D03*
X24750Y-27500D03*
X25750Y-27500D03*
X18750Y-26500D03*
X19750Y-26500D03*
X20750Y-26500D03*
X21750Y-26500D03*
X22750Y-26500D03*
X23750Y-26500D03*
X24750Y-26500D03*
X25750Y-26500D03*
G54D17*
X22500Y-26000D03*
X23000Y-26000D03*
X23500Y-26000D03*
X24000Y-26000D03*
X24500Y-26000D03*
X25000Y-26000D03*
X25500Y-26000D03*
X26000Y-26000D03*
X18500Y-26000D03*
X19000Y-26000D03*
X19500Y-26000D03*
X20000Y-26000D03*
X20500Y-26000D03*
X21000Y-26000D03*
X21500Y-26000D03*
X22000Y-26000D03*
X10500Y-26000D03*
X11000Y-26000D03*
X11500Y-26000D03*
X12000Y-26000D03*
X12500Y-26000D03*
X13000Y-26000D03*
X13500Y-26000D03*
X14000Y-26000D03*
X14500Y-26000D03*
X15000Y-26000D03*
X15500Y-26000D03*
X16000Y-26000D03*
X16500Y-26000D03*
X17000Y-26000D03*
X17500Y-26000D03*
X18000Y-26000D03*
G54D16*
X10750Y-26500D03*
X11750Y-26500D03*
X12750Y-26500D03*
X13750Y-26500D03*
X14750Y-26500D03*
X15750Y-26500D03*
X16750Y-26500D03*
X17750Y-26500D03*
X10750Y-27500D03*
X11750Y-27500D03*
X12750Y-27500D03*
X13750Y-27500D03*
X14750Y-27500D03*
X15750Y-27500D03*
X16750Y-27500D03*
X17750Y-27500D03*
G54D17*
X14500Y-28000D03*
X15000Y-28000D03*
X15500Y-28000D03*
X16000Y-28000D03*
X16500Y-28000D03*
X17000Y-28000D03*
X17500Y-28000D03*
X18000Y-28000D03*
X10500Y-28000D03*
X11000Y-28000D03*
X11500Y-28000D03*
X12000Y-28000D03*
X12500Y-28000D03*
X13000Y-28000D03*
X13500Y-28000D03*
X14000Y-28000D03*
X10500Y-44000D03*
X11000Y-44000D03*
X11500Y-44000D03*
X12000Y-44000D03*
X12500Y-44000D03*
X13000Y-44000D03*
X13500Y-44000D03*
X14000Y-44000D03*
X14500Y-44000D03*
X15000Y-44000D03*
X15500Y-44000D03*
X16000Y-44000D03*
X16500Y-44000D03*
X17000Y-44000D03*
X17500Y-44000D03*
X18000Y-44000D03*
G54D16*
X10750Y-43500D03*
X11750Y-43500D03*
X12750Y-43500D03*
X13750Y-43500D03*
X14750Y-43500D03*
X15750Y-43500D03*
X16750Y-43500D03*
X17750Y-43500D03*
X10750Y-42500D03*
X11750Y-42500D03*
X12750Y-42500D03*
X13750Y-42500D03*
X14750Y-42500D03*
X15750Y-42500D03*
X16750Y-42500D03*
X17750Y-42500D03*
G54D17*
X14500Y-42000D03*
X15000Y-42000D03*
X15500Y-42000D03*
X16000Y-42000D03*
X16500Y-42000D03*
X17000Y-42000D03*
X17500Y-42000D03*
X18000Y-42000D03*
X10500Y-42000D03*
X11000Y-42000D03*
X11500Y-42000D03*
X12000Y-42000D03*
X12500Y-42000D03*
X13000Y-42000D03*
X13500Y-42000D03*
X14000Y-42000D03*
X14500Y-37000D03*
X15000Y-37000D03*
X15500Y-37000D03*
X16000Y-37000D03*
X16500Y-37000D03*
X17000Y-37000D03*
X17500Y-37000D03*
X18000Y-37000D03*
X14500Y-38000D03*
X15000Y-38000D03*
X15500Y-38000D03*
X16000Y-38000D03*
X16500Y-38000D03*
X17000Y-38000D03*
X17500Y-38000D03*
X18000Y-38000D03*
X14500Y-39000D03*
X15000Y-39000D03*
X15500Y-39000D03*
X16000Y-39000D03*
X16500Y-39000D03*
X17000Y-39000D03*
X17500Y-39000D03*
X18000Y-39000D03*
X14500Y-40000D03*
X15000Y-40000D03*
X15500Y-40000D03*
X16000Y-40000D03*
X16500Y-40000D03*
X17000Y-40000D03*
X17500Y-40000D03*
X18000Y-40000D03*
X14500Y-41000D03*
X15000Y-41000D03*
X15500Y-41000D03*
X16000Y-41000D03*
X16500Y-41000D03*
X17000Y-41000D03*
X17500Y-41000D03*
X18000Y-41000D03*
X14500Y-33000D03*
X15000Y-33000D03*
X15500Y-33000D03*
X16000Y-33000D03*
X16500Y-33000D03*
X17000Y-33000D03*
X17500Y-33000D03*
X18000Y-33000D03*
X14500Y-32000D03*
X15000Y-32000D03*
X15500Y-32000D03*
X16000Y-32000D03*
X16500Y-32000D03*
X17000Y-32000D03*
X17500Y-32000D03*
X18000Y-32000D03*
X14500Y-31000D03*
X15000Y-31000D03*
X15500Y-31000D03*
X16000Y-31000D03*
X16500Y-31000D03*
X17000Y-31000D03*
X17500Y-31000D03*
X18000Y-31000D03*
X14500Y-30000D03*
X15000Y-30000D03*
X15500Y-30000D03*
X16000Y-30000D03*
X16500Y-30000D03*
X17000Y-30000D03*
X17500Y-30000D03*
X18000Y-30000D03*
X10500Y-41000D03*
X11000Y-41000D03*
X11500Y-41000D03*
X12000Y-41000D03*
X12500Y-41000D03*
X13000Y-41000D03*
X13500Y-41000D03*
X14000Y-41000D03*
X10500Y-40000D03*
X11000Y-40000D03*
X11500Y-40000D03*
X12000Y-40000D03*
X12500Y-40000D03*
X13000Y-40000D03*
X13500Y-40000D03*
X14000Y-40000D03*
X10500Y-39000D03*
X11000Y-39000D03*
X11500Y-39000D03*
X12000Y-39000D03*
X12500Y-39000D03*
X13000Y-39000D03*
X13500Y-39000D03*
X14000Y-39000D03*
X10500Y-38000D03*
X11000Y-38000D03*
X11500Y-38000D03*
X12000Y-38000D03*
X12500Y-38000D03*
X13000Y-38000D03*
X13500Y-38000D03*
X14000Y-38000D03*
X10500Y-37000D03*
X11000Y-37000D03*
X11500Y-37000D03*
X12000Y-37000D03*
X12500Y-37000D03*
X13000Y-37000D03*
X13500Y-37000D03*
X14000Y-37000D03*
X10500Y-33000D03*
X11000Y-33000D03*
X11500Y-33000D03*
X12000Y-33000D03*
X12500Y-33000D03*
X13000Y-33000D03*
X13500Y-33000D03*
X14000Y-33000D03*
X10500Y-32000D03*
X11000Y-32000D03*
X11500Y-32000D03*
X12000Y-32000D03*
X12500Y-32000D03*
X13000Y-32000D03*
X13500Y-32000D03*
X14000Y-32000D03*
X10500Y-31000D03*
X11000Y-31000D03*
X11500Y-31000D03*
X12000Y-31000D03*
X12500Y-31000D03*
X13000Y-31000D03*
X13500Y-31000D03*
X14000Y-31000D03*
X10500Y-30000D03*
X11000Y-30000D03*
X11500Y-30000D03*
X12000Y-30000D03*
X12500Y-30000D03*
X13000Y-30000D03*
X13500Y-30000D03*
X14000Y-30000D03*
X10500Y-29000D03*
X11000Y-29000D03*
X11500Y-29000D03*
X12000Y-29000D03*
X12500Y-29000D03*
X13000Y-29000D03*
X13500Y-29000D03*
X14000Y-29000D03*
G54D16*
X10750Y-37500D03*
X11750Y-37500D03*
X12750Y-37500D03*
X13750Y-37500D03*
X14750Y-37500D03*
X15750Y-37500D03*
X16750Y-37500D03*
X17750Y-37500D03*
X10750Y-38500D03*
X11750Y-38500D03*
X12750Y-38500D03*
X13750Y-38500D03*
X14750Y-38500D03*
X15750Y-38500D03*
X16750Y-38500D03*
X17750Y-38500D03*
X10750Y-39500D03*
X11750Y-39500D03*
X12750Y-39500D03*
X13750Y-39500D03*
X14750Y-39500D03*
X15750Y-39500D03*
X16750Y-39500D03*
X17750Y-39500D03*
X10750Y-36500D03*
X11750Y-36500D03*
X12750Y-36500D03*
X13750Y-36500D03*
X14750Y-36500D03*
X15750Y-36500D03*
X16750Y-36500D03*
X17750Y-36500D03*
X10750Y-32500D03*
X11750Y-32500D03*
X12750Y-32500D03*
X13750Y-32500D03*
X14750Y-32500D03*
X15750Y-32500D03*
X16750Y-32500D03*
X17750Y-32500D03*
X10750Y-31500D03*
X11750Y-31500D03*
X12750Y-31500D03*
X13750Y-31500D03*
X14750Y-31500D03*
X15750Y-31500D03*
X16750Y-31500D03*
X17750Y-31500D03*
X10750Y-30500D03*
X11750Y-30500D03*
X12750Y-30500D03*
X13750Y-30500D03*
X14750Y-30500D03*
X15750Y-30500D03*
X16750Y-30500D03*
X17750Y-30500D03*
X10750Y-29500D03*
X11750Y-29500D03*
X12750Y-29500D03*
X13750Y-29500D03*
X14750Y-29500D03*
X15750Y-29500D03*
X16750Y-29500D03*
X17750Y-29500D03*
X10750Y-33500D03*
X11750Y-33500D03*
X12750Y-33500D03*
X13750Y-33500D03*
X14750Y-33500D03*
X15750Y-33500D03*
X16750Y-33500D03*
X17750Y-33500D03*
G54D17*
X14500Y-29000D03*
X15000Y-29000D03*
X15500Y-29000D03*
X16000Y-29000D03*
X16500Y-29000D03*
X17000Y-29000D03*
X17500Y-29000D03*
X18000Y-29000D03*
M02*
