M48
METRIC,TZ
T1C0.600
T2C1.016
T3C3.200
%
G90
G05
T1
X026670Y-066040
X026670Y-071120
X026670Y-073660
X026670Y-076200
X026670Y-078740
X026670Y-081280
X026670Y-083820
X026670Y-093980
X026670Y-096520
X026670Y-099060
X026670Y-101600
X026670Y-104140
X026670Y-106680
X026670Y-111760
X027940Y-066040
X027940Y-071120
X027940Y-073660
X027940Y-076200
X027940Y-078740
X027940Y-081280
X027940Y-083820
X027940Y-093980
X027940Y-096520
X027940Y-099060
X027940Y-101600
X027940Y-104140
X027940Y-106680
X027940Y-111760
X029210Y-066040
X029210Y-071120
X029210Y-073660
X029210Y-076200
X029210Y-078740
X029210Y-081280
X029210Y-083820
X029210Y-093980
X029210Y-096520
X029210Y-099060
X029210Y-101600
X029210Y-104140
X029210Y-106680
X029210Y-111760
X030480Y-066040
X030480Y-071120
X030480Y-073660
X030480Y-076200
X030480Y-078740
X030480Y-081280
X030480Y-083820
X030480Y-093980
X030480Y-096520
X030480Y-099060
X030480Y-101600
X030480Y-104140
X030480Y-106680
X030480Y-111760
X031750Y-066040
X031750Y-071120
X031750Y-073660
X031750Y-076200
X031750Y-078740
X031750Y-081280
X031750Y-083820
X031750Y-093980
X031750Y-096520
X031750Y-099060
X031750Y-101600
X031750Y-104140
X031750Y-106680
X031750Y-111760
X033020Y-066040
X033020Y-071120
X033020Y-073660
X033020Y-076200
X033020Y-078740
X033020Y-081280
X033020Y-083820
X033020Y-093980
X033020Y-096520
X033020Y-099060
X033020Y-101600
X033020Y-104140
X033020Y-106680
X033020Y-111760
X034290Y-066040
X034290Y-071120
X034290Y-073660
X034290Y-076200
X034290Y-078740
X034290Y-081280
X034290Y-083820
X034290Y-093980
X034290Y-096520
X034290Y-099060
X034290Y-101600
X034290Y-104140
X034290Y-106680
X034290Y-111760
X035560Y-066040
X035560Y-071120
X035560Y-073660
X035560Y-076200
X035560Y-078740
X035560Y-081280
X035560Y-083820
X035560Y-093980
X035560Y-096520
X035560Y-099060
X035560Y-101600
X035560Y-104140
X035560Y-106680
X035560Y-111760
X036830Y-066040
X036830Y-071120
X036830Y-073660
X036830Y-076200
X036830Y-078740
X036830Y-081280
X036830Y-083820
X036830Y-093980
X036830Y-096520
X036830Y-099060
X036830Y-101600
X036830Y-104140
X036830Y-106680
X036830Y-111760
X038100Y-066040
X038100Y-071120
X038100Y-073660
X038100Y-076200
X038100Y-078740
X038100Y-081280
X038100Y-083820
X038100Y-093980
X038100Y-096520
X038100Y-099060
X038100Y-101600
X038100Y-104140
X038100Y-106680
X038100Y-111760
X039370Y-066040
X039370Y-071120
X039370Y-073660
X039370Y-076200
X039370Y-078740
X039370Y-081280
X039370Y-083820
X039370Y-093980
X039370Y-096520
X039370Y-099060
X039370Y-101600
X039370Y-104140
X039370Y-106680
X039370Y-111760
X040640Y-066040
X040640Y-071120
X040640Y-073660
X040640Y-076200
X040640Y-078740
X040640Y-081280
X040640Y-083820
X040640Y-093980
X040640Y-096520
X040640Y-099060
X040640Y-101600
X040640Y-104140
X040640Y-106680
X040640Y-111760
X041910Y-066040
X041910Y-071120
X041910Y-073660
X041910Y-076200
X041910Y-078740
X041910Y-081280
X041910Y-083820
X041910Y-093980
X041910Y-096520
X041910Y-099060
X041910Y-101600
X041910Y-104140
X041910Y-106680
X041910Y-111760
X043180Y-066040
X043180Y-071120
X043180Y-073660
X043180Y-076200
X043180Y-078740
X043180Y-081280
X043180Y-083820
X043180Y-093980
X043180Y-096520
X043180Y-099060
X043180Y-101600
X043180Y-104140
X043180Y-106680
X043180Y-111760
X044450Y-066040
X044450Y-071120
X044450Y-073660
X044450Y-076200
X044450Y-078740
X044450Y-081280
X044450Y-083820
X044450Y-093980
X044450Y-096520
X044450Y-099060
X044450Y-101600
X044450Y-104140
X044450Y-106680
X044450Y-111760
X045720Y-066040
X045720Y-071120
X045720Y-073660
X045720Y-076200
X045720Y-078740
X045720Y-081280
X045720Y-083820
X045720Y-093980
X045720Y-096520
X045720Y-099060
X045720Y-101600
X045720Y-104140
X045720Y-106680
X045720Y-111760
X046990Y-066040
X046990Y-071120
X046990Y-073660
X046990Y-076200
X046990Y-078740
X046990Y-081280
X046990Y-083820
X046990Y-093980
X046990Y-096520
X046990Y-099060
X046990Y-101600
X046990Y-104140
X046990Y-106680
X046990Y-111760
X048260Y-066040
X048260Y-071120
X048260Y-073660
X048260Y-076200
X048260Y-078740
X048260Y-081280
X048260Y-083820
X048260Y-093980
X048260Y-096520
X048260Y-099060
X048260Y-101600
X048260Y-104140
X048260Y-106680
X048260Y-111760
X049530Y-066040
X049530Y-071120
X049530Y-073660
X049530Y-076200
X049530Y-078740
X049530Y-081280
X049530Y-083820
X049530Y-093980
X049530Y-096520
X049530Y-099060
X049530Y-101600
X049530Y-104140
X049530Y-106680
X049530Y-111760
X050800Y-066040
X050800Y-071120
X050800Y-073660
X050800Y-076200
X050800Y-078740
X050800Y-081280
X050800Y-083820
X050800Y-093980
X050800Y-096520
X050800Y-099060
X050800Y-101600
X050800Y-104140
X050800Y-106680
X050800Y-111760
X052070Y-066040
X052070Y-071120
X052070Y-073660
X052070Y-076200
X052070Y-078740
X052070Y-081280
X052070Y-083820
X052070Y-093980
X052070Y-096520
X052070Y-099060
X052070Y-101600
X052070Y-104140
X052070Y-106680
X052070Y-111760
X053340Y-066040
X053340Y-071120
X053340Y-073660
X053340Y-076200
X053340Y-078740
X053340Y-081280
X053340Y-083820
X053340Y-093980
X053340Y-096520
X053340Y-099060
X053340Y-101600
X053340Y-104140
X053340Y-106680
X053340Y-111760
X054610Y-066040
X054610Y-071120
X054610Y-073660
X054610Y-076200
X054610Y-078740
X054610Y-081280
X054610Y-083820
X054610Y-093980
X054610Y-096520
X054610Y-099060
X054610Y-101600
X054610Y-104140
X054610Y-106680
X054610Y-111760
X055880Y-066040
X055880Y-071120
X055880Y-073660
X055880Y-076200
X055880Y-078740
X055880Y-081280
X055880Y-083820
X055880Y-093980
X055880Y-096520
X055880Y-099060
X055880Y-101600
X055880Y-104140
X055880Y-106680
X055880Y-111760
X057150Y-066040
X057150Y-071120
X057150Y-073660
X057150Y-076200
X057150Y-078740
X057150Y-081280
X057150Y-083820
X057150Y-093980
X057150Y-096520
X057150Y-099060
X057150Y-101600
X057150Y-104140
X057150Y-106680
X057150Y-111760
X058420Y-066040
X058420Y-071120
X058420Y-073660
X058420Y-076200
X058420Y-078740
X058420Y-081280
X058420Y-083820
X058420Y-093980
X058420Y-096520
X058420Y-099060
X058420Y-101600
X058420Y-104140
X058420Y-106680
X058420Y-111760
X059690Y-066040
X059690Y-071120
X059690Y-073660
X059690Y-076200
X059690Y-078740
X059690Y-081280
X059690Y-083820
X059690Y-093980
X059690Y-096520
X059690Y-099060
X059690Y-101600
X059690Y-104140
X059690Y-106680
X059690Y-111760
X060960Y-066040
X060960Y-071120
X060960Y-073660
X060960Y-076200
X060960Y-078740
X060960Y-081280
X060960Y-083820
X060960Y-093980
X060960Y-096520
X060960Y-099060
X060960Y-101600
X060960Y-104140
X060960Y-106680
X060960Y-111760
X062230Y-066040
X062230Y-071120
X062230Y-073660
X062230Y-076200
X062230Y-078740
X062230Y-081280
X062230Y-083820
X062230Y-093980
X062230Y-096520
X062230Y-099060
X062230Y-101600
X062230Y-104140
X062230Y-106680
X062230Y-111760
X063500Y-066040
X063500Y-071120
X063500Y-073660
X063500Y-076200
X063500Y-078740
X063500Y-081280
X063500Y-083820
X063500Y-093980
X063500Y-096520
X063500Y-099060
X063500Y-101600
X063500Y-104140
X063500Y-106680
X063500Y-111760
X064770Y-066040
X064770Y-071120
X064770Y-073660
X064770Y-076200
X064770Y-078740
X064770Y-081280
X064770Y-083820
X064770Y-093980
X064770Y-096520
X064770Y-099060
X064770Y-101600
X064770Y-104140
X064770Y-106680
X064770Y-111760
X066040Y-066040
X066040Y-071120
X066040Y-073660
X066040Y-076200
X066040Y-078740
X066040Y-081280
X066040Y-083820
X066040Y-093980
X066040Y-096520
X066040Y-099060
X066040Y-101600
X066040Y-104140
X066040Y-106680
X066040Y-111760
T2
X027305Y-067310
X027305Y-069850
X027305Y-074930
X027305Y-077470
X027305Y-080010
X027305Y-082550
X027305Y-085090
X027305Y-092710
X027305Y-095250
X027305Y-097790
X027305Y-100330
X027305Y-102870
X027305Y-107950
X027305Y-110490
X029845Y-067310
X029845Y-069850
X029845Y-074930
X029845Y-077470
X029845Y-080010
X029845Y-082550
X029845Y-085090
X029845Y-092710
X029845Y-095250
X029845Y-097790
X029845Y-100330
X029845Y-102870
X029845Y-107950
X029845Y-110490
X032385Y-067310
X032385Y-069850
X032385Y-074930
X032385Y-077470
X032385Y-080010
X032385Y-082550
X032385Y-085090
X032385Y-092710
X032385Y-095250
X032385Y-097790
X032385Y-100330
X032385Y-102870
X032385Y-107950
X032385Y-110490
X034925Y-067310
X034925Y-069850
X034925Y-074930
X034925Y-077470
X034925Y-080010
X034925Y-082550
X034925Y-085090
X034925Y-092710
X034925Y-095250
X034925Y-097790
X034925Y-100330
X034925Y-102870
X034925Y-107950
X034925Y-110490
X037465Y-067310
X037465Y-069850
X037465Y-074930
X037465Y-077470
X037465Y-080010
X037465Y-082550
X037465Y-085090
X037465Y-092710
X037465Y-095250
X037465Y-097790
X037465Y-100330
X037465Y-102870
X037465Y-107950
X037465Y-110490
X040005Y-067310
X040005Y-069850
X040005Y-074930
X040005Y-077470
X040005Y-080010
X040005Y-082550
X040005Y-085090
X040005Y-092710
X040005Y-095250
X040005Y-097790
X040005Y-100330
X040005Y-102870
X040005Y-107950
X040005Y-110490
X042545Y-067310
X042545Y-069850
X042545Y-074930
X042545Y-077470
X042545Y-080010
X042545Y-082550
X042545Y-085090
X042545Y-092710
X042545Y-095250
X042545Y-097790
X042545Y-100330
X042545Y-102870
X042545Y-107950
X042545Y-110490
X045085Y-067310
X045085Y-069850
X045085Y-074930
X045085Y-077470
X045085Y-080010
X045085Y-082550
X045085Y-085090
X045085Y-092710
X045085Y-095250
X045085Y-097790
X045085Y-100330
X045085Y-102870
X045085Y-107950
X045085Y-110490
X047625Y-067310
X047625Y-069850
X047625Y-074930
X047625Y-077470
X047625Y-080010
X047625Y-082550
X047625Y-085090
X047625Y-092710
X047625Y-095250
X047625Y-097790
X047625Y-100330
X047625Y-102870
X047625Y-107950
X047625Y-110490
X050165Y-067310
X050165Y-069850
X050165Y-074930
X050165Y-077470
X050165Y-080010
X050165Y-082550
X050165Y-085090
X050165Y-092710
X050165Y-095250
X050165Y-097790
X050165Y-100330
X050165Y-102870
X050165Y-107950
X050165Y-110490
X052705Y-067310
X052705Y-069850
X052705Y-074930
X052705Y-077470
X052705Y-080010
X052705Y-082550
X052705Y-085090
X052705Y-092710
X052705Y-095250
X052705Y-097790
X052705Y-100330
X052705Y-102870
X052705Y-107950
X052705Y-110490
X055245Y-067310
X055245Y-069850
X055245Y-074930
X055245Y-077470
X055245Y-080010
X055245Y-082550
X055245Y-085090
X055245Y-092710
X055245Y-095250
X055245Y-097790
X055245Y-100330
X055245Y-102870
X055245Y-107950
X055245Y-110490
X057785Y-067310
X057785Y-069850
X057785Y-074930
X057785Y-077470
X057785Y-080010
X057785Y-082550
X057785Y-085090
X057785Y-092710
X057785Y-095250
X057785Y-097790
X057785Y-100330
X057785Y-102870
X057785Y-107950
X057785Y-110490
X060325Y-067310
X060325Y-069850
X060325Y-074930
X060325Y-077470
X060325Y-080010
X060325Y-082550
X060325Y-085090
X060325Y-092710
X060325Y-095250
X060325Y-097790
X060325Y-100330
X060325Y-102870
X060325Y-107950
X060325Y-110490
X062865Y-067310
X062865Y-069850
X062865Y-074930
X062865Y-077470
X062865Y-080010
X062865Y-082550
X062865Y-085090
X062865Y-092710
X062865Y-095250
X062865Y-097790
X062865Y-100330
X062865Y-102870
X062865Y-107950
X062865Y-110490
X065405Y-067310
X065405Y-069850
X065405Y-074930
X065405Y-077470
X065405Y-080010
X065405Y-082550
X065405Y-085090
X065405Y-092710
X065405Y-095250
X065405Y-097790
X065405Y-100330
X065405Y-102870
X065405Y-107950
X065405Y-110490
T3
X024855Y-088900
X067855Y-088900
T0
M30
